G04                                                      *
G04 Greetings!                                           *
G04 This Gerber was generated by PCBmodE, an open source *
G04 PCB design software. Get it here:                    *
G04                                                      *
G04   http://pcbmode.com                                 *
G04                                                      *
G04 Also visit                                           *
G04                                                      *
G04   http://boldport.com                                *
G04                                                      *
G04 and follow @boldport / @pcbmode for updates!         *
G04                                                      *

G04 leading zeros omitted (L); absolute data (A); 6 integer digits and 6 fractional digits *
%FSLAX66Y66*%

G04 mode (MO): millimeters (MM) *
%MOMM*%

G04 Aperture definitions *
%ADD10C,0.001X*%
%ADD11C,0.001X*%

%LPD*%
G36*
G01X48241763Y-11725000D02*
G01X49441763Y-11725000D01*
G01X49441763Y-12925000D01*
G01X48241763Y-12925000D01*
G01X48241763Y-11725000D01*
G37*
G36*
G01X49691763Y-11876758D02*
G01X49691763Y-11876758D01*
G01X49735122Y-11873242D01*
G01X49735122Y-11873242D01*
G01X49786514Y-11905441D01*
G01X49789029Y-11918945D01*
G01X49789029Y-11918945D01*
G01X49788745Y-11964271D01*
G01X49788203Y-12034544D01*
G01X49787862Y-12076774D01*
G01X49787857Y-12077442D01*
G01X49787857Y-12077442D01*
G01X49787122Y-12174262D01*
G01X49786785Y-12230763D01*
G01X49786690Y-12255552D01*
G01X49786685Y-12258789D01*
G01X49786685Y-12258789D01*
G01X49855365Y-12220803D01*
G01X49916715Y-12201985D01*
G01X49959367Y-12195602D01*
G01X49972427Y-12194922D01*
G01X49972427Y-12194922D01*
G01X50046614Y-12209603D01*
G01X50097956Y-12238966D01*
G01X50122752Y-12260988D01*
G01X50124478Y-12262891D01*
G01X50124478Y-12262891D01*
G01X50157186Y-12320499D01*
G01X50174581Y-12384369D01*
G01X50181499Y-12437879D01*
G01X50182775Y-12464408D01*
G01X50182779Y-12465039D01*
G01X50182779Y-12465039D01*
G01X50174720Y-12545456D01*
G01X50156085Y-12610638D01*
G01X50135183Y-12657513D01*
G01X50120325Y-12683014D01*
G01X50117740Y-12686817D01*
G01X50117740Y-12686817D01*
G01X50063476Y-12737276D01*
G01X50004287Y-12764112D01*
G01X49955094Y-12774784D01*
G01X49930816Y-12776752D01*
G01X49930240Y-12776758D01*
G01X49930240Y-12776758D01*
G01X49852471Y-12767491D01*
G01X49787512Y-12745725D01*
G01X49738719Y-12720511D01*
G01X49709443Y-12700900D01*
G01X49702310Y-12695313D01*
G01X49702310Y-12695313D01*
G01X49706374Y-12640825D01*
G01X49708947Y-12573428D01*
G01X49710368Y-12507494D01*
G01X49710972Y-12457394D01*
G01X49711099Y-12437500D01*
G01X49711099Y-12437500D01*
G01X49711099Y-12437500D01*
G01X49710626Y-12376138D01*
G01X49709449Y-12306754D01*
G01X49707931Y-12238244D01*
G01X49706433Y-12179502D01*
G01X49705320Y-12139425D01*
G01X49704947Y-12126660D01*
G01X49704947Y-12126660D01*
G01X49701213Y-12022258D01*
G01X49697648Y-11950481D01*
G01X49694632Y-11905914D01*
G01X49692544Y-11883145D01*
G01X49691763Y-11876758D01*
G01X49691763Y-11876758D01*
G37*
%LPC*%
G36*
G01X49785513Y-12647266D02*
G01X49785513Y-12647266D01*
G01X49850445Y-12688198D01*
G01X49906929Y-12705780D01*
G01X49938923Y-12709883D01*
G01X49941372Y-12709961D01*
G01X49941372Y-12709961D01*
G01X50009729Y-12690481D01*
G01X50048887Y-12655755D01*
G01X50059439Y-12640820D01*
G01X50059439Y-12640820D01*
G01X50085039Y-12574892D01*
G01X50095910Y-12514595D01*
G01X50098365Y-12479485D01*
G01X50098404Y-12476758D01*
G01X50098404Y-12476758D01*
G01X50089101Y-12394408D01*
G01X50070497Y-12341294D01*
G01X50056543Y-12317226D01*
G01X50055337Y-12315625D01*
G01X50055337Y-12315625D01*
G01X49997282Y-12273256D01*
G01X49953046Y-12262616D01*
G01X49947232Y-12262305D01*
G01X49945474Y-12262305D01*
G01X49945474Y-12262305D01*
G01X49876134Y-12275184D01*
G01X49821835Y-12301474D01*
G01X49791408Y-12322656D01*
G01X49787857Y-12325586D01*
G01X49787857Y-12325586D01*
G01X49788278Y-12384427D01*
G01X49788443Y-12402637D01*
G01X49788443Y-12402637D01*
G01X49788955Y-12476575D01*
G01X49789029Y-12503711D01*
G01X49789029Y-12503711D01*
G01X49789029Y-12503711D01*
G01X49788038Y-12586787D01*
G01X49786272Y-12634420D01*
G01X49785513Y-12647266D01*
G37*
%LPD*%
G36*
G01X50282974Y-12486719D02*
G01X50282974Y-12486719D01*
G01X50291904Y-12407536D01*
G01X50312554Y-12345209D01*
G01X50335716Y-12301534D01*
G01X50352180Y-12278309D01*
G01X50355044Y-12274903D01*
G01X50355044Y-12274903D01*
G01X50412402Y-12230032D01*
G01X50471786Y-12206168D01*
G01X50519829Y-12196678D01*
G01X50543167Y-12194927D01*
G01X50543716Y-12194922D01*
G01X50543716Y-12194922D01*
G01X50620209Y-12206531D01*
G01X50678666Y-12232514D01*
G01X50716951Y-12259603D01*
G01X50732924Y-12274529D01*
G01X50733267Y-12274903D01*
G01X50733267Y-12274903D01*
G01X50770982Y-12333263D01*
G01X50792439Y-12394947D01*
G01X50802223Y-12448218D01*
G01X50804920Y-12481341D01*
G01X50805044Y-12486719D01*
G01X50805044Y-12486719D01*
G01X50795400Y-12568996D01*
G01X50773453Y-12632610D01*
G01X50749684Y-12675637D01*
G01X50734572Y-12696151D01*
G01X50733267Y-12697656D01*
G01X50733267Y-12697656D01*
G01X50675903Y-12742034D01*
G01X50616227Y-12765636D01*
G01X50567821Y-12775022D01*
G01X50544271Y-12776753D01*
G01X50543716Y-12776758D01*
G01X50543716Y-12776758D01*
G01X50467839Y-12765276D01*
G01X50409636Y-12739579D01*
G01X50371391Y-12712788D01*
G01X50355388Y-12698026D01*
G01X50355044Y-12697656D01*
G01X50355044Y-12697656D01*
G01X50317175Y-12639758D01*
G01X50295631Y-12578337D01*
G01X50285807Y-12525185D01*
G01X50283099Y-12492095D01*
G01X50282974Y-12486719D01*
G37*
%LPC*%
G36*
G01X50367349Y-12469727D02*
G01X50367349Y-12469727D01*
G01X50376260Y-12547475D01*
G01X50394812Y-12604485D01*
G01X50410735Y-12636281D01*
G01X50413931Y-12641406D01*
G01X50413931Y-12641406D01*
G01X50467705Y-12689342D01*
G01X50519571Y-12707267D01*
G01X50543691Y-12709961D01*
G01X50543716Y-12709961D01*
G01X50543716Y-12709961D01*
G01X50617702Y-12694113D01*
G01X50661993Y-12665861D01*
G01X50674380Y-12653711D01*
G01X50674380Y-12653711D01*
G01X50706516Y-12592492D01*
G01X50719068Y-12534038D01*
G01X50721252Y-12504153D01*
G01X50721255Y-12503711D01*
G01X50721255Y-12503711D01*
G01X50712064Y-12425851D01*
G01X50692928Y-12368608D01*
G01X50676505Y-12336611D01*
G01X50673208Y-12331445D01*
G01X50673208Y-12331445D01*
G01X50618858Y-12283100D01*
G01X50567448Y-12265022D01*
G01X50543740Y-12262305D01*
G01X50543716Y-12262305D01*
G01X50543716Y-12262305D01*
G01X50469896Y-12278318D01*
G01X50425899Y-12306864D01*
G01X50413638Y-12319141D01*
G01X50413638Y-12319141D01*
G01X50381904Y-12380762D01*
G01X50369509Y-12439373D01*
G01X50367352Y-12469285D01*
G01X50367349Y-12469727D01*
G37*
%LPD*%
G36*
G01X50858951Y-12250000D02*
G01X50858951Y-12250000D01*
G01X50876822Y-12214844D01*
G01X50876822Y-12214844D01*
G01X50933829Y-12207279D01*
G01X50938052Y-12207227D01*
G01X50972036Y-12207227D01*
G01X50972036Y-12207227D01*
G01X50968546Y-12128459D01*
G01X50965217Y-12081480D01*
G01X50964419Y-12072461D01*
G01X50964419Y-12072461D01*
G01X51004263Y-12068945D01*
G01X51004263Y-12068945D01*
G01X51058534Y-12099866D01*
G01X51061685Y-12114649D01*
G01X51061685Y-12114649D01*
G01X51059061Y-12172961D01*
G01X51056997Y-12208399D01*
G01X51056997Y-12208399D01*
G01X51152762Y-12207392D01*
G01X51214908Y-12205176D01*
G01X51248489Y-12202960D01*
G01X51258560Y-12201953D01*
G01X51258560Y-12201953D01*
G01X51258560Y-12201953D01*
G01X51263247Y-12230078D01*
G01X51263247Y-12230078D01*
G01X51250650Y-12262305D01*
G01X51250650Y-12262305D01*
G01X51210513Y-12271680D01*
G01X51210513Y-12271680D01*
G01X51152568Y-12272499D01*
G01X51087066Y-12272806D01*
G01X51054688Y-12272852D01*
G01X51054654Y-12272852D01*
G01X51054654Y-12272852D01*
G01X51053555Y-12347049D01*
G01X51052868Y-12417726D01*
G01X51052496Y-12478446D01*
G01X51052342Y-12522770D01*
G01X51052310Y-12544260D01*
G01X51052310Y-12545313D01*
G01X51052310Y-12545313D01*
G01X51059235Y-12631013D01*
G01X51071264Y-12672473D01*
G01X51075747Y-12680957D01*
G01X51075747Y-12680957D01*
G01X51130815Y-12711067D01*
G01X51153091Y-12713477D01*
G01X51153091Y-12713477D01*
G01X51217728Y-12693680D01*
G01X51239224Y-12677149D01*
G01X51239224Y-12677149D01*
G01X51260904Y-12720508D01*
G01X51260904Y-12720508D01*
G01X51230171Y-12761064D01*
G01X51229849Y-12761231D01*
G01X51229849Y-12761231D01*
G01X51168141Y-12776092D01*
G01X51154263Y-12776758D01*
G01X51154263Y-12776758D01*
G01X51075991Y-12762881D01*
G01X51030199Y-12736304D01*
G01X51013544Y-12719604D01*
G01X51013345Y-12719336D01*
G01X51013345Y-12719336D01*
G01X50987455Y-12661490D01*
G01X50975555Y-12599443D01*
G01X50972206Y-12555731D01*
G01X50972036Y-12547656D01*
G01X50972036Y-12547656D01*
G01X50973135Y-12440258D01*
G01X50973822Y-12363130D01*
G01X50974194Y-12312148D01*
G01X50974348Y-12283190D01*
G01X50974380Y-12272132D01*
G01X50974380Y-12271680D01*
G01X50974380Y-12271680D01*
G01X50925353Y-12275417D01*
G01X50865505Y-12280223D01*
G01X50862466Y-12280469D01*
G01X50862466Y-12280469D01*
G01X50858951Y-12250000D01*
G37*
G36*
G01X51280826Y-12250000D02*
G01X51280826Y-12250000D01*
G01X51298697Y-12214844D01*
G01X51298697Y-12214844D01*
G01X51355704Y-12207279D01*
G01X51359927Y-12207227D01*
G01X51393911Y-12207227D01*
G01X51393911Y-12207227D01*
G01X51390421Y-12128459D01*
G01X51387092Y-12081480D01*
G01X51386294Y-12072461D01*
G01X51386294Y-12072461D01*
G01X51426138Y-12068945D01*
G01X51426138Y-12068945D01*
G01X51480409Y-12099866D01*
G01X51483560Y-12114649D01*
G01X51483560Y-12114649D01*
G01X51480936Y-12172961D01*
G01X51478872Y-12208399D01*
G01X51478872Y-12208399D01*
G01X51574637Y-12207392D01*
G01X51636783Y-12205176D01*
G01X51670364Y-12202960D01*
G01X51680435Y-12201953D01*
G01X51680435Y-12201953D01*
G01X51680435Y-12201953D01*
G01X51685122Y-12230078D01*
G01X51685122Y-12230078D01*
G01X51672525Y-12262305D01*
G01X51672525Y-12262305D01*
G01X51632388Y-12271680D01*
G01X51632388Y-12271680D01*
G01X51574443Y-12272499D01*
G01X51508941Y-12272806D01*
G01X51476563Y-12272852D01*
G01X51476529Y-12272852D01*
G01X51476529Y-12272852D01*
G01X51475430Y-12347049D01*
G01X51474743Y-12417726D01*
G01X51474371Y-12478446D01*
G01X51474217Y-12522770D01*
G01X51474185Y-12544260D01*
G01X51474185Y-12545313D01*
G01X51474185Y-12545313D01*
G01X51481110Y-12631013D01*
G01X51493139Y-12672473D01*
G01X51497622Y-12680957D01*
G01X51497622Y-12680957D01*
G01X51552690Y-12711067D01*
G01X51574966Y-12713477D01*
G01X51574966Y-12713477D01*
G01X51639603Y-12693680D01*
G01X51661099Y-12677149D01*
G01X51661099Y-12677149D01*
G01X51682779Y-12720508D01*
G01X51682779Y-12720508D01*
G01X51652046Y-12761064D01*
G01X51651724Y-12761231D01*
G01X51651724Y-12761231D01*
G01X51590016Y-12776092D01*
G01X51576138Y-12776758D01*
G01X51576138Y-12776758D01*
G01X51497866Y-12762881D01*
G01X51452074Y-12736304D01*
G01X51435419Y-12719604D01*
G01X51435220Y-12719336D01*
G01X51435220Y-12719336D01*
G01X51409330Y-12661490D01*
G01X51397430Y-12599443D01*
G01X51394081Y-12555731D01*
G01X51393911Y-12547656D01*
G01X51393911Y-12547656D01*
G01X51395010Y-12440258D01*
G01X51395697Y-12363130D01*
G01X51396069Y-12312148D01*
G01X51396223Y-12283190D01*
G01X51396255Y-12272132D01*
G01X51396255Y-12271680D01*
G01X51396255Y-12271680D01*
G01X51347228Y-12275417D01*
G01X51287380Y-12280223D01*
G01X51284341Y-12280469D01*
G01X51284341Y-12280469D01*
G01X51280826Y-12250000D01*
G37*
G36*
G01X51756607Y-12486719D02*
G01X51756607Y-12486719D01*
G01X51765537Y-12407536D01*
G01X51786187Y-12345209D01*
G01X51809348Y-12301534D01*
G01X51825813Y-12278309D01*
G01X51828677Y-12274903D01*
G01X51828677Y-12274903D01*
G01X51886035Y-12230032D01*
G01X51945418Y-12206168D01*
G01X51993461Y-12196678D01*
G01X52016800Y-12194927D01*
G01X52017349Y-12194922D01*
G01X52017349Y-12194922D01*
G01X52093841Y-12206531D01*
G01X52152299Y-12232514D01*
G01X52190584Y-12259603D01*
G01X52206557Y-12274529D01*
G01X52206900Y-12274903D01*
G01X52206900Y-12274903D01*
G01X52244615Y-12333263D01*
G01X52266072Y-12394947D01*
G01X52275856Y-12448218D01*
G01X52278553Y-12481341D01*
G01X52278677Y-12486719D01*
G01X52278677Y-12486719D01*
G01X52269033Y-12568996D01*
G01X52247086Y-12632610D01*
G01X52223317Y-12675637D01*
G01X52208204Y-12696151D01*
G01X52206900Y-12697656D01*
G01X52206900Y-12697656D01*
G01X52149536Y-12742034D01*
G01X52089859Y-12765636D01*
G01X52041454Y-12775022D01*
G01X52017904Y-12776753D01*
G01X52017349Y-12776758D01*
G01X52017349Y-12776758D01*
G01X51941472Y-12765276D01*
G01X51883268Y-12739579D01*
G01X51845023Y-12712788D01*
G01X51829021Y-12698026D01*
G01X51828677Y-12697656D01*
G01X51828677Y-12697656D01*
G01X51790808Y-12639758D01*
G01X51769263Y-12578337D01*
G01X51759439Y-12525185D01*
G01X51756731Y-12492095D01*
G01X51756607Y-12486719D01*
G37*
%LPC*%
G36*
G01X51840982Y-12469727D02*
G01X51840982Y-12469727D01*
G01X51849893Y-12547475D01*
G01X51868445Y-12604485D01*
G01X51884368Y-12636281D01*
G01X51887564Y-12641406D01*
G01X51887564Y-12641406D01*
G01X51941338Y-12689342D01*
G01X51993204Y-12707267D01*
G01X52017324Y-12709961D01*
G01X52017349Y-12709961D01*
G01X52017349Y-12709961D01*
G01X52091334Y-12694113D01*
G01X52135626Y-12665861D01*
G01X52148013Y-12653711D01*
G01X52148013Y-12653711D01*
G01X52180149Y-12592492D01*
G01X52192701Y-12534038D01*
G01X52194885Y-12504153D01*
G01X52194888Y-12503711D01*
G01X52194888Y-12503711D01*
G01X52185697Y-12425851D01*
G01X52166561Y-12368608D01*
G01X52150138Y-12336611D01*
G01X52146841Y-12331445D01*
G01X52146841Y-12331445D01*
G01X52092491Y-12283100D01*
G01X52041080Y-12265022D01*
G01X52017373Y-12262305D01*
G01X52017349Y-12262305D01*
G01X52017349Y-12262305D01*
G01X51943529Y-12278318D01*
G01X51899532Y-12306864D01*
G01X51887271Y-12319141D01*
G01X51887271Y-12319141D01*
G01X51855537Y-12380762D01*
G01X51843141Y-12439373D01*
G01X51840985Y-12469285D01*
G01X51840982Y-12469727D01*
G37*
%LPD*%
G36*
G01X52404654Y-12213086D02*
G01X52404654Y-12213086D01*
G01X52448013Y-12203711D01*
G01X52448013Y-12203711D01*
G01X52498072Y-12238061D01*
G01X52503091Y-12263477D01*
G01X52503091Y-12263477D01*
G01X52561172Y-12227661D01*
G01X52591568Y-12214258D01*
G01X52591568Y-12214258D01*
G01X52591568Y-12214258D01*
G01X52660708Y-12197339D01*
G01X52691177Y-12194922D01*
G01X52691177Y-12194922D01*
G01X52691177Y-12194922D01*
G01X52765577Y-12212746D01*
G01X52808155Y-12247645D01*
G01X52824252Y-12271760D01*
G01X52824771Y-12272852D01*
G01X52824771Y-12272852D01*
G01X52878730Y-12235024D01*
G01X52914687Y-12218018D01*
G01X52915298Y-12217774D01*
G01X52915298Y-12217774D01*
G01X52985826Y-12198724D01*
G01X53023659Y-12194945D01*
G01X53025161Y-12194922D01*
G01X53025161Y-12194922D01*
G01X53095493Y-12211395D01*
G01X53129192Y-12233464D01*
G01X53130923Y-12235059D01*
G01X53130923Y-12235059D01*
G01X53161463Y-12292715D01*
G01X53170930Y-12348621D01*
G01X53171646Y-12364258D01*
G01X53171646Y-12364258D01*
G01X53170376Y-12418473D01*
G01X53169595Y-12450684D01*
G01X53169595Y-12450684D01*
G01X53167987Y-12531867D01*
G01X53167561Y-12572943D01*
G01X53167544Y-12578125D01*
G01X53167544Y-12578125D01*
G01X53171467Y-12660728D01*
G01X53179635Y-12720697D01*
G01X53186645Y-12753864D01*
G01X53188052Y-12759180D01*
G01X53188052Y-12759180D01*
G01X53141177Y-12768555D01*
G01X53141177Y-12768555D01*
G01X53096353Y-12754785D01*
G01X53096353Y-12754785D01*
G01X53082583Y-12707617D01*
G01X53082583Y-12707617D01*
G01X53082583Y-12707617D01*
G01X53083387Y-12650627D01*
G01X53084962Y-12584183D01*
G01X53086050Y-12544106D01*
G01X53086099Y-12542383D01*
G01X53086099Y-12542383D01*
G01X53088649Y-12447209D01*
G01X53089520Y-12404964D01*
G01X53089615Y-12396485D01*
G01X53089615Y-12396485D01*
G01X53076816Y-12323205D01*
G01X53061781Y-12295472D01*
G01X53061490Y-12295117D01*
G01X53061490Y-12295117D01*
G01X53004762Y-12264251D01*
G01X52987661Y-12262305D01*
G01X52987661Y-12262305D01*
G01X52922749Y-12276778D01*
G01X52868245Y-12305117D01*
G01X52839966Y-12324699D01*
G01X52838833Y-12325586D01*
G01X52838833Y-12325586D01*
G01X52840022Y-12417196D01*
G01X52840720Y-12486413D01*
G01X52841058Y-12533792D01*
G01X52841167Y-12559885D01*
G01X52841177Y-12565820D01*
G01X52841177Y-12565820D01*
G01X52842454Y-12648826D01*
G01X52845214Y-12712692D01*
G01X52847850Y-12752534D01*
G01X52848794Y-12763867D01*
G01X52848794Y-12763867D01*
G01X52807779Y-12767383D01*
G01X52807779Y-12767383D01*
G01X52756387Y-12735185D01*
G01X52753872Y-12721680D01*
G01X52753872Y-12721680D01*
G01X52755630Y-12673340D01*
G01X52755630Y-12673340D01*
G01X52757492Y-12609405D01*
G01X52758472Y-12559466D01*
G01X52758560Y-12554102D01*
G01X52758560Y-12554102D01*
G01X52759363Y-12482458D01*
G01X52759677Y-12424250D01*
G01X52759732Y-12396873D01*
G01X52759732Y-12396485D01*
G01X52759732Y-12396485D01*
G01X52740818Y-12314503D01*
G01X52700683Y-12275365D01*
G01X52664238Y-12263225D01*
G01X52654263Y-12262305D01*
G01X52654263Y-12262305D01*
G01X52590137Y-12277449D01*
G01X52535954Y-12307099D01*
G01X52507739Y-12327588D01*
G01X52506607Y-12328516D01*
G01X52506607Y-12328516D01*
G01X52507838Y-12423562D01*
G01X52508539Y-12493585D01*
G01X52508858Y-12539595D01*
G01X52508946Y-12562604D01*
G01X52508951Y-12565820D01*
G01X52508951Y-12565820D01*
G01X52510129Y-12648826D01*
G01X52512677Y-12712692D01*
G01X52515111Y-12752534D01*
G01X52515982Y-12763867D01*
G01X52515982Y-12763867D01*
G01X52475552Y-12767383D01*
G01X52475552Y-12767383D01*
G01X52424161Y-12735185D01*
G01X52421646Y-12721680D01*
G01X52421646Y-12721680D01*
G01X52423416Y-12666907D01*
G01X52424576Y-12633496D01*
G01X52424576Y-12633496D01*
G01X52426543Y-12558533D01*
G01X52427344Y-12498688D01*
G01X52427504Y-12468569D01*
G01X52427505Y-12467383D01*
G01X52427505Y-12467383D01*
G01X52425129Y-12365336D01*
G01X52419461Y-12292820D01*
G01X52412697Y-12245899D01*
G01X52407030Y-12220633D01*
G01X52404654Y-12213086D01*
G01X52404654Y-12213086D01*
G37*
G36*
G01X53584146Y-12681250D02*
G01X53584146Y-12681250D01*
G01X53622123Y-12637147D01*
G01X53638052Y-12630860D01*
G01X53638052Y-12630860D01*
G01X53678953Y-12680156D01*
G01X53695181Y-12689746D01*
G01X53695181Y-12689746D01*
G01X53761333Y-12707726D01*
G01X53790396Y-12709961D01*
G01X53790396Y-12709961D01*
G01X53857904Y-12695817D01*
G01X53873892Y-12687110D01*
G01X53873892Y-12687110D01*
G01X53904208Y-12632234D01*
G01X53905826Y-12616211D01*
G01X53905826Y-12616211D01*
G01X53878527Y-12564434D01*
G01X53873892Y-12561133D01*
G01X53873892Y-12561133D01*
G01X53813776Y-12536152D01*
G01X53796548Y-12531543D01*
G01X53796548Y-12531543D01*
G01X53729970Y-12514578D01*
G01X53705435Y-12507520D01*
G01X53705435Y-12507520D01*
G01X53647075Y-12474265D01*
G01X53627798Y-12455371D01*
G01X53627798Y-12455371D01*
G01X53600619Y-12393910D01*
G01X53595871Y-12354376D01*
G01X53595865Y-12353711D01*
G01X53595865Y-12353711D01*
G01X53615859Y-12286198D01*
G01X53648708Y-12246881D01*
G01X53657681Y-12239453D01*
G01X53657681Y-12239453D01*
G01X53722626Y-12207725D01*
G01X53776569Y-12196381D01*
G01X53797427Y-12194922D01*
G01X53797427Y-12194922D01*
G01X53866044Y-12205263D01*
G01X53905625Y-12219116D01*
G01X53907876Y-12220117D01*
G01X53907876Y-12220117D01*
G01X53956800Y-12267792D01*
G01X53962076Y-12289844D01*
G01X53962076Y-12289844D01*
G01X53924098Y-12334530D01*
G01X53908169Y-12340235D01*
G01X53908169Y-12340235D01*
G01X53867252Y-12292443D01*
G01X53853970Y-12283985D01*
G01X53853970Y-12283985D01*
G01X53789574Y-12264029D01*
G01X53768716Y-12262305D01*
G01X53768716Y-12262305D01*
G01X53706907Y-12278897D01*
G01X53697818Y-12284570D01*
G01X53697818Y-12284570D01*
G01X53668742Y-12337932D01*
G01X53667935Y-12347266D01*
G01X53667935Y-12347266D01*
G01X53694879Y-12399753D01*
G01X53699869Y-12403516D01*
G01X53699869Y-12403516D01*
G01X53759184Y-12429735D01*
G01X53777212Y-12434863D01*
G01X53777212Y-12434863D01*
G01X53842814Y-12452082D01*
G01X53868326Y-12459473D01*
G01X53868326Y-12459473D01*
G01X53927459Y-12492077D01*
G01X53945962Y-12509278D01*
G01X53945962Y-12509278D01*
G01X53973904Y-12569812D01*
G01X53977896Y-12603320D01*
G01X53977896Y-12603320D01*
G01X53977896Y-12603320D01*
G01X53961474Y-12675720D01*
G01X53931463Y-12719045D01*
G01X53916665Y-12732520D01*
G01X53916665Y-12732520D01*
G01X53852350Y-12763453D01*
G01X53796095Y-12775019D01*
G01X53771085Y-12776758D01*
G01X53771060Y-12776758D01*
G01X53771060Y-12776758D01*
G01X53696889Y-12767850D01*
G01X53650244Y-12753216D01*
G01X53640982Y-12749219D01*
G01X53640982Y-12749219D01*
G01X53589678Y-12701725D01*
G01X53584146Y-12681250D01*
G37*
G36*
G01X54090396Y-12074805D02*
G01X54090396Y-12074805D01*
G01X54109439Y-12029981D01*
G01X54109439Y-12029981D01*
G01X54153677Y-12011524D01*
G01X54153677Y-12011524D01*
G01X54195572Y-12029981D01*
G01X54195572Y-12029981D01*
G01X54213443Y-12074805D01*
G01X54213443Y-12074805D01*
G01X54194422Y-12121072D01*
G01X54194400Y-12121094D01*
G01X54194400Y-12121094D01*
G01X54151333Y-12139844D01*
G01X54151333Y-12139844D01*
G01X54108267Y-12121973D01*
G01X54108267Y-12121973D01*
G01X54090396Y-12074883D01*
G01X54090396Y-12074805D01*
G37*
G36*
G01X54105630Y-12207227D02*
G01X54105630Y-12207227D01*
G01X54146646Y-12203711D01*
G01X54146646Y-12203711D01*
G01X54200047Y-12234869D01*
G01X54202896Y-12248828D01*
G01X54202896Y-12248828D01*
G01X54200552Y-12298047D01*
G01X54200552Y-12298047D01*
G01X54197436Y-12363633D01*
G01X54195876Y-12402343D01*
G01X54195865Y-12402637D01*
G01X54195865Y-12402637D01*
G01X54193955Y-12475740D01*
G01X54193527Y-12518119D01*
G01X54193521Y-12521289D01*
G01X54193521Y-12521289D01*
G01X54196121Y-12611941D01*
G01X54202228Y-12680478D01*
G01X54209302Y-12727421D01*
G01X54214805Y-12753291D01*
G01X54216372Y-12759180D01*
G01X54216372Y-12759180D01*
G01X54170669Y-12768555D01*
G01X54170669Y-12768555D01*
G01X54123798Y-12753032D01*
G01X54123794Y-12753028D01*
G01X54123794Y-12753028D01*
G01X54111499Y-12700868D01*
G01X54111490Y-12700000D01*
G01X54111490Y-12700000D01*
G01X54112288Y-12641641D01*
G01X54112954Y-12605371D01*
G01X54112954Y-12605371D01*
G01X54114148Y-12527329D01*
G01X54114415Y-12490347D01*
G01X54114419Y-12487891D01*
G01X54114419Y-12487891D01*
G01X54113668Y-12401548D01*
G01X54111822Y-12329012D01*
G01X54109499Y-12271904D01*
G01X54107312Y-12231844D01*
G01X54105876Y-12210450D01*
G01X54105630Y-12207227D01*
G37*
G36*
G01X54354068Y-11876758D02*
G01X54354068Y-11876758D01*
G01X54396255Y-11873242D01*
G01X54396255Y-11873242D01*
G01X54448543Y-11904805D01*
G01X54451333Y-11918945D01*
G01X54451333Y-11918945D01*
G01X54449793Y-11975687D01*
G01X54449576Y-11983106D01*
G01X54449576Y-11983106D01*
G01X54447733Y-12047525D01*
G01X54446042Y-12108741D01*
G01X54445193Y-12139969D01*
G01X54445181Y-12140430D01*
G01X54445181Y-12140430D01*
G01X54443613Y-12214936D01*
G01X54442836Y-12279009D01*
G01X54442572Y-12322454D01*
G01X54442544Y-12335547D01*
G01X54442544Y-12522461D01*
G01X54442544Y-12522461D01*
G01X54445144Y-12612058D01*
G01X54451251Y-12680210D01*
G01X54458326Y-12727177D01*
G01X54463828Y-12753221D01*
G01X54465396Y-12759180D01*
G01X54465396Y-12759180D01*
G01X54420279Y-12768555D01*
G01X54420279Y-12768555D01*
G01X54373990Y-12754199D01*
G01X54373990Y-12754199D01*
G01X54361099Y-12706445D01*
G01X54361099Y-12706445D01*
G01X54361099Y-12706445D01*
G01X54361398Y-12656353D01*
G01X54361957Y-12588978D01*
G01X54362270Y-12553847D01*
G01X54362271Y-12553809D01*
G01X54362271Y-12553809D01*
G01X54362987Y-12464596D01*
G01X54363329Y-12403343D01*
G01X54363435Y-12369946D01*
G01X54363443Y-12363086D01*
G01X54363443Y-12223633D01*
G01X54363443Y-12223633D01*
G01X54362873Y-12110547D01*
G01X54361418Y-12023902D01*
G01X54359456Y-11960551D01*
G01X54357368Y-11917352D01*
G01X54355533Y-11891159D01*
G01X54354330Y-11878829D01*
G01X54354068Y-11876758D01*
G37*
G36*
G01X54609536Y-11876758D02*
G01X54609536Y-11876758D01*
G01X54651724Y-11873242D01*
G01X54651724Y-11873242D01*
G01X54704012Y-11904805D01*
G01X54706802Y-11918945D01*
G01X54706802Y-11918945D01*
G01X54705084Y-11972869D01*
G01X54705044Y-11974024D01*
G01X54705044Y-11974024D01*
G01X54702853Y-12039412D01*
G01X54701057Y-12095094D01*
G01X54700650Y-12107910D01*
G01X54700650Y-12107910D01*
G01X54698917Y-12180866D01*
G01X54698182Y-12240358D01*
G01X54698016Y-12272766D01*
G01X54698013Y-12275195D01*
G01X54698013Y-12275195D01*
G01X54762603Y-12228787D01*
G01X54821866Y-12204956D01*
G01X54865197Y-12196176D01*
G01X54881997Y-12194922D01*
G01X54881997Y-12194922D01*
G01X54881997Y-12194922D01*
G01X54955989Y-12209365D01*
G01X54994774Y-12232396D01*
G01X55000650Y-12237695D01*
G01X55000650Y-12237695D01*
G01X55034221Y-12298449D01*
G01X55041302Y-12340036D01*
G01X55041372Y-12342578D01*
G01X55041372Y-12342578D01*
G01X55027504Y-12414003D01*
G01X55004063Y-12458914D01*
G01X54996548Y-12469141D01*
G01X54996548Y-12469141D01*
G01X54941252Y-12510294D01*
G01X54889540Y-12527912D01*
G01X54870865Y-12531250D01*
G01X54870865Y-12531250D01*
G01X54921022Y-12610211D01*
G01X54950328Y-12651200D01*
G01X54960972Y-12664123D01*
G01X54961099Y-12664258D01*
G01X54961099Y-12664258D01*
G01X55019227Y-12700265D01*
G01X55035513Y-12702930D01*
G01X55035513Y-12702930D01*
G01X55066568Y-12697656D01*
G01X55066568Y-12697656D01*
G01X55077701Y-12732813D01*
G01X55077701Y-12732813D01*
G01X55052505Y-12765625D01*
G01X55052505Y-12765625D01*
G01X55004458Y-12776758D01*
G01X55004458Y-12776758D01*
G01X54942579Y-12754730D01*
G01X54917740Y-12733985D01*
G01X54917740Y-12733985D01*
G01X54887564Y-12697949D01*
G01X54887564Y-12697949D01*
G01X54857754Y-12654996D01*
G01X54857681Y-12654883D01*
G01X54857681Y-12654883D01*
G01X54832486Y-12614453D01*
G01X54832486Y-12614453D01*
G01X54805200Y-12568300D01*
G01X54804947Y-12567871D01*
G01X54804947Y-12567871D01*
G01X54781216Y-12527149D01*
G01X54781216Y-12527149D01*
G01X54749576Y-12501953D01*
G01X54749576Y-12501953D01*
G01X54756021Y-12473242D01*
G01X54756021Y-12473242D01*
G01X54814828Y-12481933D01*
G01X54816958Y-12482031D01*
G01X54816958Y-12482031D01*
G01X54888604Y-12465913D01*
G01X54918516Y-12446076D01*
G01X54919204Y-12445410D01*
G01X54919204Y-12445410D01*
G01X54951732Y-12385454D01*
G01X54955240Y-12360742D01*
G01X54955240Y-12360742D01*
G01X54936901Y-12299806D01*
G01X54930630Y-12291016D01*
G01X54930630Y-12291016D01*
G01X54875091Y-12263536D01*
G01X54861490Y-12262305D01*
G01X54861490Y-12262305D01*
G01X54798268Y-12276814D01*
G01X54776236Y-12286914D01*
G01X54776236Y-12286914D01*
G01X54719270Y-12327639D01*
G01X54698013Y-12348438D01*
G01X54698013Y-12522461D01*
G01X54698013Y-12522461D01*
G01X54700613Y-12612058D01*
G01X54706720Y-12680210D01*
G01X54713794Y-12727177D01*
G01X54719297Y-12753221D01*
G01X54720865Y-12759180D01*
G01X54720865Y-12759180D01*
G01X54675747Y-12768555D01*
G01X54675747Y-12768555D01*
G01X54629458Y-12754199D01*
G01X54629458Y-12754199D01*
G01X54616568Y-12706445D01*
G01X54616568Y-12706445D01*
G01X54616568Y-12706445D01*
G01X54616866Y-12656353D01*
G01X54617425Y-12588978D01*
G01X54617739Y-12553847D01*
G01X54617740Y-12553809D01*
G01X54617740Y-12553809D01*
G01X54618456Y-12464596D01*
G01X54618797Y-12403343D01*
G01X54618903Y-12369946D01*
G01X54618911Y-12363086D01*
G01X54618911Y-12223633D01*
G01X54618911Y-12223633D01*
G01X54618342Y-12110547D01*
G01X54616886Y-12023902D01*
G01X54614925Y-11960551D01*
G01X54612836Y-11917352D01*
G01X54611001Y-11891159D01*
G01X54609799Y-11878829D01*
G01X54609536Y-11876758D01*
G37*
G36*
G01X55157388Y-12681250D02*
G01X55157388Y-12681250D01*
G01X55195366Y-12637147D01*
G01X55211294Y-12630860D01*
G01X55211294Y-12630860D01*
G01X55252195Y-12680156D01*
G01X55268423Y-12689746D01*
G01X55268423Y-12689746D01*
G01X55334575Y-12707726D01*
G01X55363638Y-12709961D01*
G01X55363638Y-12709961D01*
G01X55431146Y-12695817D01*
G01X55447134Y-12687110D01*
G01X55447134Y-12687110D01*
G01X55477450Y-12632234D01*
G01X55479068Y-12616211D01*
G01X55479068Y-12616211D01*
G01X55451769Y-12564434D01*
G01X55447134Y-12561133D01*
G01X55447134Y-12561133D01*
G01X55387018Y-12536152D01*
G01X55369790Y-12531543D01*
G01X55369790Y-12531543D01*
G01X55303212Y-12514578D01*
G01X55278677Y-12507520D01*
G01X55278677Y-12507520D01*
G01X55220317Y-12474265D01*
G01X55201040Y-12455371D01*
G01X55201040Y-12455371D01*
G01X55173861Y-12393910D01*
G01X55169114Y-12354376D01*
G01X55169107Y-12353711D01*
G01X55169107Y-12353711D01*
G01X55189102Y-12286198D01*
G01X55221950Y-12246881D01*
G01X55230923Y-12239453D01*
G01X55230923Y-12239453D01*
G01X55295868Y-12207725D01*
G01X55349811Y-12196381D01*
G01X55370669Y-12194922D01*
G01X55370669Y-12194922D01*
G01X55439286Y-12205263D01*
G01X55478867Y-12219116D01*
G01X55481119Y-12220117D01*
G01X55481119Y-12220117D01*
G01X55530042Y-12267792D01*
G01X55535318Y-12289844D01*
G01X55535318Y-12289844D01*
G01X55497340Y-12334530D01*
G01X55481411Y-12340235D01*
G01X55481411Y-12340235D01*
G01X55440494Y-12292443D01*
G01X55427212Y-12283985D01*
G01X55427212Y-12283985D01*
G01X55362816Y-12264029D01*
G01X55341958Y-12262305D01*
G01X55341958Y-12262305D01*
G01X55280149Y-12278897D01*
G01X55271060Y-12284570D01*
G01X55271060Y-12284570D01*
G01X55241984Y-12337932D01*
G01X55241177Y-12347266D01*
G01X55241177Y-12347266D01*
G01X55268121Y-12399753D01*
G01X55273111Y-12403516D01*
G01X55273111Y-12403516D01*
G01X55332426Y-12429735D01*
G01X55350454Y-12434863D01*
G01X55350454Y-12434863D01*
G01X55416056Y-12452082D01*
G01X55441568Y-12459473D01*
G01X55441568Y-12459473D01*
G01X55500701Y-12492077D01*
G01X55519204Y-12509278D01*
G01X55519204Y-12509278D01*
G01X55547146Y-12569812D01*
G01X55551138Y-12603320D01*
G01X55551138Y-12603320D01*
G01X55551138Y-12603320D01*
G01X55534717Y-12675720D01*
G01X55504705Y-12719045D01*
G01X55489908Y-12732520D01*
G01X55489908Y-12732520D01*
G01X55425592Y-12763453D01*
G01X55369337Y-12775019D01*
G01X55344327Y-12776758D01*
G01X55344302Y-12776758D01*
G01X55344302Y-12776758D01*
G01X55270132Y-12767850D01*
G01X55223486Y-12753216D01*
G01X55214224Y-12749219D01*
G01X55214224Y-12749219D01*
G01X55162920Y-12701725D01*
G01X55157388Y-12681250D01*
G37*
G36*
G01X55653677Y-12492578D02*
G01X55653677Y-12492578D01*
G01X55661110Y-12417492D01*
G01X55673673Y-12368819D01*
G01X55677701Y-12357520D01*
G01X55677701Y-12357520D01*
G01X55713738Y-12294543D01*
G01X55739661Y-12265516D01*
G01X55741275Y-12264063D01*
G01X55741275Y-12264063D01*
G01X55799408Y-12225024D01*
G01X55825943Y-12212500D01*
G01X55825943Y-12212500D01*
G01X55892912Y-12196633D01*
G01X55917935Y-12194922D01*
G01X55917935Y-12194922D01*
G01X55988080Y-12205415D01*
G01X56030195Y-12220572D01*
G01X56034244Y-12222461D01*
G01X56034244Y-12222461D01*
G01X56082693Y-12271753D01*
G01X56089615Y-12300391D01*
G01X56089615Y-12300391D01*
G01X56089615Y-12300391D01*
G01X56052026Y-12346291D01*
G01X56031607Y-12351953D01*
G01X56031607Y-12351953D01*
G01X55996010Y-12296919D01*
G01X55980923Y-12285449D01*
G01X55980923Y-12285449D01*
G01X55918007Y-12264020D01*
G01X55898599Y-12262305D01*
G01X55898599Y-12262305D01*
G01X55832398Y-12281542D01*
G01X55792828Y-12313145D01*
G01X55785220Y-12321778D01*
G01X55785220Y-12321778D01*
G01X55754334Y-12383557D01*
G01X55741748Y-12442602D01*
G01X55739240Y-12475399D01*
G01X55739224Y-12476758D01*
G01X55739224Y-12476758D01*
G01X55747945Y-12560288D01*
G01X55766452Y-12616840D01*
G01X55783257Y-12647246D01*
G01X55787857Y-12653418D01*
G01X55787857Y-12653418D01*
G01X55846422Y-12695139D01*
G01X55897496Y-12708720D01*
G01X55913247Y-12709961D01*
G01X55913247Y-12709961D01*
G01X55975431Y-12698391D01*
G01X55986197Y-12694434D01*
G01X55986197Y-12694434D01*
G01X56034802Y-12654519D01*
G01X56039224Y-12647266D01*
G01X56039224Y-12647266D01*
G01X56085632Y-12688998D01*
G01X56086685Y-12695313D01*
G01X56086685Y-12695313D01*
G01X56052956Y-12745080D01*
G01X56032193Y-12755957D01*
G01X56032193Y-12755957D01*
G01X55965340Y-12772265D01*
G01X55916711Y-12776592D01*
G01X55909146Y-12776758D01*
G01X55909146Y-12776758D01*
G01X55832046Y-12764823D01*
G01X55773397Y-12739028D01*
G01X55737155Y-12714387D01*
G01X55726919Y-12705567D01*
G01X55726919Y-12705567D01*
G01X55688434Y-12650590D01*
G01X55666540Y-12588680D01*
G01X55656556Y-12533405D01*
G01X55653804Y-12498337D01*
G01X55653677Y-12492578D01*
G37*
G36*
G01X56207974Y-12207227D02*
G01X56207974Y-12207227D01*
G01X56248990Y-12203711D01*
G01X56248990Y-12203711D01*
G01X56298525Y-12236728D01*
G01X56300552Y-12248828D01*
G01X56300552Y-12248828D01*
G01X56299966Y-12265235D01*
G01X56299966Y-12265235D01*
G01X56299380Y-12291016D01*
G01X56299380Y-12291016D01*
G01X56343537Y-12241128D01*
G01X56363540Y-12224512D01*
G01X56363540Y-12224512D01*
G01X56425782Y-12196961D01*
G01X56442935Y-12194922D01*
G01X56442935Y-12194922D01*
G01X56486294Y-12207520D01*
G01X56486294Y-12207520D01*
G01X56502115Y-12241797D01*
G01X56502115Y-12241797D01*
G01X56479739Y-12293479D01*
G01X56478091Y-12295703D01*
G01X56478091Y-12295703D01*
G01X56423928Y-12273063D01*
G01X56420083Y-12272852D01*
G01X56420083Y-12272852D01*
G01X56361694Y-12293188D01*
G01X56352994Y-12299219D01*
G01X56352994Y-12299219D01*
G01X56308700Y-12348903D01*
G01X56296451Y-12368945D01*
G01X56296451Y-12368945D01*
G01X56295631Y-12425994D01*
G01X56295325Y-12489820D01*
G01X56295279Y-12521256D01*
G01X56295279Y-12521289D01*
G01X56295279Y-12521289D01*
G01X56297879Y-12611941D01*
G01X56303986Y-12680478D01*
G01X56311060Y-12727421D01*
G01X56316562Y-12753291D01*
G01X56318130Y-12759180D01*
G01X56318130Y-12759180D01*
G01X56272427Y-12768555D01*
G01X56272427Y-12768555D01*
G01X56225845Y-12753028D01*
G01X56225845Y-12753028D01*
G01X56225845Y-12753028D01*
G01X56213842Y-12700868D01*
G01X56213833Y-12700000D01*
G01X56213833Y-12700000D01*
G01X56214472Y-12641641D01*
G01X56215005Y-12605371D01*
G01X56215005Y-12605371D01*
G01X56215960Y-12527329D01*
G01X56216174Y-12490347D01*
G01X56216177Y-12487891D01*
G01X56216177Y-12487891D01*
G01X56215475Y-12401548D01*
G01X56213753Y-12329012D01*
G01X56211584Y-12271904D01*
G01X56209543Y-12231844D01*
G01X56208204Y-12210450D01*
G01X56207974Y-12207227D01*
G37*
G36*
G01X56567740Y-12489063D02*
G01X56567740Y-12489063D01*
G01X56577649Y-12405118D01*
G01X56600566Y-12340904D01*
G01X56626270Y-12297096D01*
G01X56644541Y-12274366D01*
G01X56647720Y-12271094D01*
G01X56647720Y-12271094D01*
G01X56710804Y-12227057D01*
G01X56771609Y-12204444D01*
G01X56817418Y-12196112D01*
G01X56835513Y-12194922D01*
G01X56835513Y-12194922D01*
G01X56835513Y-12194922D01*
G01X56910984Y-12208294D01*
G01X56957924Y-12232131D01*
G01X56971451Y-12242383D01*
G01X56971451Y-12242383D01*
G01X57012335Y-12302074D01*
G01X57023182Y-12346689D01*
G01X57023599Y-12353711D01*
G01X57023599Y-12353711D01*
G01X57012066Y-12419658D01*
G01X57006900Y-12431641D01*
G01X57006900Y-12431641D01*
G01X56967391Y-12477543D01*
G01X56963247Y-12480567D01*
G01X56963247Y-12480567D01*
G01X56904129Y-12503781D01*
G01X56885318Y-12508106D01*
G01X56885318Y-12508106D01*
G01X56816104Y-12517737D01*
G01X56785122Y-12520117D01*
G01X56785122Y-12520117D01*
G01X56785122Y-12520117D01*
G01X56719970Y-12521929D01*
G01X56666101Y-12522436D01*
G01X56655630Y-12522461D01*
G01X56655630Y-12522461D01*
G01X56673703Y-12597424D01*
G01X56696912Y-12644207D01*
G01X56707486Y-12659278D01*
G01X56707486Y-12659278D01*
G01X56764291Y-12697882D01*
G01X56813993Y-12709260D01*
G01X56825552Y-12709961D01*
G01X56825552Y-12709961D01*
G01X56900943Y-12693147D01*
G01X56941757Y-12662417D01*
G01X56953286Y-12647266D01*
G01X56953286Y-12647266D01*
G01X56999450Y-12689978D01*
G01X57000747Y-12697656D01*
G01X57000747Y-12697656D01*
G01X56965436Y-12745160D01*
G01X56946255Y-12755078D01*
G01X56946255Y-12755078D01*
G01X56878262Y-12772305D01*
G01X56830462Y-12776632D01*
G01X56824380Y-12776758D01*
G01X56824380Y-12776758D01*
G01X56747787Y-12765634D01*
G01X56689541Y-12741162D01*
G01X56652499Y-12716690D01*
G01X56639517Y-12705567D01*
G01X56639517Y-12705567D01*
G01X56639517Y-12705567D01*
G01X56601802Y-12650154D01*
G01X56580345Y-12587237D01*
G01X56570561Y-12530832D01*
G01X56567864Y-12494961D01*
G01X56567740Y-12489063D01*
G37*
%LPC*%
G36*
G01X56654458Y-12462695D02*
G01X56654458Y-12462695D01*
G01X56724718Y-12461953D01*
G01X56740591Y-12461524D01*
G01X56740591Y-12461524D01*
G01X56803550Y-12455895D01*
G01X56816177Y-12454199D01*
G01X56816177Y-12454199D01*
G01X56877249Y-12439272D01*
G01X56882388Y-12437207D01*
G01X56882388Y-12437207D01*
G01X56923650Y-12406206D01*
G01X56923697Y-12406153D01*
G01X56923697Y-12406153D01*
G01X56940976Y-12356481D01*
G01X56940982Y-12356055D01*
G01X56940982Y-12356055D01*
G01X56917827Y-12298321D01*
G01X56909341Y-12289258D01*
G01X56909341Y-12289258D01*
G01X56850184Y-12263071D01*
G01X56830826Y-12261133D01*
G01X56830826Y-12261133D01*
G01X56761004Y-12276361D01*
G01X56717591Y-12302100D01*
G01X56707779Y-12310352D01*
G01X56707779Y-12310352D01*
G01X56673012Y-12366988D01*
G01X56658014Y-12426638D01*
G01X56654509Y-12461233D01*
G01X56654458Y-12462695D01*
G37*
%LPD*%
G36*
G01X57131411Y-12489063D02*
G01X57131411Y-12489063D01*
G01X57141321Y-12405118D01*
G01X57164238Y-12340904D01*
G01X57189942Y-12297096D01*
G01X57208213Y-12274366D01*
G01X57211392Y-12271094D01*
G01X57211392Y-12271094D01*
G01X57274476Y-12227057D01*
G01X57335281Y-12204444D01*
G01X57381090Y-12196112D01*
G01X57399185Y-12194922D01*
G01X57399185Y-12194922D01*
G01X57399185Y-12194922D01*
G01X57474656Y-12208294D01*
G01X57521596Y-12232131D01*
G01X57535122Y-12242383D01*
G01X57535122Y-12242383D01*
G01X57576007Y-12302074D01*
G01X57586854Y-12346689D01*
G01X57587271Y-12353711D01*
G01X57587271Y-12353711D01*
G01X57575738Y-12419658D01*
G01X57570572Y-12431641D01*
G01X57570572Y-12431641D01*
G01X57531062Y-12477543D01*
G01X57526919Y-12480567D01*
G01X57526919Y-12480567D01*
G01X57467801Y-12503781D01*
G01X57448990Y-12508106D01*
G01X57448990Y-12508106D01*
G01X57379776Y-12517737D01*
G01X57348794Y-12520117D01*
G01X57348794Y-12520117D01*
G01X57348794Y-12520117D01*
G01X57283642Y-12521929D01*
G01X57229772Y-12522436D01*
G01X57219302Y-12522461D01*
G01X57219302Y-12522461D01*
G01X57237375Y-12597424D01*
G01X57260584Y-12644207D01*
G01X57271158Y-12659278D01*
G01X57271158Y-12659278D01*
G01X57327962Y-12697882D01*
G01X57377665Y-12709260D01*
G01X57389224Y-12709961D01*
G01X57389224Y-12709961D01*
G01X57464615Y-12693147D01*
G01X57505429Y-12662417D01*
G01X57516958Y-12647266D01*
G01X57516958Y-12647266D01*
G01X57563122Y-12689978D01*
G01X57564419Y-12697656D01*
G01X57564419Y-12697656D01*
G01X57529108Y-12745160D01*
G01X57509927Y-12755078D01*
G01X57509927Y-12755078D01*
G01X57441933Y-12772305D01*
G01X57394134Y-12776632D01*
G01X57388052Y-12776758D01*
G01X57388052Y-12776758D01*
G01X57311459Y-12765634D01*
G01X57253213Y-12741162D01*
G01X57216171Y-12716690D01*
G01X57203189Y-12705567D01*
G01X57203189Y-12705567D01*
G01X57203189Y-12705567D01*
G01X57165474Y-12650154D01*
G01X57144017Y-12587237D01*
G01X57134233Y-12530832D01*
G01X57131536Y-12494961D01*
G01X57131411Y-12489063D01*
G37*
%LPC*%
G36*
G01X57218130Y-12462695D02*
G01X57218130Y-12462695D01*
G01X57288389Y-12461953D01*
G01X57304263Y-12461524D01*
G01X57304263Y-12461524D01*
G01X57367222Y-12455895D01*
G01X57379849Y-12454199D01*
G01X57379849Y-12454199D01*
G01X57440921Y-12439272D01*
G01X57446060Y-12437207D01*
G01X57446060Y-12437207D01*
G01X57487322Y-12406206D01*
G01X57487369Y-12406153D01*
G01X57487369Y-12406153D01*
G01X57504648Y-12356481D01*
G01X57504654Y-12356055D01*
G01X57504654Y-12356055D01*
G01X57481499Y-12298321D01*
G01X57473013Y-12289258D01*
G01X57473013Y-12289258D01*
G01X57413856Y-12263071D01*
G01X57394497Y-12261133D01*
G01X57394497Y-12261133D01*
G01X57324676Y-12276361D01*
G01X57281263Y-12302100D01*
G01X57271451Y-12310352D01*
G01X57271451Y-12310352D01*
G01X57236684Y-12366988D01*
G01X57221686Y-12426638D01*
G01X57218181Y-12461233D01*
G01X57218130Y-12462695D01*
G37*
%LPD*%
G36*
G01X57713247Y-12213086D02*
G01X57713247Y-12213086D01*
G01X57756607Y-12203711D01*
G01X57756607Y-12203711D01*
G01X57806666Y-12238061D01*
G01X57811685Y-12263477D01*
G01X57811685Y-12263477D01*
G01X57868978Y-12230171D01*
G01X57903704Y-12215527D01*
G01X57903970Y-12215430D01*
G01X57903970Y-12215430D01*
G01X57974029Y-12198334D01*
G01X58012853Y-12194943D01*
G01X58014419Y-12194922D01*
G01X58014419Y-12194922D01*
G01X58087183Y-12209630D01*
G01X58125894Y-12231626D01*
G01X58130142Y-12235059D01*
G01X58130142Y-12235059D01*
G01X58163216Y-12290991D01*
G01X58173982Y-12346340D01*
G01X58174966Y-12364258D01*
G01X58174966Y-12364258D01*
G01X58173878Y-12418473D01*
G01X58173208Y-12450684D01*
G01X58173208Y-12450684D01*
G01X58171830Y-12531867D01*
G01X58171465Y-12572943D01*
G01X58171451Y-12578125D01*
G01X58171451Y-12578125D01*
G01X58175374Y-12660728D01*
G01X58183541Y-12720697D01*
G01X58190551Y-12753864D01*
G01X58191958Y-12759180D01*
G01X58191958Y-12759180D01*
G01X58145083Y-12768555D01*
G01X58145083Y-12768555D01*
G01X58100259Y-12754785D01*
G01X58100259Y-12754785D01*
G01X58086490Y-12707617D01*
G01X58086490Y-12707617D01*
G01X58086490Y-12707617D01*
G01X58087294Y-12650627D01*
G01X58088868Y-12584183D01*
G01X58089956Y-12544106D01*
G01X58090005Y-12542383D01*
G01X58090005Y-12542383D01*
G01X58092555Y-12447209D01*
G01X58093426Y-12404964D01*
G01X58093521Y-12396485D01*
G01X58093521Y-12396485D01*
G01X58078456Y-12323935D01*
G01X58060759Y-12296064D01*
G01X58060415Y-12295703D01*
G01X58060415Y-12295703D01*
G01X58001664Y-12265556D01*
G01X57975747Y-12262305D01*
G01X57975747Y-12262305D01*
G01X57907353Y-12275780D01*
G01X57851374Y-12303288D01*
G01X57819042Y-12325450D01*
G01X57815201Y-12328516D01*
G01X57815201Y-12328516D01*
G01X57816432Y-12423562D01*
G01X57817133Y-12493585D01*
G01X57817452Y-12539595D01*
G01X57817540Y-12562604D01*
G01X57817544Y-12565820D01*
G01X57817544Y-12565820D01*
G01X57818723Y-12648826D01*
G01X57821271Y-12712692D01*
G01X57823704Y-12752534D01*
G01X57824576Y-12763867D01*
G01X57824576Y-12763867D01*
G01X57784146Y-12767383D01*
G01X57784146Y-12767383D01*
G01X57732755Y-12735185D01*
G01X57730240Y-12721680D01*
G01X57730240Y-12721680D01*
G01X57732010Y-12666907D01*
G01X57733169Y-12633496D01*
G01X57733169Y-12633496D01*
G01X57735137Y-12558533D01*
G01X57735938Y-12498688D01*
G01X57736098Y-12468569D01*
G01X57736099Y-12467383D01*
G01X57736099Y-12467383D01*
G01X57733722Y-12365336D01*
G01X57728055Y-12292820D01*
G01X57721291Y-12245899D01*
G01X57715624Y-12220633D01*
G01X57713247Y-12213086D01*
G01X57713247Y-12213086D01*
G37*

G04 Pad flashes *
%LPD*%
D11*

G04 end of program *
M02*
