G04                                                      *
G04 Greetings!                                           *
G04 This Gerber was generated by PCBmodE, an open source *
G04 PCB design software. Get it here:                    *
G04                                                      *
G04   http://pcbmode.com                                 *
G04                                                      *
G04 Also visit                                           *
G04                                                      *
G04   http://boldport.com                                *
G04                                                      *
G04 and follow @boldport / @pcbmode for updates!         *
G04                                                      *

G04 leading zeros omitted (L); absolute data (A); 6 integer digits and 6 fractional digits *
%FSLAX66Y66*%

G04 mode (MO): millimeters (MM) *
%MOMM*%

G04 Aperture definitions *
%ADD10C,0.001X*%
%ADD11C,0.001X*%
%ADD20C,0.05X*%

%LPD*%
D20*
G01X12909806Y-102823235D02*
G01X12909806Y-102823235D01*
G01X12678579Y-102819318D01*
G01X12451229Y-102820128D01*
G01X12227701Y-102825622D01*
G01X12007942Y-102835753D01*
G01X11791897Y-102850475D01*
G01X11579513Y-102869744D01*
G01X11370735Y-102893513D01*
G01X11165510Y-102921737D01*
G01X10963782Y-102954369D01*
G01X10765500Y-102991366D01*
G01X10570607Y-103032681D01*
G01X10379051Y-103078268D01*
G01X10190777Y-103128081D01*
G01X10005731Y-103182076D01*
G01X9823860Y-103240207D01*
G01X9645109Y-103302427D01*
G01X9469423Y-103368692D01*
G01X9296750Y-103438955D01*
G01X9127035Y-103513172D01*
G01X8960224Y-103591296D01*
G01X8796263Y-103673282D01*
G01X8635098Y-103759084D01*
G01X8476675Y-103848657D01*
G01X8320940Y-103941955D01*
G01X8167839Y-104038933D01*
G01X8017318Y-104139544D01*
G01X7869323Y-104243744D01*
G01X7723799Y-104351486D01*
G01X7580693Y-104462726D01*
G01X7439951Y-104577417D01*
G01X7301519Y-104695513D01*
G01X7165343Y-104816970D01*
G01X7031368Y-104941742D01*
G01X6899541Y-105069782D01*
G01X6769807Y-105201046D01*
G01X6642113Y-105335488D01*
G01X6516405Y-105473062D01*
G01X6392628Y-105613722D01*
G01X6270729Y-105757424D01*
G01X6150653Y-105904120D01*
G01X6032346Y-106053767D01*
G01X5915756Y-106206318D01*
G01X5800826Y-106361727D01*
G01X5687504Y-106519949D01*
G01X5575735Y-106680938D01*
G01X5465466Y-106844649D01*
G01X5356641Y-107011037D01*
G01X5249209Y-107180054D01*
G01X5143113Y-107351657D01*
G01X5038300Y-107525799D01*
G01X4934717Y-107702434D01*
G01X4832309Y-107881518D01*
G01X4731022Y-108063004D01*
G01X4630802Y-108246847D01*
G01X4531595Y-108433001D01*
G01X4433348Y-108621421D01*
G01X4336005Y-108812061D01*
G01X4239513Y-109004875D01*
G01X4143818Y-109199818D01*
G01X4048866Y-109396844D01*
G01X3954603Y-109595908D01*
G01X3860975Y-109796963D01*
G01X3767928Y-109999965D01*
G01X3675407Y-110204868D01*
G01X3583360Y-110411626D01*
G01X3491731Y-110620194D01*
G01X3400466Y-110830525D01*
G01X3309513Y-111042575D01*
G01X3218816Y-111256298D01*
G01X3128322Y-111471647D01*
G01X3037976Y-111688579D01*
G01X2947725Y-111907046D01*
G01X2857515Y-112127003D01*
G01X2767291Y-112348405D01*
G01X2677000Y-112571206D01*
G01X2586587Y-112795360D01*
G01X2495998Y-113020823D01*
G01X2405180Y-113247548D01*
G01X2314079Y-113475489D01*
G01X2222640Y-113704601D01*
G01X2130809Y-113934839D01*
G01X2038532Y-114166156D01*
G01X1945756Y-114398508D01*
G01X1852426Y-114631848D01*
G01X1758488Y-114866132D01*
G01X1663888Y-115101312D01*
G01X1568573Y-115337345D01*
G01X1472487Y-115574184D01*
G01X1375578Y-115811783D01*
G01X1277791Y-116050097D01*
G01X1179072Y-116289080D01*
G01X1079367Y-116528688D01*
G01X0978622Y-116768873D01*
G01X0876782Y-117009591D01*
G01X0773795Y-117250795D01*
G01X0669606Y-117492441D01*
G01X0564161Y-117734483D01*
G01X0457405Y-117976875D01*
G01X0349286Y-118219571D01*
G01X0239748Y-118462526D01*
G01X0239748Y-118462526D01*
G01X0239748Y-118462526D01*
G01X0238986Y-117757960D01*
G01X0236540Y-117058487D01*
G01X0232537Y-116364146D01*
G01X0227105Y-115674976D01*
G01X0220372Y-114991017D01*
G01X0212465Y-114312306D01*
G01X0203512Y-113638884D01*
G01X0193641Y-112970788D01*
G01X0182979Y-112308058D01*
G01X0171654Y-111650732D01*
G01X0159794Y-110998849D01*
G01X0147527Y-110352449D01*
G01X0134979Y-109711569D01*
G01X0122279Y-109076250D01*
G01X0109555Y-108446529D01*
G01X0096934Y-107822446D01*
G01X0084543Y-107204039D01*
G01X0072511Y-106591348D01*
G01X0060966Y-105984411D01*
G01X0050034Y-105383267D01*
G01X0039844Y-104787955D01*
G01X0030523Y-104198513D01*
G01X0022198Y-103614982D01*
G01X0014999Y-103037398D01*
G01X0009051Y-102465802D01*
G01X0004484Y-101900233D01*
G01X0001424Y-101340728D01*
G01X-0000000Y-100787328D01*
G01X0000338Y-100240070D01*
G01X0002567Y-99698994D01*
G01X0006815Y-99164139D01*
G01X0013208Y-98635543D01*
G01X0021876Y-98113245D01*
G01X0032944Y-97597284D01*
G01X0046542Y-97087700D01*
G01X0062796Y-96584530D01*
G01X0081835Y-96087814D01*
G01X0103786Y-95597590D01*
G01X0128777Y-95113899D01*
G01X0156935Y-94636777D01*
G01X0188388Y-94166264D01*
G01X0223265Y-93702400D01*
G01X0261691Y-93245223D01*
G01X0303796Y-92794771D01*
G01X0349707Y-92351084D01*
G01X0399551Y-91914200D01*
G01X0453457Y-91484159D01*
G01X0511551Y-91060999D01*
G01X0573962Y-90644759D01*
G01X0640817Y-90235478D01*
G01X0712244Y-89833195D01*
G01X0788371Y-89437948D01*
G01X0869325Y-89049777D01*
G01X0955235Y-88668721D01*
G01X1046226Y-88294817D01*
G01X1142429Y-87928106D01*
G01X1243969Y-87568626D01*
G01X1350975Y-87216416D01*
G01X1463574Y-86871514D01*
G01X1581894Y-86533960D01*
G01X1706063Y-86203792D01*
G01X1836209Y-85881050D01*
G01X1972459Y-85565772D01*
G01X2114940Y-85257997D01*
G01X2263781Y-84957764D01*
G01X2419109Y-84665111D01*
G01X2581052Y-84380078D01*
G01X2749738Y-84102704D01*
G01X2925293Y-83833027D01*
G01X3107847Y-83571086D01*
G01X3297526Y-83316921D01*
G01X3494458Y-83070569D01*
G01X3698771Y-82832070D01*
G01X3910593Y-82601462D01*
G01X4130051Y-82378786D01*
G01X4357273Y-82164078D01*
G01X4592387Y-81957379D01*
G01X4835520Y-81758727D01*
G01X5086800Y-81568161D01*
G01X5346355Y-81385719D01*
G01X5614312Y-81211442D01*
G01X5890799Y-81045367D01*
G01X6175944Y-80887533D01*
G01X6469874Y-80737980D01*
G01X6772718Y-80596746D01*
G01X7084602Y-80463870D01*
G01X7405654Y-80339390D01*
G01X7736003Y-80223347D01*
G01X8075776Y-80115778D01*
G01X8425100Y-80016723D01*
G01X8784103Y-79926219D01*
G01X9152913Y-79844308D01*
G01X9531657Y-79771026D01*
G01X9920464Y-79706413D01*
G01X10319461Y-79650508D01*
G01X10728775Y-79603349D01*
G01X11148534Y-79564976D01*
G01X11578866Y-79535427D01*
G01X12019899Y-79514742D01*
G01X12471761Y-79502959D01*
G01X12471761Y-79502959D01*
G01X12471761Y-79502959D01*
G01X12454794Y-79089491D01*
G01X12437933Y-78676132D01*
G01X12421178Y-78262941D01*
G01X12404530Y-77849980D01*
G01X12387992Y-77437309D01*
G01X12371564Y-77024991D01*
G01X12355249Y-76613086D01*
G01X12339047Y-76201655D01*
G01X12322960Y-75790759D01*
G01X12306991Y-75380460D01*
G01X12291139Y-74970819D01*
G01X12275407Y-74561896D01*
G01X12259797Y-74153754D01*
G01X12244309Y-73746452D01*
G01X12228945Y-73340052D01*
G01X12213707Y-72934615D01*
G01X12198597Y-72530203D01*
G01X12183615Y-72126877D01*
G01X12168763Y-71724696D01*
G01X12154043Y-71323724D01*
G01X12139456Y-70924020D01*
G01X12125004Y-70525647D01*
G01X12110688Y-70128664D01*
G01X12096510Y-69733134D01*
G01X12082471Y-69339117D01*
G01X12068573Y-68946674D01*
G01X12054817Y-68555867D01*
G01X12041205Y-68166756D01*
G01X12027738Y-67779404D01*
G01X12014418Y-67393870D01*
G01X12001246Y-67010216D01*
G01X11988224Y-66628504D01*
G01X11975353Y-66248794D01*
G01X11962634Y-65871147D01*
G01X11950070Y-65495624D01*
G01X11937662Y-65122288D01*
G01X11925411Y-64751198D01*
G01X11913319Y-64382416D01*
G01X11901386Y-64016003D01*
G01X11889616Y-63652020D01*
G01X11878009Y-63290528D01*
G01X11866566Y-62931589D01*
G01X11855290Y-62575263D01*
G01X11844182Y-62221611D01*
G01X11833243Y-61870696D01*
G01X11822474Y-61522577D01*
G01X11811878Y-61177316D01*
G01X11801455Y-60834975D01*
G01X11791208Y-60495613D01*
G01X11781138Y-60159293D01*
G01X11771245Y-59826076D01*
G01X11761533Y-59496022D01*
G01X11752002Y-59169192D01*
G01X11742653Y-58845649D01*
G01X11733489Y-58525452D01*
G01X11724510Y-58208663D01*
G01X11715719Y-57895344D01*
G01X11707116Y-57585555D01*
G01X11698704Y-57279357D01*
G01X11690483Y-56976812D01*
G01X11682456Y-56677980D01*
G01X11674623Y-56382924D01*
G01X11666987Y-56091703D01*
G01X11659548Y-55804379D01*
G01X11652309Y-55521014D01*
G01X11645270Y-55241667D01*
G01X11638434Y-54966401D01*
G01X11631801Y-54695277D01*
G01X11625374Y-54428355D01*
G01X11619153Y-54165697D01*
G01X11613141Y-53907363D01*
G01X11607338Y-53653416D01*
G01X11601747Y-53403916D01*
G01X11596368Y-53158924D01*
G01X11591204Y-52918501D01*
G01X11586255Y-52682709D01*
G01X11581524Y-52451609D01*
G01X11577011Y-52225261D01*
G01X11572719Y-52003727D01*
G01X11568648Y-51787068D01*
G01X11564801Y-51575345D01*
G01X11561178Y-51368619D01*
G01X11557782Y-51166952D01*
G01X11554613Y-50970404D01*
G01X11551674Y-50779037D01*
G01X11548965Y-50592911D01*
G01X11546489Y-50412088D01*
G01X11544246Y-50236629D01*
G01X11542239Y-50066595D01*
G01X11540468Y-49902047D01*
G01X11538936Y-49743047D01*
G01X11537643Y-49589654D01*
G01X11536592Y-49441932D01*
G01X11535783Y-49299940D01*
G01X11535219Y-49163740D01*
G01X11534900Y-49033392D01*
G01X11534829Y-48908959D01*
G01X11535006Y-48790501D01*
G01X11535434Y-48678079D01*
G01X11536114Y-48571754D01*
G01X11536114Y-48571754D01*
G01X11536114Y-48571754D01*
G01X11538031Y-48315048D01*
G01X11539973Y-48039543D01*
G01X11542011Y-47745672D01*
G01X11544215Y-47433869D01*
G01X11546656Y-47104569D01*
G01X11549405Y-46758205D01*
G01X11552533Y-46395211D01*
G01X11556111Y-46016020D01*
G01X11560209Y-45621068D01*
G01X11564900Y-45210787D01*
G01X11570253Y-44785611D01*
G01X11576339Y-44345974D01*
G01X11583230Y-43892311D01*
G01X11590997Y-43425055D01*
G01X11599709Y-42944639D01*
G01X11609439Y-42451499D01*
G01X11620256Y-41946067D01*
G01X11632233Y-41428777D01*
G01X11645439Y-40900064D01*
G01X11659946Y-40360361D01*
G01X11675825Y-39810102D01*
G01X11693146Y-39249720D01*
G01X11711981Y-38679651D01*
G01X11732400Y-38100327D01*
G01X11754474Y-37512183D01*
G01X11778274Y-36915652D01*
G01X11803872Y-36311169D01*
G01X11831337Y-35699166D01*
G01X11860741Y-35080078D01*
G01X11892155Y-34454340D01*
G01X11925649Y-33822384D01*
G01X11961295Y-33184644D01*
G01X11999164Y-32541555D01*
G01X12039325Y-31893550D01*
G01X12081852Y-31241063D01*
G01X12126813Y-30584528D01*
G01X12174280Y-29924379D01*
G01X12224324Y-29261050D01*
G01X12277016Y-28594975D01*
G01X12332427Y-27926586D01*
G01X12390628Y-27256319D01*
G01X12451689Y-26584608D01*
G01X12515681Y-25911885D01*
G01X12582676Y-25238585D01*
G01X12652744Y-24565142D01*
G01X12725956Y-23891990D01*
G01X12802384Y-23219562D01*
G01X12882097Y-22548292D01*
G01X12965167Y-21878615D01*
G01X13051665Y-21210963D01*
G01X13141662Y-20545772D01*
G01X13235228Y-19883474D01*
G01X13332435Y-19224504D01*
G01X13433353Y-18569296D01*
G01X13538053Y-17918283D01*
G01X13646607Y-17271899D01*
G01X13759084Y-16630578D01*
G01X13875557Y-15994754D01*
G01X13996095Y-15364862D01*
G01X14120771Y-14741333D01*
G01X14249654Y-14124604D01*
G01X14382815Y-13515106D01*
G01X14520326Y-12913275D01*
G01X14662258Y-12319545D01*
G01X14808681Y-11734348D01*
G01X14959666Y-11158119D01*
G01X15115284Y-10591292D01*
G01X15275606Y-10034300D01*
G01X15440703Y-9487578D01*
G01X15610646Y-8951559D01*
G01X15785505Y-8426678D01*
G01X15965352Y-7913367D01*
G01X16150258Y-7412061D01*
G01X16340293Y-6923194D01*
G01X16535528Y-6447200D01*
G01X16736035Y-5984512D01*
G01X16941884Y-5535565D01*
G01X17153146Y-5100792D01*
G01X17369891Y-4680627D01*
G01X17592192Y-4275504D01*
G01X17820118Y-3885856D01*
G01X18053741Y-3512119D01*
G01X18293131Y-3154725D01*
G01X18538360Y-2814108D01*
G01X18789498Y-2490703D01*
G01X19046617Y-2184942D01*
G01X19309786Y-1897261D01*
G01X19579078Y-1628092D01*
G01X19854562Y-1377871D01*
G01X20136311Y-1147030D01*
G01X20424394Y-0936003D01*
G01X20718883Y-0745224D01*
G01X21019848Y-0575128D01*
G01X21327361Y-0426148D01*
G01X21641492Y-0298718D01*
G01X21962313Y-0193271D01*
G01X22289893Y-0110242D01*
G01X22624305Y-0050065D01*
G01X22965618Y-0013172D01*
G01X23313905Y0000000D01*
G01X23313905Y0000000D01*
G01X23313905Y0000001D01*
G01X23671074Y-0010889D01*
G01X24020943Y-0045665D01*
G01X24363587Y-0103890D01*
G01X24699080Y-0185127D01*
G01X25027496Y-0288939D01*
G01X25348911Y-0414889D01*
G01X25663398Y-0562541D01*
G01X25971031Y-0731457D01*
G01X26271886Y-0921201D01*
G01X26566036Y-1131334D01*
G01X26853556Y-1361422D01*
G01X27134520Y-1611026D01*
G01X27409002Y-1879710D01*
G01X27677077Y-2167037D01*
G01X27938820Y-2472569D01*
G01X28194304Y-2795871D01*
G01X28443605Y-3136504D01*
G01X28686795Y-3494033D01*
G01X28923951Y-3868019D01*
G01X29155145Y-4258027D01*
G01X29380453Y-4663619D01*
G01X29599949Y-5084358D01*
G01X29813707Y-5519808D01*
G01X30021802Y-5969531D01*
G01X30224307Y-6433091D01*
G01X30421298Y-6910050D01*
G01X30612849Y-7399972D01*
G01X30799034Y-7902419D01*
G01X30979927Y-8416956D01*
G01X31155603Y-8943144D01*
G01X31326137Y-9480547D01*
G01X31491601Y-10028728D01*
G01X31652072Y-10587250D01*
G01X31807623Y-11155677D01*
G01X31958329Y-11733570D01*
G01X32104264Y-12320494D01*
G01X32245502Y-12916011D01*
G01X32382119Y-13519685D01*
G01X32514187Y-14131078D01*
G01X32641782Y-14749753D01*
G01X32764977Y-15375274D01*
G01X32883848Y-16007204D01*
G01X32998469Y-16645105D01*
G01X33108914Y-17288541D01*
G01X33215257Y-17937076D01*
G01X33317573Y-18590271D01*
G01X33415936Y-19247690D01*
G01X33510420Y-19908896D01*
G01X33601100Y-20573452D01*
G01X33688051Y-21240921D01*
G01X33771346Y-21910867D01*
G01X33851060Y-22582852D01*
G01X33927268Y-23256439D01*
G01X34000043Y-23931192D01*
G01X34069461Y-24606674D01*
G01X34135595Y-25282447D01*
G01X34198519Y-25958074D01*
G01X34258309Y-26633120D01*
G01X34315039Y-27307146D01*
G01X34368782Y-27979716D01*
G01X34419614Y-28650393D01*
G01X34467609Y-29318740D01*
G01X34512840Y-29984320D01*
G01X34555383Y-30646696D01*
G01X34595312Y-31305432D01*
G01X34632701Y-31960089D01*
G01X34667625Y-32610232D01*
G01X34700158Y-33255424D01*
G01X34730373Y-33895227D01*
G01X34758347Y-34529204D01*
G01X34784152Y-35156919D01*
G01X34807864Y-35777935D01*
G01X34829557Y-36391814D01*
G01X34849305Y-36998121D01*
G01X34867182Y-37596417D01*
G01X34883264Y-38186266D01*
G01X34897623Y-38767231D01*
G01X34910336Y-39338875D01*
G01X34921475Y-39900762D01*
G01X34931115Y-40452453D01*
G01X34939332Y-40993513D01*
G01X34946198Y-41523504D01*
G01X34951789Y-42041990D01*
G01X34956179Y-42548533D01*
G01X34959442Y-43042697D01*
G01X34961653Y-43524044D01*
G01X34962886Y-43992138D01*
G01X34963215Y-44446542D01*
G01X34962714Y-44886818D01*
G01X34961459Y-45312531D01*
G01X34959523Y-45723242D01*
G01X34956981Y-46118516D01*
G01X34953908Y-46497914D01*
G01X34950377Y-46861001D01*
G01X34946462Y-47207338D01*
G01X34942240Y-47536491D01*
G01X34937782Y-47848020D01*
G01X34933165Y-48141490D01*
G01X34928463Y-48416464D01*
G01X34923749Y-48672504D01*
G01X34923749Y-48672504D01*
G01X34923749Y-48672503D01*
G01X34921482Y-48781184D01*
G01X34918721Y-48895585D01*
G01X34915473Y-49015649D01*
G01X34911748Y-49141321D01*
G01X34907553Y-49272542D01*
G01X34902898Y-49409258D01*
G01X34897792Y-49551412D01*
G01X34892242Y-49698946D01*
G01X34886259Y-49851805D01*
G01X34879851Y-50009932D01*
G01X34873026Y-50173271D01*
G01X34865793Y-50341764D01*
G01X34858161Y-50515356D01*
G01X34850139Y-50693989D01*
G01X34841735Y-50877608D01*
G01X34832958Y-51066156D01*
G01X34823817Y-51259576D01*
G01X34814321Y-51457812D01*
G01X34804478Y-51660808D01*
G01X34794297Y-51868506D01*
G01X34783787Y-52080850D01*
G01X34772957Y-52297785D01*
G01X34761815Y-52519252D01*
G01X34750370Y-52745196D01*
G01X34738631Y-52975561D01*
G01X34726606Y-53210289D01*
G01X34714305Y-53449324D01*
G01X34701735Y-53692610D01*
G01X34688907Y-53940090D01*
G01X34675828Y-54191708D01*
G01X34662507Y-54447407D01*
G01X34648953Y-54707130D01*
G01X34635175Y-54970822D01*
G01X34621181Y-55238425D01*
G01X34606980Y-55509883D01*
G01X34592582Y-55785140D01*
G01X34577994Y-56064139D01*
G01X34563225Y-56346823D01*
G01X34548285Y-56633136D01*
G01X34533182Y-56923022D01*
G01X34517924Y-57216424D01*
G01X34502520Y-57513285D01*
G01X34486980Y-57813549D01*
G01X34471311Y-58117159D01*
G01X34455523Y-58424059D01*
G01X34439625Y-58734193D01*
G01X34423624Y-59047504D01*
G01X34407531Y-59363935D01*
G01X34391352Y-59683429D01*
G01X34375099Y-60005931D01*
G01X34358778Y-60331384D01*
G01X34342399Y-60659731D01*
G01X34325970Y-60990916D01*
G01X34309501Y-61324882D01*
G01X34292999Y-61661573D01*
G01X34276475Y-62000932D01*
G01X34259936Y-62342903D01*
G01X34243391Y-62687428D01*
G01X34226849Y-63034453D01*
G01X34210318Y-63383920D01*
G01X34193808Y-63735772D01*
G01X34177328Y-64089953D01*
G01X34160885Y-64446407D01*
G01X34144489Y-64805077D01*
G01X34128148Y-65165907D01*
G01X34111871Y-65528840D01*
G01X34095667Y-65893819D01*
G01X34079545Y-66260788D01*
G01X34063513Y-66629691D01*
G01X34047580Y-67000470D01*
G01X34031755Y-67373071D01*
G01X34016047Y-67747435D01*
G01X34000464Y-68123506D01*
G01X33985014Y-68501228D01*
G01X33969708Y-68880545D01*
G01X33954553Y-69261400D01*
G01X33939559Y-69643736D01*
G01X33924733Y-70027497D01*
G01X33910085Y-70412626D01*
G01X33895624Y-70799067D01*
G01X33881358Y-71186763D01*
G01X33867295Y-71575659D01*
G01X33853446Y-71965696D01*
G01X33839818Y-72356819D01*
G01X33826420Y-72748971D01*
G01X33813261Y-73142096D01*
G01X33800350Y-73536138D01*
G01X33787695Y-73931039D01*
G01X33775305Y-74326743D01*
G01X33763189Y-74723193D01*
G01X33751355Y-75120334D01*
G01X33739813Y-75518109D01*
G01X33728572Y-75916460D01*
G01X33717638Y-76315332D01*
G01X33707023Y-76714669D01*
G01X33696734Y-77114412D01*
G01X33686780Y-77514507D01*
G01X33677169Y-77914896D01*
G01X33667911Y-78315524D01*
G01X33659015Y-78716333D01*
G01X33659015Y-78716333D01*
G01X33659015Y-78716332D01*
G01X34158840Y-78728393D01*
G01X34646182Y-78752357D01*
G01X35121192Y-78788098D01*
G01X35584023Y-78835487D01*
G01X36034828Y-78894399D01*
G01X36473757Y-78964705D01*
G01X36900965Y-79046278D01*
G01X37316602Y-79138991D01*
G01X37720822Y-79242717D01*
G01X38113777Y-79357328D01*
G01X38495618Y-79482697D01*
G01X38866499Y-79618697D01*
G01X39226572Y-79765200D01*
G01X39575988Y-79922080D01*
G01X39914900Y-80089208D01*
G01X40243461Y-80266458D01*
G01X40561822Y-80453702D01*
G01X40870137Y-80650813D01*
G01X41168557Y-80857664D01*
G01X41457234Y-81074127D01*
G01X41736322Y-81300075D01*
G01X42005971Y-81535381D01*
G01X42266336Y-81779917D01*
G01X42517567Y-82033557D01*
G01X42759817Y-82296173D01*
G01X42993238Y-82567637D01*
G01X43217984Y-82847822D01*
G01X43434205Y-83136602D01*
G01X43642054Y-83433848D01*
G01X43841685Y-83739434D01*
G01X44033248Y-84053231D01*
G01X44216896Y-84375114D01*
G01X44392782Y-84704954D01*
G01X44561057Y-85042625D01*
G01X44721875Y-85387998D01*
G01X44875387Y-85740947D01*
G01X45021746Y-86101344D01*
G01X45161104Y-86469063D01*
G01X45293613Y-86843975D01*
G01X45419425Y-87225954D01*
G01X45538694Y-87614872D01*
G01X45651571Y-88010601D01*
G01X45758208Y-88413016D01*
G01X45858758Y-88821987D01*
G01X45953373Y-89237389D01*
G01X46042205Y-89659093D01*
G01X46125407Y-90086973D01*
G01X46203131Y-90520901D01*
G01X46275529Y-90960750D01*
G01X46342754Y-91406392D01*
G01X46404958Y-91857700D01*
G01X46462293Y-92314548D01*
G01X46514911Y-92776807D01*
G01X46562965Y-93244350D01*
G01X46606607Y-93717050D01*
G01X46645990Y-94194781D01*
G01X46681265Y-94677413D01*
G01X46712585Y-95164821D01*
G01X46740102Y-95656877D01*
G01X46763969Y-96153453D01*
G01X46784338Y-96654422D01*
G01X46801361Y-97159658D01*
G01X46815190Y-97669032D01*
G01X46825978Y-98182418D01*
G01X46833877Y-98699687D01*
G01X46839039Y-99220714D01*
G01X46841617Y-99745370D01*
G01X46841763Y-100273528D01*
G01X46839629Y-100805061D01*
G01X46835368Y-101339842D01*
G01X46829131Y-101877743D01*
G01X46821072Y-102418637D01*
G01X46811342Y-102962397D01*
G01X46800093Y-103508895D01*
G01X46787479Y-104058004D01*
G01X46773651Y-104609598D01*
G01X46758762Y-105163548D01*
G01X46742963Y-105719727D01*
G01X46726408Y-106278008D01*
G01X46709248Y-106838263D01*
G01X46691636Y-107400367D01*
G01X46673724Y-107964190D01*
G01X46655664Y-108529606D01*
G01X46637609Y-109096487D01*
G01X46619711Y-109664707D01*
G01X46602123Y-110234137D01*
G01X46584996Y-110804652D01*
G01X46568482Y-111376122D01*
G01X46552735Y-111948421D01*
G01X46537907Y-112521423D01*
G01X46524149Y-113094998D01*
G01X46511614Y-113669021D01*
G01X46500455Y-114243364D01*
G01X46490823Y-114817899D01*
G01X46482872Y-115392499D01*
G01X46476752Y-115967038D01*
G01X46472617Y-116541387D01*
G01X46470619Y-117115419D01*
G01X46470910Y-117689007D01*
G01X46473643Y-118262025D01*
G01X46473643Y-118262025D01*
G01X46473643Y-118262024D01*
G01X46393150Y-118009198D01*
G01X46313405Y-117757022D01*
G01X46234357Y-117505535D01*
G01X46155955Y-117254777D01*
G01X46078146Y-117004788D01*
G01X46000878Y-116755607D01*
G01X45924101Y-116507274D01*
G01X45847762Y-116259829D01*
G01X45771810Y-116013311D01*
G01X45696192Y-115767759D01*
G01X45620858Y-115523215D01*
G01X45545756Y-115279716D01*
G01X45470833Y-115037303D01*
G01X45396039Y-114796015D01*
G01X45321322Y-114555893D01*
G01X45246629Y-114316975D01*
G01X45171909Y-114079301D01*
G01X45097111Y-113842911D01*
G01X45022182Y-113607845D01*
G01X44947072Y-113374142D01*
G01X44871728Y-113141842D01*
G01X44796099Y-112910984D01*
G01X44720132Y-112681608D01*
G01X44643777Y-112453753D01*
G01X44566982Y-112227461D01*
G01X44489695Y-112002768D01*
G01X44411863Y-111779717D01*
G01X44333437Y-111558346D01*
G01X44254363Y-111338694D01*
G01X44174590Y-111120802D01*
G01X44094067Y-110904709D01*
G01X44012742Y-110690455D01*
G01X43930563Y-110478079D01*
G01X43847478Y-110267621D01*
G01X43763436Y-110059121D01*
G01X43678385Y-109852618D01*
G01X43592273Y-109648152D01*
G01X43505049Y-109445762D01*
G01X43416661Y-109245489D01*
G01X43327057Y-109047371D01*
G01X43236186Y-108851448D01*
G01X43143995Y-108657761D01*
G01X43050434Y-108466348D01*
G01X42955450Y-108277250D01*
G01X42858992Y-108090505D01*
G01X42761009Y-107906154D01*
G01X42661447Y-107724236D01*
G01X42560257Y-107544791D01*
G01X42457385Y-107367858D01*
G01X42352781Y-107193478D01*
G01X42246392Y-107021689D01*
G01X42138168Y-106852531D01*
G01X42028055Y-106686044D01*
G01X41916004Y-106522268D01*
G01X41801961Y-106361242D01*
G01X41685875Y-106203006D01*
G01X41567695Y-106047600D01*
G01X41447369Y-105895062D01*
G01X41324845Y-105745434D01*
G01X41200071Y-105598753D01*
G01X41072996Y-105455061D01*
G01X40943568Y-105314396D01*
G01X40811736Y-105176799D01*
G01X40677447Y-105042308D01*
G01X40540650Y-104910964D01*
G01X40401293Y-104782806D01*
G01X40259325Y-104657874D01*
G01X40114694Y-104536207D01*
G01X39967349Y-104417845D01*
G01X39817236Y-104302828D01*
G01X39664306Y-104191195D01*
G01X39508506Y-104082986D01*
G01X39349784Y-103978241D01*
G01X39188089Y-103876999D01*
G01X39023369Y-103779299D01*
G01X38855572Y-103685182D01*
G01X38684647Y-103594687D01*
G01X38510543Y-103507854D01*
G01X38333206Y-103424722D01*
G01X38152586Y-103345332D01*
G01X37968631Y-103269721D01*
G01X37781289Y-103197931D01*
G01X37590509Y-103130001D01*
G01X37396239Y-103065971D01*
G01X37198427Y-103005879D01*
G01X36997021Y-102949766D01*
G01X36791970Y-102897672D01*
G01X36583223Y-102849635D01*
G01X36370726Y-102805697D01*
G01X36154430Y-102765895D01*
G01X35934281Y-102730271D01*
G01X35710229Y-102698862D01*
G01X35482221Y-102671711D01*
G01X35250206Y-102648854D01*
G01X35014133Y-102630334D01*
G01X34773949Y-102616188D01*
G01X34529603Y-102606457D01*
G01X34281043Y-102601180D01*
G01X34028218Y-102600398D01*
G01X33771076Y-102604148D01*
G01X33771076Y-102604148D01*
G01X33771076Y-102604148D01*
G01X33765949Y-102801082D01*
G01X33760525Y-102997707D01*
G01X33754810Y-103193991D01*
G01X33748813Y-103389900D01*
G01X33742540Y-103585399D01*
G01X33735997Y-103780455D01*
G01X33729193Y-103975034D01*
G01X33722135Y-104169102D01*
G01X33714828Y-104362624D01*
G01X33707281Y-104555568D01*
G01X33699501Y-104747898D01*
G01X33691494Y-104939582D01*
G01X33683268Y-105130584D01*
G01X33674829Y-105320872D01*
G01X33666186Y-105510411D01*
G01X33657344Y-105699167D01*
G01X33648311Y-105887107D01*
G01X33639095Y-106074196D01*
G01X33629701Y-106260400D01*
G01X33620138Y-106445686D01*
G01X33610412Y-106630019D01*
G01X33600531Y-106813366D01*
G01X33590501Y-106995693D01*
G01X33580329Y-107176966D01*
G01X33570024Y-107357150D01*
G01X33559590Y-107536212D01*
G01X33549037Y-107714118D01*
G01X33538371Y-107890834D01*
G01X33527598Y-108066326D01*
G01X33516727Y-108240560D01*
G01X33505764Y-108413502D01*
G01X33494716Y-108585118D01*
G01X33483590Y-108755374D01*
G01X33472394Y-108924237D01*
G01X33461134Y-109091672D01*
G01X33449818Y-109257646D01*
G01X33438452Y-109422124D01*
G01X33427044Y-109585072D01*
G01X33415601Y-109746457D01*
G01X33404130Y-109906245D01*
G01X33392637Y-110064401D01*
G01X33381131Y-110220892D01*
G01X33369618Y-110375684D01*
G01X33358105Y-110528743D01*
G01X33346599Y-110680035D01*
G01X33335108Y-110829525D01*
G01X33323638Y-110977181D01*
G01X33312196Y-111122968D01*
G01X33300790Y-111266851D01*
G01X33289427Y-111408798D01*
G01X33278114Y-111548775D01*
G01X33266857Y-111686746D01*
G01X33255664Y-111822679D01*
G01X33244543Y-111956540D01*
G01X33233499Y-112088293D01*
G01X33222541Y-112217907D01*
G01X33211675Y-112345346D01*
G01X33200908Y-112470576D01*
G01X33190247Y-112593564D01*
G01X33179700Y-112714276D01*
G01X33169274Y-112832678D01*
G01X33158975Y-112948736D01*
G01X33148811Y-113062416D01*
G01X33138789Y-113173683D01*
G01X33128916Y-113282505D01*
G01X33119199Y-113388846D01*
G01X33109644Y-113492674D01*
G01X33100260Y-113593954D01*
G01X33091053Y-113692653D01*
G01X33082031Y-113788735D01*
G01X33073200Y-113882168D01*
G01X33064567Y-113972918D01*
G01X33056140Y-114060950D01*
G01X33047925Y-114146230D01*
G01X33039930Y-114228725D01*
G01X33032162Y-114308401D01*
G01X33024628Y-114385223D01*
G01X33017335Y-114459158D01*
G01X33010290Y-114530172D01*
G01X33003500Y-114598231D01*
G01X32996972Y-114663301D01*
G01X32990713Y-114725348D01*
G01X32984731Y-114784338D01*
G01X32979032Y-114840237D01*
G01X32973624Y-114893011D01*
G01X32968513Y-114942626D01*
G01X32963707Y-114989049D01*
G01X32959213Y-115032245D01*
G01X32955037Y-115072180D01*
G01X32951188Y-115108821D01*
G01X32947672Y-115142133D01*
G01X32944495Y-115172083D01*
G01X32941666Y-115198636D01*
G01X32939191Y-115221760D01*
G01X32937077Y-115241418D01*
G01X32935332Y-115257579D01*
G01X32933963Y-115270208D01*
G01X32932975Y-115279270D01*
G01X32932378Y-115284732D01*
G01X32932177Y-115286560D01*
G01X32932177Y-115286560D01*
G01X32932177Y-115286560D01*
G01X32928553Y-115286596D01*
G01X32917750Y-115286701D01*
G01X32899871Y-115286875D01*
G01X32875020Y-115287116D01*
G01X32843298Y-115287423D01*
G01X32804810Y-115287794D01*
G01X32759659Y-115288230D01*
G01X32707948Y-115288727D01*
G01X32649779Y-115289285D01*
G01X32585257Y-115289903D01*
G01X32514484Y-115290580D01*
G01X32437563Y-115291313D01*
G01X32354597Y-115292102D01*
G01X32265691Y-115292946D01*
G01X32170946Y-115293843D01*
G01X32070466Y-115294792D01*
G01X31964354Y-115295792D01*
G01X31852714Y-115296841D01*
G01X31735648Y-115297939D01*
G01X31613259Y-115299083D01*
G01X31485651Y-115300274D01*
G01X31352927Y-115301508D01*
G01X31215190Y-115302786D01*
G01X31072543Y-115304105D01*
G01X30925089Y-115305465D01*
G01X30772932Y-115306864D01*
G01X30616174Y-115308302D01*
G01X30454919Y-115309776D01*
G01X30289270Y-115311285D01*
G01X30119329Y-115312829D01*
G01X29945201Y-115314406D01*
G01X29766988Y-115316014D01*
G01X29584794Y-115317653D01*
G01X29398721Y-115319320D01*
G01X29208873Y-115321016D01*
G01X29015353Y-115322738D01*
G01X28818264Y-115324486D01*
G01X28617708Y-115326257D01*
G01X28413791Y-115328052D01*
G01X28206613Y-115329867D01*
G01X27996280Y-115331703D01*
G01X27782893Y-115333558D01*
G01X27566555Y-115335431D01*
G01X27347371Y-115337320D01*
G01X27125443Y-115339224D01*
G01X26900875Y-115341142D01*
G01X26673768Y-115343073D01*
G01X26444228Y-115345014D01*
G01X26212356Y-115346966D01*
G01X25978256Y-115348927D01*
G01X25742031Y-115350895D01*
G01X25503784Y-115352869D01*
G01X25263619Y-115354849D01*
G01X25021638Y-115356832D01*
G01X24777945Y-115358817D01*
G01X24532642Y-115360804D01*
G01X24285834Y-115362790D01*
G01X24037622Y-115364775D01*
G01X23788111Y-115366757D01*
G01X23537403Y-115368735D01*
G01X23285601Y-115370708D01*
G01X23032810Y-115372675D01*
G01X22779131Y-115374634D01*
G01X22524667Y-115376583D01*
G01X22269523Y-115378523D01*
G01X22013802Y-115380451D01*
G01X21757605Y-115382365D01*
G01X21501037Y-115384266D01*
G01X21244201Y-115386152D01*
G01X20987199Y-115388020D01*
G01X20730136Y-115389871D01*
G01X20473113Y-115391703D01*
G01X20216235Y-115393514D01*
G01X19959604Y-115395303D01*
G01X19703324Y-115397069D01*
G01X19447498Y-115398811D01*
G01X19192228Y-115400527D01*
G01X18937618Y-115402217D01*
G01X18683771Y-115403878D01*
G01X18430791Y-115405510D01*
G01X18178780Y-115407111D01*
G01X17927841Y-115408680D01*
G01X17678079Y-115410216D01*
G01X17429595Y-115411718D01*
G01X17182493Y-115413184D01*
G01X16936876Y-115414612D01*
G01X16692847Y-115416003D01*
G01X16450510Y-115417354D01*
G01X16209968Y-115418664D01*
G01X15971323Y-115419932D01*
G01X15734679Y-115421156D01*
G01X15500139Y-115422336D01*
G01X15267806Y-115423470D01*
G01X15037783Y-115424556D01*
G01X14810174Y-115425595D01*
G01X14585082Y-115426583D01*
G01X14362609Y-115427520D01*
G01X14142859Y-115428405D01*
G01X13925935Y-115429237D01*
G01X13711940Y-115430013D01*
G01X13711940Y-115430013D01*
G01X13711940Y-115430014D01*
G01X13696475Y-115305811D01*
G01X13681363Y-115182549D01*
G01X13666598Y-115060198D01*
G01X13652172Y-114938727D01*
G01X13638081Y-114818107D01*
G01X13624318Y-114698307D01*
G01X13610877Y-114579298D01*
G01X13597751Y-114461050D01*
G01X13584934Y-114343533D01*
G01X13572421Y-114226717D01*
G01X13560205Y-114110572D01*
G01X13548279Y-113995068D01*
G01X13536638Y-113880175D01*
G01X13525276Y-113765863D01*
G01X13514186Y-113652102D01*
G01X13503361Y-113538862D01*
G01X13492797Y-113426114D01*
G01X13482486Y-113313827D01*
G01X13472423Y-113201972D01*
G01X13462601Y-113090518D01*
G01X13453013Y-112979435D01*
G01X13443655Y-112868694D01*
G01X13434519Y-112758265D01*
G01X13425600Y-112648118D01*
G01X13416891Y-112538222D01*
G01X13408386Y-112428548D01*
G01X13400079Y-112319066D01*
G01X13391964Y-112209746D01*
G01X13384034Y-112100558D01*
G01X13376284Y-111991472D01*
G01X13368706Y-111882458D01*
G01X13361296Y-111773486D01*
G01X13354046Y-111664527D01*
G01X13346950Y-111555549D01*
G01X13340003Y-111446524D01*
G01X13333198Y-111337422D01*
G01X13326529Y-111228212D01*
G01X13319990Y-111118864D01*
G01X13313574Y-111009349D01*
G01X13307276Y-110899637D01*
G01X13301089Y-110789697D01*
G01X13295006Y-110679500D01*
G01X13289023Y-110569016D01*
G01X13283132Y-110458214D01*
G01X13277327Y-110347066D01*
G01X13271602Y-110235540D01*
G01X13265952Y-110123608D01*
G01X13260369Y-110011238D01*
G01X13254848Y-109898402D01*
G01X13249382Y-109785069D01*
G01X13243966Y-109671209D01*
G01X13238592Y-109556793D01*
G01X13233255Y-109441789D01*
G01X13227949Y-109326170D01*
G01X13222667Y-109209903D01*
G01X13217404Y-109092961D01*
G01X13212152Y-108975311D01*
G01X13206906Y-108856926D01*
G01X13201660Y-108737774D01*
G01X13196408Y-108617826D01*
G01X13191142Y-108497052D01*
G01X13185858Y-108375421D01*
G01X13180548Y-108252905D01*
G01X13175208Y-108129472D01*
G01X13169829Y-108005094D01*
G01X13164407Y-107879739D01*
G01X13158935Y-107753379D01*
G01X13153407Y-107625983D01*
G01X13147817Y-107497521D01*
G01X13142158Y-107367964D01*
G01X13136424Y-107237281D01*
G01X13130609Y-107105442D01*
G01X13124708Y-106972418D01*
G01X13118713Y-106838179D01*
G01X13112618Y-106702694D01*
G01X13106418Y-106565934D01*
G01X13100106Y-106427868D01*
G01X13093676Y-106288467D01*
G01X13087122Y-106147701D01*
G01X13080437Y-106005540D01*
G01X13073616Y-105861954D01*
G01X13066651Y-105716913D01*
G01X13059538Y-105570387D01*
G01X13052270Y-105422346D01*
G01X13044840Y-105272761D01*
G01X13037242Y-105121600D01*
G01X13029471Y-104968835D01*
G01X13021519Y-104814435D01*
G01X13013381Y-104658371D01*
G01X13005051Y-104500612D01*
G01X12996523Y-104341128D01*
G01X12987789Y-104179891D01*
G01X12978845Y-104016868D01*
G01X12969683Y-103852032D01*
G01X12960298Y-103685351D01*
G01X12950684Y-103516796D01*
G01X12940833Y-103346337D01*
G01X12930741Y-103173944D01*
G01X12920401Y-102999587D01*
G01X12909806Y-102823235D01*
G01X12909806Y-102823235D01*
G04 end of program *
M02*
