G04                                                      *
G04 Greetings!                                           *
G04 This Gerber was generated by PCBmodE, an open source *
G04 PCB design software. Get it here:                    *
G04                                                      *
G04   http://pcbmode.com                                 *
G04                                                      *
G04 Also visit                                           *
G04                                                      *
G04   http://boldport.com                                *
G04                                                      *
G04 and follow @boldport / @pcbmode for updates!         *
G04                                                      *

G04 leading zeros omitted (L); absolute data (A); 6 integer digits and 6 fractional digits *
%FSLAX66Y66*%

G04 mode (MO): millimeters (MM) *
%MOMM*%

G04 Aperture definitions *
%ADD10C,0.001X*%
%ADD11C,0.001X*%
%ADD20C,0.15X*%

%LPD*%
D20*
G01X43827382Y-88681264D02*
G01X43827382Y-108781263D01*
G01X43014382Y-108781263D01*
G01X43014382Y-88681264D01*
G01X43827382Y-88681264D01*
D20*
G01X3827382Y-88681264D02*
G01X3827382Y-108781263D01*
G01X3014382Y-108781263D01*
G01X3014382Y-88681264D01*
G01X3827382Y-88681264D01*
G36*
G01X30097739Y-36436242D02*
G01X30397739Y-36436242D01*
G01X30397739Y-37436242D01*
G01X30097739Y-37436242D01*
G01X30097739Y-36436242D01*
G37*
G36*
G01X38183313Y-80848022D02*
G01X38483313Y-80848022D01*
G01X38483313Y-81848022D01*
G01X38183313Y-81848022D01*
G01X38183313Y-80848022D01*
G37*
D20*
G01X20780882Y-37591263D02*
G01X26060882Y-37591263D01*
G01X26060882Y-42871263D01*
G01X20780882Y-42871263D01*
G01X20780882Y-37591263D01*
G36*
G01X20920882Y-37106263D02*
G01X20920882Y-37106263D01*
G01X20975754Y-37102278D01*
G01X21028157Y-37090695D01*
G01X21077529Y-37072078D01*
G01X21123307Y-37046990D01*
G01X21164928Y-37015994D01*
G01X21201828Y-36979653D01*
G01X21233446Y-36938529D01*
G01X21259218Y-36893185D01*
G01X21278581Y-36844185D01*
G01X21290974Y-36792090D01*
G01X21295831Y-36737465D01*
G01X21295882Y-36731263D01*
G01X21295882Y-36731263D01*
G01X21291896Y-36676391D01*
G01X21280313Y-36623988D01*
G01X21261696Y-36574616D01*
G01X21236608Y-36528838D01*
G01X21205612Y-36487218D01*
G01X21169271Y-36450317D01*
G01X21128147Y-36418699D01*
G01X21082804Y-36392927D01*
G01X21033803Y-36373564D01*
G01X20981709Y-36361172D01*
G01X20927083Y-36356314D01*
G01X20920882Y-36356263D01*
G01X20920882Y-36356263D01*
G01X20866010Y-36360249D01*
G01X20813606Y-36371832D01*
G01X20764234Y-36390449D01*
G01X20718456Y-36415537D01*
G01X20676836Y-36446533D01*
G01X20639935Y-36482874D01*
G01X20608317Y-36523998D01*
G01X20582545Y-36569342D01*
G01X20563182Y-36618342D01*
G01X20550790Y-36670437D01*
G01X20545932Y-36725062D01*
G01X20545882Y-36731263D01*
G01X20545882Y-36731263D01*
G01X20549868Y-36786136D01*
G01X20561450Y-36838539D01*
G01X20580067Y-36887911D01*
G01X20605155Y-36933689D01*
G01X20636151Y-36975309D01*
G01X20672492Y-37012210D01*
G01X20713616Y-37043828D01*
G01X20758960Y-37069600D01*
G01X20807960Y-37088963D01*
G01X20860055Y-37101355D01*
G01X20914680Y-37106213D01*
G01X20920882Y-37106263D01*
G37*
D20*
G01X35920882Y-111931263D02*
G01X10920882Y-111931264D01*
G01X10920882Y-109231263D01*
G01X35920882Y-109231263D01*
G01X35920882Y-111931263D01*
D20*
G01X33420882Y-109231263D02*
G01X13420882Y-109231263D01*
G01X13420882Y-89731263D01*
G01X33420882Y-89731263D01*
G01X33420882Y-109231263D01*
D20*
G01X27603788Y-21987527D02*
G01X23277233Y-10100415D01*
G01X32580190Y-6714415D01*
G01X36906745Y-18601527D01*
G01X27603788Y-21987527D01*
D20*
G01X26120882Y-35556264D02*
G01X26120882Y-22906263D01*
G01X36020882Y-22906263D01*
G01X36020882Y-35556264D01*
G01X26120882Y-35556264D01*
D20*
G01X23564530Y-10100415D02*
G01X19237975Y-21987526D01*
G01X9935018Y-18601527D01*
G01X14261573Y-6714415D01*
G01X23564530Y-10100415D01*
D20*
G01X25370882Y-81781263D02*
G01X25370882Y-86681264D01*
G01X21470882Y-86681264D01*
G01X21470882Y-81781263D01*
G01X25370882Y-81781263D01*
G36*
G01X26045882Y-82231263D02*
G01X26045882Y-82231263D01*
G01X26049868Y-82286136D01*
G01X26061450Y-82338539D01*
G01X26080067Y-82387911D01*
G01X26105155Y-82433689D01*
G01X26136151Y-82475309D01*
G01X26172492Y-82512210D01*
G01X26213616Y-82543828D01*
G01X26258960Y-82569600D01*
G01X26307960Y-82588963D01*
G01X26360055Y-82601355D01*
G01X26414680Y-82606213D01*
G01X26420882Y-82606263D01*
G01X26420882Y-82606263D01*
G01X26475754Y-82602278D01*
G01X26528157Y-82590695D01*
G01X26577529Y-82572078D01*
G01X26623307Y-82546990D01*
G01X26664928Y-82515994D01*
G01X26701828Y-82479653D01*
G01X26733446Y-82438529D01*
G01X26759218Y-82393185D01*
G01X26778581Y-82344185D01*
G01X26790974Y-82292090D01*
G01X26795831Y-82237465D01*
G01X26795882Y-82231263D01*
G01X26795882Y-82231263D01*
G01X26791896Y-82176391D01*
G01X26780313Y-82123988D01*
G01X26761696Y-82074616D01*
G01X26736608Y-82028838D01*
G01X26705612Y-81987218D01*
G01X26669271Y-81950317D01*
G01X26628147Y-81918699D01*
G01X26582804Y-81892927D01*
G01X26533803Y-81873564D01*
G01X26481709Y-81861172D01*
G01X26427083Y-81856314D01*
G01X26420882Y-81856263D01*
G01X26420882Y-81856263D01*
G01X26366010Y-81860249D01*
G01X26313606Y-81871832D01*
G01X26264234Y-81890449D01*
G01X26218456Y-81915537D01*
G01X26176836Y-81946533D01*
G01X26139935Y-81982874D01*
G01X26108317Y-82023998D01*
G01X26082545Y-82069342D01*
G01X26063182Y-82118342D01*
G01X26050790Y-82170437D01*
G01X26045932Y-82225062D01*
G01X26045882Y-82231263D01*
G37*
D20*
G01X20720882Y-22906263D02*
G01X20720882Y-35556264D01*
G01X10820882Y-35556264D01*
G01X10820882Y-22906263D01*
G01X20720882Y-22906263D01*
D20*
G01X14420882Y-43731263D02*
G01X32420882Y-43731263D01*
G01X32420882Y-78731263D01*
G01X14420882Y-78731263D01*
G01X14420882Y-43731263D01*
G36*
G01X42525607Y-87352952D02*
G01X42525607Y-86133225D01*
G01X42525607Y-86133225D01*
G01X42589247Y-86121424D01*
G01X42604220Y-86119065D01*
G01X42604220Y-86119065D01*
G01X42670995Y-86110680D01*
G01X42689669Y-86108811D01*
G01X42689669Y-86108811D01*
G01X42756466Y-86104522D01*
G01X42773654Y-86103928D01*
G01X42773654Y-86103928D01*
G01X42838665Y-86102987D01*
G01X42848849Y-86102952D01*
G01X42848849Y-86102952D01*
G01X42928399Y-86107617D01*
G01X42990989Y-86117702D01*
G01X43030748Y-86127335D01*
G01X43042208Y-86130784D01*
G01X43042208Y-86130784D01*
G01X43112450Y-86162254D01*
G01X43160215Y-86193437D01*
G01X43180129Y-86209644D01*
G01X43180392Y-86209885D01*
G01X43180392Y-86209885D01*
G01X43226907Y-86265141D01*
G01X43254125Y-86312425D01*
G01X43262423Y-86330979D01*
G01X43262423Y-86330979D01*
G01X43280834Y-86399616D01*
G01X43288026Y-86458089D01*
G01X43289277Y-86486335D01*
G01X43289279Y-86486741D01*
G01X43289279Y-86486741D01*
G01X43281440Y-86573095D01*
G01X43261667Y-86645341D01*
G01X43235576Y-86703094D01*
G01X43208783Y-86745970D01*
G01X43186904Y-86773584D01*
G01X43175555Y-86785554D01*
G01X43175021Y-86786057D01*
G01X43175021Y-86786057D01*
G01X43121307Y-86824264D01*
G01X43059882Y-86851854D01*
G01X42996358Y-86870554D01*
G01X42936346Y-86882095D01*
G01X42885457Y-86888203D01*
G01X42849303Y-86890607D01*
G01X42833494Y-86891037D01*
G01X42833224Y-86891037D01*
G01X42688693Y-86891037D01*
G01X42688693Y-87352952D01*
G01X42525607Y-87352952D01*
G37*
%LPC*%
G36*
G01X42688693Y-86751389D02*
G01X42825411Y-86751389D01*
G01X42825411Y-86751389D01*
G01X42913448Y-86743948D01*
G01X42979252Y-86726739D01*
G01X43023133Y-86707438D01*
G01X43045405Y-86693717D01*
G01X43048556Y-86691330D01*
G01X43048556Y-86691330D01*
G01X43088095Y-86640058D01*
G01X43109854Y-86579696D01*
G01X43119142Y-86526106D01*
G01X43121273Y-86495151D01*
G01X43121310Y-86492600D01*
G01X43121310Y-86492600D01*
G01X43109281Y-86407893D01*
G01X43077761Y-86345068D01*
G01X43033597Y-86300855D01*
G01X42983638Y-86271985D01*
G01X42934733Y-86255188D01*
G01X42893730Y-86247194D01*
G01X42867478Y-86244734D01*
G01X42861544Y-86244553D01*
G01X42861544Y-86244553D01*
G01X42792086Y-86245041D01*
G01X42761447Y-86245530D01*
G01X42761447Y-86245530D01*
G01X42761447Y-86245530D01*
G01X42695717Y-86250243D01*
G01X42688693Y-86251389D01*
G01X42688693Y-86751389D01*
G37*
%LPD*%
G36*
G01X43493380Y-86234787D02*
G01X43493380Y-86234787D01*
G01X43536711Y-86194599D01*
G01X43541232Y-86190842D01*
G01X43541232Y-86190842D01*
G01X43596340Y-86153688D01*
G01X43618380Y-86141526D01*
G01X43618380Y-86141526D01*
G01X43682167Y-86114883D01*
G01X43718862Y-86103118D01*
G01X43719454Y-86102952D01*
G01X43719454Y-86102952D01*
G01X43788837Y-86090375D01*
G01X43834498Y-86087390D01*
G01X43839083Y-86087327D01*
G01X43839083Y-86087327D01*
G01X43929432Y-86094158D01*
G01X44002429Y-86111160D01*
G01X44058334Y-86133093D01*
G01X44097405Y-86154718D01*
G01X44119901Y-86170795D01*
G01X44126193Y-86176194D01*
G01X44126193Y-86176194D01*
G01X44169662Y-86233535D01*
G01X44196856Y-86297580D01*
G01X44211590Y-86358321D01*
G01X44217684Y-86405750D01*
G01X44218954Y-86429862D01*
G01X44218966Y-86431077D01*
G01X44218966Y-86431077D01*
G01X44210200Y-86502577D01*
G01X44196654Y-86548389D01*
G01X44194064Y-86555100D01*
G01X44194064Y-86555100D01*
G01X44161830Y-86619268D01*
G01X44134444Y-86663518D01*
G01X44128146Y-86672776D01*
G01X44128146Y-86672776D01*
G01X44083811Y-86730607D01*
G01X44047659Y-86772953D01*
G01X44035372Y-86786545D01*
G01X43928927Y-86896897D01*
G01X43859591Y-86969162D01*
G01X43859591Y-86969162D01*
G01X43811753Y-87021817D01*
G01X43784924Y-87053281D01*
G01X43783419Y-87055100D01*
G01X43783419Y-87055100D01*
G01X43741121Y-87112603D01*
G01X43723475Y-87140838D01*
G01X43723361Y-87141037D01*
G01X43723361Y-87141037D01*
G01X43700375Y-87203534D01*
G01X43699435Y-87213303D01*
G01X44268771Y-87213303D01*
G01X44268771Y-87352952D01*
G01X43518771Y-87352952D01*
G01X43518771Y-87352952D01*
G01X43516818Y-87331467D01*
G01X43516818Y-87310959D01*
G01X43516818Y-87310959D01*
G01X43523662Y-87236036D01*
G01X43536770Y-87180325D01*
G01X43545006Y-87155538D01*
G01X43545138Y-87155198D01*
G01X43545138Y-87155198D01*
G01X43576139Y-87088584D01*
G01X43604505Y-87039074D01*
G01X43617390Y-87018986D01*
G01X43617404Y-87018967D01*
G01X43617404Y-87018967D01*
G01X43660747Y-86961092D01*
G01X43697827Y-86917617D01*
G01X43715778Y-86898142D01*
G01X43716036Y-86897873D01*
G01X43825411Y-86786545D01*
G01X43910372Y-86700608D01*
G01X43910372Y-86700608D01*
G01X43958469Y-86646746D01*
G01X43981570Y-86617408D01*
G01X43982150Y-86616623D01*
G01X43982150Y-86616623D01*
G01X44018588Y-86557419D01*
G01X44031954Y-86529709D01*
G01X44031954Y-86529709D01*
G01X44031954Y-86529709D01*
G01X44049020Y-86463375D01*
G01X44050997Y-86436936D01*
G01X44050997Y-86436936D01*
G01X44041429Y-86367130D01*
G01X44033907Y-86345139D01*
G01X44033907Y-86345139D01*
G01X43997319Y-86291286D01*
G01X43988009Y-86282151D01*
G01X43988009Y-86282151D01*
G01X43933080Y-86249548D01*
G01X43921115Y-86245041D01*
G01X43921115Y-86245041D01*
G01X43856181Y-86233558D01*
G01X43839083Y-86232834D01*
G01X43839083Y-86232834D01*
G01X43769283Y-86240551D01*
G01X43744357Y-86246994D01*
G01X43744357Y-86246994D01*
G01X43682622Y-86273221D01*
G01X43668185Y-86281174D01*
G01X43668185Y-86281174D01*
G01X43616000Y-86316428D01*
G01X43611056Y-86320237D01*
G01X43611056Y-86320237D01*
G01X43575411Y-86350998D01*
G37*
G36*
G01X2579829Y-87465957D02*
G01X2579829Y-86246230D01*
G01X2579829Y-86246230D01*
G01X2643469Y-86234429D01*
G01X2658442Y-86232070D01*
G01X2658442Y-86232070D01*
G01X2725217Y-86223685D01*
G01X2743891Y-86221816D01*
G01X2743891Y-86221816D01*
G01X2810688Y-86217527D01*
G01X2827876Y-86216933D01*
G01X2827876Y-86216933D01*
G01X2892887Y-86215992D01*
G01X2903071Y-86215957D01*
G01X2903071Y-86215957D01*
G01X2982621Y-86220622D01*
G01X3045211Y-86230707D01*
G01X3084970Y-86240340D01*
G01X3096430Y-86243789D01*
G01X3096430Y-86243789D01*
G01X3166672Y-86275259D01*
G01X3214437Y-86306442D01*
G01X3234351Y-86322649D01*
G01X3234614Y-86322890D01*
G01X3234614Y-86322890D01*
G01X3281129Y-86378146D01*
G01X3308347Y-86425430D01*
G01X3316645Y-86443984D01*
G01X3316645Y-86443984D01*
G01X3335056Y-86512621D01*
G01X3342248Y-86571094D01*
G01X3343499Y-86599340D01*
G01X3343501Y-86599746D01*
G01X3343501Y-86599746D01*
G01X3335662Y-86686100D01*
G01X3315889Y-86758346D01*
G01X3289798Y-86816099D01*
G01X3263005Y-86858975D01*
G01X3241126Y-86886589D01*
G01X3229777Y-86898559D01*
G01X3229243Y-86899062D01*
G01X3229243Y-86899062D01*
G01X3175529Y-86937269D01*
G01X3114104Y-86964859D01*
G01X3050580Y-86983559D01*
G01X2990568Y-86995100D01*
G01X2939679Y-87001208D01*
G01X2903525Y-87003612D01*
G01X2887716Y-87004042D01*
G01X2887446Y-87004042D01*
G01X2742915Y-87004042D01*
G01X2742915Y-87465957D01*
G01X2579829Y-87465957D01*
G37*
%LPC*%
G36*
G01X2742915Y-86864394D02*
G01X2879633Y-86864394D01*
G01X2879633Y-86864394D01*
G01X2967670Y-86856953D01*
G01X3033474Y-86839744D01*
G01X3077355Y-86820443D01*
G01X3099627Y-86806722D01*
G01X3102778Y-86804335D01*
G01X3102778Y-86804335D01*
G01X3142317Y-86753063D01*
G01X3164076Y-86692701D01*
G01X3173364Y-86639111D01*
G01X3175495Y-86608156D01*
G01X3175532Y-86605605D01*
G01X3175532Y-86605605D01*
G01X3163503Y-86520898D01*
G01X3131983Y-86458073D01*
G01X3087819Y-86413860D01*
G01X3037860Y-86384990D01*
G01X2988955Y-86368193D01*
G01X2947952Y-86360199D01*
G01X2921700Y-86357739D01*
G01X2915766Y-86357558D01*
G01X2915766Y-86357558D01*
G01X2846308Y-86358046D01*
G01X2815669Y-86358535D01*
G01X2815669Y-86358535D01*
G01X2815669Y-86358535D01*
G01X2749939Y-86363248D01*
G01X2742915Y-86364394D01*
G01X2742915Y-86864394D01*
G37*
%LPD*%
G36*
G01X3583735Y-86483535D02*
G01X3583735Y-86483535D01*
G01X3651856Y-86453639D01*
G01X3711642Y-86423152D01*
G01X3756462Y-86397990D01*
G01X3779688Y-86384070D01*
G01X3781489Y-86382949D01*
G01X3781489Y-86382949D01*
G01X3842196Y-86339397D01*
G01X3894456Y-86294156D01*
G01X3933931Y-86255460D01*
G01X3956285Y-86231545D01*
G01X3959712Y-86227675D01*
G01X4074946Y-86227675D01*
G01X4074946Y-87326308D01*
G01X4309321Y-87326308D01*
G01X4309321Y-87465957D01*
G01X3643305Y-87465957D01*
G01X3643305Y-87326308D01*
G01X3910883Y-87326308D01*
G01X3910883Y-86458144D01*
G01X3910883Y-86458144D01*
G01X3862818Y-86495086D01*
G01X3857661Y-86498671D01*
G01X3857661Y-86498671D01*
G01X3802534Y-86532792D01*
G01X3790278Y-86539687D01*
G01X3790278Y-86539687D01*
G01X3730814Y-86569773D01*
G01X3713618Y-86577773D01*
G01X3713618Y-86577773D01*
G01X3651462Y-86602277D01*
G01X3635493Y-86607558D01*
G37*
G36*
G01X15727068Y-39288927D02*
G01X15727068Y-38069201D01*
G01X15727068Y-38069201D01*
G01X15787872Y-38056427D01*
G01X15795915Y-38055041D01*
G01X15795915Y-38055041D01*
G01X15860861Y-38046991D01*
G01X15875505Y-38045763D01*
G01X15875505Y-38045763D01*
G01X15941358Y-38041673D01*
G01X15956560Y-38040881D01*
G01X15956560Y-38040881D01*
G01X16020784Y-38038980D01*
G01X16028826Y-38038927D01*
G01X16028826Y-38038927D01*
G01X16122002Y-38044890D01*
G01X16200221Y-38060127D01*
G01X16263424Y-38080663D01*
G01X16311552Y-38102525D01*
G01X16344545Y-38121737D01*
G01X16362344Y-38134324D01*
G01X16365740Y-38137072D01*
G01X16365740Y-38137072D01*
G01X16411879Y-38190312D01*
G01X16443402Y-38251085D01*
G01X16463093Y-38312299D01*
G01X16473736Y-38366862D01*
G01X16478115Y-38407681D01*
G01X16479014Y-38427666D01*
G01X16479021Y-38428576D01*
G01X16479021Y-38428576D01*
G01X16470303Y-38505293D01*
G01X16450792Y-38567619D01*
G01X16430451Y-38610613D01*
G01X16419243Y-38629334D01*
G01X16418962Y-38629748D01*
G01X16418962Y-38629748D01*
G01X16370384Y-38685454D01*
G01X16319153Y-38726932D01*
G01X16277298Y-38753452D01*
G01X16256847Y-38764284D01*
G01X16256365Y-38764513D01*
G01X16323747Y-38873888D01*
G01X16398943Y-39003771D01*
G01X16474138Y-39146349D01*
G01X16474138Y-39146349D01*
G01X16507131Y-39213318D01*
G01X16531532Y-39265022D01*
G01X16542349Y-39288599D01*
G01X16542497Y-39288927D01*
G01X16366716Y-39288927D01*
G01X16366716Y-39288927D01*
G01X16335727Y-39217283D01*
G01X16305153Y-39151156D01*
G01X16277440Y-39094115D01*
G01X16255037Y-39049731D01*
G01X16240389Y-39021572D01*
G01X16235857Y-39013049D01*
G01X16235857Y-39013049D01*
G01X16194263Y-38939943D01*
G01X16156935Y-38880431D01*
G01X16126732Y-38836037D01*
G01X16106513Y-38808283D01*
G01X16099138Y-38798693D01*
G01X16099138Y-38798693D01*
G01X16099138Y-38798693D01*
G01X16063982Y-38800646D01*
G01X16032732Y-38800646D01*
G01X15893083Y-38800646D01*
G01X15893083Y-39288927D01*
G01X15727068Y-39288927D01*
G37*
%LPC*%
G36*
G01X15893083Y-38664904D02*
G01X15998552Y-38664904D01*
G01X15998552Y-38664904D01*
G01X16073705Y-38661607D01*
G01X16120099Y-38656348D01*
G01X16127947Y-38655138D01*
G01X16127947Y-38655138D01*
G01X16196321Y-38633894D01*
G01X16225896Y-38618157D01*
G01X16226091Y-38618029D01*
G01X16226091Y-38618029D01*
G01X16273597Y-38569762D01*
G01X16289079Y-38543810D01*
G01X16289079Y-38543810D01*
G01X16306306Y-38480248D01*
G01X16310876Y-38429060D01*
G01X16311052Y-38420763D01*
G01X16311052Y-38420763D01*
G01X16302680Y-38345109D01*
G01X16290587Y-38306044D01*
G01X16289079Y-38302599D01*
G01X16289079Y-38302599D01*
G01X16249016Y-38246133D01*
G01X16230974Y-38229845D01*
G01X16230974Y-38229845D01*
G01X16171021Y-38199316D01*
G01X16146013Y-38191760D01*
G01X16146013Y-38191760D01*
G01X16078347Y-38182108D01*
G01X16042756Y-38180530D01*
G01X16042497Y-38180529D01*
G01X16042497Y-38180529D01*
G01X15974282Y-38181119D01*
G01X15953630Y-38181506D01*
G01X15953630Y-38181506D01*
G01X15894646Y-38186985D01*
G01X15893083Y-38187365D01*
G01X15893083Y-38664904D01*
G37*
%LPD*%
G36*
G01X16767107Y-38306506D02*
G01X16767107Y-38306506D01*
G01X16835227Y-38276610D01*
G01X16895013Y-38246123D01*
G01X16939834Y-38220961D01*
G01X16963060Y-38207041D01*
G01X16964861Y-38205920D01*
G01X16964861Y-38205920D01*
G01X17025568Y-38162368D01*
G01X17077828Y-38117127D01*
G01X17117302Y-38078431D01*
G01X17139657Y-38054516D01*
G01X17143083Y-38050646D01*
G01X17258318Y-38050646D01*
G01X17258318Y-39149279D01*
G01X17492693Y-39149279D01*
G01X17492693Y-39288927D01*
G01X16826677Y-39288927D01*
G01X16826677Y-39149279D01*
G01X17094255Y-39149279D01*
G01X17094255Y-38281115D01*
G01X17094255Y-38281115D01*
G01X17046190Y-38318057D01*
G01X17041033Y-38321642D01*
G01X17041033Y-38321642D01*
G01X16985906Y-38355763D01*
G01X16973650Y-38362658D01*
G01X16973650Y-38362658D01*
G01X16914186Y-38392744D01*
G01X16896990Y-38400744D01*
G01X16896990Y-38400744D01*
G01X16834833Y-38425248D01*
G01X16818865Y-38430529D01*
G37*
G36*
G01X37546328Y-83644654D02*
G01X37546328Y-82424927D01*
G01X37546328Y-82424927D01*
G01X37607132Y-82412153D01*
G01X37615175Y-82410767D01*
G01X37615175Y-82410767D01*
G01X37680121Y-82402717D01*
G01X37694765Y-82401489D01*
G01X37694765Y-82401489D01*
G01X37760618Y-82397399D01*
G01X37775820Y-82396607D01*
G01X37775820Y-82396607D01*
G01X37840044Y-82394706D01*
G01X37848086Y-82394654D01*
G01X37848086Y-82394654D01*
G01X37941262Y-82400616D01*
G01X38019481Y-82415853D01*
G01X38082684Y-82436389D01*
G01X38130812Y-82458251D01*
G01X38163805Y-82477463D01*
G01X38181604Y-82490050D01*
G01X38185000Y-82492798D01*
G01X38185000Y-82492798D01*
G01X38231139Y-82546038D01*
G01X38262662Y-82606811D01*
G01X38282353Y-82668025D01*
G01X38292996Y-82722588D01*
G01X38297375Y-82763407D01*
G01X38298274Y-82783392D01*
G01X38298281Y-82784302D01*
G01X38298281Y-82784302D01*
G01X38289563Y-82861019D01*
G01X38270052Y-82923345D01*
G01X38249711Y-82966339D01*
G01X38238503Y-82985060D01*
G01X38238222Y-82985474D01*
G01X38238222Y-82985474D01*
G01X38189644Y-83041180D01*
G01X38138413Y-83082658D01*
G01X38096558Y-83109178D01*
G01X38076107Y-83120010D01*
G01X38075625Y-83120239D01*
G01X38143007Y-83229614D01*
G01X38218203Y-83359497D01*
G01X38293398Y-83502075D01*
G01X38293398Y-83502075D01*
G01X38326391Y-83569044D01*
G01X38350792Y-83620748D01*
G01X38361609Y-83644325D01*
G01X38361757Y-83644654D01*
G01X38185976Y-83644654D01*
G01X38185976Y-83644654D01*
G01X38154987Y-83573009D01*
G01X38124413Y-83506882D01*
G01X38096700Y-83449841D01*
G01X38074297Y-83405457D01*
G01X38059649Y-83377298D01*
G01X38055117Y-83368775D01*
G01X38055117Y-83368775D01*
G01X38013523Y-83295669D01*
G01X37976195Y-83236157D01*
G01X37945992Y-83191763D01*
G01X37925773Y-83164009D01*
G01X37918398Y-83154419D01*
G01X37918398Y-83154419D01*
G01X37918398Y-83154419D01*
G01X37883242Y-83156372D01*
G01X37851992Y-83156372D01*
G01X37712343Y-83156372D01*
G01X37712343Y-83644654D01*
G01X37546328Y-83644654D01*
G37*
%LPC*%
G36*
G01X37712343Y-83020630D02*
G01X37817812Y-83020630D01*
G01X37817812Y-83020630D01*
G01X37892965Y-83017333D01*
G01X37939359Y-83012074D01*
G01X37947207Y-83010864D01*
G01X37947207Y-83010864D01*
G01X38015581Y-82989620D01*
G01X38045156Y-82973883D01*
G01X38045351Y-82973755D01*
G01X38045351Y-82973755D01*
G01X38092857Y-82925488D01*
G01X38108339Y-82899536D01*
G01X38108339Y-82899536D01*
G01X38125566Y-82835974D01*
G01X38130136Y-82784786D01*
G01X38130312Y-82776489D01*
G01X38130312Y-82776489D01*
G01X38121940Y-82700835D01*
G01X38109847Y-82661770D01*
G01X38108339Y-82658325D01*
G01X38108339Y-82658325D01*
G01X38068276Y-82601859D01*
G01X38050234Y-82585571D01*
G01X38050234Y-82585571D01*
G01X37990281Y-82555042D01*
G01X37965273Y-82547486D01*
G01X37965273Y-82547486D01*
G01X37897607Y-82537834D01*
G01X37862016Y-82536256D01*
G01X37861757Y-82536255D01*
G01X37861757Y-82536255D01*
G01X37793542Y-82536845D01*
G01X37772890Y-82537232D01*
G01X37772890Y-82537232D01*
G01X37713906Y-82542711D01*
G01X37712343Y-82543091D01*
G01X37712343Y-83020630D01*
G37*
%LPD*%
G36*
G01X38550234Y-82526489D02*
G01X38550234Y-82526489D01*
G01X38593565Y-82486301D01*
G01X38598086Y-82482544D01*
G01X38598086Y-82482544D01*
G01X38653194Y-82445390D01*
G01X38675234Y-82433228D01*
G01X38675234Y-82433228D01*
G01X38739020Y-82406585D01*
G01X38775716Y-82394820D01*
G01X38776308Y-82394654D01*
G01X38776308Y-82394654D01*
G01X38845691Y-82382077D01*
G01X38891352Y-82379092D01*
G01X38895937Y-82379029D01*
G01X38895937Y-82379029D01*
G01X38986286Y-82385860D01*
G01X39059283Y-82402862D01*
G01X39115188Y-82424795D01*
G01X39154258Y-82446420D01*
G01X39176755Y-82462497D01*
G01X39183046Y-82467896D01*
G01X39183046Y-82467896D01*
G01X39226516Y-82525237D01*
G01X39253709Y-82589282D01*
G01X39268444Y-82650023D01*
G01X39274537Y-82697452D01*
G01X39275808Y-82721564D01*
G01X39275820Y-82722779D01*
G01X39275820Y-82722779D01*
G01X39267054Y-82794279D01*
G01X39253507Y-82840091D01*
G01X39250918Y-82846802D01*
G01X39250918Y-82846802D01*
G01X39218683Y-82910970D01*
G01X39191297Y-82955220D01*
G01X39185000Y-82964478D01*
G01X39185000Y-82964478D01*
G01X39140665Y-83022309D01*
G01X39104513Y-83064655D01*
G01X39092226Y-83078247D01*
G01X38985781Y-83188599D01*
G01X38916445Y-83260864D01*
G01X38916445Y-83260864D01*
G01X38868607Y-83313519D01*
G01X38841778Y-83344983D01*
G01X38840273Y-83346802D01*
G01X38840273Y-83346802D01*
G01X38797975Y-83404305D01*
G01X38780329Y-83432540D01*
G01X38780214Y-83432739D01*
G01X38780214Y-83432739D01*
G01X38757229Y-83495236D01*
G01X38756289Y-83505005D01*
G01X39325625Y-83505005D01*
G01X39325625Y-83644654D01*
G01X38575625Y-83644654D01*
G01X38575625Y-83644654D01*
G01X38573671Y-83623169D01*
G01X38573671Y-83602661D01*
G01X38573671Y-83602661D01*
G01X38580515Y-83527738D01*
G01X38593623Y-83472027D01*
G01X38601859Y-83447240D01*
G01X38601992Y-83446900D01*
G01X38601992Y-83446900D01*
G01X38632993Y-83380286D01*
G01X38661358Y-83330776D01*
G01X38674244Y-83310688D01*
G01X38674257Y-83310669D01*
G01X38674257Y-83310669D01*
G01X38717601Y-83252794D01*
G01X38754680Y-83209319D01*
G01X38772632Y-83189844D01*
G01X38772890Y-83189575D01*
G01X38882265Y-83078247D01*
G01X38967226Y-82992310D01*
G01X38967226Y-82992310D01*
G01X39015322Y-82938448D01*
G01X39038423Y-82909110D01*
G01X39039003Y-82908325D01*
G01X39039003Y-82908325D01*
G01X39075441Y-82849121D01*
G01X39088808Y-82821411D01*
G01X39088808Y-82821411D01*
G01X39088808Y-82821411D01*
G01X39105874Y-82755077D01*
G01X39107851Y-82728638D01*
G01X39107851Y-82728638D01*
G01X39098283Y-82658832D01*
G01X39090761Y-82636841D01*
G01X39090761Y-82636841D01*
G01X39054173Y-82582988D01*
G01X39044863Y-82573853D01*
G01X39044863Y-82573853D01*
G01X38989934Y-82541250D01*
G01X38977968Y-82536743D01*
G01X38977968Y-82536743D01*
G01X38913035Y-82525260D01*
G01X38895937Y-82524536D01*
G01X38895937Y-82524536D01*
G01X38826137Y-82532253D01*
G01X38801211Y-82538696D01*
G01X38801211Y-82538696D01*
G01X38739476Y-82564923D01*
G01X38725039Y-82572876D01*
G01X38725039Y-82572876D01*
G01X38672854Y-82608130D01*
G01X38667910Y-82611939D01*
G01X38667910Y-82611939D01*
G01X38632265Y-82642700D01*
G37*
G36*
G01X22530745Y-36411440D02*
G01X22530745Y-35598940D01*
G01X22694807Y-35598940D01*
G01X22694807Y-36392885D01*
G01X22694807Y-36392885D01*
G01X22698937Y-36472497D01*
G01X22706847Y-36526981D01*
G01X22711817Y-36549809D01*
G01X22711897Y-36550111D01*
G01X22711897Y-36550111D01*
G01X22739433Y-36619015D01*
G01X22759345Y-36650069D01*
G01X22760237Y-36651186D01*
G01X22760237Y-36651186D01*
G01X22813049Y-36694145D01*
G01X22835432Y-36704897D01*
G01X22835432Y-36704897D01*
G01X22901716Y-36718996D01*
G01X22935042Y-36721010D01*
G01X22935042Y-36721010D01*
G01X22935042Y-36721010D01*
G01X23005720Y-36712953D01*
G01X23034651Y-36704897D01*
G01X23034651Y-36704897D01*
G01X23034651Y-36704897D01*
G01X23091815Y-36669302D01*
G01X23109846Y-36651186D01*
G01X23109846Y-36651186D01*
G01X23143164Y-36593057D01*
G01X23157676Y-36552401D01*
G01X23158186Y-36550600D01*
G01X23158186Y-36550600D01*
G01X23169902Y-36484525D01*
G01X23174479Y-36423814D01*
G01X23175275Y-36393331D01*
G01X23175276Y-36392885D01*
G01X23175276Y-35598940D01*
G01X23339338Y-35598940D01*
G01X23339338Y-36411440D01*
G01X23339338Y-36411440D01*
G01X23335398Y-36489747D01*
G01X23327037Y-36551900D01*
G01X23319444Y-36590286D01*
G01X23317366Y-36598940D01*
G01X23317366Y-36598940D01*
G01X23290620Y-36670558D01*
G01X23262362Y-36719941D01*
G01X23247281Y-36740752D01*
G01X23247053Y-36741029D01*
G01X23247053Y-36741029D01*
G01X23193717Y-36789871D01*
G01X23144513Y-36820435D01*
G01X23122076Y-36831352D01*
G01X23122053Y-36831361D01*
G01X23122053Y-36831361D01*
G01X23055425Y-36851051D01*
G01X22991072Y-36860451D01*
G01X22946005Y-36863367D01*
G01X22935042Y-36863588D01*
G01X22935042Y-36863588D01*
G01X22853871Y-36857809D01*
G01X22792511Y-36845545D01*
G01X22756037Y-36834409D01*
G01X22748030Y-36831361D01*
G01X22748030Y-36831361D01*
G01X22682108Y-36794021D01*
G01X22639007Y-36757879D01*
G01X22623044Y-36741047D01*
G01X22623030Y-36741029D01*
G01X22623030Y-36741029D01*
G01X22584580Y-36680898D01*
G01X22561465Y-36626467D01*
G01X22552823Y-36599336D01*
G01X22552717Y-36598940D01*
G01X22552717Y-36598940D01*
G01X22539292Y-36529063D01*
G01X22532883Y-36465174D01*
G01X22530895Y-36421806D01*
G01X22530745Y-36411440D01*
G37*
G36*
G01X23585432Y-35854799D02*
G01X23585432Y-35854799D01*
G01X23653553Y-35824904D01*
G01X23713339Y-35794416D01*
G01X23758160Y-35769254D01*
G01X23781386Y-35755334D01*
G01X23783186Y-35754213D01*
G01X23783186Y-35754213D01*
G01X23843894Y-35710662D01*
G01X23896153Y-35665420D01*
G01X23935628Y-35626724D01*
G01X23957982Y-35602809D01*
G01X23961409Y-35598940D01*
G01X24076643Y-35598940D01*
G01X24076643Y-36697572D01*
G01X24311018Y-36697572D01*
G01X24311018Y-36837221D01*
G01X23645003Y-36837221D01*
G01X23645003Y-36697572D01*
G01X23912581Y-36697572D01*
G01X23912581Y-35829408D01*
G01X23912581Y-35829408D01*
G01X23864515Y-35866350D01*
G01X23859358Y-35869936D01*
G01X23859358Y-35869936D01*
G01X23804231Y-35904056D01*
G01X23791975Y-35910951D01*
G01X23791975Y-35910951D01*
G01X23732512Y-35941037D01*
G01X23715315Y-35949037D01*
G01X23715315Y-35949037D01*
G01X23653159Y-35973541D01*
G01X23637190Y-35978822D01*
G37*
G36*
G01X33696436Y-91129250D02*
G01X33761865Y-90995460D01*
G01X33761865Y-90995460D01*
G01X33817822Y-91031094D01*
G01X33859477Y-91053749D01*
G01X33862940Y-91055519D01*
G01X33862940Y-91055519D01*
G01X33930343Y-91078133D01*
G01X33987552Y-91086217D01*
G01X34009912Y-91087257D01*
G01X34009912Y-91087257D01*
G01X34093714Y-91076652D01*
G01X34153345Y-91053322D01*
G01X34188989Y-91029991D01*
G01X34200830Y-91019386D01*
G01X34200830Y-91019386D01*
G01X34200830Y-91019386D01*
G01X34232763Y-90966534D01*
G01X34251529Y-90902990D01*
G01X34260628Y-90842999D01*
G01X34263561Y-90800806D01*
G01X34263819Y-90789406D01*
G01X34263819Y-90105812D01*
G01X33841944Y-90105812D01*
G01X33841944Y-89965187D01*
G01X34427881Y-89965187D01*
G01X34427881Y-90805031D01*
G01X34427881Y-90805031D01*
G01X34423768Y-90879650D01*
G01X34415541Y-90937921D01*
G01X34409371Y-90968771D01*
G01X34408838Y-90971046D01*
G01X34408838Y-90971046D01*
G01X34382698Y-91042032D01*
G01X34354872Y-91089934D01*
G01X34342920Y-91106300D01*
G01X34342920Y-91106300D01*
G01X34291668Y-91153490D01*
G01X34242504Y-91184156D01*
G01X34217316Y-91196474D01*
G01X34216944Y-91196632D01*
G01X34216944Y-91196632D01*
G01X34152445Y-91215828D01*
G01X34087671Y-91225685D01*
G01X34037729Y-91229317D01*
G01X34017725Y-91229835D01*
G01X34017725Y-91229835D01*
G01X34017725Y-91229835D01*
G01X33935541Y-91224495D01*
G01X33871851Y-91212746D01*
G01X33830683Y-91200996D01*
G01X33816065Y-91195656D01*
G01X33816065Y-91195656D01*
G01X33816065Y-91195656D01*
G01X33743128Y-91160052D01*
G01X33704254Y-91135253D01*
G01X33696436Y-91129250D01*
G37*
G36*
G01X34738428Y-90221046D02*
G01X34738428Y-90221046D01*
G01X34806549Y-90191151D01*
G01X34866334Y-90160664D01*
G01X34911155Y-90135501D01*
G01X34934381Y-90121581D01*
G01X34936182Y-90120460D01*
G01X34936182Y-90120460D01*
G01X34996889Y-90076909D01*
G01X35049149Y-90031668D01*
G01X35088624Y-89992972D01*
G01X35110978Y-89969056D01*
G01X35114404Y-89965187D01*
G01X35229639Y-89965187D01*
G01X35229639Y-91063820D01*
G01X35464014Y-91063820D01*
G01X35464014Y-91203468D01*
G01X34797998Y-91203468D01*
G01X34797998Y-91063820D01*
G01X35065576Y-91063820D01*
G01X35065576Y-90195656D01*
G01X35065576Y-90195656D01*
G01X35017511Y-90232597D01*
G01X35012354Y-90236183D01*
G01X35012354Y-90236183D01*
G01X34957227Y-90270304D01*
G01X34944971Y-90277199D01*
G01X34944971Y-90277199D01*
G01X34885507Y-90307284D01*
G01X34868311Y-90315285D01*
G01X34868311Y-90315285D01*
G01X34806154Y-90339789D01*
G01X34790186Y-90345070D01*
G37*
G36*
G01X27233588Y-7678342D02*
G01X27299018Y-7544553D01*
G01X27299018Y-7544553D01*
G01X27354974Y-7580187D01*
G01X27396630Y-7602841D01*
G01X27400092Y-7604611D01*
G01X27400092Y-7604611D01*
G01X27467495Y-7627225D01*
G01X27524705Y-7635309D01*
G01X27547065Y-7636349D01*
G01X27547065Y-7636349D01*
G01X27630866Y-7625745D01*
G01X27690497Y-7602414D01*
G01X27726142Y-7579083D01*
G01X27737983Y-7568478D01*
G01X27737983Y-7568478D01*
G01X27737983Y-7568478D01*
G01X27769915Y-7515626D01*
G01X27788681Y-7452082D01*
G01X27797780Y-7392091D01*
G01X27800713Y-7349898D01*
G01X27800971Y-7338498D01*
G01X27800971Y-6654904D01*
G01X27379096Y-6654904D01*
G01X27379096Y-6514279D01*
G01X27965033Y-6514279D01*
G01X27965033Y-7354123D01*
G01X27965033Y-7354123D01*
G01X27960920Y-7428742D01*
G01X27952694Y-7487013D01*
G01X27946524Y-7517863D01*
G01X27945990Y-7520138D01*
G01X27945990Y-7520138D01*
G01X27919851Y-7591124D01*
G01X27892025Y-7639026D01*
G01X27880073Y-7655392D01*
G01X27880073Y-7655392D01*
G01X27828821Y-7702582D01*
G01X27779657Y-7733248D01*
G01X27754469Y-7745566D01*
G01X27754096Y-7745724D01*
G01X27754096Y-7745724D01*
G01X27689597Y-7764920D01*
G01X27624823Y-7774777D01*
G01X27574881Y-7778409D01*
G01X27554877Y-7778928D01*
G01X27554877Y-7778928D01*
G01X27554877Y-7778928D01*
G01X27472693Y-7773587D01*
G01X27409003Y-7761838D01*
G01X27367835Y-7750088D01*
G01X27353217Y-7744748D01*
G01X27353217Y-7744748D01*
G01X27353217Y-7744748D01*
G01X27280280Y-7709144D01*
G01X27241406Y-7684345D01*
G01X27233588Y-7678342D01*
G37*
G36*
G01X28239448Y-6634396D02*
G01X28239448Y-6634396D01*
G01X28282779Y-6594208D01*
G01X28287299Y-6590451D01*
G01X28287299Y-6590451D01*
G01X28342408Y-6553296D01*
G01X28364448Y-6541135D01*
G01X28364448Y-6541135D01*
G01X28428234Y-6514492D01*
G01X28464930Y-6502727D01*
G01X28465522Y-6502560D01*
G01X28465522Y-6502560D01*
G01X28534904Y-6489984D01*
G01X28580566Y-6486999D01*
G01X28585151Y-6486935D01*
G01X28585151Y-6486935D01*
G01X28675500Y-6493767D01*
G01X28748497Y-6510769D01*
G01X28804401Y-6532702D01*
G01X28843472Y-6554327D01*
G01X28865968Y-6570404D01*
G01X28872260Y-6575803D01*
G01X28872260Y-6575803D01*
G01X28915730Y-6633144D01*
G01X28942923Y-6697189D01*
G01X28957657Y-6757930D01*
G01X28963751Y-6805359D01*
G01X28965022Y-6829471D01*
G01X28965033Y-6830685D01*
G01X28965033Y-6830685D01*
G01X28956268Y-6902185D01*
G01X28942721Y-6947998D01*
G01X28940131Y-6954709D01*
G01X28940131Y-6954709D01*
G01X28907897Y-7018876D01*
G01X28880511Y-7063127D01*
G01X28874213Y-7072385D01*
G01X28874213Y-7072385D01*
G01X28829879Y-7130216D01*
G01X28793727Y-7172562D01*
G01X28781440Y-7186154D01*
G01X28674994Y-7296506D01*
G01X28605658Y-7368771D01*
G01X28605658Y-7368771D01*
G01X28557821Y-7421426D01*
G01X28530992Y-7452890D01*
G01X28529487Y-7454709D01*
G01X28529487Y-7454709D01*
G01X28487189Y-7512212D01*
G01X28469542Y-7540447D01*
G01X28469428Y-7540646D01*
G01X28469428Y-7540646D01*
G01X28446443Y-7603142D01*
G01X28445502Y-7612912D01*
G01X29014838Y-7612912D01*
G01X29014838Y-7752560D01*
G01X28264838Y-7752560D01*
G01X28264838Y-7752560D01*
G01X28262885Y-7731076D01*
G01X28262885Y-7710568D01*
G01X28262885Y-7710568D01*
G01X28269729Y-7635645D01*
G01X28282837Y-7579934D01*
G01X28291073Y-7555147D01*
G01X28291205Y-7554806D01*
G01X28291205Y-7554806D01*
G01X28322206Y-7488193D01*
G01X28350572Y-7438683D01*
G01X28363458Y-7418595D01*
G01X28363471Y-7418576D01*
G01X28363471Y-7418576D01*
G01X28406814Y-7360701D01*
G01X28443894Y-7317226D01*
G01X28461845Y-7297751D01*
G01X28462104Y-7297482D01*
G01X28571479Y-7186154D01*
G01X28656440Y-7100217D01*
G01X28656440Y-7100217D01*
G01X28704536Y-7046355D01*
G01X28727637Y-7017017D01*
G01X28728217Y-7016232D01*
G01X28728217Y-7016232D01*
G01X28764655Y-6957028D01*
G01X28778022Y-6929318D01*
G01X28778022Y-6929318D01*
G01X28778022Y-6929318D01*
G01X28795088Y-6862984D01*
G01X28797065Y-6836545D01*
G01X28797065Y-6836545D01*
G01X28787497Y-6766739D01*
G01X28779975Y-6744748D01*
G01X28779975Y-6744748D01*
G01X28743386Y-6690895D01*
G01X28734076Y-6681760D01*
G01X28734076Y-6681760D01*
G01X28679148Y-6649157D01*
G01X28667182Y-6644650D01*
G01X28667182Y-6644650D01*
G01X28602249Y-6633167D01*
G01X28585151Y-6632443D01*
G01X28585151Y-6632443D01*
G01X28515351Y-6640160D01*
G01X28490424Y-6646603D01*
G01X28490424Y-6646603D01*
G01X28428690Y-6672830D01*
G01X28414252Y-6680783D01*
G01X28414252Y-6680783D01*
G01X28362068Y-6716036D01*
G01X28357123Y-6719846D01*
G01X28357123Y-6719846D01*
G01X28321479Y-6750607D01*
G37*
G36*
G01X32647494Y-37081972D02*
G01X32712923Y-36948183D01*
G01X32712923Y-36948183D01*
G01X32768880Y-36983817D01*
G01X32810535Y-37006472D01*
G01X32813998Y-37008242D01*
G01X32813998Y-37008242D01*
G01X32881401Y-37030856D01*
G01X32938610Y-37038940D01*
G01X32960970Y-37039980D01*
G01X32960970Y-37039980D01*
G01X33044772Y-37029375D01*
G01X33104403Y-37006045D01*
G01X33140047Y-36982714D01*
G01X33151888Y-36972109D01*
G01X33151888Y-36972109D01*
G01X33151888Y-36972109D01*
G01X33183821Y-36919257D01*
G01X33202587Y-36855713D01*
G01X33211686Y-36795722D01*
G01X33214619Y-36753529D01*
G01X33214877Y-36742129D01*
G01X33214877Y-36058535D01*
G01X32793002Y-36058535D01*
G01X32793002Y-35917910D01*
G01X33378939Y-35917910D01*
G01X33378939Y-36757754D01*
G01X33378939Y-36757754D01*
G01X33374826Y-36832373D01*
G01X33366599Y-36890644D01*
G01X33360429Y-36921494D01*
G01X33359896Y-36923769D01*
G01X33359896Y-36923769D01*
G01X33333756Y-36994755D01*
G01X33305930Y-37042657D01*
G01X33293978Y-37059023D01*
G01X33293978Y-37059023D01*
G01X33242726Y-37106213D01*
G01X33193562Y-37136879D01*
G01X33168374Y-37149197D01*
G01X33168002Y-37149355D01*
G01X33168002Y-37149355D01*
G01X33103503Y-37168551D01*
G01X33038729Y-37178408D01*
G01X32988787Y-37182040D01*
G01X32968783Y-37182558D01*
G01X32968783Y-37182558D01*
G01X32968783Y-37182558D01*
G01X32886599Y-37177218D01*
G01X32822909Y-37165469D01*
G01X32781741Y-37153719D01*
G01X32767123Y-37148379D01*
G01X32767123Y-37148379D01*
G01X32767123Y-37148379D01*
G01X32694186Y-37112775D01*
G01X32655312Y-37087976D01*
G01X32647494Y-37081972D01*
G37*
G36*
G01X33657259Y-37118105D02*
G01X33689486Y-36976504D01*
G01X33689486Y-36976504D01*
G01X33747370Y-36999339D01*
G01X33790251Y-37013694D01*
G01X33791537Y-37014101D01*
G01X33791537Y-37014101D01*
G01X33857040Y-37028210D01*
G01X33919052Y-37034446D01*
G01X33958067Y-37036026D01*
G01X33962923Y-37036074D01*
G01X33962923Y-37036074D01*
G01X34054339Y-37028270D01*
G01X34120799Y-37010222D01*
G01X34163862Y-36989979D01*
G01X34185089Y-36975589D01*
G01X34188021Y-36973086D01*
G01X34188021Y-36973086D01*
G01X34228892Y-36915687D01*
G01X34248404Y-36857180D01*
G01X34254457Y-36815036D01*
G01X34254916Y-36804629D01*
G01X34254916Y-36804629D01*
G01X34243903Y-36730768D01*
G01X34228567Y-36693005D01*
G01X34227084Y-36690371D01*
G01X34227084Y-36690371D01*
G01X34181592Y-36637615D01*
G01X34153569Y-36616287D01*
G01X34153353Y-36616152D01*
G01X34153353Y-36616152D01*
G01X34090865Y-36587996D01*
G01X34049862Y-36576628D01*
G01X34047396Y-36576113D01*
G01X34047396Y-36576113D01*
G01X33976935Y-36566926D01*
G01X33928318Y-36564488D01*
G01X33920931Y-36564394D01*
G01X33878939Y-36564394D01*
G01X33878939Y-36430605D01*
G01X33937533Y-36430605D01*
G01X33937533Y-36430605D01*
G01X34004415Y-36425273D01*
G01X34028353Y-36421328D01*
G01X34028353Y-36421328D01*
G01X34093408Y-36399706D01*
G01X34114291Y-36389101D01*
G01X34114291Y-36389101D01*
G01X34164131Y-36344501D01*
G01X34177279Y-36326113D01*
G01X34177279Y-36326113D01*
G01X34197840Y-36262787D01*
G01X34201203Y-36224841D01*
G01X34201205Y-36224551D01*
G01X34201205Y-36224551D01*
G01X34186798Y-36146413D01*
G01X34158590Y-36099160D01*
G01X34139099Y-36080175D01*
G01X34138216Y-36079531D01*
G01X34138216Y-36079531D01*
G01X34072771Y-36049144D01*
G01X34016243Y-36037782D01*
G01X33991269Y-36036074D01*
G01X33991244Y-36036074D01*
G01X33991244Y-36036074D01*
G01X33913906Y-36042753D01*
G01X33862578Y-36054958D01*
G01X33845248Y-36060976D01*
G01X33845248Y-36060976D01*
G01X33778155Y-36092948D01*
G01X33746331Y-36111483D01*
G01X33745150Y-36112246D01*
G01X33680697Y-35986269D01*
G01X33680697Y-35986269D01*
G01X33736786Y-35954265D01*
G01X33790475Y-35930204D01*
G01X33807650Y-35923281D01*
G01X33807650Y-35923281D01*
G01X33875701Y-35903823D01*
G01X33938594Y-35894184D01*
G01X33983251Y-35890915D01*
G01X33997103Y-35890566D01*
G01X33997103Y-35890566D01*
G01X34076451Y-35895734D01*
G01X34134072Y-35906070D01*
G01X34163005Y-35913822D01*
G01X34165072Y-35914492D01*
G01X34165072Y-35914492D01*
G01X34233157Y-35946930D01*
G01X34272814Y-35975654D01*
G01X34280306Y-35982363D01*
G01X34280306Y-35982363D01*
G01X34324054Y-36038934D01*
G01X34345059Y-36080081D01*
G01X34347201Y-36085390D01*
G01X34347201Y-36085390D01*
G01X34364186Y-36154474D01*
G01X34368939Y-36204588D01*
G01X34369173Y-36213808D01*
G01X34369173Y-36213808D01*
G01X34358739Y-36290425D01*
G01X34337439Y-36346542D01*
G01X34320278Y-36376444D01*
G01X34317904Y-36379824D01*
G01X34317904Y-36379824D01*
G01X34267134Y-36432541D01*
G01X34218658Y-36467222D01*
G01X34189799Y-36483236D01*
G01X34187533Y-36484316D01*
G01X34187533Y-36484316D01*
G01X34253771Y-36513277D01*
G01X34306185Y-36549380D01*
G01X34340655Y-36580172D01*
G01X34353060Y-36593203D01*
G01X34353060Y-36593203D01*
G01X34353060Y-36593203D01*
G01X34389749Y-36652234D01*
G01X34410622Y-36714933D01*
G01X34420140Y-36769225D01*
G01X34422764Y-36803040D01*
G01X34422884Y-36808535D01*
G01X34422884Y-36808535D01*
G01X34416041Y-36882073D01*
G01X34403231Y-36935849D01*
G01X34396037Y-36957440D01*
G01X34396029Y-36957461D01*
G01X34396029Y-36957461D01*
G01X34361003Y-37021434D01*
G01X34326641Y-37063496D01*
G01X34313998Y-37076113D01*
G01X34313998Y-37076113D01*
G01X34257069Y-37116034D01*
G01X34203048Y-37142345D01*
G01X34173145Y-37153824D01*
G01X34171908Y-37154238D01*
G01X34171908Y-37154238D01*
G01X34105712Y-37170126D01*
G01X34040758Y-37178576D01*
G01X33989762Y-37181937D01*
G01X33965443Y-37182557D01*
G01X33964877Y-37182558D01*
G01X33964877Y-37182558D01*
G01X33897135Y-37178567D01*
G01X33870150Y-37175234D01*
G01X33870150Y-37175234D01*
G01X33802564Y-37162609D01*
G01X33779330Y-37157168D01*
G01X33779330Y-37157168D01*
G01X33715905Y-37139015D01*
G01X33704134Y-37135195D01*
G01X33704134Y-37135195D01*
G01X33657259Y-37118105D01*
G37*
G36*
G01X17383068Y-7543853D02*
G01X17448498Y-7410064D01*
G01X17448498Y-7410064D01*
G01X17504454Y-7445698D01*
G01X17546110Y-7468353D01*
G01X17549572Y-7470123D01*
G01X17549572Y-7470123D01*
G01X17616975Y-7492737D01*
G01X17674185Y-7500821D01*
G01X17696545Y-7501861D01*
G01X17696545Y-7501861D01*
G01X17780346Y-7491256D01*
G01X17839977Y-7467926D01*
G01X17875622Y-7444595D01*
G01X17887463Y-7433990D01*
G01X17887463Y-7433990D01*
G01X17887463Y-7433990D01*
G01X17919395Y-7381138D01*
G01X17938161Y-7317594D01*
G01X17947260Y-7257603D01*
G01X17950193Y-7215410D01*
G01X17950451Y-7204010D01*
G01X17950451Y-6520416D01*
G01X17528576Y-6520416D01*
G01X17528576Y-6379791D01*
G01X18114513Y-6379791D01*
G01X18114513Y-7219635D01*
G01X18114513Y-7219635D01*
G01X18110400Y-7294254D01*
G01X18102174Y-7352525D01*
G01X18096004Y-7383375D01*
G01X18095470Y-7385650D01*
G01X18095470Y-7385650D01*
G01X18069331Y-7456636D01*
G01X18041505Y-7504538D01*
G01X18029553Y-7520904D01*
G01X18029553Y-7520904D01*
G01X17978301Y-7568094D01*
G01X17929137Y-7598760D01*
G01X17903949Y-7611078D01*
G01X17903576Y-7611236D01*
G01X17903576Y-7611236D01*
G01X17839077Y-7630432D01*
G01X17774303Y-7640289D01*
G01X17724361Y-7643921D01*
G01X17704357Y-7644439D01*
G01X17704357Y-7644439D01*
G01X17704357Y-7644439D01*
G01X17622173Y-7639099D01*
G01X17558483Y-7627350D01*
G01X17517315Y-7615600D01*
G01X17502697Y-7610260D01*
G01X17502697Y-7610260D01*
G01X17502697Y-7610260D01*
G01X17429760Y-7574656D01*
G01X17390886Y-7549857D01*
G01X17383068Y-7543853D01*
G37*
G36*
G01X18346935Y-7301666D02*
G01X18346935Y-7190338D01*
G01X18346935Y-7190338D01*
G01X18375851Y-7127792D01*
G01X18406139Y-7068268D01*
G01X18430019Y-7023758D01*
G01X18439709Y-7006256D01*
G01X18439709Y-7006256D01*
G01X18439709Y-7006256D01*
G01X18476021Y-6943924D01*
G01X18511771Y-6885529D01*
G01X18542646Y-6836768D01*
G01X18564334Y-6803334D01*
G01X18572521Y-6790924D01*
G01X18572521Y-6790924D01*
G01X18572521Y-6790924D01*
G01X18615241Y-6728646D01*
G01X18656217Y-6671540D01*
G01X18691592Y-6623826D01*
G01X18717508Y-6589723D01*
G01X18730106Y-6573451D01*
G01X18730724Y-6572662D01*
G01X18730724Y-6572662D01*
G01X18780646Y-6511541D01*
G01X18826818Y-6458576D01*
G01X18865021Y-6416885D01*
G01X18891037Y-6389584D01*
G01X18900646Y-6379791D01*
G01X18900646Y-6379791D01*
G01X19060803Y-6379791D01*
G01X19060803Y-7165924D01*
G01X19206310Y-7165924D01*
G01X19206310Y-7301666D01*
G01X19060803Y-7301666D01*
G01X19060803Y-7618072D01*
G01X18900646Y-7618072D01*
G01X18900646Y-7301666D01*
G01X18346935Y-7301666D01*
G37*
%LPC*%
G36*
G01X18507092Y-7165924D02*
G01X18900646Y-7165924D01*
G01X18900646Y-6576080D01*
G01X18900646Y-6576080D01*
G01X18853440Y-6629122D01*
G01X18814619Y-6675572D01*
G01X18793358Y-6701983D01*
G01X18791760Y-6704010D01*
G01X18791760Y-6704010D01*
G01X18747277Y-6762743D01*
G01X18710769Y-6813529D01*
G01X18688603Y-6845435D01*
G01X18684826Y-6850982D01*
G01X18684826Y-6850982D01*
G01X18643793Y-6914348D01*
G01X18610993Y-6968324D01*
G01X18591440Y-7001913D01*
G01X18588146Y-7007721D01*
G01X18588146Y-7007721D01*
G01X18551949Y-7075038D01*
G01X18524187Y-7130223D01*
G01X18508863Y-7162130D01*
G01X18507092Y-7165924D01*
G37*
%LPD*%
G36*
G01X25791263Y-84411186D02*
G01X25791263Y-83598686D01*
G01X25955325Y-83598686D01*
G01X25955325Y-84392631D01*
G01X25955325Y-84392631D01*
G01X25959455Y-84472243D01*
G01X25967365Y-84526727D01*
G01X25972335Y-84549555D01*
G01X25972415Y-84549857D01*
G01X25972415Y-84549857D01*
G01X25999951Y-84618761D01*
G01X26019863Y-84649815D01*
G01X26020755Y-84650932D01*
G01X26020755Y-84650932D01*
G01X26073567Y-84693891D01*
G01X26095950Y-84704643D01*
G01X26095950Y-84704643D01*
G01X26162234Y-84718742D01*
G01X26195560Y-84720756D01*
G01X26195560Y-84720756D01*
G01X26195560Y-84720756D01*
G01X26266238Y-84712699D01*
G01X26295169Y-84704643D01*
G01X26295169Y-84704643D01*
G01X26295169Y-84704643D01*
G01X26352333Y-84669048D01*
G01X26370364Y-84650932D01*
G01X26370364Y-84650932D01*
G01X26403682Y-84592803D01*
G01X26418194Y-84552147D01*
G01X26418704Y-84550346D01*
G01X26418704Y-84550346D01*
G01X26430420Y-84484271D01*
G01X26434997Y-84423560D01*
G01X26435793Y-84393077D01*
G01X26435794Y-84392631D01*
G01X26435794Y-83598686D01*
G01X26599856Y-83598686D01*
G01X26599856Y-84411186D01*
G01X26599856Y-84411186D01*
G01X26595916Y-84489493D01*
G01X26587555Y-84551646D01*
G01X26579962Y-84590032D01*
G01X26577884Y-84598686D01*
G01X26577884Y-84598686D01*
G01X26551138Y-84670305D01*
G01X26522880Y-84719688D01*
G01X26507799Y-84740499D01*
G01X26507571Y-84740775D01*
G01X26507571Y-84740775D01*
G01X26454235Y-84789617D01*
G01X26405031Y-84820181D01*
G01X26382594Y-84831098D01*
G01X26382571Y-84831107D01*
G01X26382571Y-84831107D01*
G01X26315943Y-84850797D01*
G01X26251590Y-84860197D01*
G01X26206523Y-84863113D01*
G01X26195560Y-84863334D01*
G01X26195560Y-84863334D01*
G01X26114389Y-84857555D01*
G01X26053029Y-84845291D01*
G01X26016555Y-84834155D01*
G01X26008548Y-84831107D01*
G01X26008548Y-84831107D01*
G01X25942626Y-84793767D01*
G01X25899525Y-84757625D01*
G01X25883562Y-84740793D01*
G01X25883548Y-84740775D01*
G01X25883548Y-84740775D01*
G01X25845098Y-84680644D01*
G01X25821983Y-84626213D01*
G01X25813341Y-84599082D01*
G01X25813235Y-84598686D01*
G01X25813235Y-84598686D01*
G01X25799810Y-84528809D01*
G01X25793401Y-84464920D01*
G01X25791413Y-84421552D01*
G01X25791263Y-84411186D01*
G37*
G36*
G01X26813724Y-84798881D02*
G01X26845950Y-84657279D01*
G01X26845950Y-84657279D01*
G01X26903834Y-84680115D01*
G01X26946715Y-84694470D01*
G01X26948001Y-84694877D01*
G01X26948001Y-84694877D01*
G01X27013505Y-84708985D01*
G01X27075517Y-84715222D01*
G01X27114531Y-84716801D01*
G01X27119388Y-84716850D01*
G01X27119388Y-84716850D01*
G01X27210804Y-84709045D01*
G01X27277263Y-84690997D01*
G01X27320327Y-84670754D01*
G01X27341553Y-84656365D01*
G01X27344485Y-84653861D01*
G01X27344485Y-84653861D01*
G01X27385357Y-84596462D01*
G01X27404869Y-84537955D01*
G01X27410921Y-84495812D01*
G01X27411380Y-84485404D01*
G01X27411380Y-84485404D01*
G01X27400367Y-84411543D01*
G01X27385032Y-84373781D01*
G01X27383548Y-84371146D01*
G01X27383548Y-84371146D01*
G01X27338056Y-84318391D01*
G01X27310034Y-84297063D01*
G01X27309817Y-84296928D01*
G01X27309817Y-84296928D01*
G01X27247329Y-84268771D01*
G01X27206327Y-84257403D01*
G01X27203860Y-84256889D01*
G01X27203860Y-84256889D01*
G01X27133399Y-84247701D01*
G01X27084782Y-84245264D01*
G01X27077396Y-84245170D01*
G01X27035403Y-84245170D01*
G01X27035403Y-84111381D01*
G01X27093997Y-84111381D01*
G01X27093997Y-84111381D01*
G01X27160879Y-84106049D01*
G01X27184817Y-84102103D01*
G01X27184817Y-84102103D01*
G01X27249872Y-84080481D01*
G01X27270755Y-84069877D01*
G01X27270755Y-84069877D01*
G01X27320596Y-84025277D01*
G01X27333743Y-84006889D01*
G01X27333743Y-84006889D01*
G01X27354305Y-83943562D01*
G01X27357667Y-83905616D01*
G01X27357669Y-83905326D01*
G01X27357669Y-83905326D01*
G01X27343262Y-83827188D01*
G01X27315055Y-83779936D01*
G01X27295563Y-83760950D01*
G01X27294681Y-83760307D01*
G01X27294681Y-83760307D01*
G01X27229236Y-83729920D01*
G01X27172708Y-83718558D01*
G01X27147733Y-83716850D01*
G01X27147708Y-83716850D01*
G01X27147708Y-83716850D01*
G01X27070370Y-83723528D01*
G01X27019042Y-83735734D01*
G01X27001712Y-83741752D01*
G01X27001712Y-83741752D01*
G01X26934619Y-83773724D01*
G01X26902795Y-83792258D01*
G01X26901614Y-83793021D01*
G01X26837161Y-83667045D01*
G01X26837161Y-83667045D01*
G01X26893250Y-83635041D01*
G01X26946940Y-83610979D01*
G01X26964114Y-83604057D01*
G01X26964114Y-83604057D01*
G01X27032165Y-83584599D01*
G01X27095058Y-83574960D01*
G01X27139716Y-83571690D01*
G01X27153567Y-83571342D01*
G01X27153567Y-83571342D01*
G01X27232915Y-83576510D01*
G01X27290536Y-83586846D01*
G01X27319470Y-83594598D01*
G01X27321536Y-83595268D01*
G01X27321536Y-83595268D01*
G01X27389621Y-83627706D01*
G01X27429278Y-83656429D01*
G01X27436771Y-83663139D01*
G01X27436771Y-83663139D01*
G01X27480518Y-83719710D01*
G01X27501524Y-83760856D01*
G01X27503665Y-83766166D01*
G01X27503665Y-83766166D01*
G01X27520650Y-83835250D01*
G01X27525404Y-83885364D01*
G01X27525638Y-83894584D01*
G01X27525638Y-83894584D01*
G01X27515203Y-83971201D01*
G01X27493903Y-84027318D01*
G01X27476742Y-84057220D01*
G01X27474368Y-84060600D01*
G01X27474368Y-84060600D01*
G01X27423598Y-84113316D01*
G01X27375122Y-84147998D01*
G01X27346263Y-84164012D01*
G01X27343997Y-84165092D01*
G01X27343997Y-84165092D01*
G01X27410235Y-84194053D01*
G01X27462649Y-84230155D01*
G01X27497119Y-84260947D01*
G01X27509524Y-84273978D01*
G01X27509524Y-84273978D01*
G01X27509524Y-84273978D01*
G01X27546213Y-84333010D01*
G01X27567086Y-84395708D01*
G01X27576604Y-84450001D01*
G01X27579228Y-84483815D01*
G01X27579349Y-84489311D01*
G01X27579349Y-84489311D01*
G01X27572505Y-84562848D01*
G01X27559696Y-84616625D01*
G01X27552501Y-84638216D01*
G01X27552493Y-84638236D01*
G01X27552493Y-84638236D01*
G01X27517467Y-84702209D01*
G01X27483105Y-84744272D01*
G01X27470462Y-84756889D01*
G01X27470462Y-84756889D01*
G01X27413533Y-84796809D01*
G01X27359513Y-84823120D01*
G01X27329609Y-84834600D01*
G01X27328372Y-84835014D01*
G01X27328372Y-84835014D01*
G01X27262176Y-84850902D01*
G01X27197222Y-84859352D01*
G01X27146227Y-84862712D01*
G01X27121908Y-84863332D01*
G01X27121341Y-84863334D01*
G01X27121341Y-84863334D01*
G01X27053599Y-84859343D01*
G01X27026614Y-84856010D01*
G01X27026614Y-84856010D01*
G01X26959029Y-84843384D01*
G01X26935794Y-84837943D01*
G01X26935794Y-84837943D01*
G01X26872369Y-84819790D01*
G01X26860599Y-84815971D01*
G01X26860599Y-84815971D01*
G01X26813724Y-84798881D01*
G37*
G36*
G01X12177245Y-37128709D02*
G01X12242674Y-36994920D01*
G01X12242674Y-36994920D01*
G01X12298631Y-37030554D01*
G01X12340286Y-37053209D01*
G01X12343749Y-37054979D01*
G01X12343749Y-37054979D01*
G01X12411152Y-37077593D01*
G01X12468361Y-37085677D01*
G01X12490721Y-37086717D01*
G01X12490721Y-37086717D01*
G01X12574523Y-37076112D01*
G01X12634154Y-37052782D01*
G01X12669798Y-37029451D01*
G01X12681639Y-37018846D01*
G01X12681639Y-37018846D01*
G01X12681639Y-37018846D01*
G01X12713572Y-36965994D01*
G01X12732338Y-36902450D01*
G01X12741437Y-36842459D01*
G01X12744370Y-36800266D01*
G01X12744628Y-36788866D01*
G01X12744628Y-36105272D01*
G01X12322753Y-36105272D01*
G01X12322753Y-35964647D01*
G01X12908690Y-35964647D01*
G01X12908690Y-36804491D01*
G01X12908690Y-36804491D01*
G01X12904577Y-36879110D01*
G01X12896350Y-36937381D01*
G01X12890180Y-36968231D01*
G01X12889647Y-36970506D01*
G01X12889647Y-36970506D01*
G01X12863507Y-37041492D01*
G01X12835681Y-37089394D01*
G01X12823729Y-37105760D01*
G01X12823729Y-37105760D01*
G01X12772477Y-37152950D01*
G01X12723313Y-37183616D01*
G01X12698125Y-37195934D01*
G01X12697753Y-37196092D01*
G01X12697753Y-37196092D01*
G01X12633254Y-37215288D01*
G01X12568480Y-37225145D01*
G01X12518538Y-37228777D01*
G01X12498534Y-37229295D01*
G01X12498534Y-37229295D01*
G01X12498534Y-37229295D01*
G01X12416350Y-37223955D01*
G01X12352660Y-37212206D01*
G01X12311492Y-37200456D01*
G01X12296874Y-37195116D01*
G01X12296874Y-37195116D01*
G01X12296874Y-37195116D01*
G01X12223937Y-37159512D01*
G01X12185063Y-37134713D01*
G01X12177245Y-37128709D01*
G37*
G36*
G01X13200682Y-37164842D02*
G01X13232909Y-37023241D01*
G01X13232909Y-37023241D01*
G01X13292046Y-37046996D01*
G01X13331715Y-37060735D01*
G01X13332030Y-37060838D01*
G01X13332030Y-37060838D01*
G01X13397917Y-37075274D01*
G01X13460456Y-37081405D01*
G01X13497576Y-37082789D01*
G01X13500487Y-37082811D01*
G01X13500487Y-37082811D01*
G01X13577311Y-37077221D01*
G01X13624270Y-37067773D01*
G01X13634764Y-37064745D01*
G01X13634764Y-37064745D01*
G01X13698546Y-37033556D01*
G01X13721678Y-37015917D01*
G01X13721678Y-37015917D01*
G01X13721678Y-37015917D01*
G01X13761728Y-36961909D01*
G01X13769530Y-36945116D01*
G01X13769530Y-36945116D01*
G01X13783623Y-36879995D01*
G01X13784667Y-36861131D01*
G01X13784667Y-36861131D01*
G01X13776257Y-36787487D01*
G01X13763680Y-36744947D01*
G01X13761717Y-36740038D01*
G01X13761717Y-36740038D01*
G01X13721478Y-36683825D01*
G01X13685653Y-36653865D01*
G01X13681639Y-36651170D01*
G01X13681639Y-36651170D01*
G01X13620719Y-36622552D01*
G01X13560916Y-36604137D01*
G01X13527279Y-36596274D01*
G01X13525878Y-36595995D01*
G01X13525878Y-36595995D01*
G01X13462104Y-36586702D01*
G01X13395612Y-36581065D01*
G01X13336104Y-36578170D01*
G01X13293284Y-36577104D01*
G01X13276854Y-36576952D01*
G01X13276854Y-36576952D01*
G01X13276854Y-36576952D01*
G01X13286398Y-36500289D01*
G01X13292885Y-36441689D01*
G01X13295790Y-36413024D01*
G01X13295897Y-36411913D01*
G01X13295897Y-36411913D01*
G01X13302425Y-36337432D01*
G01X13306684Y-36282120D01*
G01X13308104Y-36262010D01*
G01X13308104Y-36262010D01*
G01X13312471Y-36188876D01*
G01X13315152Y-36134564D01*
G01X13315917Y-36116991D01*
G01X13315917Y-36116991D01*
G01X13318961Y-36046054D01*
G01X13321590Y-35988964D01*
G01X13322751Y-35964671D01*
G01X13322753Y-35964647D01*
G01X13918456Y-35964647D01*
G01X13918456Y-36105272D01*
G01X13467284Y-36105272D01*
G01X13461424Y-36177538D01*
G01X13461424Y-36177538D01*
G01X13456670Y-36245469D01*
G01X13454588Y-36273241D01*
G01X13446776Y-36368944D01*
G01X13446776Y-36368944D01*
G01X13441517Y-36434815D01*
G01X13440917Y-36443163D01*
G01X13440917Y-36443163D01*
G01X13537946Y-36451494D01*
G01X13620530Y-36467062D01*
G01X13688978Y-36487149D01*
G01X13743598Y-36509039D01*
G01X13784699Y-36530016D01*
G01X13812591Y-36547364D01*
G01X13827582Y-36558366D01*
G01X13830565Y-36560838D01*
G01X13830565Y-36560838D01*
G01X13880284Y-36617319D01*
G01X13914253Y-36678950D01*
G01X13935471Y-36739409D01*
G01X13946940Y-36792370D01*
G01X13951659Y-36831510D01*
G01X13952628Y-36850506D01*
G01X13952635Y-36851366D01*
G01X13952635Y-36851366D01*
G01X13946041Y-36926518D01*
G01X13933697Y-36981271D01*
G01X13926764Y-37003200D01*
G01X13926756Y-37003221D01*
G01X13926756Y-37003221D01*
G01X13892439Y-37067902D01*
G01X13858318Y-37110207D01*
G01X13845702Y-37122850D01*
G01X13845702Y-37122850D01*
G01X13789220Y-37162771D01*
G01X13736074Y-37189082D01*
G01X13706775Y-37200561D01*
G01X13705565Y-37200975D01*
G01X13705565Y-37200975D01*
G01X13638289Y-37217348D01*
G01X13573119Y-37225755D01*
G01X13523879Y-37228853D01*
G01X13504393Y-37229295D01*
G01X13504393Y-37229295D01*
G01X13504393Y-37229295D01*
G01X13435965Y-37225304D01*
G01X13409667Y-37221971D01*
G01X13409667Y-37221971D01*
G01X13342027Y-37209513D01*
G01X13320799Y-37204881D01*
G01X13320799Y-37204881D01*
G01X13257461Y-37187468D01*
G01X13246581Y-37183885D01*
G01X13246581Y-37183885D01*
G01X13200682Y-37164842D01*
G37*
G36*
G01X14626944Y-80458562D02*
G01X14626944Y-79646062D01*
G01X14791006Y-79646062D01*
G01X14791006Y-80440008D01*
G01X14791006Y-80440008D01*
G01X14795136Y-80519620D01*
G01X14803046Y-80574104D01*
G01X14808016Y-80596932D01*
G01X14808096Y-80597234D01*
G01X14808096Y-80597234D01*
G01X14835632Y-80666138D01*
G01X14855544Y-80697192D01*
G01X14856436Y-80698309D01*
G01X14856436Y-80698309D01*
G01X14909248Y-80741268D01*
G01X14931631Y-80752020D01*
G01X14931631Y-80752020D01*
G01X14997915Y-80766119D01*
G01X15031241Y-80768133D01*
G01X15031241Y-80768133D01*
G01X15031241Y-80768133D01*
G01X15101919Y-80760076D01*
G01X15130850Y-80752020D01*
G01X15130850Y-80752020D01*
G01X15130850Y-80752020D01*
G01X15188014Y-80716425D01*
G01X15206045Y-80698309D01*
G01X15206045Y-80698309D01*
G01X15239363Y-80640180D01*
G01X15253875Y-80599524D01*
G01X15254385Y-80597723D01*
G01X15254385Y-80597723D01*
G01X15266101Y-80531648D01*
G01X15270678Y-80470937D01*
G01X15271474Y-80440454D01*
G01X15271475Y-80440008D01*
G01X15271475Y-79646062D01*
G01X15435537Y-79646062D01*
G01X15435537Y-80458562D01*
G01X15435537Y-80458562D01*
G01X15431597Y-80536870D01*
G01X15423236Y-80599023D01*
G01X15415643Y-80637409D01*
G01X15413565Y-80646062D01*
G01X15413565Y-80646062D01*
G01X15386819Y-80717681D01*
G01X15358561Y-80767065D01*
G01X15343480Y-80787875D01*
G01X15343252Y-80788152D01*
G01X15343252Y-80788152D01*
G01X15289916Y-80836994D01*
G01X15240712Y-80867558D01*
G01X15218275Y-80878475D01*
G01X15218252Y-80878484D01*
G01X15218252Y-80878484D01*
G01X15151624Y-80898174D01*
G01X15087271Y-80907574D01*
G01X15042204Y-80910490D01*
G01X15031241Y-80910711D01*
G01X15031241Y-80910711D01*
G01X14950070Y-80904932D01*
G01X14888710Y-80892668D01*
G01X14852236Y-80881532D01*
G01X14844229Y-80878484D01*
G01X14844229Y-80878484D01*
G01X14778307Y-80841144D01*
G01X14735206Y-80805002D01*
G01X14719243Y-80788170D01*
G01X14719229Y-80788152D01*
G01X14719229Y-80788152D01*
G01X14680779Y-80728021D01*
G01X14657664Y-80673590D01*
G01X14649022Y-80646459D01*
G01X14648916Y-80646062D01*
G01X14648916Y-80646062D01*
G01X14635491Y-80576186D01*
G01X14629082Y-80512297D01*
G01X14627094Y-80468929D01*
G01X14626944Y-80458562D01*
G37*
G36*
G01X15645498Y-79766180D02*
G01X15645498Y-79766180D01*
G01X15688830Y-79725991D01*
G01X15693350Y-79722234D01*
G01X15693350Y-79722234D01*
G01X15748459Y-79685080D01*
G01X15770498Y-79672918D01*
G01X15770498Y-79672918D01*
G01X15834285Y-79646275D01*
G01X15870981Y-79634511D01*
G01X15871573Y-79634344D01*
G01X15871573Y-79634344D01*
G01X15940955Y-79621767D01*
G01X15986617Y-79618783D01*
G01X15991202Y-79618719D01*
G01X15991202Y-79618719D01*
G01X16081551Y-79625550D01*
G01X16154548Y-79642552D01*
G01X16210452Y-79664485D01*
G01X16249523Y-79686110D01*
G01X16272019Y-79702187D01*
G01X16278311Y-79707586D01*
G01X16278311Y-79707586D01*
G01X16321781Y-79764928D01*
G01X16348974Y-79828972D01*
G01X16363708Y-79889713D01*
G01X16369802Y-79937143D01*
G01X16371073Y-79961254D01*
G01X16371084Y-79962469D01*
G01X16371084Y-79962469D01*
G01X16362319Y-80033969D01*
G01X16348772Y-80079781D01*
G01X16346182Y-80086492D01*
G01X16346182Y-80086492D01*
G01X16313948Y-80150660D01*
G01X16286562Y-80194910D01*
G01X16280264Y-80204168D01*
G01X16280264Y-80204168D01*
G01X16235930Y-80262000D01*
G01X16199778Y-80304345D01*
G01X16187491Y-80317937D01*
G01X16081045Y-80428289D01*
G01X16011709Y-80500555D01*
G01X16011709Y-80500555D01*
G01X15963872Y-80553209D01*
G01X15937043Y-80584673D01*
G01X15935537Y-80586492D01*
G01X15935537Y-80586492D01*
G01X15893240Y-80643995D01*
G01X15875593Y-80672231D01*
G01X15875479Y-80672430D01*
G01X15875479Y-80672430D01*
G01X15852493Y-80734926D01*
G01X15851553Y-80744695D01*
G01X16420889Y-80744695D01*
G01X16420889Y-80884344D01*
G01X15670889Y-80884344D01*
G01X15670889Y-80884344D01*
G01X15668936Y-80862859D01*
G01X15668936Y-80842352D01*
G01X15668936Y-80842352D01*
G01X15675780Y-80767429D01*
G01X15688888Y-80711718D01*
G01X15697124Y-80686931D01*
G01X15697256Y-80686590D01*
G01X15697256Y-80686590D01*
G01X15728257Y-80619976D01*
G01X15756623Y-80570466D01*
G01X15769509Y-80550379D01*
G01X15769522Y-80550359D01*
G01X15769522Y-80550359D01*
G01X15812865Y-80492484D01*
G01X15849945Y-80449009D01*
G01X15867896Y-80429534D01*
G01X15868155Y-80429266D01*
G01X15977530Y-80317937D01*
G01X16062491Y-80232000D01*
G01X16062491Y-80232000D01*
G01X16110587Y-80178138D01*
G01X16133688Y-80148800D01*
G01X16134268Y-80148016D01*
G01X16134268Y-80148016D01*
G01X16170706Y-80088812D01*
G01X16184073Y-80061102D01*
G01X16184073Y-80061102D01*
G01X16184073Y-80061102D01*
G01X16201138Y-79994767D01*
G01X16203116Y-79968328D01*
G01X16203116Y-79968328D01*
G01X16193547Y-79898522D01*
G01X16186026Y-79876531D01*
G01X16186026Y-79876531D01*
G01X16149437Y-79822678D01*
G01X16140127Y-79813543D01*
G01X16140127Y-79813543D01*
G01X16085199Y-79780941D01*
G01X16073233Y-79776434D01*
G01X16073233Y-79776434D01*
G01X16008299Y-79764951D01*
G01X15991202Y-79764227D01*
G01X15991202Y-79764227D01*
G01X15921402Y-79771943D01*
G01X15896475Y-79778387D01*
G01X15896475Y-79778387D01*
G01X15834741Y-79804613D01*
G01X15820303Y-79812566D01*
G01X15820303Y-79812566D01*
G01X15768118Y-79847820D01*
G01X15763174Y-79851629D01*
G01X15763174Y-79851629D01*
G01X15727530Y-79882391D01*
G37*
G36*
G01X48241763Y-2900000D02*
G01X49441763Y-2900000D01*
G01X49441763Y-4100000D01*
G01X48241763Y-4100000D01*
G01X48241763Y-2900000D01*
G37*
G36*
G01X49691763Y-3279102D02*
G01X49691763Y-3279102D01*
G01X49709634Y-3243946D01*
G01X49709634Y-3243946D01*
G01X49766641Y-3236381D01*
G01X49770865Y-3236329D01*
G01X49804849Y-3236329D01*
G01X49804849Y-3236329D01*
G01X49801358Y-3157561D01*
G01X49798030Y-3110582D01*
G01X49797232Y-3101563D01*
G01X49797232Y-3101563D01*
G01X49837076Y-3098047D01*
G01X49837076Y-3098047D01*
G01X49891347Y-3128967D01*
G01X49894498Y-3143750D01*
G01X49894498Y-3143750D01*
G01X49891873Y-3202063D01*
G01X49889810Y-3237500D01*
G01X49889810Y-3237500D01*
G01X49985574Y-3236493D01*
G01X50047720Y-3234278D01*
G01X50081302Y-3232062D01*
G01X50091373Y-3231055D01*
G01X50091373Y-3231055D01*
G01X50091373Y-3231055D01*
G01X50096060Y-3259180D01*
G01X50096060Y-3259180D01*
G01X50083462Y-3291407D01*
G01X50083462Y-3291407D01*
G01X50043326Y-3300782D01*
G01X50043326Y-3300782D01*
G01X49985381Y-3301601D01*
G01X49919879Y-3301908D01*
G01X49887501Y-3301954D01*
G01X49887466Y-3301954D01*
G01X49887466Y-3301954D01*
G01X49886368Y-3376151D01*
G01X49885681Y-3446828D01*
G01X49885309Y-3507548D01*
G01X49885155Y-3551872D01*
G01X49885123Y-3573362D01*
G01X49885123Y-3574415D01*
G01X49885123Y-3574415D01*
G01X49892048Y-3660115D01*
G01X49904077Y-3701574D01*
G01X49908560Y-3710059D01*
G01X49908560Y-3710059D01*
G01X49963628Y-3740169D01*
G01X49985904Y-3742579D01*
G01X49985904Y-3742579D01*
G01X50050540Y-3722782D01*
G01X50072037Y-3706250D01*
G01X50072037Y-3706250D01*
G01X50093716Y-3749610D01*
G01X50093716Y-3749610D01*
G01X50062984Y-3790166D01*
G01X50062662Y-3790332D01*
G01X50062662Y-3790332D01*
G01X50000954Y-3805194D01*
G01X49987076Y-3805860D01*
G01X49987076Y-3805860D01*
G01X49908804Y-3791983D01*
G01X49863011Y-3765405D01*
G01X49846357Y-3748706D01*
G01X49846158Y-3748438D01*
G01X49846158Y-3748438D01*
G01X49820267Y-3690592D01*
G01X49808368Y-3628545D01*
G01X49805018Y-3584832D01*
G01X49804849Y-3576758D01*
G01X49804849Y-3576758D01*
G01X49805947Y-3469360D01*
G01X49806634Y-3392231D01*
G01X49807007Y-3341250D01*
G01X49807160Y-3312292D01*
G01X49807193Y-3301234D01*
G01X49807193Y-3300782D01*
G01X49807193Y-3300782D01*
G01X49758166Y-3304519D01*
G01X49698317Y-3309325D01*
G01X49695279Y-3309571D01*
G01X49695279Y-3309571D01*
G01X49691763Y-3279102D01*
G37*
G36*
G01X50167544Y-3515821D02*
G01X50167544Y-3515821D01*
G01X50176474Y-3436638D01*
G01X50197124Y-3374311D01*
G01X50220286Y-3330636D01*
G01X50236750Y-3307411D01*
G01X50239615Y-3304004D01*
G01X50239615Y-3304004D01*
G01X50296973Y-3259133D01*
G01X50356356Y-3235270D01*
G01X50404399Y-3225780D01*
G01X50427737Y-3224029D01*
G01X50428287Y-3224024D01*
G01X50428287Y-3224024D01*
G01X50504779Y-3235633D01*
G01X50563237Y-3261616D01*
G01X50601521Y-3288704D01*
G01X50617495Y-3303631D01*
G01X50617837Y-3304004D01*
G01X50617837Y-3304004D01*
G01X50655553Y-3362365D01*
G01X50677010Y-3424049D01*
G01X50686794Y-3477320D01*
G01X50689491Y-3510443D01*
G01X50689615Y-3515821D01*
G01X50689615Y-3515821D01*
G01X50679970Y-3598098D01*
G01X50658024Y-3661712D01*
G01X50634254Y-3704739D01*
G01X50619142Y-3725253D01*
G01X50617837Y-3726758D01*
G01X50617837Y-3726758D01*
G01X50560474Y-3771136D01*
G01X50500797Y-3794738D01*
G01X50452392Y-3804123D01*
G01X50428841Y-3805855D01*
G01X50428287Y-3805860D01*
G01X50428287Y-3805860D01*
G01X50352409Y-3794378D01*
G01X50294206Y-3768681D01*
G01X50255961Y-3741890D01*
G01X50239959Y-3727128D01*
G01X50239615Y-3726758D01*
G01X50239615Y-3726758D01*
G01X50201746Y-3668859D01*
G01X50180201Y-3607438D01*
G01X50170377Y-3554287D01*
G01X50167669Y-3521197D01*
G01X50167544Y-3515821D01*
G37*
%LPC*%
G36*
G01X50251919Y-3498829D02*
G01X50251919Y-3498829D01*
G01X50260830Y-3576577D01*
G01X50279383Y-3633587D01*
G01X50295306Y-3665382D01*
G01X50298501Y-3670508D01*
G01X50298501Y-3670508D01*
G01X50352276Y-3718444D01*
G01X50404141Y-3736368D01*
G01X50428262Y-3739063D01*
G01X50428287Y-3739063D01*
G01X50428287Y-3739063D01*
G01X50502272Y-3723215D01*
G01X50546563Y-3694963D01*
G01X50558951Y-3682813D01*
G01X50558951Y-3682813D01*
G01X50591087Y-3621594D01*
G01X50603639Y-3563139D01*
G01X50605823Y-3533255D01*
G01X50605826Y-3532813D01*
G01X50605826Y-3532813D01*
G01X50596635Y-3454953D01*
G01X50577499Y-3397709D01*
G01X50561075Y-3365713D01*
G01X50557779Y-3360547D01*
G01X50557779Y-3360547D01*
G01X50503428Y-3312202D01*
G01X50452018Y-3294124D01*
G01X50428311Y-3291407D01*
G01X50428287Y-3291407D01*
G01X50428287Y-3291407D01*
G01X50354466Y-3307420D01*
G01X50310469Y-3335966D01*
G01X50298209Y-3348243D01*
G01X50298209Y-3348243D01*
G01X50266474Y-3409864D01*
G01X50254079Y-3468475D01*
G01X50251922Y-3498387D01*
G01X50251919Y-3498829D01*
G37*
%LPD*%
G36*
G01X50815591Y-3242188D02*
G01X50815591Y-3242188D01*
G01X50862466Y-3232813D01*
G01X50862466Y-3232813D01*
G01X50909929Y-3268930D01*
G01X50914029Y-3292579D01*
G01X50914029Y-3292579D01*
G01X50982162Y-3252945D01*
G01X51042935Y-3232593D01*
G01X51086569Y-3225095D01*
G01X51103287Y-3224024D01*
G01X51103287Y-3224024D01*
G01X51103287Y-3224024D01*
G01X51177213Y-3238698D01*
G01X51228013Y-3267431D01*
G01X51250974Y-3287285D01*
G01X51251822Y-3288184D01*
G01X51251822Y-3288184D01*
G01X51285527Y-3345784D01*
G01X51302835Y-3409949D01*
G01X51309212Y-3462084D01*
G01X51310123Y-3483594D01*
G01X51310123Y-3483594D01*
G01X51310123Y-3483594D01*
G01X51303538Y-3559919D01*
G01X51290927Y-3616070D01*
G01X51283004Y-3640872D01*
G01X51282876Y-3641211D01*
G01X51282876Y-3641211D01*
G01X51247435Y-3704637D01*
G01X51211201Y-3745678D01*
G01X51195865Y-3759278D01*
G01X51195865Y-3759278D01*
G01X51132573Y-3791850D01*
G01X51076702Y-3804029D01*
G01X51051749Y-3805860D01*
G01X51051724Y-3805860D01*
G01X51051724Y-3805860D01*
G01X50980712Y-3793913D01*
G01X50931206Y-3773164D01*
G01X50917544Y-3765430D01*
G01X50917544Y-3765430D01*
G01X50918069Y-3822430D01*
G01X50918130Y-3828418D01*
G01X50918130Y-3828418D01*
G01X50919112Y-3897617D01*
G01X50919302Y-3905762D01*
G01X50919302Y-3905762D01*
G01X50921984Y-3964140D01*
G01X50922232Y-3968750D01*
G01X50922232Y-3968750D01*
G01X50928485Y-4032415D01*
G01X50929556Y-4039063D01*
G01X50929556Y-4039063D01*
G01X50941566Y-4088275D01*
G01X50941568Y-4088282D01*
G01X50941568Y-4088282D01*
G01X50893521Y-4097657D01*
G01X50893521Y-4097657D01*
G01X50846939Y-4082129D01*
G01X50846939Y-4082129D01*
G01X50846939Y-4082129D01*
G01X50834936Y-4029970D01*
G01X50834927Y-4029102D01*
G01X50834927Y-4029102D01*
G01X50835078Y-3961405D01*
G01X50835447Y-3890867D01*
G01X50835911Y-3825525D01*
G01X50836349Y-3773417D01*
G01X50836636Y-3742580D01*
G01X50836685Y-3737598D01*
G01X50836685Y-3737598D01*
G01X50837576Y-3641724D01*
G01X50838100Y-3571644D01*
G01X50838354Y-3525323D01*
G01X50838436Y-3500728D01*
G01X50838443Y-3495313D01*
G01X50838443Y-3495313D01*
G01X50836066Y-3396313D01*
G01X50830399Y-3324454D01*
G01X50823635Y-3276782D01*
G01X50817968Y-3250344D01*
G01X50815591Y-3242188D01*
G01X50815591Y-3242188D01*
G37*
%LPC*%
G36*
G01X50917544Y-3357618D02*
G01X50917544Y-3357618D01*
G01X50918449Y-3464310D01*
G01X50919084Y-3548442D01*
G01X50919498Y-3612056D01*
G01X50919738Y-3657191D01*
G01X50919852Y-3685889D01*
G01X50919886Y-3700191D01*
G01X50919888Y-3702735D01*
G01X50919888Y-3702735D01*
G01X50983017Y-3728358D01*
G01X51040701Y-3737750D01*
G01X51064029Y-3739063D01*
G01X51064029Y-3739063D01*
G01X51130093Y-3720752D01*
G01X51155728Y-3702442D01*
G01X51155728Y-3702442D01*
G01X51155728Y-3702442D01*
G01X51195505Y-3646459D01*
G01X51208973Y-3613918D01*
G01X51209048Y-3613672D01*
G01X51209048Y-3613672D01*
G01X51221849Y-3545912D01*
G01X51224549Y-3503661D01*
G01X51224576Y-3501172D01*
G01X51224576Y-3501172D01*
G01X51215128Y-3417118D01*
G01X51196629Y-3364788D01*
G01X51183846Y-3343135D01*
G01X51183267Y-3342383D01*
G01X51183267Y-3342383D01*
G01X51125237Y-3301353D01*
G01X51081551Y-3291615D01*
G01X51076919Y-3291407D01*
G01X51076919Y-3291407D01*
G01X51008764Y-3304882D01*
G01X50953272Y-3332390D01*
G01X50921332Y-3354552D01*
G01X50917544Y-3357618D01*
G37*
%LPD*%
G36*
G01X51687466Y-3710352D02*
G01X51687466Y-3710352D01*
G01X51725444Y-3666249D01*
G01X51741373Y-3659961D01*
G01X51741373Y-3659961D01*
G01X51782273Y-3709257D01*
G01X51798501Y-3718848D01*
G01X51798501Y-3718848D01*
G01X51864654Y-3736827D01*
G01X51893716Y-3739063D01*
G01X51893716Y-3739063D01*
G01X51961225Y-3724918D01*
G01X51977212Y-3716211D01*
G01X51977212Y-3716211D01*
G01X52007528Y-3661336D01*
G01X52009146Y-3645313D01*
G01X52009146Y-3645313D01*
G01X51981848Y-3593536D01*
G01X51977212Y-3590235D01*
G01X51977212Y-3590235D01*
G01X51917096Y-3565254D01*
G01X51899869Y-3560645D01*
G01X51899869Y-3560645D01*
G01X51833291Y-3543680D01*
G01X51808755Y-3536622D01*
G01X51808755Y-3536622D01*
G01X51750395Y-3503367D01*
G01X51731119Y-3484473D01*
G01X51731119Y-3484473D01*
G01X51703939Y-3423012D01*
G01X51699192Y-3383477D01*
G01X51699185Y-3382813D01*
G01X51699185Y-3382813D01*
G01X51719180Y-3315300D01*
G01X51752029Y-3275983D01*
G01X51761001Y-3268555D01*
G01X51761001Y-3268555D01*
G01X51825946Y-3236826D01*
G01X51879889Y-3225483D01*
G01X51900748Y-3224024D01*
G01X51900748Y-3224024D01*
G01X51969364Y-3234365D01*
G01X52008945Y-3248218D01*
G01X52011197Y-3249219D01*
G01X52011197Y-3249219D01*
G01X52060120Y-3296894D01*
G01X52065396Y-3318946D01*
G01X52065396Y-3318946D01*
G01X52027418Y-3363632D01*
G01X52011490Y-3369336D01*
G01X52011490Y-3369336D01*
G01X51970573Y-3321545D01*
G01X51957291Y-3313086D01*
G01X51957291Y-3313086D01*
G01X51892895Y-3293130D01*
G01X51872037Y-3291407D01*
G01X51872037Y-3291407D01*
G01X51810227Y-3307998D01*
G01X51801138Y-3313672D01*
G01X51801138Y-3313672D01*
G01X51772062Y-3367034D01*
G01X51771255Y-3376368D01*
G01X51771255Y-3376368D01*
G01X51798199Y-3428855D01*
G01X51803189Y-3432618D01*
G01X51803189Y-3432618D01*
G01X51862505Y-3458837D01*
G01X51880533Y-3463965D01*
G01X51880533Y-3463965D01*
G01X51946134Y-3481183D01*
G01X51971646Y-3488575D01*
G01X51971646Y-3488575D01*
G01X52030779Y-3521179D01*
G01X52049283Y-3538379D01*
G01X52049283Y-3538379D01*
G01X52077225Y-3598914D01*
G01X52081216Y-3632422D01*
G01X52081216Y-3632422D01*
G01X52081216Y-3632422D01*
G01X52064795Y-3704822D01*
G01X52034783Y-3748147D01*
G01X52019986Y-3761622D01*
G01X52019986Y-3761622D01*
G01X51955670Y-3792555D01*
G01X51899416Y-3804121D01*
G01X51874406Y-3805860D01*
G01X51874380Y-3805860D01*
G01X51874380Y-3805860D01*
G01X51800210Y-3796952D01*
G01X51753565Y-3782318D01*
G01X51744302Y-3778321D01*
G01X51744302Y-3778321D01*
G01X51692998Y-3730827D01*
G01X51687466Y-3710352D01*
G37*
G36*
G01X52193716Y-3103907D02*
G01X52193716Y-3103907D01*
G01X52212759Y-3059082D01*
G01X52212759Y-3059082D01*
G01X52256998Y-3040625D01*
G01X52256998Y-3040625D01*
G01X52298892Y-3059082D01*
G01X52298892Y-3059082D01*
G01X52316763Y-3103907D01*
G01X52316763Y-3103907D01*
G01X52297743Y-3150173D01*
G01X52297720Y-3150196D01*
G01X52297720Y-3150196D01*
G01X52254654Y-3168946D01*
G01X52254654Y-3168946D01*
G01X52211587Y-3151075D01*
G01X52211587Y-3151075D01*
G01X52193717Y-3103985D01*
G01X52193716Y-3103907D01*
G37*
G36*
G01X52208951Y-3236329D02*
G01X52208951Y-3236329D01*
G01X52249966Y-3232813D01*
G01X52249966Y-3232813D01*
G01X52303367Y-3263971D01*
G01X52306216Y-3277930D01*
G01X52306216Y-3277930D01*
G01X52303873Y-3327149D01*
G01X52303873Y-3327149D01*
G01X52300757Y-3392735D01*
G01X52299196Y-3431444D01*
G01X52299185Y-3431739D01*
G01X52299185Y-3431739D01*
G01X52297275Y-3504842D01*
G01X52296848Y-3547221D01*
G01X52296841Y-3550391D01*
G01X52296841Y-3550391D01*
G01X52299441Y-3641043D01*
G01X52305548Y-3709580D01*
G01X52312623Y-3756523D01*
G01X52318125Y-3782393D01*
G01X52319693Y-3788282D01*
G01X52319693Y-3788282D01*
G01X52273990Y-3797657D01*
G01X52273990Y-3797657D01*
G01X52227118Y-3782134D01*
G01X52227115Y-3782129D01*
G01X52227115Y-3782129D01*
G01X52214819Y-3729970D01*
G01X52214810Y-3729102D01*
G01X52214810Y-3729102D01*
G01X52215608Y-3670743D01*
G01X52216275Y-3634473D01*
G01X52216275Y-3634473D01*
G01X52217468Y-3556431D01*
G01X52217736Y-3519448D01*
G01X52217740Y-3516993D01*
G01X52217740Y-3516993D01*
G01X52216988Y-3430650D01*
G01X52215143Y-3358114D01*
G01X52212819Y-3301006D01*
G01X52210632Y-3260946D01*
G01X52209197Y-3239552D01*
G01X52208951Y-3236329D01*
G37*
G36*
G01X52457388Y-2905860D02*
G01X52457388Y-2905860D01*
G01X52499576Y-2902344D01*
G01X52499576Y-2902344D01*
G01X52551864Y-2933907D01*
G01X52554654Y-2948047D01*
G01X52554654Y-2948047D01*
G01X52553114Y-3004789D01*
G01X52552896Y-3012207D01*
G01X52552896Y-3012207D01*
G01X52551054Y-3076627D01*
G01X52549363Y-3137843D01*
G01X52548514Y-3169071D01*
G01X52548501Y-3169532D01*
G01X52548501Y-3169532D01*
G01X52546933Y-3244038D01*
G01X52546156Y-3308111D01*
G01X52545893Y-3351555D01*
G01X52545865Y-3364649D01*
G01X52545865Y-3551563D01*
G01X52545865Y-3551563D01*
G01X52548465Y-3641160D01*
G01X52554572Y-3709312D01*
G01X52561646Y-3756279D01*
G01X52567149Y-3782322D01*
G01X52568716Y-3788282D01*
G01X52568716Y-3788282D01*
G01X52523599Y-3797657D01*
G01X52523599Y-3797657D01*
G01X52477310Y-3783301D01*
G01X52477310Y-3783301D01*
G01X52464419Y-3735547D01*
G01X52464419Y-3735547D01*
G01X52464419Y-3735547D01*
G01X52464718Y-3685454D01*
G01X52465277Y-3618080D01*
G01X52465591Y-3582949D01*
G01X52465591Y-3582911D01*
G01X52465591Y-3582911D01*
G01X52466307Y-3493698D01*
G01X52466649Y-3432444D01*
G01X52466755Y-3399047D01*
G01X52466763Y-3392188D01*
G01X52466763Y-3252735D01*
G01X52466763Y-3252735D01*
G01X52466194Y-3139649D01*
G01X52464738Y-3053003D01*
G01X52462776Y-2989653D01*
G01X52460688Y-2946454D01*
G01X52458853Y-2920261D01*
G01X52457651Y-2907931D01*
G01X52457388Y-2905860D01*
G37*
G36*
G01X52712857Y-2905860D02*
G01X52712857Y-2905860D01*
G01X52755044Y-2902344D01*
G01X52755044Y-2902344D01*
G01X52807333Y-2933907D01*
G01X52810123Y-2948047D01*
G01X52810123Y-2948047D01*
G01X52808405Y-3001971D01*
G01X52808365Y-3003125D01*
G01X52808365Y-3003125D01*
G01X52806173Y-3068514D01*
G01X52804377Y-3124196D01*
G01X52803970Y-3137012D01*
G01X52803970Y-3137012D01*
G01X52802238Y-3209968D01*
G01X52801502Y-3269460D01*
G01X52801336Y-3301868D01*
G01X52801334Y-3304297D01*
G01X52801334Y-3304297D01*
G01X52865924Y-3257889D01*
G01X52925186Y-3234058D01*
G01X52968518Y-3225278D01*
G01X52985318Y-3224024D01*
G01X52985318Y-3224024D01*
G01X52985318Y-3224024D01*
G01X53059309Y-3238467D01*
G01X53098095Y-3261498D01*
G01X53103970Y-3266797D01*
G01X53103970Y-3266797D01*
G01X53137541Y-3327551D01*
G01X53144623Y-3369138D01*
G01X53144693Y-3371680D01*
G01X53144693Y-3371680D01*
G01X53130825Y-3443105D01*
G01X53107383Y-3488016D01*
G01X53099869Y-3498243D01*
G01X53099869Y-3498243D01*
G01X53044572Y-3539396D01*
G01X52992861Y-3557014D01*
G01X52974185Y-3560352D01*
G01X52974185Y-3560352D01*
G01X53024342Y-3639313D01*
G01X53053648Y-3680302D01*
G01X53064292Y-3693224D01*
G01X53064419Y-3693360D01*
G01X53064419Y-3693360D01*
G01X53122547Y-3729366D01*
G01X53138834Y-3732032D01*
G01X53138834Y-3732032D01*
G01X53169888Y-3726758D01*
G01X53169888Y-3726758D01*
G01X53181021Y-3761915D01*
G01X53181021Y-3761915D01*
G01X53155826Y-3794727D01*
G01X53155826Y-3794727D01*
G01X53107779Y-3805860D01*
G01X53107779Y-3805860D01*
G01X53045899Y-3783832D01*
G01X53021060Y-3763086D01*
G01X53021060Y-3763086D01*
G01X52990884Y-3727051D01*
G01X52990884Y-3727051D01*
G01X52961075Y-3684098D01*
G01X52961001Y-3683985D01*
G01X52961001Y-3683985D01*
G01X52935806Y-3643555D01*
G01X52935806Y-3643555D01*
G01X52908521Y-3597402D01*
G01X52908267Y-3596973D01*
G01X52908267Y-3596973D01*
G01X52884537Y-3556250D01*
G01X52884537Y-3556250D01*
G01X52852896Y-3531055D01*
G01X52852896Y-3531055D01*
G01X52859341Y-3502344D01*
G01X52859341Y-3502344D01*
G01X52918149Y-3511035D01*
G01X52920279Y-3511133D01*
G01X52920279Y-3511133D01*
G01X52991924Y-3495015D01*
G01X53021836Y-3475178D01*
G01X53022525Y-3474512D01*
G01X53022525Y-3474512D01*
G01X53055053Y-3414556D01*
G01X53058560Y-3389844D01*
G01X53058560Y-3389844D01*
G01X53040222Y-3328908D01*
G01X53033951Y-3320118D01*
G01X53033951Y-3320118D01*
G01X52978412Y-3292638D01*
G01X52964810Y-3291407D01*
G01X52964810Y-3291407D01*
G01X52901588Y-3305916D01*
G01X52879556Y-3316016D01*
G01X52879556Y-3316016D01*
G01X52822590Y-3356741D01*
G01X52801334Y-3377539D01*
G01X52801334Y-3551563D01*
G01X52801334Y-3551563D01*
G01X52803934Y-3641160D01*
G01X52810040Y-3709312D01*
G01X52817115Y-3756279D01*
G01X52822617Y-3782322D01*
G01X52824185Y-3788282D01*
G01X52824185Y-3788282D01*
G01X52779068Y-3797657D01*
G01X52779068Y-3797657D01*
G01X52732779Y-3783301D01*
G01X52732779Y-3783301D01*
G01X52719888Y-3735547D01*
G01X52719888Y-3735547D01*
G01X52719888Y-3735547D01*
G01X52720187Y-3685454D01*
G01X52720746Y-3618080D01*
G01X52721060Y-3582949D01*
G01X52721060Y-3582911D01*
G01X52721060Y-3582911D01*
G01X52721776Y-3493698D01*
G01X52722118Y-3432444D01*
G01X52722224Y-3399047D01*
G01X52722232Y-3392188D01*
G01X52722232Y-3252735D01*
G01X52722232Y-3252735D01*
G01X52721662Y-3139649D01*
G01X52720207Y-3053003D01*
G01X52718245Y-2989653D01*
G01X52716157Y-2946454D01*
G01X52714322Y-2920261D01*
G01X52713119Y-2907931D01*
G01X52712857Y-2905860D01*
G37*
G36*
G01X53260709Y-3710352D02*
G01X53260709Y-3710352D01*
G01X53298686Y-3666249D01*
G01X53314615Y-3659961D01*
G01X53314615Y-3659961D01*
G01X53355516Y-3709257D01*
G01X53371744Y-3718848D01*
G01X53371744Y-3718848D01*
G01X53437896Y-3736827D01*
G01X53466959Y-3739063D01*
G01X53466959Y-3739063D01*
G01X53534467Y-3724918D01*
G01X53550455Y-3716211D01*
G01X53550455Y-3716211D01*
G01X53580771Y-3661336D01*
G01X53582388Y-3645313D01*
G01X53582388Y-3645313D01*
G01X53555090Y-3593536D01*
G01X53550455Y-3590235D01*
G01X53550455Y-3590235D01*
G01X53490338Y-3565254D01*
G01X53473111Y-3560645D01*
G01X53473111Y-3560645D01*
G01X53406533Y-3543680D01*
G01X53381998Y-3536622D01*
G01X53381998Y-3536622D01*
G01X53323637Y-3503367D01*
G01X53304361Y-3484473D01*
G01X53304361Y-3484473D01*
G01X53277181Y-3423012D01*
G01X53272434Y-3383477D01*
G01X53272427Y-3382813D01*
G01X53272427Y-3382813D01*
G01X53292422Y-3315300D01*
G01X53325271Y-3275983D01*
G01X53334244Y-3268555D01*
G01X53334244Y-3268555D01*
G01X53399188Y-3236826D01*
G01X53453131Y-3225483D01*
G01X53473990Y-3224024D01*
G01X53473990Y-3224024D01*
G01X53542606Y-3234365D01*
G01X53582188Y-3248218D01*
G01X53584439Y-3249219D01*
G01X53584439Y-3249219D01*
G01X53633363Y-3296894D01*
G01X53638638Y-3318946D01*
G01X53638638Y-3318946D01*
G01X53600661Y-3363632D01*
G01X53584732Y-3369336D01*
G01X53584732Y-3369336D01*
G01X53543815Y-3321545D01*
G01X53530533Y-3313086D01*
G01X53530533Y-3313086D01*
G01X53466137Y-3293130D01*
G01X53445279Y-3291407D01*
G01X53445279Y-3291407D01*
G01X53383469Y-3307998D01*
G01X53374380Y-3313672D01*
G01X53374380Y-3313672D01*
G01X53345304Y-3367034D01*
G01X53344498Y-3376368D01*
G01X53344498Y-3376368D01*
G01X53371442Y-3428855D01*
G01X53376431Y-3432618D01*
G01X53376431Y-3432618D01*
G01X53435747Y-3458837D01*
G01X53453775Y-3463965D01*
G01X53453775Y-3463965D01*
G01X53519376Y-3481183D01*
G01X53544888Y-3488575D01*
G01X53544888Y-3488575D01*
G01X53604021Y-3521179D01*
G01X53622525Y-3538379D01*
G01X53622525Y-3538379D01*
G01X53650467Y-3598914D01*
G01X53654459Y-3632422D01*
G01X53654459Y-3632422D01*
G01X53654459Y-3632422D01*
G01X53638037Y-3704822D01*
G01X53608025Y-3748147D01*
G01X53593228Y-3761622D01*
G01X53593228Y-3761622D01*
G01X53528912Y-3792555D01*
G01X53472658Y-3804121D01*
G01X53447648Y-3805860D01*
G01X53447623Y-3805860D01*
G01X53447623Y-3805860D01*
G01X53373452Y-3796952D01*
G01X53326807Y-3782318D01*
G01X53317544Y-3778321D01*
G01X53317544Y-3778321D01*
G01X53266241Y-3730827D01*
G01X53260709Y-3710352D01*
G37*
G36*
G01X53756998Y-3521680D02*
G01X53756998Y-3521680D01*
G01X53764430Y-3446594D01*
G01X53776994Y-3397921D01*
G01X53781021Y-3386622D01*
G01X53781021Y-3386622D01*
G01X53817058Y-3323645D01*
G01X53842982Y-3294618D01*
G01X53844595Y-3293164D01*
G01X53844595Y-3293165D01*
G01X53902728Y-3254126D01*
G01X53929263Y-3241602D01*
G01X53929263Y-3241602D01*
G01X53996233Y-3225735D01*
G01X54021255Y-3224024D01*
G01X54021255Y-3224024D01*
G01X54091401Y-3234517D01*
G01X54133515Y-3249674D01*
G01X54137564Y-3251563D01*
G01X54137564Y-3251563D01*
G01X54186014Y-3300855D01*
G01X54192935Y-3329493D01*
G01X54192935Y-3329493D01*
G01X54192935Y-3329493D01*
G01X54155346Y-3375393D01*
G01X54134927Y-3381055D01*
G01X54134927Y-3381055D01*
G01X54099330Y-3326021D01*
G01X54084244Y-3314551D01*
G01X54084244Y-3314551D01*
G01X54021327Y-3293121D01*
G01X54001919Y-3291407D01*
G01X54001919Y-3291407D01*
G01X53935718Y-3310643D01*
G01X53896148Y-3342247D01*
G01X53888541Y-3350879D01*
G01X53888541Y-3350879D01*
G01X53857655Y-3412659D01*
G01X53845068Y-3471704D01*
G01X53842560Y-3504501D01*
G01X53842544Y-3505860D01*
G01X53842544Y-3505860D01*
G01X53851266Y-3589389D01*
G01X53869773Y-3645942D01*
G01X53886577Y-3676348D01*
G01X53891177Y-3682520D01*
G01X53891177Y-3682520D01*
G01X53949742Y-3724241D01*
G01X54000817Y-3737822D01*
G01X54016568Y-3739063D01*
G01X54016568Y-3739063D01*
G01X54078751Y-3727492D01*
G01X54089517Y-3723536D01*
G01X54089517Y-3723536D01*
G01X54138123Y-3683621D01*
G01X54142544Y-3676368D01*
G01X54142544Y-3676368D01*
G01X54188953Y-3718100D01*
G01X54190005Y-3724414D01*
G01X54190005Y-3724414D01*
G01X54156276Y-3774181D01*
G01X54135513Y-3785059D01*
G01X54135513Y-3785059D01*
G01X54068660Y-3801367D01*
G01X54020032Y-3805693D01*
G01X54012466Y-3805860D01*
G01X54012466Y-3805860D01*
G01X53935366Y-3793925D01*
G01X53876718Y-3768130D01*
G01X53840475Y-3743489D01*
G01X53830240Y-3734668D01*
G01X53830240Y-3734668D01*
G01X53791755Y-3679692D01*
G01X53769860Y-3617781D01*
G01X53759876Y-3562507D01*
G01X53757124Y-3527439D01*
G01X53756998Y-3521680D01*
G37*
G36*
G01X54311294Y-3236329D02*
G01X54311294Y-3236329D01*
G01X54352310Y-3232813D01*
G01X54352310Y-3232813D01*
G01X54401846Y-3265830D01*
G01X54403873Y-3277930D01*
G01X54403873Y-3277930D01*
G01X54403287Y-3294336D01*
G01X54403287Y-3294336D01*
G01X54402701Y-3320118D01*
G01X54402701Y-3320118D01*
G01X54446857Y-3270230D01*
G01X54466861Y-3253614D01*
G01X54466861Y-3253614D01*
G01X54529103Y-3226063D01*
G01X54546255Y-3224024D01*
G01X54546255Y-3224024D01*
G01X54589615Y-3236622D01*
G01X54589615Y-3236622D01*
G01X54605435Y-3270899D01*
G01X54605435Y-3270899D01*
G01X54583060Y-3322581D01*
G01X54581412Y-3324805D01*
G01X54581412Y-3324805D01*
G01X54527248Y-3302165D01*
G01X54523404Y-3301954D01*
G01X54523404Y-3301954D01*
G01X54465015Y-3322290D01*
G01X54456314Y-3328321D01*
G01X54456314Y-3328321D01*
G01X54412020Y-3378005D01*
G01X54399771Y-3398047D01*
G01X54399771Y-3398047D01*
G01X54398952Y-3455096D01*
G01X54398645Y-3518922D01*
G01X54398599Y-3550358D01*
G01X54398599Y-3550391D01*
G01X54398599Y-3550391D01*
G01X54401199Y-3641043D01*
G01X54407306Y-3709580D01*
G01X54414381Y-3756523D01*
G01X54419883Y-3782393D01*
G01X54421451Y-3788282D01*
G01X54421451Y-3788282D01*
G01X54375748Y-3797657D01*
G01X54375748Y-3797657D01*
G01X54329166Y-3782129D01*
G01X54329166Y-3782129D01*
G01X54329166Y-3782129D01*
G01X54317163Y-3729970D01*
G01X54317154Y-3729102D01*
G01X54317154Y-3729102D01*
G01X54317792Y-3670743D01*
G01X54318326Y-3634473D01*
G01X54318326Y-3634473D01*
G01X54319281Y-3556431D01*
G01X54319494Y-3519448D01*
G01X54319498Y-3516993D01*
G01X54319498Y-3516993D01*
G01X54318796Y-3430650D01*
G01X54317074Y-3358114D01*
G01X54314905Y-3301006D01*
G01X54312864Y-3260946D01*
G01X54311524Y-3239552D01*
G01X54311294Y-3236329D01*
G37*
G36*
G01X54671060Y-3518165D02*
G01X54671060Y-3518165D01*
G01X54680970Y-3434220D01*
G01X54703887Y-3370006D01*
G01X54729590Y-3326198D01*
G01X54747862Y-3303468D01*
G01X54751041Y-3300196D01*
G01X54751041Y-3300196D01*
G01X54814125Y-3256159D01*
G01X54874930Y-3233545D01*
G01X54920738Y-3225214D01*
G01X54938834Y-3224024D01*
G01X54938834Y-3224024D01*
G01X54938834Y-3224024D01*
G01X55014305Y-3237396D01*
G01X55061245Y-3261233D01*
G01X55074771Y-3271485D01*
G01X55074771Y-3271485D01*
G01X55115655Y-3331175D01*
G01X55126502Y-3375791D01*
G01X55126919Y-3382813D01*
G01X55126919Y-3382813D01*
G01X55115387Y-3448760D01*
G01X55110220Y-3460743D01*
G01X55110220Y-3460743D01*
G01X55070711Y-3506645D01*
G01X55066568Y-3509668D01*
G01X55066568Y-3509668D01*
G01X55007450Y-3532883D01*
G01X54988638Y-3537207D01*
G01X54988638Y-3537207D01*
G01X54919424Y-3546839D01*
G01X54888443Y-3549219D01*
G01X54888443Y-3549219D01*
G01X54888443Y-3549219D01*
G01X54823291Y-3551031D01*
G01X54769421Y-3551538D01*
G01X54758951Y-3551563D01*
G01X54758951Y-3551563D01*
G01X54777023Y-3626526D01*
G01X54800233Y-3673309D01*
G01X54810806Y-3688379D01*
G01X54810806Y-3688379D01*
G01X54867611Y-3726984D01*
G01X54917314Y-3738362D01*
G01X54928873Y-3739063D01*
G01X54928873Y-3739063D01*
G01X55004263Y-3722249D01*
G01X55045077Y-3691519D01*
G01X55056607Y-3676368D01*
G01X55056607Y-3676368D01*
G01X55102771Y-3719079D01*
G01X55104068Y-3726758D01*
G01X55104068Y-3726758D01*
G01X55068757Y-3774261D01*
G01X55049576Y-3784180D01*
G01X55049576Y-3784180D01*
G01X54981582Y-3801407D01*
G01X54933782Y-3805733D01*
G01X54927701Y-3805860D01*
G01X54927701Y-3805860D01*
G01X54851108Y-3794736D01*
G01X54792862Y-3770264D01*
G01X54755820Y-3745792D01*
G01X54742837Y-3734668D01*
G01X54742837Y-3734668D01*
G01X54742837Y-3734668D01*
G01X54705122Y-3679256D01*
G01X54683665Y-3616338D01*
G01X54673881Y-3559934D01*
G01X54671184Y-3524063D01*
G01X54671060Y-3518165D01*
G37*
%LPC*%
G36*
G01X54757779Y-3491797D02*
G01X54757779Y-3491797D01*
G01X54828038Y-3491055D01*
G01X54843912Y-3490625D01*
G01X54843912Y-3490625D01*
G01X54906871Y-3484997D01*
G01X54919498Y-3483301D01*
G01X54919498Y-3483301D01*
G01X54980570Y-3468374D01*
G01X54985709Y-3466309D01*
G01X54985709Y-3466309D01*
G01X55026971Y-3435308D01*
G01X55027017Y-3435254D01*
G01X55027017Y-3435254D01*
G01X55044296Y-3385582D01*
G01X55044302Y-3385157D01*
G01X55044302Y-3385157D01*
G01X55021147Y-3327423D01*
G01X55012662Y-3318360D01*
G01X55012662Y-3318360D01*
G01X54953504Y-3292173D01*
G01X54934146Y-3290235D01*
G01X54934146Y-3290235D01*
G01X54864325Y-3305463D01*
G01X54820912Y-3331202D01*
G01X54811099Y-3339454D01*
G01X54811099Y-3339454D01*
G01X54776333Y-3396090D01*
G01X54761334Y-3455740D01*
G01X54757829Y-3490335D01*
G01X54757779Y-3491797D01*
G37*
%LPD*%
G36*
G01X55234732Y-3518165D02*
G01X55234732Y-3518165D01*
G01X55244642Y-3434220D01*
G01X55267558Y-3370006D01*
G01X55293262Y-3326198D01*
G01X55311534Y-3303468D01*
G01X55314712Y-3300196D01*
G01X55314712Y-3300196D01*
G01X55377797Y-3256159D01*
G01X55438602Y-3233545D01*
G01X55484410Y-3225214D01*
G01X55502505Y-3224024D01*
G01X55502505Y-3224024D01*
G01X55502505Y-3224024D01*
G01X55577977Y-3237396D01*
G01X55624917Y-3261233D01*
G01X55638443Y-3271485D01*
G01X55638443Y-3271485D01*
G01X55679327Y-3331175D01*
G01X55690174Y-3375791D01*
G01X55690591Y-3382813D01*
G01X55690591Y-3382813D01*
G01X55679059Y-3448760D01*
G01X55673892Y-3460743D01*
G01X55673892Y-3460743D01*
G01X55634383Y-3506645D01*
G01X55630240Y-3509668D01*
G01X55630240Y-3509668D01*
G01X55571122Y-3532883D01*
G01X55552310Y-3537207D01*
G01X55552310Y-3537207D01*
G01X55483096Y-3546839D01*
G01X55452115Y-3549219D01*
G01X55452115Y-3549219D01*
G01X55452115Y-3549219D01*
G01X55386962Y-3551031D01*
G01X55333093Y-3551538D01*
G01X55322623Y-3551563D01*
G01X55322623Y-3551563D01*
G01X55340695Y-3626526D01*
G01X55363905Y-3673309D01*
G01X55374478Y-3688379D01*
G01X55374478Y-3688379D01*
G01X55431283Y-3726984D01*
G01X55480986Y-3738362D01*
G01X55492544Y-3739063D01*
G01X55492544Y-3739063D01*
G01X55567935Y-3722249D01*
G01X55608749Y-3691519D01*
G01X55620279Y-3676368D01*
G01X55620279Y-3676368D01*
G01X55666442Y-3719079D01*
G01X55667740Y-3726758D01*
G01X55667740Y-3726758D01*
G01X55632429Y-3774261D01*
G01X55613248Y-3784180D01*
G01X55613248Y-3784180D01*
G01X55545254Y-3801407D01*
G01X55497454Y-3805733D01*
G01X55491373Y-3805860D01*
G01X55491373Y-3805860D01*
G01X55414780Y-3794736D01*
G01X55356534Y-3770264D01*
G01X55319491Y-3745792D01*
G01X55306509Y-3734668D01*
G01X55306509Y-3734668D01*
G01X55306509Y-3734668D01*
G01X55268794Y-3679256D01*
G01X55247337Y-3616338D01*
G01X55237553Y-3559934D01*
G01X55234856Y-3524063D01*
G01X55234732Y-3518165D01*
G37*
%LPC*%
G36*
G01X55321451Y-3491797D02*
G01X55321451Y-3491797D01*
G01X55391710Y-3491055D01*
G01X55407584Y-3490625D01*
G01X55407584Y-3490625D01*
G01X55470542Y-3484997D01*
G01X55483169Y-3483301D01*
G01X55483169Y-3483301D01*
G01X55544242Y-3468374D01*
G01X55549380Y-3466309D01*
G01X55549380Y-3466309D01*
G01X55590643Y-3435308D01*
G01X55590689Y-3435254D01*
G01X55590689Y-3435254D01*
G01X55607968Y-3385582D01*
G01X55607974Y-3385157D01*
G01X55607974Y-3385157D01*
G01X55584819Y-3327423D01*
G01X55576334Y-3318360D01*
G01X55576334Y-3318360D01*
G01X55517176Y-3292173D01*
G01X55497818Y-3290235D01*
G01X55497818Y-3290235D01*
G01X55427997Y-3305463D01*
G01X55384584Y-3331202D01*
G01X55374771Y-3339454D01*
G01X55374771Y-3339454D01*
G01X55340005Y-3396090D01*
G01X55325006Y-3455740D01*
G01X55321501Y-3490335D01*
G01X55321451Y-3491797D01*
G37*
%LPD*%
G36*
G01X55816568Y-3242188D02*
G01X55816568Y-3242188D01*
G01X55859927Y-3232813D01*
G01X55859927Y-3232813D01*
G01X55909986Y-3267163D01*
G01X55915005Y-3292579D01*
G01X55915005Y-3292579D01*
G01X55972298Y-3259273D01*
G01X56007024Y-3244629D01*
G01X56007291Y-3244532D01*
G01X56007291Y-3244532D01*
G01X56077350Y-3227436D01*
G01X56116174Y-3224044D01*
G01X56117740Y-3224024D01*
G01X56117740Y-3224024D01*
G01X56190503Y-3238732D01*
G01X56229215Y-3260727D01*
G01X56233462Y-3264161D01*
G01X56233462Y-3264161D01*
G01X56266536Y-3320093D01*
G01X56277303Y-3375441D01*
G01X56278287Y-3393360D01*
G01X56278287Y-3393360D01*
G01X56277199Y-3447575D01*
G01X56276529Y-3479786D01*
G01X56276529Y-3479786D01*
G01X56275151Y-3560968D01*
G01X56274785Y-3602045D01*
G01X56274771Y-3607227D01*
G01X56274771Y-3607227D01*
G01X56278694Y-3689830D01*
G01X56286862Y-3749799D01*
G01X56293872Y-3782966D01*
G01X56295279Y-3788282D01*
G01X56295279Y-3788282D01*
G01X56248404Y-3797657D01*
G01X56248404Y-3797657D01*
G01X56203580Y-3783887D01*
G01X56203580Y-3783887D01*
G01X56189810Y-3736719D01*
G01X56189810Y-3736719D01*
G01X56189810Y-3736719D01*
G01X56190614Y-3679729D01*
G01X56192189Y-3613285D01*
G01X56193276Y-3573208D01*
G01X56193326Y-3571485D01*
G01X56193326Y-3571485D01*
G01X56195876Y-3476311D01*
G01X56196746Y-3434066D01*
G01X56196841Y-3425586D01*
G01X56196841Y-3425586D01*
G01X56181777Y-3353037D01*
G01X56164079Y-3325166D01*
G01X56163736Y-3324805D01*
G01X56163736Y-3324805D01*
G01X56104984Y-3294658D01*
G01X56079068Y-3291407D01*
G01X56079068Y-3291407D01*
G01X56010674Y-3304882D01*
G01X55954695Y-3332390D01*
G01X55922363Y-3354552D01*
G01X55918521Y-3357618D01*
G01X55918521Y-3357618D01*
G01X55919753Y-3452664D01*
G01X55920453Y-3522687D01*
G01X55920773Y-3568697D01*
G01X55920861Y-3591706D01*
G01X55920865Y-3594922D01*
G01X55920865Y-3594922D01*
G01X55922044Y-3677928D01*
G01X55924591Y-3741793D01*
G01X55927025Y-3781636D01*
G01X55927896Y-3792969D01*
G01X55927896Y-3792969D01*
G01X55887466Y-3796485D01*
G01X55887466Y-3796485D01*
G01X55836075Y-3764286D01*
G01X55833560Y-3750782D01*
G01X55833560Y-3750782D01*
G01X55835331Y-3696009D01*
G01X55836490Y-3662598D01*
G01X55836490Y-3662598D01*
G01X55838457Y-3587635D01*
G01X55839259Y-3527789D01*
G01X55839418Y-3497671D01*
G01X55839419Y-3496485D01*
G01X55839419Y-3496485D01*
G01X55837043Y-3394438D01*
G01X55831376Y-3321922D01*
G01X55824612Y-3275000D01*
G01X55818944Y-3249735D01*
G01X55816568Y-3242188D01*
G01X55816568Y-3242188D01*
G37*

G04 Pad flashes *
%LPD*%
D11*

G04 end of program *
M02*
