M48
METRIC,TZ
G90
M71
T1C1.6
T2C1.07
T3C1.3
T4C0.35
T5C3.1
T6C1.32
M95
T1
X27.230882Y-96.531263
X27.230882Y-105.421263
X23.420882Y-92.081264
X19.610882Y-95.896264
X19.610882Y-100.341263
T2
X18.340882Y-77.741264
X15.800882Y-44.721263
X31.040882Y-59.961263
X31.040882Y-57.421263
X31.040882Y-54.881263
X31.040882Y-52.341263
X25.960882Y-77.741264
X15.800882Y-49.801263
X15.800882Y-47.261263
X15.800882Y-54.881263
X15.800882Y-52.341263
X15.800882Y-59.961263
X15.800882Y-57.421263
X15.800882Y-65.041263
X15.800882Y-62.501264
X15.800882Y-70.121263
X15.800882Y-67.581263
X31.040882Y-47.261263
X23.420882Y-77.741264
X20.880882Y-77.741264
X31.040882Y-49.801263
X15.800882Y-75.201263
X15.800882Y-72.661263
X31.040882Y-77.741264
X15.800882Y-77.741264
X31.040882Y-72.661263
X31.040882Y-75.201263
X31.040882Y-67.581263
X31.040882Y-70.121263
X31.040882Y-62.501264
X31.040882Y-65.041263
X28.500882Y-77.741264
X31.040882Y-44.721263
T3
X29.492257Y-16.706163
X28.349506Y-11.756364
X28.920882Y-14.231263
X30.820882Y-31.771263
X30.820882Y-26.691263
X30.820882Y-29.231263
X18.492257Y-11.756364
X17.349506Y-16.706163
X17.920882Y-14.231263
X16.020882Y-26.691263
X16.020882Y-31.771263
X16.020882Y-29.231263
T4
X26.676860Y-36.590128
X18.288373Y-63.758308
X27.080474Y-44.547370
X27.952182Y-45.421574
X29.420308Y-39.842777
X17.011261Y-41.439749
X17.472523Y-40.029945
T5
X38.420882Y-94.231263
X8.420882Y-94.231263
X23.420882Y-4.231263
T6
X43.420882Y-89.231263
X43.420882Y-94.311263
X3.420882Y-89.231263
X3.420882Y-94.311263
M30
