G04                                                      *
G04 Greetings!                                           *
G04 This Gerber was generated by PCBmodE, an open source *
G04 PCB design software. Get it here:                    *
G04                                                      *
G04   http://pcbmode.com                                 *
G04                                                      *
G04 Also visit                                           *
G04                                                      *
G04   http://boldport.com                                *
G04                                                      *
G04 and follow @boldport / @pcbmode for updates!         *
G04                                                      *

G04 leading zeros omitted (L); absolute data (A); 6 integer digits and 6 fractional digits *
%FSLAX66Y66*%

G04 mode (MO): millimeters (MM) *
%MOMM*%

G04 Aperture definitions *
%ADD10C,0.001X*%
%ADD11C,0.001X*%

%LPD*%
G36*
G01X26698714Y-48015248D02*
G01X26698714Y-48015248D01*
G01X26688199Y-48091492D01*
G01X26681420Y-48162868D01*
G01X26677558Y-48224320D01*
G01X26675791Y-48270789D01*
G01X26675300Y-48297218D01*
G01X26675276Y-48301380D01*
G01X26675276Y-48313099D01*
G01X26675276Y-48313099D01*
G01X26680846Y-48417990D01*
G01X26696466Y-48508221D01*
G01X26720499Y-48584897D01*
G01X26751309Y-48649121D01*
G01X26787261Y-48701996D01*
G01X26826718Y-48744626D01*
G01X26868046Y-48778113D01*
G01X26909606Y-48803562D01*
G01X26949765Y-48822075D01*
G01X26986886Y-48834756D01*
G01X27019332Y-48842709D01*
G01X27045468Y-48847036D01*
G01X27063658Y-48848841D01*
G01X27072267Y-48849228D01*
G01X27072737Y-48849232D01*
G01X27072737Y-48849232D01*
G01X27154986Y-48841547D01*
G01X27223658Y-48822684D01*
G01X27277419Y-48798931D01*
G01X27314937Y-48776575D01*
G01X27334880Y-48761904D01*
G01X27337874Y-48759388D01*
G01X27337874Y-48759388D01*
G01X27387912Y-48703252D01*
G01X27424020Y-48642944D01*
G01X27448026Y-48586985D01*
G01X27461760Y-48543895D01*
G01X27467050Y-48522194D01*
G01X27467268Y-48521107D01*
G01X27467268Y-48521107D01*
G01X27517675Y-48544231D01*
G01X27540999Y-48555287D01*
G01X27540999Y-48555287D01*
G01X27612978Y-48590377D01*
G01X27636438Y-48602506D01*
G01X27636702Y-48602650D01*
G01X27636702Y-48602650D01*
G01X27691479Y-48631605D01*
G01X27714827Y-48643665D01*
G01X27714827Y-48643665D01*
G01X27779246Y-48679036D01*
G01X27801253Y-48692494D01*
G01X27801253Y-48692494D01*
G01X27849730Y-48729896D01*
G01X27853011Y-48733021D01*
G01X27853011Y-48733021D01*
G01X27894805Y-48792026D01*
G01X27909072Y-48843100D01*
G01X27910628Y-48860951D01*
G01X27910628Y-48860951D01*
G01X27904902Y-48914929D01*
G01X27904768Y-48915638D01*
G01X27904768Y-48915638D01*
G01X27962203Y-48933053D01*
G01X27965315Y-48933216D01*
G01X27965315Y-48933216D01*
G01X28012444Y-48905381D01*
G01X28034105Y-48847429D01*
G01X28040203Y-48797691D01*
G01X28040511Y-48787708D01*
G01X28040511Y-48783802D01*
G01X28040511Y-48783802D01*
G01X28028127Y-48720661D01*
G01X28022932Y-48707630D01*
G01X28022932Y-48707630D01*
G01X27984791Y-48654411D01*
G01X27961409Y-48631458D01*
G01X27961409Y-48631458D01*
G01X27905867Y-48584706D01*
G01X27883284Y-48566517D01*
G01X27883284Y-48566517D01*
G01X27883284Y-48566517D01*
G01X27831050Y-48531712D01*
G01X27784628Y-48504876D01*
G01X27776839Y-48500599D01*
G01X27776839Y-48500599D01*
G01X27705784Y-48462395D01*
G01X27675650Y-48446390D01*
G01X27673811Y-48445423D01*
G01X27673811Y-48445423D01*
G01X27620475Y-48419384D01*
G01X27568921Y-48395314D01*
G01X27560042Y-48391224D01*
G01X27560042Y-48391224D01*
G01X27483198Y-48355739D01*
G01X27465375Y-48347309D01*
G01X27465315Y-48347279D01*
G01X27465315Y-48347279D01*
G01X27431368Y-48293803D01*
G01X27421370Y-48291615D01*
G01X27421370Y-48291615D01*
G01X27367739Y-48301107D01*
G01X27366682Y-48301380D01*
G01X27366682Y-48301380D01*
G01X27375966Y-48372020D01*
G01X27377425Y-48395130D01*
G01X27377425Y-48395130D01*
G01X27367624Y-48474868D01*
G01X27344959Y-48536687D01*
G01X27319537Y-48579404D01*
G01X27301467Y-48601833D01*
G01X27298323Y-48605091D01*
G01X27298323Y-48605091D01*
G01X27239819Y-48645116D01*
G01X27176999Y-48667886D01*
G01X27122279Y-48678269D01*
G01X27088073Y-48681131D01*
G01X27082503Y-48681263D01*
G01X27082503Y-48681263D01*
G01X26994199Y-48671708D01*
G01X26929781Y-48649263D01*
G01X26887296Y-48623263D01*
G01X26864791Y-48603041D01*
G01X26859847Y-48597279D01*
G01X26859847Y-48597279D01*
G01X26830562Y-48541486D01*
G01X26812242Y-48477084D01*
G01X26802316Y-48414925D01*
G01X26798211Y-48365859D01*
G01X26797354Y-48340737D01*
G01X26797347Y-48339466D01*
G01X26797347Y-48339466D01*
G01X26799235Y-48273095D01*
G01X26802851Y-48213348D01*
G01X26805123Y-48183649D01*
G01X26805159Y-48183216D01*
G01X26805159Y-48183216D01*
G01X26858366Y-48185884D01*
G01X26923230Y-48187863D01*
G01X26993587Y-48189255D01*
G01X27063269Y-48190165D01*
G01X27126111Y-48190694D01*
G01X27175946Y-48190946D01*
G01X27206608Y-48191023D01*
G01X27213362Y-48191029D01*
G01X27614729Y-48191029D01*
G01X27614729Y-48191029D01*
G01X27712652Y-48192792D01*
G01X27796323Y-48197414D01*
G01X27865949Y-48203889D01*
G01X27921736Y-48211214D01*
G01X27963888Y-48218384D01*
G01X27992614Y-48224396D01*
G01X28008117Y-48228245D01*
G01X28011214Y-48229115D01*
G01X28011214Y-48229115D01*
G01X28025216Y-48165335D01*
G01X28026839Y-48135365D01*
G01X28026839Y-48135365D01*
G01X28010069Y-48068462D01*
G01X28000960Y-48057728D01*
G01X28000960Y-48057728D01*
G01X27941517Y-48039533D01*
G01X27912581Y-48037708D01*
G01X27912581Y-48037708D01*
G01X27860161Y-48038180D01*
G01X27793450Y-48039084D01*
G01X27755454Y-48039652D01*
G01X27754866Y-48039662D01*
G01X27754866Y-48039662D01*
G01X27668441Y-48040823D01*
G01X27605991Y-48041399D01*
G01X27569113Y-48041594D01*
G01X27559065Y-48041615D01*
G01X27158675Y-48041615D01*
G01X27158675Y-48041615D01*
G01X27070962Y-48040728D01*
G01X26990710Y-48038348D01*
G01X26918644Y-48034896D01*
G01X26855489Y-48030793D01*
G01X26801971Y-48026460D01*
G01X26758814Y-48022319D01*
G01X26726745Y-48018790D01*
G01X26706488Y-48016295D01*
G01X26698769Y-48015255D01*
G01X26698714Y-48015247D01*
G37*
G36*
G01X27557112Y-49032826D02*
G01X27557112Y-49032826D01*
G01X27470037Y-49039229D01*
G01X27393898Y-49055804D01*
G01X27329466Y-49078593D01*
G01X27277513Y-49103643D01*
G01X27238810Y-49126997D01*
G01X27214130Y-49144702D01*
G01X27204244Y-49152801D01*
G01X27204085Y-49152943D01*
G01X27204085Y-49152943D01*
G01X27152647Y-49211099D01*
G01X27116506Y-49273836D01*
G01X27092962Y-49335717D01*
G01X27079315Y-49391302D01*
G01X27072867Y-49435154D01*
G01X27070917Y-49461834D01*
G01X27070784Y-49467396D01*
G01X27070784Y-49467396D01*
G01X27078882Y-49550406D01*
G01X27099577Y-49622198D01*
G01X27127470Y-49681900D01*
G01X27157163Y-49728642D01*
G01X27183257Y-49761555D01*
G01X27200352Y-49779768D01*
G01X27204085Y-49783314D01*
G01X27204085Y-49783314D01*
G01X27264313Y-49826852D01*
G01X27329664Y-49858292D01*
G01X27395098Y-49879602D01*
G01X27455574Y-49892752D01*
G01X27506052Y-49899713D01*
G01X27541491Y-49902453D01*
G01X27556851Y-49902942D01*
G01X27557112Y-49902943D01*
G01X27557112Y-49902943D01*
G01X27644109Y-49896565D01*
G01X27720046Y-49880058D01*
G01X27784200Y-49857361D01*
G01X27835848Y-49832413D01*
G01X27874265Y-49809154D01*
G01X27898730Y-49791521D01*
G01X27908517Y-49783456D01*
G01X27908675Y-49783314D01*
G01X27908675Y-49783314D01*
G01X27959547Y-49725228D01*
G01X27995291Y-49662319D01*
G01X28018576Y-49600116D01*
G01X28032073Y-49544146D01*
G01X28038451Y-49499935D01*
G01X28040379Y-49473012D01*
G01X28040511Y-49467396D01*
G01X28040511Y-49467396D01*
G01X28032502Y-49385109D01*
G01X28012034Y-49313772D01*
G01X27984447Y-49254313D01*
G01X27955081Y-49207662D01*
G01X27929274Y-49174748D01*
G01X27912366Y-49156500D01*
G01X27908675Y-49152943D01*
G01X27908675Y-49152943D01*
G01X27848980Y-49109227D01*
G01X27784013Y-49077659D01*
G01X27718840Y-49056262D01*
G01X27658525Y-49043058D01*
G01X27608133Y-49036069D01*
G01X27572727Y-49033318D01*
G01X27557373Y-49032827D01*
G01X27557112Y-49032826D01*
G37*
%LPC*%
G36*
G01X27528792Y-49173451D02*
G01X27528792Y-49173451D01*
G01X27611174Y-49179419D01*
G01X27681896Y-49194272D01*
G01X27739288Y-49213433D01*
G01X27781681Y-49232325D01*
G01X27807403Y-49246371D01*
G01X27814925Y-49251087D01*
G01X27814925Y-49251087D01*
G01X27870682Y-49303396D01*
G01X27904503Y-49360767D01*
G01X27921870Y-49413615D01*
G01X27928268Y-49452353D01*
G01X27929182Y-49467396D01*
G01X27929182Y-49467396D01*
G01X27929182Y-49467396D01*
G01X27918516Y-49547081D01*
G01X27893461Y-49609565D01*
G01X27864438Y-49653924D01*
G01X27841864Y-49679237D01*
G01X27835432Y-49685169D01*
G01X27835432Y-49685169D01*
G01X27776727Y-49721776D01*
G01X27713486Y-49744675D01*
G01X27654712Y-49757083D01*
G01X27609408Y-49762214D01*
G01X27586577Y-49763285D01*
G01X27585432Y-49763294D01*
G01X27585432Y-49763294D01*
G01X27502975Y-49757138D01*
G01X27432066Y-49741818D01*
G01X27374433Y-49722054D01*
G01X27331803Y-49702568D01*
G01X27305904Y-49688081D01*
G01X27298323Y-49683216D01*
G01X27298323Y-49683216D01*
G01X27242089Y-49630021D01*
G01X27207979Y-49572654D01*
G01X27190464Y-49520302D01*
G01X27184011Y-49482154D01*
G01X27183089Y-49467396D01*
G01X27183089Y-49467396D01*
G01X27183089Y-49467396D01*
G01X27193866Y-49387822D01*
G01X27219182Y-49325599D01*
G01X27248507Y-49281542D01*
G01X27271316Y-49256464D01*
G01X27277815Y-49250599D01*
G01X27277815Y-49250599D01*
G01X27336979Y-49214450D01*
G01X27400506Y-49191837D01*
G01X27459434Y-49179584D01*
G01X27504802Y-49174517D01*
G01X27527647Y-49173460D01*
G01X27528792Y-49173451D01*
G37*
%LPD*%
G36*
G01X27566878Y-50082630D02*
G01X27566878Y-50082630D01*
G01X27488402Y-50087591D01*
G01X27422342Y-50099064D01*
G01X27373315Y-50111931D01*
G01X27345937Y-50121078D01*
G01X27341780Y-50122669D01*
G01X27341780Y-50122669D01*
G01X27271061Y-50158954D01*
G01X27220596Y-50195717D01*
G01X27192055Y-50222117D01*
G01X27186018Y-50228626D01*
G01X27186018Y-50228626D01*
G01X27141284Y-50290088D01*
G01X27112665Y-50341800D01*
G01X27100511Y-50368663D01*
G01X27100081Y-50369740D01*
G01X27100081Y-50369740D01*
G01X27079996Y-50440171D01*
G01X27072151Y-50496467D01*
G01X27070786Y-50522690D01*
G01X27070784Y-50523060D01*
G01X27070784Y-50523060D01*
G01X27077956Y-50596195D01*
G01X27093733Y-50658070D01*
G01X27109511Y-50700901D01*
G01X27116682Y-50716908D01*
G01X27116682Y-50716908D01*
G01X27116682Y-50716908D01*
G01X27164978Y-50777539D01*
G01X27214065Y-50803287D01*
G01X27244168Y-50809101D01*
G01X27246565Y-50809193D01*
G01X27246565Y-50809193D01*
G01X27303927Y-50780625D01*
G01X27328301Y-50731008D01*
G01X27332503Y-50712513D01*
G01X27332503Y-50712513D01*
G01X27267783Y-50678912D01*
G01X27230628Y-50640892D01*
G01X27221663Y-50628040D01*
G01X27221663Y-50628040D01*
G01X27193682Y-50560573D01*
G01X27184130Y-50508196D01*
G01X27183089Y-50490833D01*
G01X27183089Y-50490833D01*
G01X27196407Y-50419499D01*
G01X27226715Y-50362472D01*
G01X27259539Y-50322748D01*
G01X27280408Y-50303319D01*
G01X27282210Y-50301869D01*
G01X27282210Y-50301869D01*
G01X27343709Y-50265949D01*
G01X27409195Y-50243479D01*
G01X27469645Y-50231303D01*
G01X27516035Y-50226268D01*
G01X27539344Y-50225218D01*
G01X27540511Y-50225208D01*
G01X27540511Y-50225208D01*
G01X27633481Y-50231439D01*
G01X27708424Y-50246947D01*
G01X27765686Y-50266951D01*
G01X27805610Y-50286675D01*
G01X27828544Y-50301339D01*
G01X27834944Y-50306263D01*
G01X27834944Y-50306263D01*
G01X27884461Y-50364704D01*
G01X27912633Y-50425590D01*
G01X27925478Y-50477752D01*
G01X27929020Y-50510023D01*
G01X27929182Y-50515248D01*
G01X27929182Y-50515248D01*
G01X27919699Y-50585308D01*
G01X27905517Y-50631178D01*
G01X27903304Y-50636830D01*
G01X27903304Y-50636830D01*
G01X27862381Y-50696789D01*
G01X27828414Y-50723145D01*
G01X27824690Y-50725208D01*
G01X27824690Y-50725208D01*
G01X27869883Y-50790070D01*
G01X27902129Y-50804142D01*
G01X27904768Y-50804310D01*
G01X27904768Y-50804310D01*
G01X27962706Y-50778721D01*
G01X27996561Y-50733107D01*
G01X28005843Y-50713490D01*
G01X28005843Y-50713490D01*
G01X28025292Y-50645953D01*
G01X28035636Y-50581736D01*
G01X28039750Y-50532262D01*
G01X28040508Y-50508951D01*
G01X28040511Y-50508412D01*
G01X28040511Y-50508412D01*
G01X28032370Y-50426055D01*
G01X28011837Y-50354385D01*
G01X27984742Y-50294936D01*
G01X27956919Y-50249246D01*
G01X27934198Y-50218849D01*
G01X27922413Y-50205283D01*
G01X27921858Y-50204701D01*
G01X27921858Y-50204701D01*
G01X27866076Y-50160274D01*
G01X27802284Y-50128193D01*
G01X27736310Y-50106448D01*
G01X27673982Y-50093029D01*
G01X27621128Y-50085926D01*
G01X27583578Y-50083130D01*
G01X27567159Y-50082631D01*
G01X27566878Y-50082630D01*
G37*
G36*
G01X26540511Y-51006458D02*
G01X26540511Y-51006458D01*
G01X26534794Y-51068234D01*
G01X26534651Y-51076771D01*
G01X26534651Y-51076771D01*
G01X26559289Y-51146690D01*
G01X26599767Y-51167299D01*
G01X26610823Y-51168568D01*
G01X26610823Y-51168568D01*
G01X26666194Y-51166884D01*
G01X26702620Y-51165638D01*
G01X26702620Y-51165638D01*
G01X26766961Y-51163455D01*
G01X26834628Y-51161236D01*
G01X26891434Y-51159406D01*
G01X26923192Y-51158395D01*
G01X26925764Y-51158314D01*
G01X26925764Y-51158314D01*
G01X27000141Y-51156342D01*
G01X27069709Y-51155071D01*
G01X27129565Y-51154347D01*
G01X27174804Y-51154016D01*
G01X27200524Y-51153924D01*
G01X27204573Y-51153919D01*
G01X27204573Y-51153919D01*
G01X27152947Y-51218586D01*
G01X27116674Y-51282600D01*
G01X27093043Y-51342145D01*
G01X27079347Y-51393404D01*
G01X27072874Y-51432560D01*
G01X27070918Y-51455797D01*
G01X27070784Y-51460560D01*
G01X27070784Y-51460560D01*
G01X27081132Y-51543279D01*
G01X27104291Y-51604081D01*
G01X27128436Y-51642479D01*
G01X27141740Y-51657989D01*
G01X27142073Y-51658314D01*
G01X27142073Y-51658314D01*
G01X27204193Y-51699782D01*
G01X27264379Y-51719579D01*
G01X27306598Y-51725719D01*
G01X27316878Y-51726185D01*
G01X27316878Y-51726185D01*
G01X27392030Y-51716929D01*
G01X27453985Y-51695523D01*
G01X27499184Y-51671514D01*
G01X27524072Y-51654447D01*
G01X27527815Y-51651478D01*
G01X27527815Y-51651478D01*
G01X27574534Y-51598271D01*
G01X27604925Y-51539998D01*
G01X27622297Y-51487485D01*
G01X27629962Y-51451557D01*
G01X27631331Y-51442005D01*
G01X27631331Y-51442005D01*
G01X27718036Y-51496038D01*
G01X27780065Y-51537296D01*
G01X27820873Y-51566544D01*
G01X27843918Y-51584546D01*
G01X27852656Y-51592064D01*
G01X27853011Y-51592396D01*
G01X27853011Y-51592396D01*
G01X27899763Y-51654633D01*
G01X27915723Y-51701258D01*
G01X27917464Y-51716419D01*
G01X27917464Y-51716419D01*
G01X27908738Y-51768032D01*
G01X27908675Y-51768177D01*
G01X27908675Y-51768177D01*
G01X27964896Y-51786519D01*
G01X27967268Y-51786732D01*
G01X27967268Y-51786732D01*
G01X28016636Y-51754344D01*
G01X28021956Y-51744740D01*
G01X28021956Y-51744740D01*
G01X28039410Y-51680013D01*
G01X28040511Y-51664662D01*
G01X28040511Y-51664662D01*
G01X28024205Y-51597013D01*
G01X27992280Y-51545897D01*
G01X27970221Y-51521088D01*
G01X27969222Y-51520130D01*
G01X27969222Y-51520130D01*
G01X27919863Y-51478137D01*
G01X27909163Y-51469837D01*
G01X27909163Y-51469837D01*
G01X27854993Y-51431666D01*
G01X27837386Y-51420033D01*
G01X27837386Y-51420033D01*
G01X27780491Y-51384337D01*
G01X27770003Y-51378040D01*
G01X27770003Y-51378040D01*
G01X27715337Y-51345739D01*
G01X27692366Y-51332142D01*
G01X27692366Y-51332142D01*
G01X27632036Y-51296867D01*
G01X27624495Y-51292591D01*
G01X27624495Y-51292591D01*
G01X27590942Y-51241622D01*
G01X27582503Y-51239857D01*
G01X27582503Y-51239857D01*
G01X27534651Y-51250599D01*
G01X27534651Y-51250599D01*
G01X27546983Y-51324501D01*
G01X27549298Y-51352117D01*
G01X27549300Y-51352162D01*
G01X27549300Y-51352162D01*
G01X27537624Y-51432814D01*
G01X27513315Y-51488522D01*
G01X27492452Y-51517999D01*
G01X27488264Y-51522572D01*
G01X27488264Y-51522572D01*
G01X27427069Y-51563746D01*
G01X27373661Y-51579828D01*
G01X27347529Y-51582626D01*
G01X27347151Y-51582630D01*
G01X27347151Y-51582630D01*
G01X27276714Y-51568193D01*
G01X27236464Y-51545880D01*
G01X27230940Y-51541615D01*
G01X27230940Y-51541615D01*
G01X27193950Y-51484848D01*
G01X27183598Y-51436013D01*
G01X27183089Y-51426380D01*
G01X27183089Y-51426380D01*
G01X27194089Y-51358768D01*
G01X27214192Y-51304756D01*
G01X27224104Y-51284290D01*
G01X27224104Y-51284290D01*
G01X27265717Y-51220962D01*
G01X27304493Y-51175761D01*
G01X27325767Y-51154712D01*
G01X27326643Y-51153919D01*
G01X27616682Y-51153919D01*
G01X27616682Y-51153919D01*
G01X27713362Y-51155683D01*
G01X27796281Y-51160304D01*
G01X27865542Y-51166780D01*
G01X27921250Y-51174104D01*
G01X27963506Y-51181275D01*
G01X27992413Y-51187286D01*
G01X28008076Y-51191135D01*
G01X28011214Y-51192005D01*
G01X28011214Y-51192005D01*
G01X28026169Y-51129365D01*
G01X28026839Y-51116810D01*
G01X28026839Y-51116810D01*
G01X28010992Y-51050218D01*
G01X28002913Y-51039662D01*
G01X28002913Y-51039662D01*
G01X27944448Y-51019552D01*
G01X27923323Y-51018177D01*
G01X27923323Y-51018177D01*
G01X27880741Y-51018380D01*
G01X27815636Y-51018865D01*
G01X27746382Y-51019443D01*
G01X27691354Y-51019927D01*
G01X27668929Y-51020130D01*
G01X27668929Y-51020130D01*
G01X27668929Y-51020130D01*
G01X27575182Y-51020926D01*
G01X27497824Y-51021469D01*
G01X27436820Y-51021809D01*
G01X27392132Y-51021992D01*
G01X27363725Y-51022068D01*
G01X27351564Y-51022083D01*
G01X27351057Y-51022083D01*
G01X27118636Y-51022083D01*
G01X27118636Y-51022083D01*
G01X26999969Y-51021727D01*
G01X26897920Y-51020747D01*
G01X26811358Y-51019281D01*
G01X26739151Y-51017466D01*
G01X26680166Y-51015439D01*
G01X26633272Y-51013335D01*
G01X26597336Y-51011293D01*
G01X26571227Y-51009447D01*
G01X26553814Y-51007936D01*
G01X26543963Y-51006896D01*
G01X26540543Y-51006463D01*
G01X26540511Y-51006458D01*
G37*
G36*
G01X27561018Y-51929310D02*
G01X27561018Y-51929310D01*
G01X27474434Y-51935483D01*
G01X27399173Y-51951658D01*
G01X27335465Y-51974321D01*
G01X27283543Y-51999957D01*
G01X27243639Y-52025053D01*
G01X27215984Y-52046094D01*
G01X27200809Y-52059566D01*
G01X27197737Y-52062611D01*
G01X27197737Y-52062611D01*
G01X27148749Y-52124964D01*
G01X27114329Y-52189002D01*
G01X27091906Y-52250146D01*
G01X27078909Y-52303818D01*
G01X27072768Y-52345440D01*
G01X27070911Y-52370435D01*
G01X27070784Y-52375599D01*
G01X27070784Y-52375599D01*
G01X27079784Y-52456284D01*
G01X27100924Y-52521117D01*
G01X27125412Y-52568197D01*
G01X27144459Y-52595627D01*
G01X27149886Y-52602162D01*
G01X27149886Y-52602162D01*
G01X27209714Y-52650922D01*
G01X27267896Y-52676855D01*
G01X27313333Y-52687168D01*
G01X27334930Y-52689070D01*
G01X27335432Y-52689076D01*
G01X27335432Y-52689076D01*
G01X27411679Y-52680073D01*
G01X27456723Y-52665283D01*
G01X27465315Y-52661244D01*
G01X27465315Y-52661244D01*
G01X27522032Y-52618023D01*
G01X27546290Y-52589320D01*
G01X27546858Y-52588490D01*
G01X27546858Y-52588490D01*
G01X27574181Y-52528514D01*
G01X27589532Y-52473640D01*
G01X27592757Y-52458607D01*
G01X27592757Y-52458607D01*
G01X27604187Y-52385069D01*
G01X27610370Y-52325927D01*
G01X27612651Y-52293997D01*
G01X27612776Y-52291615D01*
G01X27612776Y-52291615D01*
G01X27614968Y-52226173D01*
G01X27616133Y-52158235D01*
G01X27616597Y-52103188D01*
G01X27616682Y-52076425D01*
G01X27616682Y-52075794D01*
G01X27616682Y-52075794D01*
G01X27699070Y-52091771D01*
G01X27764414Y-52115348D01*
G01X27811303Y-52139523D01*
G01X27838326Y-52157299D01*
G01X27844710Y-52162220D01*
G01X27844710Y-52162220D01*
G01X27890618Y-52217625D01*
G01X27915881Y-52277318D01*
G01X27926666Y-52328075D01*
G01X27929139Y-52356671D01*
G01X27929182Y-52358998D01*
G01X27929182Y-52358998D01*
G01X27917294Y-52443887D01*
G01X27889368Y-52505515D01*
G01X27857020Y-52545944D01*
G01X27831859Y-52567236D01*
G01X27824690Y-52571888D01*
G01X27824690Y-52571888D01*
G01X27870350Y-52635970D01*
G01X27904992Y-52650729D01*
G01X27908675Y-52650990D01*
G01X27908675Y-52650990D01*
G01X27963306Y-52624153D01*
G01X27996158Y-52577543D01*
G01X28004378Y-52560169D01*
G01X28004378Y-52560169D01*
G01X28025267Y-52490116D01*
G01X28035994Y-52424549D01*
G01X28039946Y-52376011D01*
G01X28040511Y-52357044D01*
G01X28040511Y-52357044D01*
G01X28040511Y-52357044D01*
G01X28033302Y-52277049D01*
G01X28014882Y-52207375D01*
G01X27990054Y-52149053D01*
G01X27963624Y-52103111D01*
G01X27940398Y-52070576D01*
G01X27925180Y-52052477D01*
G01X27921858Y-52048939D01*
G01X27921858Y-52048939D01*
G01X27870124Y-52008086D01*
G01X27810684Y-51977787D01*
G01X27748360Y-51956463D01*
G01X27687972Y-51942540D01*
G01X27634342Y-51934439D01*
G01X27592290Y-51930584D01*
G01X27566637Y-51929397D01*
G01X27561018Y-51929310D01*
G37*
%LPC*%
G36*
G01X27517073Y-52073841D02*
G01X27517073Y-52073841D01*
G01X27516523Y-52153278D01*
G01X27515542Y-52202999D01*
G01X27515120Y-52217396D01*
G01X27515120Y-52217396D01*
G01X27509979Y-52285787D01*
G01X27503995Y-52335615D01*
G01X27502913Y-52343373D01*
G01X27502913Y-52343373D01*
G01X27487045Y-52417770D01*
G01X27475328Y-52452011D01*
G01X27474593Y-52453724D01*
G01X27474593Y-52453724D01*
G01X27437011Y-52508629D01*
G01X27422835Y-52522572D01*
G01X27422835Y-52522572D01*
G01X27362650Y-52548926D01*
G01X27339339Y-52551380D01*
G01X27339339Y-52551380D01*
G01X27272307Y-52532818D01*
G01X27233401Y-52504130D01*
G01X27228011Y-52498646D01*
G01X27228011Y-52498646D01*
G01X27193424Y-52436651D01*
G01X27182165Y-52383889D01*
G01X27181136Y-52367787D01*
G01X27181136Y-52367787D01*
G01X27192158Y-52291091D01*
G01X27217240Y-52229190D01*
G01X27244405Y-52185719D01*
G01X27261676Y-52164314D01*
G01X27263167Y-52162708D01*
G01X27263167Y-52162708D01*
G01X27317860Y-52122530D01*
G01X27381242Y-52096733D01*
G01X27442542Y-52082142D01*
G01X27490991Y-52075583D01*
G01X27515817Y-52073880D01*
G01X27517073Y-52073841D01*
G37*
%LPD*%
G36*
G01X27162581Y-52778919D02*
G01X27162581Y-52778919D01*
G01X27107167Y-52803363D01*
G01X27103987Y-52808705D01*
G01X27103987Y-52808705D01*
G01X27092976Y-52869588D01*
G01X27091292Y-52910670D01*
G01X27091292Y-52910755D01*
G01X27091292Y-52967396D01*
G01X27091292Y-52967396D01*
G01X27006379Y-52964092D01*
G01X26938597Y-52960236D01*
G01X26891440Y-52956827D01*
G01X26868402Y-52954862D01*
G01X26866682Y-52954701D01*
G01X26866682Y-52954701D01*
G01X26860915Y-53014988D01*
G01X26860823Y-53021107D01*
G01X26860823Y-53021107D01*
G01X26884390Y-53092880D01*
G01X26924225Y-53115128D01*
G01X26936995Y-53116810D01*
G01X26936995Y-53116810D01*
G01X26987326Y-53114922D01*
G01X27054122Y-53111306D01*
G01X27092645Y-53109034D01*
G01X27093245Y-53108998D01*
G01X27093245Y-53108998D01*
G01X27092592Y-53211957D01*
G01X27090925Y-53293533D01*
G01X27088677Y-53355544D01*
G01X27086284Y-53399810D01*
G01X27084181Y-53428150D01*
G01X27082804Y-53442384D01*
G01X27082503Y-53444935D01*
G01X27082503Y-53444935D01*
G01X27129378Y-53452748D01*
G01X27129378Y-53452748D01*
G01X27181987Y-53433192D01*
G01X27183089Y-53431751D01*
G01X27183089Y-53431751D01*
G01X27198094Y-53373501D01*
G01X27198714Y-53364857D01*
G01X27198714Y-53364857D01*
G01X27199667Y-53311591D01*
G01X27200245Y-53243888D01*
G01X27200542Y-53176841D01*
G01X27200651Y-53125544D01*
G01X27200667Y-53105091D01*
G01X27200667Y-53105091D01*
G01X27200667Y-53105091D01*
G01X27278882Y-53103847D01*
G01X27356334Y-53102900D01*
G01X27430320Y-53102209D01*
G01X27498137Y-53101734D01*
G01X27557081Y-53101435D01*
G01X27604448Y-53101271D01*
G01X27637536Y-53101201D01*
G01X27653641Y-53101185D01*
G01X27654768Y-53101185D01*
G01X27654768Y-53101185D01*
G01X27751795Y-53106025D01*
G01X27818704Y-53117217D01*
G01X27859551Y-53129771D01*
G01X27878392Y-53138695D01*
G01X27880843Y-53140247D01*
G01X27880843Y-53140248D01*
G01X27920157Y-53193896D01*
G01X27933578Y-53248693D01*
G01X27935042Y-53269154D01*
G01X27935042Y-53269154D01*
G01X27920410Y-53341127D01*
G01X27892386Y-53391188D01*
G01X27874778Y-53412425D01*
G01X27874495Y-53412708D01*
G01X27874495Y-53412708D01*
G01X27932960Y-53446698D01*
G01X27946761Y-53448841D01*
G01X27946761Y-53448841D01*
G01X28000433Y-53418326D01*
G01X28014632Y-53397083D01*
G01X28014632Y-53397083D01*
G01X28034637Y-53332013D01*
G01X28040235Y-53280854D01*
G01X28040511Y-53271107D01*
G01X28040511Y-53271107D01*
G01X28030557Y-53182931D01*
G01X28006823Y-53116716D01*
G01X27978495Y-53071103D01*
G01X27954761Y-53044732D01*
G01X27944807Y-53036244D01*
G01X27944807Y-53036244D01*
G01X27944807Y-53036244D01*
G01X27889187Y-53006762D01*
G01X27825547Y-52987189D01*
G01X27762293Y-52975496D01*
G01X27707831Y-52969652D01*
G01X27670566Y-52967628D01*
G01X27658675Y-52967396D01*
G01X27658675Y-52967396D01*
G01X27548499Y-52968548D01*
G01X27456202Y-52969448D01*
G01X27380452Y-52970127D01*
G01X27319915Y-52970616D01*
G01X27273257Y-52970946D01*
G01X27239144Y-52971149D01*
G01X27216244Y-52971255D01*
G01X27203221Y-52971295D01*
G01X27198743Y-52971302D01*
G01X27198714Y-52971302D01*
G01X27198714Y-52971302D01*
G01X27201341Y-52935323D01*
G01X27206915Y-52864864D01*
G01X27211977Y-52801907D01*
G01X27213362Y-52784779D01*
G01X27213362Y-52784779D01*
G01X27162620Y-52778919D01*
G01X27162581Y-52778919D01*
G37*
G36*
G01X27914534Y-53613880D02*
G01X27914534Y-53613880D01*
G01X27865424Y-53620219D01*
G01X27806919Y-53625683D01*
G01X27741471Y-53630336D01*
G01X27671535Y-53634240D01*
G01X27599565Y-53637458D01*
G01X27528016Y-53640055D01*
G01X27459340Y-53642091D01*
G01X27395992Y-53643631D01*
G01X27340426Y-53644738D01*
G01X27295097Y-53645474D01*
G01X27262457Y-53645903D01*
G01X27244961Y-53646087D01*
G01X27242659Y-53646107D01*
G01X27242659Y-53646107D01*
G01X27142473Y-53645369D01*
G01X27051839Y-53643365D01*
G01X26970989Y-53640412D01*
G01X26900159Y-53636826D01*
G01X26839583Y-53632923D01*
G01X26789495Y-53629021D01*
G01X26750130Y-53625435D01*
G01X26721722Y-53622482D01*
G01X26704505Y-53620478D01*
G01X26698714Y-53619740D01*
G01X26698714Y-53619740D01*
G01X26698714Y-53619740D01*
G01X26688677Y-53682973D01*
G01X26682014Y-53750297D01*
G01X26678034Y-53814458D01*
G01X26676044Y-53868202D01*
G01X26675355Y-53904274D01*
G01X26675276Y-53915638D01*
G01X26675276Y-53930287D01*
G01X26675276Y-53930287D01*
G01X26678158Y-54010952D01*
G01X26685232Y-54082080D01*
G01X26694139Y-54140492D01*
G01X26702523Y-54183010D01*
G01X26708024Y-54206456D01*
G01X26708968Y-54210072D01*
G01X26708968Y-54210072D01*
G01X26733229Y-54281072D01*
G01X26761850Y-54343189D01*
G01X26789229Y-54392462D01*
G01X26809764Y-54424931D01*
G01X26817854Y-54436634D01*
G01X26817854Y-54436634D01*
G01X26817854Y-54436634D01*
G01X26865927Y-54490312D01*
G01X26919035Y-54533586D01*
G01X26969102Y-54565994D01*
G01X27008049Y-54587074D01*
G01X27027798Y-54596363D01*
G01X27028792Y-54596790D01*
G01X27028792Y-54596790D01*
G01X27097144Y-54620059D01*
G01X27167872Y-54635956D01*
G01X27234953Y-54645887D01*
G01X27292361Y-54651254D01*
G01X27334073Y-54653462D01*
G01X27354065Y-54653916D01*
G01X27354964Y-54653919D01*
G01X27354964Y-54653919D01*
G01X27441611Y-54649435D01*
G01X27521327Y-54637263D01*
G01X27593596Y-54619326D01*
G01X27657901Y-54597544D01*
G01X27713728Y-54573841D01*
G01X27760561Y-54550138D01*
G01X27797885Y-54528357D01*
G01X27825182Y-54510419D01*
G01X27841939Y-54498248D01*
G01X27847639Y-54493763D01*
G01X27847639Y-54493763D01*
G01X27847639Y-54493763D01*
G01X27899908Y-54442076D01*
G01X27941761Y-54384833D01*
G01X27974356Y-54324626D01*
G01X27998850Y-54264044D01*
G01X28016402Y-54205677D01*
G01X28028167Y-54152115D01*
G01X28035303Y-54105947D01*
G01X28038968Y-54069763D01*
G01X28040318Y-54046154D01*
G01X28040511Y-54037708D01*
G01X28040511Y-54037708D01*
G01X28040511Y-54037708D01*
G01X28035504Y-53945178D01*
G01X28022225Y-53863286D01*
G01X28003286Y-53792376D01*
G01X27981300Y-53732793D01*
G01X27958878Y-53684880D01*
G01X27938633Y-53648983D01*
G01X27923177Y-53625444D01*
G01X27915123Y-53614609D01*
G01X27914534Y-53613880D01*
G37*
%LPC*%
G36*
G01X27847151Y-53768177D02*
G01X27847151Y-53768177D01*
G01X27879572Y-53830257D01*
G01X27900473Y-53894618D01*
G01X27912383Y-53954051D01*
G01X27917830Y-54001346D01*
G01X27919345Y-54029291D01*
G01X27919417Y-54033802D01*
G01X27919417Y-54033802D01*
G01X27912922Y-54114666D01*
G01X27898141Y-54180559D01*
G01X27882133Y-54227204D01*
G01X27871956Y-54250322D01*
G01X27871077Y-54252064D01*
G01X27871077Y-54252064D01*
G01X27828737Y-54315139D01*
G01X27785125Y-54360021D01*
G01X27752240Y-54386145D01*
G01X27741682Y-54393177D01*
G01X27741682Y-54393177D01*
G01X27674442Y-54427984D01*
G01X27616866Y-54450800D01*
G01X27580918Y-54462270D01*
G01X27574690Y-54463978D01*
G01X27574690Y-54463978D01*
G01X27502895Y-54477749D01*
G01X27440801Y-54484079D01*
G01X27401787Y-54485861D01*
G01X27395003Y-54485951D01*
G01X27395003Y-54485951D01*
G01X27302085Y-54480974D01*
G01X27219924Y-54467619D01*
G01X27148535Y-54448249D01*
G01X27087934Y-54425228D01*
G01X27038137Y-54400917D01*
G01X26999158Y-54377680D01*
G01X26971015Y-54357881D01*
G01X26953721Y-54343882D01*
G01X26947294Y-54338045D01*
G01X26947249Y-54338001D01*
G01X26947249Y-54338001D01*
G01X26903023Y-54285121D01*
G01X26868483Y-54226261D01*
G01X26842432Y-54164622D01*
G01X26823672Y-54103406D01*
G01X26811006Y-54045815D01*
G01X26803238Y-53995049D01*
G01X26799170Y-53954310D01*
G01X26797606Y-53926800D01*
G01X26797347Y-53915720D01*
G01X26797347Y-53915638D01*
G01X26797347Y-53915638D01*
G01X26800097Y-53851622D01*
G01X26804347Y-53796794D01*
G01X26805159Y-53787708D01*
G01X26805159Y-53787708D01*
G01X26874173Y-53790957D01*
G01X26945107Y-53793300D01*
G01X27012080Y-53794881D01*
G01X27069214Y-53795844D01*
G01X27110628Y-53796333D01*
G01X27130442Y-53796492D01*
G01X27131331Y-53796498D01*
G01X27131331Y-53796498D01*
G01X27222067Y-53796101D01*
G01X27307518Y-53794988D01*
G01X27387481Y-53793275D01*
G01X27461753Y-53791080D01*
G01X27530132Y-53788518D01*
G01X27592414Y-53785707D01*
G01X27648396Y-53782762D01*
G01X27697875Y-53779801D01*
G01X27740649Y-53776939D01*
G01X27776513Y-53774294D01*
G01X27805267Y-53771982D01*
G01X27826705Y-53770120D01*
G01X27840626Y-53768824D01*
G01X27846826Y-53768211D01*
G01X27847151Y-53768177D01*
G37*
%LPD*%
G36*
G01X26702620Y-54883412D02*
G01X26702620Y-54883412D01*
G01X26689889Y-54956408D01*
G01X26687038Y-54996686D01*
G01X26686995Y-54999623D01*
G01X26686995Y-54999623D01*
G01X26706473Y-55065274D01*
G01X26746233Y-55113048D01*
G01X26778266Y-55138372D01*
G01X26782698Y-55141224D01*
G01X26782698Y-55141224D01*
G01X26842565Y-55173926D01*
G01X26905324Y-55205508D01*
G01X26966746Y-55234618D01*
G01X27022603Y-55259906D01*
G01X27068666Y-55280021D01*
G01X27100706Y-55293613D01*
G01X27114496Y-55299332D01*
G01X27114729Y-55299427D01*
G01X27114729Y-55299427D01*
G01X27198659Y-55333056D01*
G01X27272801Y-55361742D01*
G01X27335670Y-55385285D01*
G01X27385784Y-55403490D01*
G01X27421660Y-55416157D01*
G01X27441814Y-55423089D01*
G01X27445784Y-55424427D01*
G01X27445784Y-55424427D01*
G01X27503699Y-55443566D01*
G01X27568997Y-55464898D01*
G01X27636684Y-55486851D01*
G01X27701765Y-55507856D01*
G01X27759244Y-55526342D01*
G01X27804128Y-55540738D01*
G01X27831421Y-55549474D01*
G01X27837386Y-55551380D01*
G01X27837386Y-55551380D01*
G01X27769679Y-55568951D01*
G01X27701462Y-55588003D01*
G01X27634170Y-55607884D01*
G01X27569237Y-55627941D01*
G01X27508099Y-55647518D01*
G01X27452191Y-55665964D01*
G01X27402949Y-55682625D01*
G01X27361808Y-55696846D01*
G01X27330202Y-55707975D01*
G01X27309567Y-55715358D01*
G01X27301339Y-55718341D01*
G01X27301253Y-55718373D01*
G01X27301253Y-55718373D01*
G01X27224996Y-55747330D01*
G01X27152295Y-55776799D01*
G01X27083906Y-55806105D01*
G01X27020586Y-55834572D01*
G01X26963090Y-55861527D01*
G01X26912175Y-55886293D01*
G01X26868596Y-55908197D01*
G01X26833110Y-55926563D01*
G01X26806472Y-55940716D01*
G01X26789439Y-55949982D01*
G01X26782767Y-55953685D01*
G01X26782698Y-55953724D01*
G01X26782698Y-55953724D01*
G01X26722716Y-56004948D01*
G01X26695147Y-56056980D01*
G01X26687387Y-56092714D01*
G01X26686995Y-56099232D01*
G01X26686995Y-56099232D01*
G01X26693408Y-56173623D01*
G01X26701999Y-56209672D01*
G01X26702620Y-56211537D01*
G01X26702620Y-56211537D01*
G01X26753844Y-56200027D01*
G01X26817353Y-56191265D01*
G01X26887629Y-56184876D01*
G01X26959154Y-56180484D01*
G01X27026409Y-56177716D01*
G01X27083877Y-56176197D01*
G01X27126039Y-56175552D01*
G01X27147377Y-56175406D01*
G01X27148909Y-56175404D01*
G01X27614729Y-56175404D01*
G01X27614729Y-56175404D01*
G01X27712652Y-56177167D01*
G01X27796323Y-56181789D01*
G01X27865949Y-56188264D01*
G01X27921736Y-56195589D01*
G01X27963888Y-56202759D01*
G01X27992614Y-56208771D01*
G01X28008117Y-56212620D01*
G01X28011214Y-56213490D01*
G01X28011214Y-56213490D01*
G01X28025216Y-56149444D01*
G01X28026839Y-56119251D01*
G01X28026839Y-56119251D01*
G01X28010069Y-56051892D01*
G01X28000960Y-56041126D01*
G01X28000960Y-56041126D01*
G01X27941517Y-56022931D01*
G01X27912581Y-56021107D01*
G01X27912581Y-56021107D01*
G01X27865268Y-56021540D01*
G01X27797331Y-56022292D01*
G01X27772932Y-56022572D01*
G01X27772932Y-56022572D01*
G01X27714667Y-56023157D01*
G01X27649422Y-56023677D01*
G01X27582791Y-56024123D01*
G01X27520371Y-56024488D01*
G01X27467756Y-56024763D01*
G01X27430541Y-56024940D01*
G01X27414322Y-56025012D01*
G01X27414046Y-56025013D01*
G01X27414046Y-56025013D01*
G01X27343189Y-56025278D01*
G01X27271643Y-56025490D01*
G01X27201328Y-56025655D01*
G01X27134163Y-56025779D01*
G01X27072066Y-56025868D01*
G01X27016956Y-56025927D01*
G01X26970752Y-56025963D01*
G01X26935374Y-56025982D01*
G01X26912740Y-56025989D01*
G01X26904768Y-56025990D01*
G01X26904768Y-56025990D01*
G01X26904768Y-56025990D01*
G01X26962937Y-55998219D01*
G01X27025851Y-55970111D01*
G01X27092675Y-55941856D01*
G01X27162573Y-55913646D01*
G01X27234709Y-55885670D01*
G01X27308248Y-55858119D01*
G01X27382353Y-55831183D01*
G01X27456190Y-55805052D01*
G01X27528923Y-55779918D01*
G01X27599715Y-55755970D01*
G01X27667731Y-55733399D01*
G01X27732136Y-55712396D01*
G01X27792093Y-55693150D01*
G01X27846767Y-55675853D01*
G01X27895323Y-55660694D01*
G01X27936925Y-55647865D01*
G01X27970736Y-55637555D01*
G01X27995922Y-55629955D01*
G01X28011646Y-55625255D01*
G01X28017073Y-55623646D01*
G01X28017073Y-55623646D01*
G01X28017073Y-55623646D01*
G01X28024882Y-55570480D01*
G01X28024886Y-55569935D01*
G01X28024886Y-55569935D01*
G01X28004406Y-55497391D01*
G01X27975887Y-55470761D01*
G01X27973128Y-55469349D01*
G01X27973128Y-55469349D01*
G01X27933306Y-55452663D01*
G01X27881432Y-55432185D01*
G01X27821332Y-55409223D01*
G01X27756831Y-55385083D01*
G01X27691756Y-55361073D01*
G01X27629932Y-55338498D01*
G01X27575187Y-55318664D01*
G01X27531347Y-55302880D01*
G01X27502236Y-55292452D01*
G01X27491682Y-55288685D01*
G01X27491682Y-55288685D01*
G01X27491682Y-55288685D01*
G01X27405306Y-55257393D01*
G01X27325337Y-55227422D01*
G01X27251918Y-55199007D01*
G01X27185193Y-55172381D01*
G01X27125307Y-55147779D01*
G01X27072404Y-55125434D01*
G01X27026627Y-55105581D01*
G01X26988120Y-55088453D01*
G01X26957028Y-55074285D01*
G01X26933495Y-55063310D01*
G01X26917664Y-55055763D01*
G01X26909679Y-55051877D01*
G01X26908675Y-55051380D01*
G01X27614729Y-55051380D01*
G01X27614729Y-55051380D01*
G01X27712652Y-55053144D01*
G01X27796323Y-55057765D01*
G01X27865949Y-55064240D01*
G01X27921736Y-55071565D01*
G01X27963888Y-55078736D01*
G01X27992614Y-55084747D01*
G01X28008117Y-55088596D01*
G01X28011214Y-55089466D01*
G01X28011214Y-55089466D01*
G01X28026225Y-55026882D01*
G01X28026839Y-55015248D01*
G01X28026839Y-55015248D01*
G01X28010069Y-54948345D01*
G01X28000960Y-54937611D01*
G01X28000960Y-54937611D01*
G01X27941517Y-54919416D01*
G01X27912581Y-54917591D01*
G01X27912581Y-54917591D01*
G01X27860161Y-54918063D01*
G01X27793450Y-54918967D01*
G01X27755454Y-54919535D01*
G01X27754866Y-54919544D01*
G01X27754866Y-54919544D01*
G01X27668441Y-54920706D01*
G01X27605991Y-54921281D01*
G01X27569113Y-54921477D01*
G01X27559065Y-54921497D01*
G01X27055159Y-54921498D01*
G01X27055159Y-54921498D01*
G01X26961034Y-54919184D01*
G01X26880388Y-54913271D01*
G01X26813916Y-54905301D01*
G01X26762307Y-54896818D01*
G01X26726256Y-54889362D01*
G01X26706453Y-54884478D01*
G01X26702620Y-54883412D01*
G37*
G36*
G01X27935042Y-56395130D02*
G01X27935042Y-56395130D01*
G01X27905108Y-56401357D01*
G01X27866110Y-56418819D01*
G01X27819804Y-56445686D01*
G01X27767950Y-56480130D01*
G01X27712306Y-56520322D01*
G01X27654630Y-56564433D01*
G01X27596682Y-56610634D01*
G01X27540220Y-56657097D01*
G01X27487002Y-56701991D01*
G01X27438787Y-56743490D01*
G01X27397333Y-56779763D01*
G01X27364400Y-56808981D01*
G01X27341744Y-56829317D01*
G01X27331126Y-56838940D01*
G01X27330550Y-56839466D01*
G01X27330550Y-56839466D01*
G01X27224528Y-56771857D01*
G01X27132272Y-56710096D01*
G01X27052885Y-56654144D01*
G01X26985469Y-56603963D01*
G01X26929128Y-56559513D01*
G01X26882964Y-56520756D01*
G01X26846081Y-56487652D01*
G01X26817581Y-56460163D01*
G01X26796567Y-56438250D01*
G01X26782143Y-56421872D01*
G01X26773412Y-56410993D01*
G01X26769476Y-56405572D01*
G01X26769026Y-56404896D01*
G01X26769026Y-56404896D01*
G01X26710268Y-56466461D01*
G01X26683262Y-56517185D01*
G01X26675660Y-56548063D01*
G01X26675276Y-56553333D01*
G01X26675276Y-56553333D01*
G01X26701260Y-56603256D01*
G01X26745181Y-56644171D01*
G01X26759261Y-56654896D01*
G01X26759261Y-56654896D01*
G01X26816534Y-56694104D01*
G01X26876784Y-56734185D01*
G01X26937889Y-56773961D01*
G01X26997729Y-56812255D01*
G01X27054182Y-56847889D01*
G01X27105128Y-56879685D01*
G01X27148444Y-56906465D01*
G01X27182011Y-56927052D01*
G01X27203706Y-56940268D01*
G01X27211409Y-56944935D01*
G01X27211409Y-56944935D01*
G01X27211409Y-56944935D01*
G01X27149478Y-56993610D01*
G01X27088265Y-57037704D01*
G01X27031390Y-57075930D01*
G01X26982472Y-57107005D01*
G01X26945128Y-57129643D01*
G01X26922978Y-57142557D01*
G01X26918440Y-57145130D01*
G01X26918440Y-57145130D01*
G01X26832979Y-57189341D01*
G01X26765612Y-57218505D01*
G01X26716854Y-57235622D01*
G01X26687222Y-57243693D01*
G01X26677229Y-57245716D01*
G01X26677229Y-57245716D01*
G01X26677229Y-57245716D01*
G01X26707990Y-57329937D01*
G01X26746410Y-57371658D01*
G01X26777971Y-57385810D01*
G01X26788557Y-57387318D01*
G01X26788557Y-57387318D01*
G01X26834620Y-57374096D01*
G01X26894859Y-57343039D01*
G01X26953862Y-57307062D01*
G01X26996219Y-57279080D01*
G01X27007796Y-57271107D01*
G01X27007796Y-57271107D01*
G01X27071513Y-57225045D01*
G01X27132279Y-57178903D01*
G01X27188181Y-57134779D01*
G01X27237310Y-57094772D01*
G01X27277751Y-57060979D01*
G01X27307595Y-57035499D01*
G01X27324929Y-57020431D01*
G01X27328597Y-57017201D01*
G01X27328597Y-57017201D01*
G01X27434037Y-57080338D01*
G01X27527295Y-57138908D01*
G01X27609081Y-57192909D01*
G01X27680105Y-57242339D01*
G01X27741074Y-57287195D01*
G01X27792700Y-57327477D01*
G01X27835692Y-57363182D01*
G01X27870758Y-57394307D01*
G01X27898609Y-57420852D01*
G01X27919953Y-57442813D01*
G01X27935501Y-57460189D01*
G01X27945961Y-57472978D01*
G01X27952044Y-57481178D01*
G01X27954458Y-57484787D01*
G01X27954573Y-57484974D01*
G01X27954573Y-57484974D01*
G01X28012279Y-57419754D01*
G01X28035795Y-57371359D01*
G01X28040481Y-57348167D01*
G01X28040511Y-57347279D01*
G01X28040511Y-57347279D01*
G01X28015556Y-57292827D01*
G01X27974560Y-57252504D01*
G01X27963362Y-57243763D01*
G01X27963362Y-57243763D01*
G01X27916716Y-57209759D01*
G01X27862774Y-57172458D01*
G01X27803973Y-57133213D01*
G01X27742747Y-57093380D01*
G01X27681530Y-57054312D01*
G01X27622757Y-57017362D01*
G01X27568863Y-56983886D01*
G01X27522283Y-56955238D01*
G01X27485452Y-56932770D01*
G01X27460804Y-56917838D01*
G01X27450773Y-56911796D01*
G01X27450667Y-56911732D01*
G01X27450667Y-56911732D01*
G01X27500642Y-56863849D01*
G01X27555044Y-56817516D01*
G01X27609627Y-56774744D01*
G01X27660147Y-56737541D01*
G01X27702359Y-56707918D01*
G01X27732019Y-56687885D01*
G01X27744882Y-56679451D01*
G01X27745100Y-56679310D01*
G01X27745100Y-56679310D01*
G01X27827714Y-56629306D01*
G01X27898205Y-56591693D01*
G01X27955625Y-56564909D01*
G01X27999026Y-56547395D01*
G01X28027460Y-56537591D01*
G01X28039979Y-56533938D01*
G01X28040511Y-56533802D01*
G01X28040511Y-56533802D01*
G01X28010637Y-56449076D01*
G01X27972758Y-56408628D01*
G01X27942790Y-56396081D01*
G01X27935042Y-56395130D01*
G37*
G36*
G01X26793440Y-58189076D02*
G01X26793440Y-58189076D01*
G01X26729940Y-58216232D01*
G01X26708253Y-58258201D01*
G01X26706526Y-58266224D01*
G01X26706526Y-58266224D01*
G01X26690901Y-58374857D01*
G01X26681604Y-58448333D01*
G01X26676995Y-58492982D01*
G01X26675432Y-58515130D01*
G01X26675276Y-58521107D01*
G01X26675276Y-58521107D01*
G01X26675276Y-58521107D01*
G01X26691954Y-58576163D01*
G01X26693343Y-58578236D01*
G01X26693343Y-58578236D01*
G01X26745848Y-58602835D01*
G01X26751448Y-58603138D01*
G01X26751448Y-58603138D01*
G01X26805412Y-58601334D01*
G01X26863165Y-58598918D01*
G01X26867171Y-58598744D01*
G01X26867171Y-58598744D01*
G01X26934861Y-58596071D01*
G01X27004482Y-58593718D01*
G01X27065047Y-58591874D01*
G01X27105567Y-58590729D01*
G01X27116194Y-58590443D01*
G01X27116194Y-58590443D01*
G01X27194451Y-58588690D01*
G01X27265613Y-58587561D01*
G01X27325529Y-58586917D01*
G01X27370046Y-58586622D01*
G01X27395014Y-58586540D01*
G01X27398909Y-58586537D01*
G01X27522932Y-58586537D01*
G01X27522932Y-58586537D01*
G01X27618233Y-58587170D01*
G01X27700044Y-58588829D01*
G01X27768443Y-58591153D01*
G01X27823508Y-58593782D01*
G01X27865315Y-58596356D01*
G01X27893943Y-58598514D01*
G01X27909468Y-58599896D01*
G01X27912581Y-58600208D01*
G01X27912581Y-58600208D01*
G01X27911360Y-58690800D01*
G01X27908675Y-58755848D01*
G01X27905989Y-58795078D01*
G01X27904768Y-58808216D01*
G01X27904768Y-58808216D01*
G01X27904768Y-58808216D01*
G01X27948714Y-58817005D01*
G01X27948714Y-58817005D01*
G01X28009241Y-58788376D01*
G01X28024441Y-58745563D01*
G01X28024886Y-58738880D01*
G01X28024886Y-58738880D01*
G01X28024170Y-58687935D01*
G01X28023100Y-58625269D01*
G01X28022932Y-58615833D01*
G01X28022932Y-58615833D01*
G01X28021771Y-58536045D01*
G01X28021195Y-58471974D01*
G01X28021000Y-58430622D01*
G01X28020979Y-58418568D01*
G01X28020979Y-58418568D01*
G01X28021263Y-58324169D01*
G01X28021897Y-58258728D01*
G01X28022559Y-58219814D01*
G01X28022923Y-58204998D01*
G01X28022932Y-58204701D01*
G01X28022932Y-58204701D01*
G01X27975081Y-58194935D01*
G01X27975081Y-58194935D01*
G01X27926375Y-58225840D01*
G01X27908962Y-58282321D01*
G01X27906722Y-58310169D01*
G01X27906722Y-58446888D01*
G01X27906722Y-58446888D01*
G01X27864580Y-58447110D01*
G01X27799601Y-58447632D01*
G01X27731971Y-58448237D01*
G01X27681876Y-58448707D01*
G01X27667952Y-58448841D01*
G01X27667952Y-58448841D01*
G01X27581140Y-58449595D01*
G01X27502775Y-58450124D01*
G01X27435042Y-58450469D01*
G01X27380128Y-58450669D01*
G01X27340216Y-58450764D01*
G01X27317492Y-58450792D01*
G01X27312972Y-58450794D01*
G01X27312972Y-58450794D01*
G01X27230281Y-58450630D01*
G01X27152190Y-58450185D01*
G01X27079666Y-58449529D01*
G01X27013675Y-58448732D01*
G01X26955183Y-58447865D01*
G01X26905159Y-58446998D01*
G01X26864568Y-58446201D01*
G01X26834378Y-58445544D01*
G01X26815555Y-58445099D01*
G01X26809065Y-58444935D01*
G01X26809065Y-58444935D01*
G01X26809065Y-58444935D01*
G01X26820636Y-58336060D01*
G01X26828737Y-58263701D01*
G01X26833886Y-58220779D01*
G01X26836597Y-58200216D01*
G01X26837386Y-58194935D01*
G01X26837386Y-58194935D01*
G01X26837386Y-58194935D01*
G01X26793440Y-58189076D01*
G37*
G36*
G01X27915022Y-59125599D02*
G01X27915022Y-59125599D01*
G01X27849043Y-59143665D01*
G01X27823714Y-59161732D01*
G01X27823714Y-59161732D01*
G01X27823714Y-59161732D01*
G01X27790708Y-59220523D01*
G01X27786604Y-59248158D01*
G01X27786604Y-59248158D01*
G01X27806827Y-59312121D01*
G01X27823714Y-59333119D01*
G01X27823714Y-59333119D01*
G01X27884370Y-59363708D01*
G01X27915022Y-59367787D01*
G01X27915022Y-59367787D01*
G01X27981202Y-59349933D01*
G01X28004866Y-59333119D01*
G01X28004866Y-59333119D01*
G01X28037041Y-59273667D01*
G01X28040511Y-59248158D01*
G01X28040511Y-59248158D01*
G01X28021086Y-59183396D01*
G01X28004866Y-59161732D01*
G01X28004866Y-59161732D01*
G01X27945503Y-59129850D01*
G01X27915022Y-59125599D01*
G37*
G36*
G01X27358870Y-59547474D02*
G01X27358870Y-59547474D01*
G01X27268485Y-59551070D01*
G01X27186222Y-59560830D01*
G01X27112407Y-59575212D01*
G01X27047370Y-59592677D01*
G01X26991438Y-59611683D01*
G01X26944940Y-59630689D01*
G01X26908204Y-59648154D01*
G01X26881557Y-59662537D01*
G01X26865329Y-59672296D01*
G01X26859847Y-59675892D01*
G01X26859847Y-59675892D01*
G01X26859847Y-59675892D01*
G01X26796816Y-59729831D01*
G01X26750069Y-59788781D01*
G01X26717170Y-59848695D01*
G01X26695688Y-59905524D01*
G01X26683190Y-59955220D01*
G01X26677241Y-59993733D01*
G01X26675411Y-60017015D01*
G01X26675276Y-60022083D01*
G01X26675276Y-60022083D01*
G01X26683846Y-60102422D01*
G01X26706301Y-60173221D01*
G01X26737763Y-60233953D01*
G01X26773354Y-60284091D01*
G01X26808195Y-60323107D01*
G01X26837405Y-60350472D01*
G01X26856108Y-60365660D01*
G01X26860335Y-60368763D01*
G01X26860335Y-60368763D01*
G01X26919263Y-60403697D01*
G01X26983245Y-60431669D01*
G01X27049629Y-60453455D01*
G01X27115764Y-60469826D01*
G01X27178999Y-60481556D01*
G01X27236682Y-60489419D01*
G01X27286162Y-60494189D01*
G01X27324788Y-60496638D01*
G01X27349908Y-60497540D01*
G01X27358870Y-60497669D01*
G01X27358870Y-60497669D01*
G01X27358870Y-60497669D01*
G01X27447972Y-60494060D01*
G01X27529288Y-60484263D01*
G01X27602441Y-60469826D01*
G01X27667057Y-60452294D01*
G01X27722762Y-60433216D01*
G01X27769179Y-60414138D01*
G01X27805933Y-60396607D01*
G01X27832651Y-60382169D01*
G01X27848957Y-60372372D01*
G01X27854475Y-60368763D01*
G01X27854475Y-60368763D01*
G01X27854475Y-60368763D01*
G01X27918006Y-60314658D01*
G01X27965125Y-60255584D01*
G01X27998284Y-60195582D01*
G01X28019937Y-60138696D01*
G01X28032534Y-60088968D01*
G01X28038530Y-60050439D01*
G01X28040375Y-60027152D01*
G01X28040511Y-60022083D01*
G01X28040511Y-60022083D01*
G01X28031964Y-59941768D01*
G01X28009568Y-59871028D01*
G01X27978188Y-59810379D01*
G01X27942691Y-59760335D01*
G01X27907943Y-59721411D01*
G01X27878809Y-59694122D01*
G01X27860156Y-59678984D01*
G01X27855940Y-59675892D01*
G01X27855940Y-59675892D01*
G01X27797172Y-59641091D01*
G01X27733370Y-59613224D01*
G01X27667178Y-59591521D01*
G01X27601237Y-59575212D01*
G01X27538191Y-59563526D01*
G01X27480682Y-59555693D01*
G01X27431353Y-59550941D01*
G01X27392847Y-59548501D01*
G01X27367805Y-59547602D01*
G01X27358870Y-59547474D01*
G01X27358870Y-59547474D01*
G37*
%LPC*%
G36*
G01X27297347Y-59697865D02*
G01X27297347Y-59697865D01*
G01X27374840Y-59700492D01*
G01X27445604Y-59707031D01*
G01X27506127Y-59715467D01*
G01X27552896Y-59723784D01*
G01X27582399Y-59729968D01*
G01X27591292Y-59732044D01*
G01X27591292Y-59732044D01*
G01X27668593Y-59756494D01*
G01X27733448Y-59785138D01*
G01X27783139Y-59812447D01*
G01X27814948Y-59832888D01*
G01X27826155Y-59840931D01*
G01X27826155Y-59840931D01*
G01X27826155Y-59840931D01*
G01X27880669Y-59898011D01*
G01X27909660Y-59954247D01*
G01X27921190Y-59998501D01*
G01X27923317Y-60019637D01*
G01X27923323Y-60020130D01*
G01X27923323Y-60020130D01*
G01X27910292Y-60093449D01*
G01X27878307Y-60154474D01*
G01X27838030Y-60202111D01*
G01X27800122Y-60235266D01*
G01X27775245Y-60252847D01*
G01X27770979Y-60255482D01*
G01X27770979Y-60255482D01*
G01X27708508Y-60285830D01*
G01X27642550Y-60308338D01*
G01X27577043Y-60324178D01*
G01X27515927Y-60334521D01*
G01X27463140Y-60340539D01*
G01X27422623Y-60343403D01*
G01X27398314Y-60344284D01*
G01X27393050Y-60344349D01*
G01X27393050Y-60344349D01*
G01X27317244Y-60341425D01*
G01X27247738Y-60334249D01*
G01X27188837Y-60325213D01*
G01X27144845Y-60316708D01*
G01X27120070Y-60311126D01*
G01X27116194Y-60310169D01*
G01X27116194Y-60310169D01*
G01X27041292Y-60285669D01*
G01X26978343Y-60256904D01*
G01X26930042Y-60229451D01*
G01X26899085Y-60208888D01*
G01X26888167Y-60200794D01*
G01X26888167Y-60200794D01*
G01X26888167Y-60200794D01*
G01X26835023Y-60143583D01*
G01X26806760Y-60087518D01*
G01X26795520Y-60043536D01*
G01X26793446Y-60022572D01*
G01X26793440Y-60022083D01*
G01X26793440Y-60022083D01*
G01X26805928Y-59951539D01*
G01X26836580Y-59891774D01*
G01X26875179Y-59844360D01*
G01X26911508Y-59810869D01*
G01X26935348Y-59792873D01*
G01X26939436Y-59790150D01*
G01X26939436Y-59790150D01*
G01X27003868Y-59756563D01*
G01X27071478Y-59732310D01*
G01X27137691Y-59715871D01*
G01X27197934Y-59705726D01*
G01X27247631Y-59700356D01*
G01X27282210Y-59698243D01*
G01X27297094Y-59697865D01*
G01X27297347Y-59697865D01*
G37*
%LPD*%
G36*
G01X28246565Y-60610951D02*
G01X28246565Y-60610951D01*
G01X28223128Y-60612904D01*
G01X28223128Y-60623646D01*
G01X28223128Y-60623646D01*
G01X28204709Y-60691337D01*
G01X28178104Y-60726491D01*
G01X28174788Y-60729603D01*
G01X28174788Y-60729603D01*
G01X28112438Y-60763009D01*
G01X28069344Y-60770937D01*
G01X28064925Y-60771107D01*
G01X28064925Y-60771107D01*
G01X27994659Y-60748771D01*
G01X27958753Y-60705038D01*
G01X27947081Y-60674819D01*
G01X27946761Y-60673451D01*
G01X27946761Y-60673451D01*
G01X27887920Y-60653502D01*
G01X27881331Y-60652943D01*
G01X27881331Y-60652943D01*
G01X27821822Y-60676067D01*
G01X27810042Y-60687123D01*
G01X27810042Y-60687123D01*
G01X27783074Y-60747502D01*
G01X27780745Y-60769154D01*
G01X27780745Y-60769154D01*
G01X27803006Y-60832044D01*
G01X27826589Y-60857977D01*
G01X27826643Y-60858021D01*
G01X27826643Y-60858021D01*
G01X27885275Y-60884462D01*
G01X27944354Y-60893914D01*
G01X27969222Y-60895130D01*
G01X27969222Y-60895130D01*
G01X28045142Y-60887297D01*
G01X28110991Y-60868898D01*
G01X28161992Y-60847584D01*
G01X28193370Y-60831006D01*
G01X28201155Y-60826283D01*
G01X28201155Y-60826283D01*
G01X28262412Y-60771832D01*
G01X28293867Y-60719166D01*
G01X28305457Y-60679409D01*
G01X28307112Y-60663685D01*
G01X28307112Y-60663685D01*
G01X28307112Y-60663685D01*
G01X28271416Y-60615760D01*
G01X28246565Y-60610951D01*
G37*
G36*
G01X27927229Y-61552357D02*
G01X27927229Y-61552357D01*
G01X27900862Y-61554310D01*
G01X27900862Y-61554310D01*
G01X27824822Y-61635924D01*
G01X27755325Y-61709537D01*
G01X27692211Y-61775475D01*
G01X27635318Y-61834064D01*
G01X27584486Y-61885629D01*
G01X27539555Y-61930496D01*
G01X27500362Y-61968990D01*
G01X27466748Y-62001437D01*
G01X27438552Y-62028162D01*
G01X27415613Y-62049492D01*
G01X27397770Y-62065751D01*
G01X27384863Y-62077265D01*
G01X27376730Y-62084360D01*
G01X27373211Y-62087362D01*
G01X27373030Y-62087513D01*
G01X27373030Y-62087513D01*
G01X27302059Y-62138425D01*
G01X27235334Y-62173209D01*
G01X27176273Y-62194937D01*
G01X27128298Y-62206681D01*
G01X27094827Y-62211513D01*
G01X27079281Y-62212505D01*
G01X27078597Y-62212513D01*
G01X27078597Y-62212513D01*
G01X26997709Y-62202803D01*
G01X26935425Y-62180707D01*
G01X26893456Y-62156776D01*
G01X26873513Y-62141561D01*
G01X26872054Y-62140248D01*
G01X26872054Y-62140248D01*
G01X26826458Y-62079911D01*
G01X26803871Y-62021112D01*
G01X26796210Y-61978062D01*
G01X26795393Y-61964466D01*
G01X26795393Y-61964466D01*
G01X26804933Y-61893448D01*
G01X26824408Y-61834720D01*
G01X26840098Y-61800571D01*
G01X26842268Y-61796498D01*
G01X26842268Y-61796498D01*
G01X26886219Y-61733959D01*
G01X26930059Y-61689152D01*
G01X26959897Y-61664650D01*
G01X26965315Y-61660755D01*
G01X26965315Y-61660755D01*
G01X26932158Y-61596578D01*
G01X26899944Y-61584622D01*
G01X26898909Y-61584583D01*
G01X26898909Y-61584583D01*
G01X26842375Y-61604115D01*
G01X26794173Y-61647083D01*
G01X26760619Y-61690052D01*
G01X26748030Y-61709583D01*
G01X26748030Y-61709583D01*
G01X26748030Y-61709583D01*
G01X26715390Y-61778109D01*
G01X26694348Y-61844811D01*
G01X26682358Y-61903882D01*
G01X26676873Y-61949512D01*
G01X26675349Y-61975892D01*
G01X26675276Y-61980091D01*
G01X26675276Y-61980091D01*
G01X26683462Y-62059838D01*
G01X26703555Y-62128710D01*
G01X26728858Y-62184282D01*
G01X26752672Y-62224127D01*
G01X26768300Y-62245820D01*
G01X26770979Y-62249134D01*
G01X26770979Y-62249134D01*
G01X26825324Y-62297434D01*
G01X26885787Y-62329500D01*
G01X26944944Y-62348657D01*
G01X26995367Y-62358231D01*
G01X27029628Y-62361547D01*
G01X27040511Y-62361927D01*
G01X27040511Y-62361927D01*
G01X27116896Y-62356606D01*
G01X27179418Y-62345106D01*
G01X27220352Y-62334121D01*
G01X27232405Y-62330189D01*
G01X27232405Y-62330189D01*
G01X27294411Y-62301524D01*
G01X27352643Y-62266055D01*
G01X27398367Y-62233867D01*
G01X27422852Y-62215050D01*
G01X27424788Y-62213490D01*
G01X27424788Y-62213490D01*
G01X27480093Y-62166143D01*
G01X27531394Y-62118915D01*
G01X27575257Y-62076383D01*
G01X27608248Y-62043126D01*
G01X27626932Y-62023725D01*
G01X27629866Y-62020619D01*
G01X27629866Y-62020619D01*
G01X27671980Y-61974678D01*
G01X27717487Y-61923529D01*
G01X27763396Y-61870923D01*
G01X27806713Y-61820612D01*
G01X27844445Y-61776350D01*
G01X27873599Y-61741889D01*
G01X27891182Y-61720982D01*
G01X27895003Y-61716419D01*
G01X27895003Y-61716419D01*
G01X27897511Y-61782175D01*
G01X27898620Y-61846206D01*
G01X27898900Y-61887076D01*
G01X27898909Y-61892201D01*
G01X27898909Y-61892201D01*
G01X27898158Y-61990490D01*
G01X27896290Y-62069512D01*
G01X27893880Y-62129727D01*
G01X27891503Y-62171597D01*
G01X27889737Y-62195582D01*
G01X27889143Y-62202259D01*
G01X27889143Y-62202259D01*
G01X27877852Y-62274258D01*
G01X27862532Y-62336964D01*
G01X27849043Y-62381268D01*
G01X27843245Y-62398060D01*
G01X27843245Y-62398060D01*
G01X27843245Y-62398060D01*
G01X27909279Y-62423800D01*
G01X27929182Y-62426380D01*
G01X27929182Y-62426380D01*
G01X27985650Y-62396283D01*
G01X27996565Y-62376576D01*
G01X27996565Y-62376576D01*
G01X28008100Y-62328533D01*
G01X28015981Y-62264411D01*
G01X28020904Y-62194528D01*
G01X28023564Y-62129206D01*
G01X28024659Y-62078763D01*
G01X28024884Y-62053521D01*
G01X28024886Y-62052357D01*
G01X28024886Y-62052357D01*
G01X28024705Y-61947838D01*
G01X28024231Y-61860039D01*
G01X28023567Y-61788252D01*
G01X28022815Y-61731769D01*
G01X28022080Y-61689882D01*
G01X28021463Y-61661883D01*
G01X28021069Y-61647064D01*
G01X28020979Y-61644154D01*
G01X28020979Y-61644154D01*
G01X27995836Y-61578748D01*
G01X27949885Y-61555365D01*
G01X27927229Y-61552357D01*
G37*
G36*
G01X27358870Y-62599232D02*
G01X27358870Y-62599232D01*
G01X27268485Y-62602828D01*
G01X27186222Y-62612587D01*
G01X27112407Y-62626970D01*
G01X27047370Y-62644435D01*
G01X26991438Y-62663441D01*
G01X26944940Y-62682447D01*
G01X26908204Y-62699912D01*
G01X26881557Y-62714294D01*
G01X26865329Y-62724054D01*
G01X26859847Y-62727650D01*
G01X26859847Y-62727650D01*
G01X26859847Y-62727650D01*
G01X26796816Y-62781588D01*
G01X26750069Y-62840539D01*
G01X26717170Y-62900453D01*
G01X26695688Y-62957282D01*
G01X26683190Y-63006978D01*
G01X26677241Y-63045491D01*
G01X26675411Y-63068773D01*
G01X26675276Y-63073841D01*
G01X26675276Y-63073841D01*
G01X26683846Y-63154179D01*
G01X26706301Y-63224979D01*
G01X26737763Y-63285711D01*
G01X26773354Y-63335849D01*
G01X26808195Y-63374865D01*
G01X26837405Y-63402230D01*
G01X26856108Y-63417418D01*
G01X26860335Y-63420521D01*
G01X26860335Y-63420521D01*
G01X26919263Y-63455455D01*
G01X26983245Y-63483427D01*
G01X27049629Y-63505212D01*
G01X27115764Y-63521583D01*
G01X27178999Y-63533314D01*
G01X27236682Y-63541177D01*
G01X27286162Y-63545947D01*
G01X27324788Y-63548396D01*
G01X27349908Y-63549298D01*
G01X27358870Y-63549427D01*
G01X27358870Y-63549427D01*
G01X27358870Y-63549427D01*
G01X27447972Y-63545818D01*
G01X27529288Y-63536021D01*
G01X27602441Y-63521583D01*
G01X27667057Y-63504052D01*
G01X27722762Y-63484974D01*
G01X27769179Y-63465896D01*
G01X27805933Y-63448365D01*
G01X27832651Y-63433927D01*
G01X27848957Y-63424130D01*
G01X27854475Y-63420521D01*
G01X27854475Y-63420521D01*
G01X27854475Y-63420521D01*
G01X27918006Y-63366416D01*
G01X27965125Y-63307341D01*
G01X27998284Y-63247340D01*
G01X28019937Y-63190454D01*
G01X28032534Y-63140726D01*
G01X28038530Y-63102197D01*
G01X28040375Y-63078910D01*
G01X28040511Y-63073841D01*
G01X28040511Y-63073841D01*
G01X28031964Y-62993526D01*
G01X28009568Y-62922786D01*
G01X27978188Y-62862136D01*
G01X27942691Y-62812092D01*
G01X27907943Y-62773169D01*
G01X27878809Y-62745880D01*
G01X27860156Y-62730742D01*
G01X27855940Y-62727650D01*
G01X27855940Y-62727650D01*
G01X27797172Y-62692849D01*
G01X27733370Y-62664982D01*
G01X27667178Y-62643279D01*
G01X27601237Y-62626970D01*
G01X27538191Y-62615284D01*
G01X27480682Y-62607451D01*
G01X27431353Y-62602699D01*
G01X27392847Y-62600259D01*
G01X27367805Y-62599360D01*
G01X27358870Y-62599232D01*
G01X27358870Y-62599232D01*
G37*
%LPC*%
G36*
G01X27297347Y-62749623D02*
G01X27297347Y-62749623D01*
G01X27374840Y-62752250D01*
G01X27445604Y-62758789D01*
G01X27506127Y-62767225D01*
G01X27552896Y-62775542D01*
G01X27582399Y-62781726D01*
G01X27591292Y-62783802D01*
G01X27591292Y-62783802D01*
G01X27668593Y-62808251D01*
G01X27733448Y-62836896D01*
G01X27783139Y-62864205D01*
G01X27814948Y-62884646D01*
G01X27826155Y-62892689D01*
G01X27826155Y-62892689D01*
G01X27826155Y-62892689D01*
G01X27880669Y-62949769D01*
G01X27909660Y-63006005D01*
G01X27921190Y-63050259D01*
G01X27923317Y-63071395D01*
G01X27923323Y-63071888D01*
G01X27923323Y-63071888D01*
G01X27910292Y-63145207D01*
G01X27878307Y-63206232D01*
G01X27838030Y-63253869D01*
G01X27800122Y-63287024D01*
G01X27775245Y-63304605D01*
G01X27770979Y-63307240D01*
G01X27770979Y-63307240D01*
G01X27708508Y-63337588D01*
G01X27642550Y-63360096D01*
G01X27577043Y-63375936D01*
G01X27515927Y-63386279D01*
G01X27463140Y-63392297D01*
G01X27422623Y-63395161D01*
G01X27398314Y-63396042D01*
G01X27393050Y-63396107D01*
G01X27393050Y-63396107D01*
G01X27317244Y-63393183D01*
G01X27247738Y-63386007D01*
G01X27188837Y-63376971D01*
G01X27144845Y-63368466D01*
G01X27120070Y-63362884D01*
G01X27116194Y-63361927D01*
G01X27116194Y-63361927D01*
G01X27041292Y-63337427D01*
G01X26978343Y-63308662D01*
G01X26930042Y-63281208D01*
G01X26899085Y-63260646D01*
G01X26888167Y-63252552D01*
G01X26888167Y-63252552D01*
G01X26888167Y-63252552D01*
G01X26835023Y-63195340D01*
G01X26806760Y-63139276D01*
G01X26795520Y-63095294D01*
G01X26793446Y-63074330D01*
G01X26793440Y-63073841D01*
G01X26793440Y-63073841D01*
G01X26805928Y-63003297D01*
G01X26836580Y-62943532D01*
G01X26875179Y-62896118D01*
G01X26911508Y-62862627D01*
G01X26935348Y-62844631D01*
G01X26939436Y-62841908D01*
G01X26939436Y-62841908D01*
G01X27003868Y-62808321D01*
G01X27071478Y-62784068D01*
G01X27137691Y-62767628D01*
G01X27197934Y-62757484D01*
G01X27247631Y-62752114D01*
G01X27282210Y-62750000D01*
G01X27297094Y-62749623D01*
G01X27297347Y-62749623D01*
G37*
%LPD*%
G36*
G01X26793440Y-63841419D02*
G01X26793440Y-63841419D01*
G01X26729940Y-63868576D01*
G01X26708253Y-63910544D01*
G01X26706526Y-63918568D01*
G01X26706526Y-63918568D01*
G01X26690901Y-64027201D01*
G01X26681604Y-64100677D01*
G01X26676995Y-64145326D01*
G01X26675432Y-64167474D01*
G01X26675276Y-64173451D01*
G01X26675276Y-64173451D01*
G01X26675276Y-64173451D01*
G01X26691954Y-64228507D01*
G01X26693343Y-64230580D01*
G01X26693343Y-64230580D01*
G01X26745848Y-64255179D01*
G01X26751448Y-64255482D01*
G01X26751448Y-64255482D01*
G01X26805412Y-64253678D01*
G01X26863165Y-64251262D01*
G01X26867171Y-64251087D01*
G01X26867171Y-64251087D01*
G01X26934861Y-64248415D01*
G01X27004482Y-64246062D01*
G01X27065047Y-64244218D01*
G01X27105567Y-64243073D01*
G01X27116194Y-64242787D01*
G01X27116194Y-64242787D01*
G01X27194451Y-64241034D01*
G01X27265613Y-64239904D01*
G01X27325529Y-64239261D01*
G01X27370046Y-64238966D01*
G01X27395014Y-64238884D01*
G01X27398909Y-64238880D01*
G01X27522932Y-64238880D01*
G01X27522932Y-64238880D01*
G01X27618233Y-64239513D01*
G01X27700044Y-64241172D01*
G01X27768443Y-64243497D01*
G01X27823508Y-64246126D01*
G01X27865315Y-64248700D01*
G01X27893943Y-64250858D01*
G01X27909468Y-64252240D01*
G01X27912581Y-64252552D01*
G01X27912581Y-64252552D01*
G01X27911360Y-64343144D01*
G01X27908675Y-64408192D01*
G01X27905989Y-64447422D01*
G01X27904768Y-64460560D01*
G01X27904768Y-64460560D01*
G01X27904768Y-64460560D01*
G01X27948714Y-64469349D01*
G01X27948714Y-64469349D01*
G01X28009241Y-64440720D01*
G01X28024441Y-64397907D01*
G01X28024886Y-64391224D01*
G01X28024886Y-64391224D01*
G01X28024170Y-64340279D01*
G01X28023100Y-64277612D01*
G01X28022932Y-64268177D01*
G01X28022932Y-64268177D01*
G01X28021771Y-64188389D01*
G01X28021195Y-64124318D01*
G01X28021000Y-64082966D01*
G01X28020979Y-64070912D01*
G01X28020979Y-64070912D01*
G01X28021263Y-63976513D01*
G01X28021897Y-63911072D01*
G01X28022559Y-63872158D01*
G01X28022923Y-63857342D01*
G01X28022932Y-63857044D01*
G01X28022932Y-63857044D01*
G01X27975081Y-63847279D01*
G01X27975081Y-63847279D01*
G01X27926375Y-63878184D01*
G01X27908962Y-63934665D01*
G01X27906722Y-63962513D01*
G01X27906722Y-64099232D01*
G01X27906722Y-64099232D01*
G01X27864580Y-64099454D01*
G01X27799601Y-64099976D01*
G01X27731971Y-64100581D01*
G01X27681876Y-64101051D01*
G01X27667952Y-64101185D01*
G01X27667952Y-64101185D01*
G01X27581140Y-64101939D01*
G01X27502775Y-64102468D01*
G01X27435042Y-64102813D01*
G01X27380128Y-64103013D01*
G01X27340216Y-64103108D01*
G01X27317492Y-64103136D01*
G01X27312972Y-64103138D01*
G01X27312972Y-64103138D01*
G01X27230281Y-64102974D01*
G01X27152190Y-64102529D01*
G01X27079666Y-64101872D01*
G01X27013675Y-64101076D01*
G01X26955183Y-64100208D01*
G01X26905159Y-64099341D01*
G01X26864568Y-64098544D01*
G01X26834378Y-64097888D01*
G01X26815555Y-64097443D01*
G01X26809065Y-64097279D01*
G01X26809065Y-64097279D01*
G01X26809065Y-64097279D01*
G01X26820636Y-63988404D01*
G01X26828737Y-63916044D01*
G01X26833886Y-63873123D01*
G01X26836597Y-63852560D01*
G01X26837386Y-63847279D01*
G01X26837386Y-63847279D01*
G01X26837386Y-63847279D01*
G01X26793440Y-63841419D01*
G37*
G36*
G01X27471175Y-64796498D02*
G01X27471175Y-64796498D01*
G01X27395927Y-64799801D01*
G01X27326175Y-64808021D01*
G01X27265804Y-64818626D01*
G01X27218701Y-64829082D01*
G01X27188751Y-64836856D01*
G01X27179671Y-64839466D01*
G01X27179671Y-64839466D01*
G01X27106715Y-64865426D01*
G01X27042220Y-64894256D01*
G01X26989143Y-64921993D01*
G01X26950439Y-64944672D01*
G01X26929064Y-64958330D01*
G01X26925764Y-64960560D01*
G01X26925764Y-64960560D01*
G01X26866403Y-65008897D01*
G01X26817584Y-65060182D01*
G01X26780334Y-65107423D01*
G01X26755676Y-65143626D01*
G01X26744637Y-65161800D01*
G01X26744124Y-65162708D01*
G01X26744124Y-65162708D01*
G01X26713237Y-65230963D01*
G01X26693324Y-65297793D01*
G01X26681978Y-65357219D01*
G01X26676788Y-65403262D01*
G01X26675345Y-65429940D01*
G01X26675276Y-65434193D01*
G01X26675276Y-65434193D01*
G01X26701695Y-65500219D01*
G01X26739855Y-65515888D01*
G01X26744612Y-65516224D01*
G01X26744612Y-65516224D01*
G01X26800935Y-65508886D01*
G01X26803206Y-65508412D01*
G01X26803206Y-65508412D01*
G01X26795789Y-65438707D01*
G01X26795393Y-65428333D01*
G01X26795393Y-65428333D01*
G01X26802968Y-65349555D01*
G01X26822816Y-65280338D01*
G01X26850626Y-65221132D01*
G01X26882085Y-65172388D01*
G01X26912881Y-65134556D01*
G01X26938700Y-65108087D01*
G01X26955231Y-65093432D01*
G01X26958968Y-65090443D01*
G01X26958968Y-65090443D01*
G01X27020541Y-65050200D01*
G01X27085324Y-65018169D01*
G01X27150071Y-64993449D01*
G01X27211538Y-64975137D01*
G01X27266479Y-64962333D01*
G01X27311650Y-64954137D01*
G01X27343805Y-64949646D01*
G01X27359699Y-64947959D01*
G01X27360823Y-64947865D01*
G01X27360823Y-64947865D01*
G01X27313719Y-65012887D01*
G01X27280623Y-65077811D01*
G01X27259062Y-65138582D01*
G01X27246565Y-65191146D01*
G01X27240660Y-65231449D01*
G01X27238875Y-65255438D01*
G01X27238753Y-65260365D01*
G01X27238753Y-65260365D01*
G01X27247482Y-65338901D01*
G01X27268908Y-65406388D01*
G01X27295888Y-65460606D01*
G01X27321282Y-65499332D01*
G01X27337946Y-65520345D01*
G01X27340804Y-65523548D01*
G01X27340804Y-65523548D01*
G01X27397415Y-65570175D01*
G01X27458563Y-65601131D01*
G01X27517352Y-65619625D01*
G01X27566887Y-65628867D01*
G01X27600275Y-65632068D01*
G01X27610823Y-65632435D01*
G01X27610823Y-65632435D01*
G01X27688943Y-65624562D01*
G01X27758704Y-65604705D01*
G01X27817900Y-65578502D01*
G01X27864321Y-65551595D01*
G01X27895761Y-65529623D01*
G01X27910010Y-65518225D01*
G01X27910628Y-65517689D01*
G01X27910628Y-65517689D01*
G01X27960746Y-65461843D01*
G01X27995961Y-65401168D01*
G01X28018901Y-65341053D01*
G01X28032198Y-65286888D01*
G01X28038481Y-65244061D01*
G01X28040381Y-65217960D01*
G01X28040511Y-65212513D01*
G01X28040511Y-65212513D01*
G01X28033565Y-65134030D01*
G01X28018020Y-65071490D01*
G01X28001813Y-65029025D01*
G01X27992883Y-65010765D01*
G01X27992659Y-65010365D01*
G01X27992659Y-65010365D01*
G01X27948361Y-64950996D01*
G01X27902445Y-64909405D01*
G01X27869095Y-64886283D01*
G01X27860823Y-64881458D01*
G01X27860823Y-64881458D01*
G01X27792347Y-64850422D01*
G01X27731432Y-64829701D01*
G01X27690763Y-64818719D01*
G01X27681136Y-64816517D01*
G01X27681136Y-64816517D01*
G01X27610859Y-64805286D01*
G01X27545186Y-64799312D01*
G01X27495133Y-64796937D01*
G01X27471715Y-64796499D01*
G01X27471175Y-64796498D01*
G37*
%LPC*%
G36*
G01X27473128Y-64945912D02*
G01X27473128Y-64945912D01*
G01X27551825Y-64949831D01*
G01X27610167Y-64955650D01*
G01X27639927Y-64959728D01*
G01X27642073Y-64960072D01*
G01X27642073Y-64960072D01*
G01X27714049Y-64977043D01*
G01X27765783Y-64994535D01*
G01X27782210Y-65001087D01*
G01X27782210Y-65001087D01*
G01X27843859Y-65040368D01*
G01X27878817Y-65076941D01*
G01X27886214Y-65087025D01*
G01X27886214Y-65087025D01*
G01X27912654Y-65150253D01*
G01X27922107Y-65205970D01*
G01X27923323Y-65228138D01*
G01X27923323Y-65228138D01*
G01X27910353Y-65306751D01*
G01X27881819Y-65364491D01*
G01X27853285Y-65400074D01*
G01X27840315Y-65412220D01*
G01X27840315Y-65412220D01*
G01X27840315Y-65412220D01*
G01X27776878Y-65449202D01*
G01X27714358Y-65468870D01*
G01X27665149Y-65476691D01*
G01X27641645Y-65478134D01*
G01X27641097Y-65478138D01*
G01X27641097Y-65478138D01*
G01X27559881Y-65468362D01*
G01X27496851Y-65446117D01*
G01X27454073Y-65422024D01*
G01X27433616Y-65406707D01*
G01X27432112Y-65405384D01*
G01X27432112Y-65405384D01*
G01X27386382Y-65345776D01*
G01X27362898Y-65285572D01*
G01X27354247Y-65239010D01*
G01X27353011Y-65220326D01*
G01X27353011Y-65220326D01*
G01X27353011Y-65220326D01*
G01X27362244Y-65149480D01*
G01X27385225Y-65083815D01*
G01X27414871Y-65026985D01*
G01X27444100Y-64982648D01*
G01X27465831Y-64954458D01*
G01X27473128Y-64945912D01*
G37*
%LPD*%
G36*
G01X27511214Y-65797474D02*
G01X27511214Y-65797474D01*
G01X27457350Y-65813653D01*
G01X27456038Y-65814564D01*
G01X27456038Y-65814564D01*
G01X27433223Y-65866382D01*
G01X27433089Y-65869740D01*
G01X27433089Y-65869740D01*
G01X27436661Y-65925710D01*
G01X27436995Y-65930775D01*
G01X27436995Y-65930775D01*
G01X27440352Y-66003122D01*
G01X27440901Y-66035537D01*
G01X27440901Y-66035755D01*
G01X27440901Y-66035755D01*
G01X27437597Y-66115131D01*
G01X27431269Y-66169163D01*
G01X27427293Y-66191707D01*
G01X27427229Y-66192005D01*
G01X27427229Y-66192005D01*
G01X27483847Y-66197841D01*
G01X27486800Y-66197865D01*
G01X27486800Y-66197865D01*
G01X27541095Y-66179384D01*
G01X27542952Y-66177845D01*
G01X27542952Y-66177845D01*
G01X27564864Y-66127372D01*
G01X27564925Y-66125599D01*
G01X27564925Y-66125599D01*
G01X27560550Y-66068037D01*
G01X27560042Y-66062611D01*
G01X27560042Y-66062611D01*
G01X27555604Y-65993001D01*
G01X27555159Y-65971302D01*
G01X27555159Y-65971302D01*
G01X27558534Y-65893677D01*
G01X27565284Y-65835458D01*
G01X27570347Y-65805505D01*
G01X27570784Y-65803333D01*
G01X27570784Y-65803333D01*
G01X27513348Y-65797498D01*
G01X27511214Y-65797474D01*
G37*
G36*
G01X27358870Y-66267201D02*
G01X27358870Y-66267201D01*
G01X27268485Y-66270796D01*
G01X27186222Y-66280556D01*
G01X27112407Y-66294939D01*
G01X27047370Y-66312404D01*
G01X26991438Y-66331410D01*
G01X26944940Y-66350415D01*
G01X26908204Y-66367880D01*
G01X26881557Y-66382263D01*
G01X26865329Y-66392023D01*
G01X26859847Y-66395619D01*
G01X26859847Y-66395619D01*
G01X26859847Y-66395619D01*
G01X26796816Y-66449557D01*
G01X26750069Y-66508508D01*
G01X26717170Y-66568422D01*
G01X26695688Y-66625251D01*
G01X26683190Y-66674946D01*
G01X26677241Y-66713460D01*
G01X26675411Y-66736742D01*
G01X26675276Y-66741810D01*
G01X26675276Y-66741810D01*
G01X26683846Y-66822148D01*
G01X26706301Y-66892947D01*
G01X26737763Y-66953680D01*
G01X26773354Y-67003818D01*
G01X26808195Y-67042833D01*
G01X26837405Y-67070199D01*
G01X26856108Y-67085386D01*
G01X26860335Y-67088490D01*
G01X26860335Y-67088490D01*
G01X26919263Y-67123423D01*
G01X26983245Y-67151396D01*
G01X27049629Y-67173181D01*
G01X27115764Y-67189552D01*
G01X27178999Y-67201283D01*
G01X27236682Y-67209146D01*
G01X27286162Y-67213915D01*
G01X27324788Y-67216365D01*
G01X27349908Y-67217267D01*
G01X27358870Y-67217396D01*
G01X27358870Y-67217396D01*
G01X27358870Y-67217396D01*
G01X27447972Y-67213787D01*
G01X27529288Y-67203990D01*
G01X27602441Y-67189552D01*
G01X27667057Y-67172021D01*
G01X27722762Y-67152943D01*
G01X27769179Y-67133865D01*
G01X27805933Y-67116333D01*
G01X27832651Y-67101896D01*
G01X27848957Y-67092099D01*
G01X27854475Y-67088490D01*
G01X27854475Y-67088490D01*
G01X27854475Y-67088490D01*
G01X27918006Y-67034384D01*
G01X27965125Y-66975310D01*
G01X27998284Y-66915309D01*
G01X28019937Y-66858423D01*
G01X28032534Y-66808695D01*
G01X28038530Y-66770166D01*
G01X28040375Y-66746878D01*
G01X28040511Y-66741810D01*
G01X28040511Y-66741810D01*
G01X28031964Y-66661495D01*
G01X28009568Y-66590755D01*
G01X27978188Y-66530105D01*
G01X27942691Y-66480061D01*
G01X27907943Y-66441137D01*
G01X27878809Y-66413849D01*
G01X27860156Y-66398711D01*
G01X27855940Y-66395619D01*
G01X27855940Y-66395619D01*
G01X27797172Y-66360817D01*
G01X27733370Y-66332951D01*
G01X27667178Y-66311248D01*
G01X27601237Y-66294939D01*
G01X27538191Y-66283253D01*
G01X27480682Y-66275419D01*
G01X27431353Y-66270668D01*
G01X27392847Y-66268228D01*
G01X27367805Y-66267329D01*
G01X27358870Y-66267201D01*
G01X27358870Y-66267201D01*
G37*
%LPC*%
G36*
G01X27297347Y-66417591D02*
G01X27297347Y-66417591D01*
G01X27374840Y-66420219D01*
G01X27445604Y-66426758D01*
G01X27506127Y-66435194D01*
G01X27552896Y-66443511D01*
G01X27582399Y-66449695D01*
G01X27591292Y-66451771D01*
G01X27591292Y-66451771D01*
G01X27668593Y-66476220D01*
G01X27733448Y-66504865D01*
G01X27783139Y-66532173D01*
G01X27814948Y-66552615D01*
G01X27826155Y-66560658D01*
G01X27826155Y-66560658D01*
G01X27826155Y-66560658D01*
G01X27880669Y-66617737D01*
G01X27909660Y-66673973D01*
G01X27921190Y-66718228D01*
G01X27923317Y-66739364D01*
G01X27923323Y-66739857D01*
G01X27923323Y-66739857D01*
G01X27910292Y-66813176D01*
G01X27878307Y-66874200D01*
G01X27838030Y-66921837D01*
G01X27800122Y-66954993D01*
G01X27775245Y-66972574D01*
G01X27770979Y-66975208D01*
G01X27770979Y-66975208D01*
G01X27708508Y-67005556D01*
G01X27642550Y-67028065D01*
G01X27577043Y-67043904D01*
G01X27515927Y-67054248D01*
G01X27463140Y-67060265D01*
G01X27422623Y-67063129D01*
G01X27398314Y-67064011D01*
G01X27393050Y-67064076D01*
G01X27393050Y-67064076D01*
G01X27317244Y-67061152D01*
G01X27247738Y-67053976D01*
G01X27188837Y-67044939D01*
G01X27144845Y-67036434D01*
G01X27120070Y-67030853D01*
G01X27116194Y-67029896D01*
G01X27116194Y-67029896D01*
G01X27041292Y-67005396D01*
G01X26978343Y-66976630D01*
G01X26930042Y-66949177D01*
G01X26899085Y-66928615D01*
G01X26888167Y-66920521D01*
G01X26888167Y-66920521D01*
G01X26888167Y-66920521D01*
G01X26835023Y-66863309D01*
G01X26806760Y-66807245D01*
G01X26795520Y-66763263D01*
G01X26793446Y-66742298D01*
G01X26793440Y-66741810D01*
G01X26793440Y-66741810D01*
G01X26805928Y-66671266D01*
G01X26836580Y-66611500D01*
G01X26875179Y-66564087D01*
G01X26911508Y-66530596D01*
G01X26935348Y-66512600D01*
G01X26939436Y-66509876D01*
G01X26939436Y-66509876D01*
G01X27003868Y-66476290D01*
G01X27071478Y-66452037D01*
G01X27137691Y-66435597D01*
G01X27197934Y-66425452D01*
G01X27247631Y-66420083D01*
G01X27282210Y-66417969D01*
G01X27297094Y-66417592D01*
G01X27297347Y-66417591D01*
G37*
%LPD*%
G36*
G01X26793440Y-67509388D02*
G01X26793440Y-67509388D01*
G01X26729940Y-67536544D01*
G01X26708253Y-67578513D01*
G01X26706526Y-67586537D01*
G01X26706526Y-67586537D01*
G01X26690901Y-67695169D01*
G01X26681604Y-67768646D01*
G01X26676995Y-67813294D01*
G01X26675432Y-67835443D01*
G01X26675276Y-67841419D01*
G01X26675276Y-67841419D01*
G01X26675276Y-67841419D01*
G01X26691954Y-67896476D01*
G01X26693343Y-67898548D01*
G01X26693343Y-67898548D01*
G01X26745848Y-67923148D01*
G01X26751448Y-67923451D01*
G01X26751448Y-67923451D01*
G01X26805412Y-67921647D01*
G01X26863165Y-67919231D01*
G01X26867171Y-67919056D01*
G01X26867171Y-67919056D01*
G01X26934861Y-67916384D01*
G01X27004482Y-67914031D01*
G01X27065047Y-67912186D01*
G01X27105567Y-67911041D01*
G01X27116194Y-67910755D01*
G01X27116194Y-67910755D01*
G01X27194451Y-67909003D01*
G01X27265613Y-67907873D01*
G01X27325529Y-67907229D01*
G01X27370046Y-67906935D01*
G01X27395014Y-67906853D01*
G01X27398909Y-67906849D01*
G01X27522932Y-67906849D01*
G01X27522932Y-67906849D01*
G01X27618233Y-67907482D01*
G01X27700044Y-67909141D01*
G01X27768443Y-67911466D01*
G01X27823508Y-67914095D01*
G01X27865315Y-67916669D01*
G01X27893943Y-67918827D01*
G01X27909468Y-67920209D01*
G01X27912581Y-67920521D01*
G01X27912581Y-67920521D01*
G01X27911360Y-68011112D01*
G01X27908675Y-68076161D01*
G01X27905989Y-68115391D01*
G01X27904768Y-68128529D01*
G01X27904768Y-68128529D01*
G01X27904768Y-68128529D01*
G01X27948714Y-68137318D01*
G01X27948714Y-68137318D01*
G01X28009241Y-68108688D01*
G01X28024441Y-68065875D01*
G01X28024886Y-68059193D01*
G01X28024886Y-68059193D01*
G01X28024170Y-68008248D01*
G01X28023100Y-67945581D01*
G01X28022932Y-67936146D01*
G01X28022932Y-67936146D01*
G01X28021771Y-67856358D01*
G01X28021195Y-67792286D01*
G01X28021000Y-67750935D01*
G01X28020979Y-67738880D01*
G01X28020979Y-67738880D01*
G01X28021263Y-67644482D01*
G01X28021897Y-67579040D01*
G01X28022559Y-67540127D01*
G01X28022923Y-67525310D01*
G01X28022932Y-67525013D01*
G01X28022932Y-67525013D01*
G01X27975081Y-67515248D01*
G01X27975081Y-67515248D01*
G01X27926375Y-67546152D01*
G01X27908962Y-67602634D01*
G01X27906722Y-67630482D01*
G01X27906722Y-67767201D01*
G01X27906722Y-67767201D01*
G01X27864580Y-67767423D01*
G01X27799601Y-67767945D01*
G01X27731971Y-67768549D01*
G01X27681876Y-67769020D01*
G01X27667952Y-67769154D01*
G01X27667952Y-67769154D01*
G01X27581140Y-67769907D01*
G01X27502775Y-67770437D01*
G01X27435042Y-67770782D01*
G01X27380128Y-67770982D01*
G01X27340216Y-67771076D01*
G01X27317492Y-67771105D01*
G01X27312972Y-67771107D01*
G01X27312972Y-67771107D01*
G01X27230281Y-67770943D01*
G01X27152190Y-67770498D01*
G01X27079666Y-67769841D01*
G01X27013675Y-67769044D01*
G01X26955183Y-67768177D01*
G01X26905159Y-67767310D01*
G01X26864568Y-67766513D01*
G01X26834378Y-67765857D01*
G01X26815555Y-67765412D01*
G01X26809065Y-67765248D01*
G01X26809065Y-67765248D01*
G01X26809065Y-67765248D01*
G01X26820636Y-67656373D01*
G01X26828737Y-67584013D01*
G01X26833886Y-67541091D01*
G01X26836597Y-67520529D01*
G01X26837386Y-67515247D01*
G01X26837386Y-67515247D01*
G01X26837386Y-67515248D01*
G01X26793440Y-67509388D01*
G37*
G36*
G01X27511214Y-68396107D02*
G01X27511214Y-68396107D01*
G01X27457350Y-68412286D01*
G01X27456038Y-68413197D01*
G01X27456038Y-68413197D01*
G01X27433223Y-68465015D01*
G01X27433089Y-68468372D01*
G01X27433089Y-68468373D01*
G01X27436661Y-68524343D01*
G01X27436995Y-68529408D01*
G01X27436995Y-68529408D01*
G01X27440352Y-68601755D01*
G01X27440901Y-68634170D01*
G01X27440901Y-68634388D01*
G01X27440901Y-68634388D01*
G01X27437597Y-68713764D01*
G01X27431269Y-68767796D01*
G01X27427293Y-68790340D01*
G01X27427229Y-68790638D01*
G01X27427229Y-68790638D01*
G01X27483847Y-68796474D01*
G01X27486800Y-68796498D01*
G01X27486800Y-68796498D01*
G01X27541095Y-68778017D01*
G01X27542952Y-68776478D01*
G01X27542952Y-68776478D01*
G01X27564864Y-68726005D01*
G01X27564925Y-68724232D01*
G01X27564925Y-68724232D01*
G01X27560550Y-68666669D01*
G01X27560042Y-68661244D01*
G01X27560042Y-68661244D01*
G01X27555604Y-68591634D01*
G01X27555159Y-68569935D01*
G01X27555159Y-68569935D01*
G01X27558534Y-68492310D01*
G01X27565284Y-68434091D01*
G01X27570347Y-68404138D01*
G01X27570784Y-68401966D01*
G01X27570784Y-68401966D01*
G01X27513348Y-68396131D01*
G01X27511214Y-68396107D01*
G37*
G36*
G01X27358870Y-68865833D02*
G01X27358870Y-68865833D01*
G01X27268485Y-68869429D01*
G01X27186222Y-68879189D01*
G01X27112407Y-68893572D01*
G01X27047370Y-68911037D01*
G01X26991438Y-68930042D01*
G01X26944940Y-68949048D01*
G01X26908204Y-68966513D01*
G01X26881557Y-68980896D01*
G01X26865329Y-68990656D01*
G01X26859847Y-68994251D01*
G01X26859847Y-68994251D01*
G01X26859847Y-68994251D01*
G01X26796816Y-69048190D01*
G01X26750069Y-69107141D01*
G01X26717170Y-69167055D01*
G01X26695688Y-69223884D01*
G01X26683190Y-69273579D01*
G01X26677241Y-69312092D01*
G01X26675411Y-69335375D01*
G01X26675276Y-69340443D01*
G01X26675276Y-69340443D01*
G01X26683846Y-69420781D01*
G01X26706301Y-69491580D01*
G01X26737763Y-69552313D01*
G01X26773354Y-69602451D01*
G01X26808195Y-69641466D01*
G01X26837405Y-69668832D01*
G01X26856108Y-69684019D01*
G01X26860335Y-69687123D01*
G01X26860335Y-69687123D01*
G01X26919263Y-69722056D01*
G01X26983245Y-69750029D01*
G01X27049629Y-69771814D01*
G01X27115764Y-69788185D01*
G01X27178999Y-69799915D01*
G01X27236682Y-69807779D01*
G01X27286162Y-69812548D01*
G01X27324788Y-69814998D01*
G01X27349908Y-69815900D01*
G01X27358870Y-69816029D01*
G01X27358870Y-69816029D01*
G01X27358870Y-69816029D01*
G01X27447972Y-69812419D01*
G01X27529288Y-69802622D01*
G01X27602441Y-69788185D01*
G01X27667057Y-69770654D01*
G01X27722762Y-69751576D01*
G01X27769179Y-69732498D01*
G01X27805933Y-69714966D01*
G01X27832651Y-69700529D01*
G01X27848957Y-69690732D01*
G01X27854475Y-69687123D01*
G01X27854475Y-69687123D01*
G01X27854475Y-69687123D01*
G01X27918006Y-69633017D01*
G01X27965125Y-69573943D01*
G01X27998284Y-69513942D01*
G01X28019937Y-69457056D01*
G01X28032534Y-69407327D01*
G01X28038530Y-69368798D01*
G01X28040375Y-69345511D01*
G01X28040511Y-69340443D01*
G01X28040511Y-69340443D01*
G01X28031964Y-69260127D01*
G01X28009568Y-69189387D01*
G01X27978188Y-69128738D01*
G01X27942691Y-69078694D01*
G01X27907943Y-69039770D01*
G01X27878809Y-69012482D01*
G01X27860156Y-68997343D01*
G01X27855940Y-68994251D01*
G01X27855940Y-68994251D01*
G01X27797172Y-68959450D01*
G01X27733370Y-68931583D01*
G01X27667178Y-68909881D01*
G01X27601237Y-68893572D01*
G01X27538191Y-68881886D01*
G01X27480682Y-68874052D01*
G01X27431353Y-68869301D01*
G01X27392847Y-68866861D01*
G01X27367805Y-68865962D01*
G01X27358870Y-68865833D01*
G01X27358870Y-68865833D01*
G37*
%LPC*%
G36*
G01X27297347Y-69016224D02*
G01X27297347Y-69016224D01*
G01X27374840Y-69018852D01*
G01X27445604Y-69025391D01*
G01X27506127Y-69033827D01*
G01X27552896Y-69042144D01*
G01X27582399Y-69048327D01*
G01X27591292Y-69050404D01*
G01X27591292Y-69050404D01*
G01X27668593Y-69074853D01*
G01X27733448Y-69103498D01*
G01X27783139Y-69130806D01*
G01X27814948Y-69151247D01*
G01X27826155Y-69159290D01*
G01X27826155Y-69159290D01*
G01X27826155Y-69159290D01*
G01X27880669Y-69216370D01*
G01X27909660Y-69272606D01*
G01X27921190Y-69316861D01*
G01X27923317Y-69337997D01*
G01X27923323Y-69338490D01*
G01X27923323Y-69338490D01*
G01X27910292Y-69411809D01*
G01X27878307Y-69472833D01*
G01X27838030Y-69520470D01*
G01X27800122Y-69553626D01*
G01X27775245Y-69571206D01*
G01X27770979Y-69573841D01*
G01X27770979Y-69573841D01*
G01X27708508Y-69604189D01*
G01X27642550Y-69626697D01*
G01X27577043Y-69642537D01*
G01X27515927Y-69652880D01*
G01X27463140Y-69658898D01*
G01X27422623Y-69661762D01*
G01X27398314Y-69662644D01*
G01X27393050Y-69662708D01*
G01X27393050Y-69662708D01*
G01X27317244Y-69659785D01*
G01X27247738Y-69652609D01*
G01X27188837Y-69643572D01*
G01X27144845Y-69635067D01*
G01X27120070Y-69629486D01*
G01X27116194Y-69628529D01*
G01X27116194Y-69628529D01*
G01X27041292Y-69604029D01*
G01X26978343Y-69575263D01*
G01X26930042Y-69547810D01*
G01X26899085Y-69527248D01*
G01X26888167Y-69519154D01*
G01X26888167Y-69519154D01*
G01X26888167Y-69519154D01*
G01X26835023Y-69461942D01*
G01X26806760Y-69405878D01*
G01X26795520Y-69361896D01*
G01X26793446Y-69340931D01*
G01X26793440Y-69340443D01*
G01X26793440Y-69340443D01*
G01X26805928Y-69269898D01*
G01X26836580Y-69210133D01*
G01X26875179Y-69162719D01*
G01X26911508Y-69129229D01*
G01X26935348Y-69111233D01*
G01X26939436Y-69108509D01*
G01X26939436Y-69108509D01*
G01X27003868Y-69074923D01*
G01X27071478Y-69050669D01*
G01X27137691Y-69034230D01*
G01X27197934Y-69024085D01*
G01X27247631Y-69018716D01*
G01X27282210Y-69016602D01*
G01X27297094Y-69016225D01*
G01X27297347Y-69016224D01*
G37*
%LPD*%
G36*
G01X26748518Y-69982044D02*
G01X26748518Y-69982044D01*
G01X26689776Y-69997601D01*
G01X26681136Y-70001576D01*
G01X26681136Y-70001576D01*
G01X26689627Y-70071576D01*
G01X26694300Y-70139300D01*
G01X26696295Y-70193486D01*
G01X26696753Y-70222869D01*
G01X26696761Y-70225208D01*
G01X26696761Y-70225208D01*
G01X26696671Y-70351728D01*
G01X26696426Y-70460048D01*
G01X26696060Y-70551475D01*
G01X26695606Y-70627318D01*
G01X26695099Y-70688882D01*
G01X26694574Y-70737475D01*
G01X26694063Y-70774404D01*
G01X26693602Y-70800977D01*
G01X26693224Y-70818499D01*
G01X26692964Y-70828279D01*
G01X26692855Y-70831623D01*
G01X26692854Y-70831654D01*
G01X26692854Y-70831654D01*
G01X26754544Y-70846665D01*
G01X26767073Y-70847279D01*
G01X26767073Y-70847279D01*
G01X26831348Y-70838862D01*
G01X26843245Y-70835560D01*
G01X26843245Y-70835560D01*
G01X26878028Y-70822962D01*
G01X26921560Y-70804941D01*
G01X26972702Y-70782153D01*
G01X27030315Y-70755255D01*
G01X27093260Y-70724903D01*
G01X27160398Y-70691753D01*
G01X27230591Y-70656462D01*
G01X27302698Y-70619685D01*
G01X27375582Y-70582079D01*
G01X27448103Y-70544300D01*
G01X27519123Y-70507005D01*
G01X27587503Y-70470849D01*
G01X27652103Y-70436489D01*
G01X27711785Y-70404581D01*
G01X27765410Y-70375782D01*
G01X27811839Y-70350748D01*
G01X27849933Y-70330134D01*
G01X27878553Y-70314597D01*
G01X27896560Y-70304794D01*
G01X27902815Y-70301380D01*
G01X27902815Y-70301380D01*
G01X27902815Y-70301380D01*
G01X27972175Y-70259162D01*
G01X28004878Y-70234099D01*
G01X28008772Y-70230580D01*
G01X28008772Y-70230580D01*
G01X28039471Y-70174906D01*
G01X28040511Y-70165638D01*
G01X28040511Y-70165638D01*
G01X28020851Y-70107433D01*
G01X27984053Y-70058830D01*
G01X27963385Y-70037729D01*
G01X27963362Y-70037708D01*
G01X27963362Y-70037708D01*
G01X27917424Y-70079006D01*
G01X27866048Y-70120853D01*
G01X27810918Y-70162523D01*
G01X27753721Y-70203289D01*
G01X27696143Y-70242427D01*
G01X27639871Y-70279210D01*
G01X27586589Y-70312912D01*
G01X27537984Y-70342806D01*
G01X27495742Y-70368168D01*
G01X27461550Y-70388271D01*
G01X27437092Y-70402389D01*
G01X27424055Y-70409795D01*
G01X27422347Y-70410755D01*
G01X27422347Y-70410755D01*
G01X27337724Y-70457236D01*
G01X27258438Y-70499249D01*
G01X27184801Y-70536904D01*
G01X27117125Y-70570307D01*
G01X27055722Y-70599568D01*
G01X27000904Y-70624793D01*
G01X26952983Y-70646092D01*
G01X26912271Y-70663571D01*
G01X26879080Y-70677340D01*
G01X26853722Y-70687505D01*
G01X26836509Y-70694176D01*
G01X26827753Y-70697459D01*
G01X26826643Y-70697865D01*
G01X26826643Y-70697865D01*
G01X26829072Y-70616629D01*
G01X26831108Y-70538598D01*
G01X26832785Y-70464699D01*
G01X26834138Y-70395860D01*
G01X26835200Y-70333005D01*
G01X26836005Y-70277064D01*
G01X26836589Y-70228962D01*
G01X26836984Y-70189627D01*
G01X26837226Y-70159985D01*
G01X26837348Y-70140963D01*
G01X26837385Y-70133489D01*
G01X26837386Y-70133412D01*
G01X26837386Y-70133412D01*
G01X26822487Y-70042965D01*
G01X26790287Y-69998433D01*
G01X26759529Y-69983546D01*
G01X26748518Y-69982044D01*
G37*
G36*
G01X28724593Y-52992299D02*
G01X28724593Y-52992299D01*
G01X28718849Y-53053544D01*
G01X28718733Y-53060658D01*
G01X28718733Y-53060658D01*
G01X28745202Y-53128033D01*
G01X28786108Y-53145908D01*
G01X28793929Y-53146595D01*
G01X28793929Y-53146595D01*
G01X28821272Y-53145619D01*
G01X28821272Y-53145619D01*
G01X28864241Y-53144642D01*
G01X28864241Y-53144642D01*
G01X28808655Y-53189686D01*
G01X28769046Y-53232062D01*
G01X28753416Y-53251556D01*
G01X28753401Y-53251576D01*
G01X28753401Y-53251576D01*
G01X28717628Y-53318534D01*
G01X28705416Y-53367961D01*
G01X28704085Y-53383900D01*
G01X28704085Y-53383900D01*
G01X28719450Y-53447290D01*
G01X28725081Y-53456166D01*
G01X28725081Y-53456166D01*
G01X28777509Y-53482252D01*
G01X28782210Y-53482533D01*
G01X28782210Y-53482533D01*
G01X28842470Y-53461913D01*
G01X28872054Y-53442494D01*
G01X28872054Y-53442494D01*
G01X28839323Y-53379942D01*
G01X28833970Y-53346063D01*
G01X28833968Y-53345814D01*
G01X28833968Y-53345814D01*
G01X28850072Y-53281005D01*
G01X28874154Y-53239125D01*
G01X28877913Y-53233998D01*
G01X28877913Y-53233998D01*
G01X28928605Y-53183775D01*
G01X28975220Y-53150803D01*
G01X28994124Y-53139759D01*
G01X28994124Y-53139759D01*
G01X29046780Y-53138806D01*
G01X29113030Y-53138228D01*
G01X29178343Y-53137931D01*
G01X29228186Y-53137822D01*
G01X29248030Y-53137806D01*
G01X29248030Y-53137806D01*
G01X29248030Y-53137806D01*
G01X29345953Y-53139570D01*
G01X29429624Y-53144191D01*
G01X29499250Y-53150666D01*
G01X29555037Y-53157991D01*
G01X29597189Y-53165162D01*
G01X29625915Y-53171173D01*
G01X29641418Y-53175022D01*
G01X29644515Y-53175892D01*
G01X29644515Y-53175892D01*
G01X29659411Y-53113237D01*
G01X29660140Y-53099720D01*
G01X29660140Y-53099720D01*
G01X29643370Y-53032818D01*
G01X29634261Y-53022084D01*
G01X29634261Y-53022084D01*
G01X29574818Y-53003888D01*
G01X29545882Y-53002064D01*
G01X29545882Y-53002064D01*
G01X29493462Y-53002536D01*
G01X29426751Y-53003440D01*
G01X29388755Y-53004008D01*
G01X29388167Y-53004017D01*
G01X29388167Y-53004017D01*
G01X29301742Y-53005179D01*
G01X29239292Y-53005754D01*
G01X29202414Y-53005950D01*
G01X29192366Y-53005970D01*
G01X29192366Y-53005970D01*
G01X29101838Y-53005510D01*
G01X29019512Y-53004276D01*
G01X28946005Y-53002486D01*
G01X28881932Y-53000359D01*
G01X28827909Y-52998112D01*
G01X28784553Y-52995965D01*
G01X28752480Y-52994136D01*
G01X28732306Y-52992842D01*
G01X28724647Y-52992303D01*
G01X28724593Y-52992298D01*
G37*
G36*
G01X29392561Y-53591908D02*
G01X29392561Y-53591908D01*
G01X29311251Y-53603472D01*
G01X29261681Y-53625620D01*
G01X29242891Y-53639536D01*
G01X29242659Y-53639759D01*
G01X29242659Y-53639759D01*
G01X29202637Y-53694620D01*
G01X29178353Y-53747191D01*
G01X29169913Y-53771570D01*
G01X29169905Y-53771595D01*
G01X29169905Y-53771595D01*
G01X29155599Y-53833625D01*
G01X29143799Y-53899682D01*
G01X29134338Y-53965671D01*
G01X29127048Y-54027499D01*
G01X29121763Y-54081072D01*
G01X29118315Y-54122297D01*
G01X29116536Y-54147081D01*
G01X29116194Y-54152455D01*
G01X29116194Y-54152455D01*
G01X29022662Y-54147677D01*
G01X28954682Y-54136455D01*
G01X28910031Y-54123455D01*
G01X28886482Y-54113344D01*
G01X28881331Y-54110463D01*
G01X28881331Y-54110463D01*
G01X28842705Y-54062566D01*
G01X28823572Y-54000656D01*
G01X28817081Y-53949139D01*
G01X28816390Y-53931752D01*
G01X28816390Y-53931752D01*
G01X28829452Y-53865511D01*
G01X28848985Y-53821491D01*
G01X28852034Y-53816029D01*
G01X28852034Y-53816029D01*
G01X28898534Y-53762769D01*
G01X28942179Y-53732807D01*
G01X28956038Y-53725697D01*
G01X28956038Y-53725697D01*
G01X28921346Y-53654736D01*
G01X28883891Y-53634878D01*
G01X28875960Y-53633900D01*
G01X28875960Y-53633900D01*
G01X28812778Y-53655901D01*
G01X28770409Y-53698978D01*
G01X28751644Y-53728743D01*
G01X28750960Y-53730091D01*
G01X28750960Y-53730091D01*
G01X28726330Y-53796486D01*
G01X28712317Y-53861897D01*
G01X28705927Y-53916122D01*
G01X28704166Y-53948962D01*
G01X28704085Y-53954213D01*
G01X28704085Y-53954213D01*
G01X28710828Y-54042320D01*
G01X28727144Y-54111027D01*
G01X28747166Y-54160815D01*
G01X28765026Y-54192166D01*
G01X28774857Y-54205564D01*
G01X28775374Y-54206166D01*
G01X28775374Y-54206166D01*
G01X28826142Y-54243687D01*
G01X28889057Y-54267159D01*
G01X28951943Y-54279877D01*
G01X29002622Y-54285137D01*
G01X29028917Y-54286234D01*
G01X29030257Y-54286244D01*
G01X29030257Y-54286244D01*
G01X29083368Y-54285471D01*
G01X29142449Y-54284395D01*
G01X29147933Y-54284291D01*
G01X29147933Y-54284291D01*
G01X29232231Y-54282925D01*
G01X29283134Y-54282414D01*
G01X29300749Y-54282338D01*
G01X29300765Y-54282338D01*
G01X29300765Y-54282338D01*
G01X29396579Y-54284651D01*
G01X29476651Y-54290564D01*
G01X29541062Y-54298534D01*
G01X29589890Y-54307017D01*
G01X29623213Y-54314473D01*
G01X29641112Y-54319357D01*
G01X29644515Y-54320423D01*
G01X29644515Y-54320424D01*
G01X29659348Y-54258132D01*
G01X29660140Y-54242299D01*
G01X29660140Y-54242299D01*
G01X29642424Y-54183796D01*
G01X29639143Y-54180287D01*
G01X29639143Y-54180287D01*
G01X29582730Y-54158114D01*
G01X29572249Y-54156361D01*
G01X29572249Y-54156361D01*
G01X29617813Y-54089443D01*
G01X29647187Y-54025894D01*
G01X29663926Y-53970598D01*
G01X29671582Y-53928444D01*
G01X29673710Y-53904317D01*
G01X29673811Y-53900502D01*
G01X29673811Y-53900502D01*
G01X29664351Y-53809712D01*
G01X29638963Y-53738744D01*
G01X29602142Y-53685155D01*
G01X29558377Y-53646506D01*
G01X29512163Y-53620355D01*
G01X29467990Y-53604260D01*
G01X29430352Y-53595782D01*
G01X29403739Y-53592478D01*
G01X29392645Y-53591908D01*
G01X29392561Y-53591908D01*
G37*
%LPC*%
G36*
G01X29392561Y-53732533D02*
G01X29392561Y-53732533D01*
G01X29469838Y-53747116D01*
G01X29513667Y-53773111D01*
G01X29525374Y-53784291D01*
G01X29525374Y-53784291D01*
G01X29557079Y-53846143D01*
G01X29567399Y-53899672D01*
G01X29568343Y-53916127D01*
G01X29568343Y-53916127D01*
G01X29558999Y-53992119D01*
G01X29536718Y-54055549D01*
G01X29510124Y-54103931D01*
G01X29487843Y-54134783D01*
G01X29478499Y-54145619D01*
G01X29478499Y-54145619D01*
G01X29478499Y-54145619D01*
G01X29416303Y-54143856D01*
G01X29384749Y-54143666D01*
G01X29384749Y-54143666D01*
G01X29310457Y-54145662D01*
G01X29250400Y-54148553D01*
G01X29219938Y-54150419D01*
G01X29218733Y-54150502D01*
G01X29218733Y-54150502D01*
G01X29226576Y-54079019D01*
G01X29228499Y-54063588D01*
G01X29228499Y-54063588D01*
G01X29236351Y-54000914D01*
G01X29238265Y-53984974D01*
G01X29238265Y-53984974D01*
G01X29248375Y-53919130D01*
G01X29249983Y-53911732D01*
G01X29249983Y-53911732D01*
G01X29265280Y-53855921D01*
G01X29266097Y-53853138D01*
G01X29266097Y-53853138D01*
G01X29288133Y-53802002D01*
G01X29288558Y-53801381D01*
G01X29288558Y-53801381D01*
G01X29315413Y-53765248D01*
G01X29315413Y-53765248D01*
G01X29349104Y-53739369D01*
G01X29349104Y-53739369D01*
G01X29392561Y-53732533D01*
G37*
%LPD*%
G36*
G01X29514632Y-54509877D02*
G01X29514632Y-54509877D01*
G01X29461189Y-54540213D01*
G01X29434528Y-54588588D01*
G01X29430647Y-54599720D01*
G01X29430647Y-54599720D01*
G01X29488160Y-54637791D01*
G01X29520932Y-54680525D01*
G01X29528792Y-54694935D01*
G01X29528792Y-54694935D01*
G01X29551415Y-54763444D01*
G01X29560635Y-54821837D01*
G01X29562472Y-54852397D01*
G01X29562483Y-54853627D01*
G01X29562483Y-54853627D01*
G01X29551753Y-54930959D01*
G01X29532624Y-54978970D01*
G01X29524397Y-54992787D01*
G01X29524397Y-54992787D01*
G01X29469487Y-55033325D01*
G01X29418383Y-55045274D01*
G01X29406233Y-55046009D01*
G01X29406233Y-55046009D01*
G01X29341859Y-55022585D01*
G01X29315053Y-54993754D01*
G01X29314436Y-54992787D01*
G01X29314436Y-54992787D01*
G01X29284981Y-54929456D01*
G01X29268552Y-54877504D01*
G01X29265120Y-54863881D01*
G01X29265120Y-54863881D01*
G01X29247858Y-54793586D01*
G01X29232660Y-54738064D01*
G01X29225189Y-54712386D01*
G01X29225081Y-54712025D01*
G01X29225081Y-54712025D01*
G01X29193890Y-54646942D01*
G01X29158138Y-54601911D01*
G01X29138467Y-54582884D01*
G01X29138167Y-54582631D01*
G01X29138167Y-54582631D01*
G01X29077901Y-54549273D01*
G01X29017470Y-54533942D01*
G01X28976231Y-54529626D01*
G01X28968733Y-54529408D01*
G01X28968733Y-54529408D01*
G01X28895604Y-54543251D01*
G01X28838156Y-54574753D01*
G01X28798741Y-54608871D01*
G01X28779712Y-54630563D01*
G01X28778304Y-54632435D01*
G01X28778304Y-54632435D01*
G01X28740678Y-54699444D01*
G01X28718566Y-54764849D01*
G01X28707844Y-54819942D01*
G01X28704389Y-54856012D01*
G01X28704085Y-54865345D01*
G01X28704085Y-54865345D01*
G01X28711616Y-54938825D01*
G01X28727595Y-55000544D01*
G01X28742105Y-55040241D01*
G01X28746077Y-55049427D01*
G01X28746077Y-55049427D01*
G01X28794352Y-55112591D01*
G01X28840733Y-55136209D01*
G01X28862266Y-55139759D01*
G01X28862288Y-55139759D01*
G01X28862288Y-55139759D01*
G01X28916414Y-55110699D01*
G01X28942162Y-55062957D01*
G01X28946272Y-55049916D01*
G01X28946272Y-55049916D01*
G01X28890700Y-55010855D01*
G01X28858564Y-54969746D01*
G01X28852522Y-54959584D01*
G01X28852522Y-54959584D01*
G01X28826778Y-54891320D01*
G01X28817574Y-54837654D01*
G01X28816390Y-54817494D01*
G01X28816390Y-54817494D01*
G01X28829452Y-54746369D01*
G01X28849640Y-54705056D01*
G01X28853499Y-54699330D01*
G01X28853499Y-54699330D01*
G01X28909042Y-54659243D01*
G01X28953216Y-54649729D01*
G01X28957991Y-54649525D01*
G01X28957991Y-54649525D01*
G01X29022185Y-54672158D01*
G01X29050725Y-54701257D01*
G01X29051741Y-54702748D01*
G01X29051741Y-54702748D01*
G01X29082299Y-54764382D01*
G01X29099781Y-54816008D01*
G01X29103987Y-54831654D01*
G01X29103987Y-54831654D01*
G01X29121919Y-54901948D01*
G01X29137379Y-54957470D01*
G01X29144894Y-54983149D01*
G01X29145003Y-54983509D01*
G01X29145003Y-54983509D01*
G01X29176354Y-55050334D01*
G01X29211001Y-55095636D01*
G01X29227993Y-55112888D01*
G01X29228011Y-55112904D01*
G01X29228011Y-55112904D01*
G01X29288352Y-55147871D01*
G01X29346874Y-55162720D01*
G01X29381982Y-55166073D01*
G01X29384749Y-55166127D01*
G01X29384749Y-55166127D01*
G01X29464924Y-55154515D01*
G01X29526815Y-55127243D01*
G01X29570097Y-55095650D01*
G01X29594442Y-55071077D01*
G01X29600081Y-55064076D01*
G01X29600081Y-55064076D01*
G01X29636061Y-54999650D01*
G01X29657886Y-54934568D01*
G01X29669093Y-54877431D01*
G01X29673222Y-54836841D01*
G01X29673811Y-54821400D01*
G01X29673811Y-54821400D01*
G01X29673811Y-54821400D01*
G01X29667644Y-54742331D01*
G01X29653610Y-54676860D01*
G01X29638411Y-54629905D01*
G01X29628747Y-54606387D01*
G01X29627913Y-54604603D01*
G01X29627913Y-54604603D01*
G01X29578648Y-54538367D01*
G01X29534507Y-54513600D01*
G01X29514652Y-54509877D01*
G01X29514632Y-54509877D01*
G37*
G36*
G01X29200179Y-55337025D02*
G01X29200179Y-55337025D01*
G01X29121703Y-55341986D01*
G01X29055643Y-55353458D01*
G01X29006616Y-55366326D01*
G01X28979238Y-55375473D01*
G01X28975081Y-55377064D01*
G01X28975081Y-55377064D01*
G01X28904362Y-55413349D01*
G01X28853896Y-55450112D01*
G01X28825356Y-55476512D01*
G01X28819319Y-55483021D01*
G01X28819319Y-55483021D01*
G01X28774585Y-55544483D01*
G01X28745966Y-55596195D01*
G01X28733812Y-55623058D01*
G01X28733382Y-55624134D01*
G01X28733382Y-55624134D01*
G01X28713297Y-55694566D01*
G01X28705452Y-55750861D01*
G01X28704087Y-55777085D01*
G01X28704085Y-55777455D01*
G01X28704085Y-55777455D01*
G01X28711257Y-55850590D01*
G01X28727034Y-55912465D01*
G01X28742812Y-55955296D01*
G01X28749983Y-55971302D01*
G01X28749983Y-55971302D01*
G01X28749983Y-55971302D01*
G01X28798279Y-56031934D01*
G01X28847366Y-56057681D01*
G01X28877469Y-56063495D01*
G01X28879866Y-56063588D01*
G01X28879866Y-56063588D01*
G01X28937228Y-56035020D01*
G01X28961602Y-55985402D01*
G01X28965804Y-55966908D01*
G01X28965804Y-55966908D01*
G01X28901084Y-55933307D01*
G01X28863929Y-55895287D01*
G01X28854964Y-55882435D01*
G01X28854964Y-55882435D01*
G01X28826983Y-55814968D01*
G01X28817431Y-55762591D01*
G01X28816390Y-55745228D01*
G01X28816390Y-55745228D01*
G01X28829708Y-55673894D01*
G01X28860016Y-55616867D01*
G01X28892840Y-55577143D01*
G01X28913709Y-55557714D01*
G01X28915511Y-55556263D01*
G01X28915511Y-55556263D01*
G01X28977010Y-55520344D01*
G01X29042496Y-55497873D01*
G01X29102945Y-55485698D01*
G01X29149336Y-55480663D01*
G01X29172645Y-55479613D01*
G01X29173811Y-55479603D01*
G01X29173811Y-55479603D01*
G01X29266782Y-55485834D01*
G01X29341725Y-55501341D01*
G01X29398987Y-55521346D01*
G01X29438911Y-55541070D01*
G01X29461844Y-55555734D01*
G01X29468245Y-55560658D01*
G01X29468245Y-55560658D01*
G01X29517762Y-55619099D01*
G01X29545934Y-55679985D01*
G01X29558779Y-55732147D01*
G01X29562320Y-55764418D01*
G01X29562483Y-55769642D01*
G01X29562483Y-55769642D01*
G01X29553000Y-55839703D01*
G01X29538818Y-55885573D01*
G01X29536604Y-55891224D01*
G01X29536604Y-55891224D01*
G01X29495682Y-55951183D01*
G01X29461715Y-55977540D01*
G01X29457991Y-55979603D01*
G01X29457991Y-55979603D01*
G01X29503184Y-56044465D01*
G01X29535430Y-56058537D01*
G01X29538069Y-56058705D01*
G01X29538069Y-56058705D01*
G01X29596006Y-56033116D01*
G01X29629862Y-55987502D01*
G01X29639143Y-55967884D01*
G01X29639143Y-55967884D01*
G01X29658593Y-55900347D01*
G01X29668937Y-55836131D01*
G01X29673050Y-55786657D01*
G01X29673809Y-55763346D01*
G01X29673811Y-55762806D01*
G01X29673811Y-55762806D01*
G01X29665671Y-55680450D01*
G01X29645137Y-55608779D01*
G01X29618043Y-55549331D01*
G01X29590219Y-55503640D01*
G01X29567499Y-55473244D01*
G01X29555713Y-55459677D01*
G01X29555159Y-55459095D01*
G01X29555159Y-55459095D01*
G01X29499377Y-55414669D01*
G01X29435585Y-55382588D01*
G01X29369611Y-55360842D01*
G01X29307283Y-55347423D01*
G01X29254429Y-55340321D01*
G01X29216879Y-55337525D01*
G01X29200459Y-55337026D01*
G01X29200179Y-55337025D01*
G37*
G36*
G01X29392561Y-56230580D02*
G01X29392561Y-56230580D01*
G01X29311251Y-56242144D01*
G01X29261681Y-56264292D01*
G01X29242891Y-56278208D01*
G01X29242659Y-56278431D01*
G01X29242659Y-56278431D01*
G01X29202637Y-56333292D01*
G01X29178353Y-56385863D01*
G01X29169913Y-56410242D01*
G01X29169905Y-56410267D01*
G01X29169905Y-56410267D01*
G01X29155599Y-56472297D01*
G01X29143799Y-56538354D01*
G01X29134338Y-56604343D01*
G01X29127048Y-56666171D01*
G01X29121763Y-56719744D01*
G01X29118315Y-56760969D01*
G01X29116536Y-56785753D01*
G01X29116194Y-56791127D01*
G01X29116194Y-56791127D01*
G01X29022662Y-56786349D01*
G01X28954682Y-56775127D01*
G01X28910031Y-56762127D01*
G01X28886482Y-56752015D01*
G01X28881331Y-56749134D01*
G01X28881331Y-56749134D01*
G01X28842705Y-56701238D01*
G01X28823572Y-56639328D01*
G01X28817081Y-56587811D01*
G01X28816390Y-56570423D01*
G01X28816390Y-56570424D01*
G01X28829452Y-56504183D01*
G01X28848985Y-56460163D01*
G01X28852034Y-56454701D01*
G01X28852034Y-56454701D01*
G01X28898534Y-56401441D01*
G01X28942179Y-56371478D01*
G01X28956038Y-56364369D01*
G01X28956038Y-56364369D01*
G01X28921346Y-56293408D01*
G01X28883891Y-56273549D01*
G01X28875960Y-56272572D01*
G01X28875960Y-56272572D01*
G01X28812778Y-56294573D01*
G01X28770409Y-56337650D01*
G01X28751644Y-56367415D01*
G01X28750960Y-56368763D01*
G01X28750960Y-56368763D01*
G01X28726330Y-56435158D01*
G01X28712317Y-56500568D01*
G01X28705927Y-56554794D01*
G01X28704166Y-56587634D01*
G01X28704085Y-56592884D01*
G01X28704085Y-56592884D01*
G01X28710828Y-56680992D01*
G01X28727144Y-56749699D01*
G01X28747166Y-56799487D01*
G01X28765026Y-56830838D01*
G01X28774857Y-56844236D01*
G01X28775374Y-56844838D01*
G01X28775374Y-56844838D01*
G01X28826142Y-56882359D01*
G01X28889057Y-56905831D01*
G01X28951943Y-56918549D01*
G01X29002622Y-56923809D01*
G01X29028917Y-56924906D01*
G01X29030257Y-56924916D01*
G01X29030257Y-56924916D01*
G01X29083368Y-56924143D01*
G01X29142449Y-56923067D01*
G01X29147933Y-56922963D01*
G01X29147933Y-56922963D01*
G01X29232231Y-56921597D01*
G01X29283134Y-56921086D01*
G01X29300749Y-56921009D01*
G01X29300765Y-56921009D01*
G01X29300765Y-56921009D01*
G01X29396579Y-56923323D01*
G01X29476651Y-56929236D01*
G01X29541062Y-56937205D01*
G01X29589890Y-56945689D01*
G01X29623213Y-56953144D01*
G01X29641112Y-56958029D01*
G01X29644515Y-56959095D01*
G01X29644515Y-56959095D01*
G01X29659348Y-56896803D01*
G01X29660140Y-56880970D01*
G01X29660140Y-56880970D01*
G01X29642424Y-56822468D01*
G01X29639143Y-56818959D01*
G01X29639143Y-56818959D01*
G01X29582730Y-56796786D01*
G01X29572249Y-56795033D01*
G01X29572249Y-56795033D01*
G01X29617813Y-56728115D01*
G01X29647187Y-56664566D01*
G01X29663926Y-56609270D01*
G01X29671582Y-56567116D01*
G01X29673710Y-56542989D01*
G01X29673811Y-56539174D01*
G01X29673811Y-56539174D01*
G01X29664351Y-56448384D01*
G01X29638963Y-56377416D01*
G01X29602142Y-56323827D01*
G01X29558377Y-56285178D01*
G01X29512163Y-56259027D01*
G01X29467990Y-56242932D01*
G01X29430352Y-56234454D01*
G01X29403739Y-56231150D01*
G01X29392645Y-56230580D01*
G01X29392561Y-56230580D01*
G37*
%LPC*%
G36*
G01X29392561Y-56371205D02*
G01X29392561Y-56371205D01*
G01X29469838Y-56385788D01*
G01X29513667Y-56411783D01*
G01X29525374Y-56422963D01*
G01X29525374Y-56422963D01*
G01X29557079Y-56484814D01*
G01X29567399Y-56538344D01*
G01X29568343Y-56554799D01*
G01X29568343Y-56554799D01*
G01X29558999Y-56630791D01*
G01X29536718Y-56694220D01*
G01X29510124Y-56742603D01*
G01X29487843Y-56773455D01*
G01X29478499Y-56784291D01*
G01X29478499Y-56784291D01*
G01X29478499Y-56784291D01*
G01X29416303Y-56782528D01*
G01X29384749Y-56782338D01*
G01X29384749Y-56782338D01*
G01X29310457Y-56784333D01*
G01X29250400Y-56787225D01*
G01X29219938Y-56789091D01*
G01X29218733Y-56789174D01*
G01X29218733Y-56789174D01*
G01X29226576Y-56717691D01*
G01X29228499Y-56702259D01*
G01X29228499Y-56702259D01*
G01X29236351Y-56639585D01*
G01X29238265Y-56623646D01*
G01X29238265Y-56623646D01*
G01X29248375Y-56557802D01*
G01X29249983Y-56550404D01*
G01X29249983Y-56550404D01*
G01X29265280Y-56494593D01*
G01X29266097Y-56491810D01*
G01X29266097Y-56491810D01*
G01X29288133Y-56440673D01*
G01X29288558Y-56440052D01*
G01X29288558Y-56440052D01*
G01X29315413Y-56403920D01*
G01X29315413Y-56403920D01*
G01X29349104Y-56378041D01*
G01X29349104Y-56378041D01*
G01X29392561Y-56371205D01*
G37*
%LPD*%
G36*
G01X28173811Y-57188588D02*
G01X28173811Y-57188588D01*
G01X28168095Y-57250363D01*
G01X28167952Y-57258900D01*
G01X28167952Y-57258900D01*
G01X28192590Y-57328819D01*
G01X28233067Y-57349428D01*
G01X28244124Y-57350697D01*
G01X28244124Y-57350697D01*
G01X28295879Y-57349364D01*
G01X28350028Y-57347798D01*
G01X28351058Y-57347767D01*
G01X28351058Y-57347767D01*
G01X28416390Y-57345881D01*
G01X28486175Y-57343924D01*
G01X28549515Y-57342177D01*
G01X28595511Y-57340924D01*
G01X28613265Y-57340443D01*
G01X28613265Y-57340443D01*
G01X28613265Y-57340443D01*
G01X28690811Y-57338653D01*
G01X28764247Y-57337430D01*
G01X28829613Y-57336666D01*
G01X28882950Y-57336254D01*
G01X28920296Y-57336084D01*
G01X28937692Y-57336049D01*
G01X28938460Y-57336048D01*
G01X29249983Y-57336049D01*
G01X29249983Y-57336049D01*
G01X29346663Y-57337812D01*
G01X29429582Y-57342434D01*
G01X29498843Y-57348909D01*
G01X29554551Y-57356233D01*
G01X29596807Y-57363404D01*
G01X29625714Y-57369415D01*
G01X29641376Y-57373264D01*
G01X29644515Y-57374134D01*
G01X29644515Y-57374134D01*
G01X29659470Y-57311494D01*
G01X29660140Y-57298939D01*
G01X29660140Y-57298939D01*
G01X29644293Y-57232347D01*
G01X29636214Y-57221791D01*
G01X29636214Y-57221791D01*
G01X29577749Y-57201681D01*
G01X29556624Y-57200306D01*
G01X29556624Y-57200306D01*
G01X29514042Y-57200509D01*
G01X29448936Y-57200994D01*
G01X29379683Y-57201572D01*
G01X29324655Y-57202056D01*
G01X29302229Y-57202259D01*
G01X29302229Y-57202259D01*
G01X29302229Y-57202259D01*
G01X29208483Y-57203055D01*
G01X29131125Y-57203598D01*
G01X29070121Y-57203938D01*
G01X29025433Y-57204121D01*
G01X28997026Y-57204197D01*
G01X28984865Y-57204212D01*
G01X28984358Y-57204213D01*
G01X28751936Y-57204213D01*
G01X28751936Y-57204213D01*
G01X28633269Y-57203856D01*
G01X28531221Y-57202876D01*
G01X28444659Y-57201410D01*
G01X28372451Y-57199596D01*
G01X28313467Y-57197568D01*
G01X28266572Y-57195465D01*
G01X28230637Y-57193422D01*
G01X28204528Y-57191577D01*
G01X28187115Y-57190065D01*
G01X28177264Y-57189025D01*
G01X28173844Y-57188592D01*
G01X28173811Y-57188588D01*
G37*
G36*
G01X28734358Y-57614369D02*
G01X28734358Y-57614369D01*
G01X28719245Y-57677534D01*
G01X28718733Y-57686634D01*
G01X28718733Y-57686634D01*
G01X28744116Y-57750822D01*
G01X28791628Y-57774823D01*
G01X28818313Y-57778431D01*
G01X28818343Y-57778431D01*
G01X28818343Y-57778431D01*
G01X28778660Y-57837415D01*
G01X28750843Y-57891705D01*
G01X28737264Y-57923424D01*
G01X28736311Y-57925892D01*
G01X28736311Y-57925892D01*
G01X28715139Y-57999650D01*
G01X28706147Y-58058220D01*
G01X28704117Y-58089580D01*
G01X28704085Y-58091908D01*
G01X28704085Y-58091908D01*
G01X28716369Y-58174688D01*
G01X28746096Y-58236250D01*
G01X28782575Y-58278644D01*
G01X28815115Y-58303919D01*
G01X28833026Y-58314126D01*
G01X28833968Y-58314564D01*
G01X28833968Y-58314564D01*
G01X28791729Y-58368827D01*
G01X28760662Y-58424440D01*
G01X28744052Y-58460826D01*
G01X28742171Y-58465443D01*
G01X28742171Y-58465443D01*
G01X28718901Y-58540223D01*
G01X28707792Y-58601267D01*
G01X28704346Y-58639754D01*
G01X28704085Y-58648549D01*
G01X28704085Y-58648549D01*
G01X28715300Y-58724400D01*
G01X28739538Y-58780930D01*
G01X28762691Y-58815254D01*
G01X28770979Y-58824818D01*
G01X28770979Y-58824818D01*
G01X28824521Y-58860481D01*
G01X28887050Y-58880770D01*
G01X28943872Y-58890022D01*
G01X28980296Y-58892572D01*
G01X28986311Y-58892689D01*
G01X28986311Y-58892689D01*
G01X29028628Y-58891726D01*
G01X29099979Y-58890009D01*
G01X29130354Y-58889271D01*
G01X29130354Y-58889271D01*
G01X29219464Y-58887354D01*
G01X29284753Y-58886334D01*
G01X29325856Y-58885928D01*
G01X29342410Y-58885853D01*
G01X29342757Y-58885853D01*
G01X29342757Y-58885853D01*
G01X29430458Y-58888481D01*
G01X29505259Y-58895020D01*
G01X29565605Y-58903456D01*
G01X29609943Y-58911773D01*
G01X29636716Y-58917956D01*
G01X29644515Y-58920033D01*
G01X29644515Y-58920033D01*
G01X29659348Y-58855720D01*
G01X29660140Y-58841908D01*
G01X29660140Y-58841908D01*
G01X29644291Y-58776923D01*
G01X29637190Y-58767201D01*
G01X29637190Y-58767201D01*
G01X29579640Y-58745720D01*
G01X29558577Y-58744252D01*
G01X29558577Y-58744252D01*
G01X29505504Y-58744806D01*
G01X29437832Y-58746147D01*
G01X29369306Y-58747793D01*
G01X29313669Y-58749260D01*
G01X29284668Y-58750069D01*
G01X29283186Y-58750111D01*
G01X29283186Y-58750111D01*
G01X29175654Y-58753081D01*
G01X29104438Y-58754827D01*
G01X29062699Y-58755674D01*
G01X29043601Y-58755946D01*
G01X29040022Y-58755970D01*
G01X29040022Y-58755970D01*
G01X28955529Y-58746430D01*
G01X28900379Y-58726956D01*
G01X28873860Y-58711266D01*
G01X28871077Y-58709095D01*
G01X28871077Y-58709095D01*
G01X28830064Y-58650374D01*
G01X28817351Y-58599642D01*
G01X28816390Y-58586049D01*
G01X28816390Y-58586049D01*
G01X28826365Y-58519128D01*
G01X28850504Y-58454891D01*
G01X28880126Y-58399407D01*
G01X28906549Y-58358744D01*
G01X28921094Y-58338972D01*
G01X28921858Y-58338002D01*
G01X28921858Y-58338002D01*
G01X29020827Y-58339336D01*
G01X29105359Y-58340325D01*
G01X29175673Y-58341021D01*
G01X29231988Y-58341476D01*
G01X29274523Y-58341740D01*
G01X29303497Y-58341866D01*
G01X29319128Y-58341905D01*
G01X29322249Y-58341908D01*
G01X29322249Y-58341908D01*
G01X29410714Y-58342779D01*
G01X29488283Y-58344976D01*
G01X29553061Y-58347875D01*
G01X29603150Y-58350852D01*
G01X29636655Y-58353283D01*
G01X29651680Y-58354544D01*
G01X29652327Y-58354603D01*
G01X29652327Y-58354603D01*
G01X29658071Y-58293358D01*
G01X29658186Y-58286244D01*
G01X29658186Y-58286244D01*
G01X29633548Y-58217812D01*
G01X29593071Y-58197642D01*
G01X29582015Y-58196400D01*
G01X29582015Y-58196400D01*
G01X29524354Y-58198423D01*
G01X29501448Y-58199330D01*
G01X29501448Y-58199330D01*
G01X29437056Y-58201400D01*
G01X29369975Y-58202971D01*
G01X29319101Y-58203939D01*
G01X29302718Y-58204213D01*
G01X29302718Y-58204213D01*
G01X29227022Y-58205166D01*
G01X29155827Y-58205744D01*
G01X29096210Y-58206041D01*
G01X29055249Y-58206150D01*
G01X29040022Y-58206166D01*
G01X29040022Y-58206166D01*
G01X29040022Y-58206166D01*
G01X28948938Y-58194106D01*
G01X28886707Y-58163686D01*
G01X28847834Y-58123546D01*
G01X28826823Y-58082326D01*
G01X28818179Y-58048666D01*
G01X28816404Y-58031206D01*
G01X28816390Y-58030384D01*
G01X28816390Y-58030384D01*
G01X28826827Y-57964379D01*
G01X28852083Y-57900714D01*
G01X28883077Y-57845541D01*
G01X28910723Y-57805006D01*
G01X28925941Y-57785261D01*
G01X28926741Y-57784291D01*
G01X28926741Y-57784291D01*
G01X29025484Y-57785625D01*
G01X29109423Y-57786614D01*
G01X29178907Y-57787310D01*
G01X29234283Y-57787765D01*
G01X29275899Y-57788029D01*
G01X29304102Y-57788155D01*
G01X29319240Y-57788194D01*
G01X29322249Y-57788197D01*
G01X29322249Y-57788197D01*
G01X29410714Y-57789001D01*
G01X29488283Y-57791029D01*
G01X29553061Y-57793705D01*
G01X29603150Y-57796453D01*
G01X29636655Y-57798697D01*
G01X29651680Y-57799861D01*
G01X29652327Y-57799916D01*
G01X29652327Y-57799916D01*
G01X29658083Y-57738993D01*
G01X29658186Y-57732533D01*
G01X29658186Y-57732533D01*
G01X29633548Y-57664101D01*
G01X29593071Y-57643931D01*
G01X29582015Y-57642689D01*
G01X29582015Y-57642689D01*
G01X29537139Y-57644065D01*
G01X29465311Y-57646517D01*
G01X29435042Y-57647572D01*
G01X29435042Y-57647572D01*
G01X29356814Y-57649860D01*
G01X29284509Y-57651291D01*
G01X29223735Y-57652067D01*
G01X29180097Y-57652387D01*
G01X29159202Y-57652454D01*
G01X29158186Y-57652455D01*
G01X29158186Y-57652455D01*
G01X29049866Y-57650941D01*
G01X28960209Y-57646926D01*
G01X28887798Y-57641201D01*
G01X28831216Y-57634554D01*
G01X28789046Y-57627775D01*
G01X28759869Y-57621654D01*
G01X28742268Y-57616982D01*
G01X28734826Y-57614547D01*
G01X28734358Y-57614369D01*
G37*
G36*
G01X28503890Y-59146595D02*
G01X28503890Y-59146595D01*
G01X28442176Y-59167617D01*
G01X28429183Y-59178334D01*
G01X28429183Y-59178334D01*
G01X28400109Y-59236740D01*
G01X28398421Y-59252064D01*
G01X28398421Y-59252064D01*
G01X28420515Y-59311780D01*
G01X28429183Y-59321888D01*
G01X28429183Y-59321888D01*
G01X28487226Y-59349907D01*
G01X28503890Y-59351673D01*
G01X28503890Y-59351674D01*
G01X28566423Y-59331566D01*
G01X28581038Y-59319935D01*
G01X28581038Y-59319935D01*
G01X28610705Y-59262153D01*
G01X28612288Y-59248158D01*
G01X28612288Y-59248158D01*
G01X28591718Y-59187723D01*
G01X28582503Y-59176381D01*
G01X28582503Y-59176381D01*
G01X28523836Y-59148648D01*
G01X28503890Y-59146595D01*
G37*
G36*
G01X28724593Y-59171986D02*
G01X28724593Y-59171986D01*
G01X28718849Y-59233231D01*
G01X28718733Y-59240345D01*
G01X28718733Y-59240345D01*
G01X28743056Y-59311752D01*
G01X28783014Y-59332799D01*
G01X28793929Y-59334095D01*
G01X28793929Y-59334095D01*
G01X28851523Y-59331508D01*
G01X28875960Y-59330189D01*
G01X28875960Y-59330189D01*
G01X28942274Y-59326886D01*
G01X29005439Y-59324154D01*
G01X29045306Y-59322566D01*
G01X29050276Y-59322377D01*
G01X29050276Y-59322377D01*
G01X29127852Y-59320053D01*
G01X29192464Y-59318902D01*
G01X29235307Y-59318512D01*
G01X29248030Y-59318470D01*
G01X29248030Y-59318470D01*
G01X29345953Y-59320234D01*
G01X29429624Y-59324855D01*
G01X29499250Y-59331331D01*
G01X29555037Y-59338655D01*
G01X29597189Y-59345826D01*
G01X29625915Y-59351837D01*
G01X29641418Y-59355686D01*
G01X29644515Y-59356556D01*
G01X29644515Y-59356556D01*
G01X29659411Y-59293901D01*
G01X29660140Y-59280384D01*
G01X29660140Y-59280384D01*
G01X29643370Y-59213166D01*
G01X29634261Y-59202259D01*
G01X29634261Y-59202259D01*
G01X29574818Y-59183620D01*
G01X29545882Y-59181752D01*
G01X29545882Y-59181752D01*
G01X29493462Y-59182342D01*
G01X29426751Y-59183472D01*
G01X29388755Y-59184182D01*
G01X29388167Y-59184193D01*
G01X29388167Y-59184193D01*
G01X29301742Y-59185645D01*
G01X29239292Y-59186364D01*
G01X29202414Y-59186608D01*
G01X29192366Y-59186634D01*
G01X29192366Y-59186634D01*
G01X29101838Y-59186142D01*
G01X29019512Y-59184819D01*
G01X28946005Y-59182902D01*
G01X28881932Y-59180622D01*
G01X28827909Y-59178215D01*
G01X28784553Y-59175915D01*
G01X28752480Y-59173954D01*
G01X28732306Y-59172568D01*
G01X28724647Y-59171990D01*
G01X28724593Y-59171986D01*
G37*
G36*
G01X29200179Y-59555775D02*
G01X29200179Y-59555775D01*
G01X29121703Y-59560736D01*
G01X29055643Y-59572208D01*
G01X29006616Y-59585076D01*
G01X28979238Y-59594223D01*
G01X28975081Y-59595814D01*
G01X28975081Y-59595814D01*
G01X28904362Y-59632099D01*
G01X28853896Y-59668862D01*
G01X28825356Y-59695262D01*
G01X28819319Y-59701771D01*
G01X28819319Y-59701771D01*
G01X28774585Y-59763233D01*
G01X28745966Y-59814945D01*
G01X28733812Y-59841808D01*
G01X28733382Y-59842884D01*
G01X28733382Y-59842884D01*
G01X28713297Y-59913316D01*
G01X28705452Y-59969611D01*
G01X28704087Y-59995835D01*
G01X28704085Y-59996205D01*
G01X28704085Y-59996205D01*
G01X28711257Y-60069340D01*
G01X28727034Y-60131215D01*
G01X28742812Y-60174046D01*
G01X28749983Y-60190052D01*
G01X28749983Y-60190052D01*
G01X28749983Y-60190052D01*
G01X28798279Y-60250684D01*
G01X28847366Y-60276431D01*
G01X28877469Y-60282245D01*
G01X28879866Y-60282338D01*
G01X28879866Y-60282338D01*
G01X28937228Y-60253770D01*
G01X28961602Y-60204152D01*
G01X28965804Y-60185658D01*
G01X28965804Y-60185658D01*
G01X28901084Y-60152057D01*
G01X28863929Y-60114037D01*
G01X28854964Y-60101185D01*
G01X28854964Y-60101185D01*
G01X28826983Y-60033718D01*
G01X28817431Y-59981341D01*
G01X28816390Y-59963978D01*
G01X28816390Y-59963978D01*
G01X28829708Y-59892644D01*
G01X28860016Y-59835617D01*
G01X28892840Y-59795893D01*
G01X28913709Y-59776464D01*
G01X28915511Y-59775013D01*
G01X28915511Y-59775013D01*
G01X28977010Y-59739094D01*
G01X29042496Y-59716623D01*
G01X29102945Y-59704448D01*
G01X29149336Y-59699413D01*
G01X29172645Y-59698363D01*
G01X29173811Y-59698353D01*
G01X29173811Y-59698353D01*
G01X29266782Y-59704584D01*
G01X29341725Y-59720091D01*
G01X29398987Y-59740096D01*
G01X29438911Y-59759820D01*
G01X29461844Y-59774484D01*
G01X29468245Y-59779408D01*
G01X29468245Y-59779408D01*
G01X29517762Y-59837849D01*
G01X29545934Y-59898735D01*
G01X29558779Y-59950897D01*
G01X29562320Y-59983168D01*
G01X29562483Y-59988392D01*
G01X29562483Y-59988392D01*
G01X29553000Y-60058453D01*
G01X29538818Y-60104323D01*
G01X29536604Y-60109974D01*
G01X29536604Y-60109974D01*
G01X29495682Y-60169933D01*
G01X29461715Y-60196290D01*
G01X29457991Y-60198353D01*
G01X29457991Y-60198353D01*
G01X29503184Y-60263215D01*
G01X29535430Y-60277287D01*
G01X29538069Y-60277455D01*
G01X29538069Y-60277455D01*
G01X29596006Y-60251866D01*
G01X29629862Y-60206252D01*
G01X29639143Y-60186634D01*
G01X29639143Y-60186634D01*
G01X29658593Y-60119097D01*
G01X29668937Y-60054881D01*
G01X29673050Y-60005407D01*
G01X29673809Y-59982096D01*
G01X29673811Y-59981556D01*
G01X29673811Y-59981556D01*
G01X29665671Y-59899200D01*
G01X29645137Y-59827529D01*
G01X29618043Y-59768081D01*
G01X29590219Y-59722390D01*
G01X29567499Y-59691994D01*
G01X29555713Y-59678427D01*
G01X29555159Y-59677845D01*
G01X29555159Y-59677845D01*
G01X29499377Y-59633419D01*
G01X29435585Y-59601338D01*
G01X29369611Y-59579592D01*
G01X29307283Y-59566173D01*
G01X29254429Y-59559071D01*
G01X29216879Y-59556275D01*
G01X29200459Y-59555776D01*
G01X29200179Y-59555775D01*
G37*
G36*
G01X28724593Y-60479603D02*
G01X28724593Y-60479603D01*
G01X28718849Y-60540848D01*
G01X28718733Y-60547963D01*
G01X28718733Y-60547963D01*
G01X28745202Y-60615338D01*
G01X28786108Y-60633213D01*
G01X28793929Y-60633900D01*
G01X28793929Y-60633900D01*
G01X28821272Y-60632923D01*
G01X28821272Y-60632924D01*
G01X28864241Y-60631947D01*
G01X28864241Y-60631947D01*
G01X28808655Y-60676990D01*
G01X28769046Y-60719366D01*
G01X28753416Y-60738861D01*
G01X28753401Y-60738881D01*
G01X28753401Y-60738881D01*
G01X28717628Y-60805839D01*
G01X28705416Y-60855266D01*
G01X28704085Y-60871205D01*
G01X28704085Y-60871205D01*
G01X28719450Y-60934595D01*
G01X28725081Y-60943470D01*
G01X28725081Y-60943470D01*
G01X28777509Y-60969557D01*
G01X28782210Y-60969838D01*
G01X28782210Y-60969838D01*
G01X28842470Y-60949218D01*
G01X28872054Y-60929799D01*
G01X28872054Y-60929799D01*
G01X28839323Y-60867246D01*
G01X28833970Y-60833368D01*
G01X28833968Y-60833119D01*
G01X28833968Y-60833119D01*
G01X28850072Y-60768310D01*
G01X28874154Y-60726430D01*
G01X28877913Y-60721302D01*
G01X28877913Y-60721302D01*
G01X28928605Y-60671079D01*
G01X28975220Y-60638108D01*
G01X28994124Y-60627064D01*
G01X28994124Y-60627064D01*
G01X29046780Y-60626111D01*
G01X29113030Y-60625533D01*
G01X29178343Y-60625236D01*
G01X29228186Y-60625127D01*
G01X29248030Y-60625111D01*
G01X29248030Y-60625111D01*
G01X29248030Y-60625111D01*
G01X29345953Y-60626875D01*
G01X29429624Y-60631496D01*
G01X29499250Y-60637971D01*
G01X29555037Y-60645296D01*
G01X29597189Y-60652466D01*
G01X29625915Y-60658478D01*
G01X29641418Y-60662327D01*
G01X29644515Y-60663197D01*
G01X29644515Y-60663197D01*
G01X29659411Y-60600542D01*
G01X29660140Y-60587025D01*
G01X29660140Y-60587025D01*
G01X29643370Y-60520123D01*
G01X29634261Y-60509388D01*
G01X29634261Y-60509388D01*
G01X29574818Y-60491193D01*
G01X29545882Y-60489369D01*
G01X29545882Y-60489369D01*
G01X29493462Y-60489841D01*
G01X29426751Y-60490745D01*
G01X29388755Y-60491313D01*
G01X29388167Y-60491322D01*
G01X29388167Y-60491322D01*
G01X29301742Y-60492484D01*
G01X29239292Y-60493059D01*
G01X29202414Y-60493254D01*
G01X29192366Y-60493275D01*
G01X29192366Y-60493275D01*
G01X29101838Y-60492815D01*
G01X29019512Y-60491581D01*
G01X28946005Y-60489791D01*
G01X28881932Y-60487664D01*
G01X28827909Y-60485417D01*
G01X28784553Y-60483270D01*
G01X28752480Y-60481440D01*
G01X28732306Y-60480147D01*
G01X28724647Y-60479607D01*
G01X28724593Y-60479603D01*
G37*
G36*
G01X29190413Y-61079213D02*
G01X29190413Y-61079213D01*
G01X29103338Y-61085616D01*
G01X29027199Y-61102190D01*
G01X28962767Y-61124980D01*
G01X28910814Y-61150030D01*
G01X28872111Y-61173384D01*
G01X28847431Y-61191089D01*
G01X28837545Y-61199188D01*
G01X28837386Y-61199330D01*
G01X28837386Y-61199330D01*
G01X28785948Y-61257486D01*
G01X28749807Y-61320223D01*
G01X28726263Y-61382104D01*
G01X28712616Y-61437689D01*
G01X28706168Y-61481541D01*
G01X28704218Y-61508221D01*
G01X28704085Y-61513783D01*
G01X28704085Y-61513783D01*
G01X28712183Y-61596793D01*
G01X28732878Y-61668585D01*
G01X28760771Y-61728287D01*
G01X28790464Y-61775029D01*
G01X28816557Y-61807942D01*
G01X28833653Y-61826155D01*
G01X28837386Y-61829701D01*
G01X28837386Y-61829701D01*
G01X28897614Y-61873239D01*
G01X28962965Y-61904679D01*
G01X29028399Y-61925989D01*
G01X29088875Y-61939139D01*
G01X29139353Y-61946100D01*
G01X29174792Y-61948840D01*
G01X29190152Y-61949329D01*
G01X29190413Y-61949330D01*
G01X29190413Y-61949330D01*
G01X29277410Y-61942952D01*
G01X29353347Y-61926445D01*
G01X29417501Y-61903748D01*
G01X29469149Y-61878800D01*
G01X29507566Y-61855541D01*
G01X29532031Y-61837908D01*
G01X29541818Y-61829842D01*
G01X29541976Y-61829701D01*
G01X29541976Y-61829701D01*
G01X29592848Y-61771614D01*
G01X29628592Y-61708706D01*
G01X29651877Y-61646503D01*
G01X29665374Y-61590533D01*
G01X29671752Y-61546322D01*
G01X29673680Y-61519399D01*
G01X29673811Y-61513783D01*
G01X29673811Y-61513783D01*
G01X29665802Y-61431496D01*
G01X29645335Y-61360159D01*
G01X29617748Y-61300700D01*
G01X29588382Y-61254048D01*
G01X29562575Y-61221135D01*
G01X29545667Y-61202887D01*
G01X29541976Y-61199330D01*
G01X29541976Y-61199330D01*
G01X29482281Y-61155614D01*
G01X29417314Y-61124046D01*
G01X29352141Y-61102649D01*
G01X29291826Y-61089445D01*
G01X29241434Y-61082456D01*
G01X29206028Y-61079705D01*
G01X29190674Y-61079214D01*
G01X29190413Y-61079213D01*
G37*
%LPC*%
G36*
G01X29162093Y-61219838D02*
G01X29162093Y-61219838D01*
G01X29244475Y-61225806D01*
G01X29315197Y-61240659D01*
G01X29372589Y-61259820D01*
G01X29414982Y-61278712D01*
G01X29440704Y-61292758D01*
G01X29448226Y-61297474D01*
G01X29448226Y-61297474D01*
G01X29503983Y-61349783D01*
G01X29537804Y-61407154D01*
G01X29555171Y-61460002D01*
G01X29561569Y-61498740D01*
G01X29562483Y-61513783D01*
G01X29562483Y-61513783D01*
G01X29562483Y-61513783D01*
G01X29551817Y-61593468D01*
G01X29526762Y-61655952D01*
G01X29497739Y-61700311D01*
G01X29475165Y-61725624D01*
G01X29468733Y-61731556D01*
G01X29468733Y-61731556D01*
G01X29410027Y-61768162D01*
G01X29346787Y-61791062D01*
G01X29288013Y-61803470D01*
G01X29242709Y-61808601D01*
G01X29219878Y-61809672D01*
G01X29218733Y-61809681D01*
G01X29218733Y-61809681D01*
G01X29136276Y-61803525D01*
G01X29065367Y-61788205D01*
G01X29007734Y-61768441D01*
G01X28965104Y-61748955D01*
G01X28939205Y-61734468D01*
G01X28931624Y-61729603D01*
G01X28931624Y-61729603D01*
G01X28875390Y-61676408D01*
G01X28841280Y-61619041D01*
G01X28823765Y-61566689D01*
G01X28817311Y-61528541D01*
G01X28816390Y-61513783D01*
G01X28816390Y-61513783D01*
G01X28816390Y-61513783D01*
G01X28827167Y-61434209D01*
G01X28852483Y-61371986D01*
G01X28881808Y-61327929D01*
G01X28904617Y-61302851D01*
G01X28911116Y-61296986D01*
G01X28911116Y-61296986D01*
G01X28970280Y-61260837D01*
G01X29033807Y-61238224D01*
G01X29092735Y-61225971D01*
G01X29138103Y-61220904D01*
G01X29160948Y-61219847D01*
G01X29162093Y-61219838D01*
G37*
%LPD*%
G36*
G01X29548323Y-62138783D02*
G01X29548323Y-62138783D01*
G01X29482344Y-62156849D01*
G01X29457015Y-62174916D01*
G01X29457015Y-62174916D01*
G01X29457015Y-62174916D01*
G01X29424009Y-62233707D01*
G01X29419905Y-62261341D01*
G01X29419905Y-62261341D01*
G01X29440128Y-62325305D01*
G01X29457015Y-62346302D01*
G01X29457015Y-62346302D01*
G01X29517671Y-62376892D01*
G01X29548323Y-62380970D01*
G01X29548323Y-62380970D01*
G01X29614503Y-62363116D01*
G01X29638167Y-62346302D01*
G01X29638167Y-62346302D01*
G01X29670342Y-62286851D01*
G01X29673811Y-62261341D01*
G01X29673811Y-62261341D01*
G01X29654387Y-62196580D01*
G01X29638167Y-62174916D01*
G01X29638167Y-62174916D01*
G01X29578803Y-62143034D01*
G01X29548323Y-62138783D01*
G37*
G36*
G01X29200179Y-62590931D02*
G01X29200179Y-62590931D01*
G01X29121703Y-62595892D01*
G01X29055643Y-62607365D01*
G01X29006616Y-62620232D01*
G01X28979238Y-62629379D01*
G01X28975081Y-62630970D01*
G01X28975081Y-62630970D01*
G01X28904362Y-62667255D01*
G01X28853896Y-62704018D01*
G01X28825356Y-62730418D01*
G01X28819319Y-62736927D01*
G01X28819319Y-62736927D01*
G01X28774585Y-62798389D01*
G01X28745966Y-62850101D01*
G01X28733812Y-62876964D01*
G01X28733382Y-62878041D01*
G01X28733382Y-62878041D01*
G01X28713297Y-62948472D01*
G01X28705452Y-63004768D01*
G01X28704087Y-63030991D01*
G01X28704085Y-63031361D01*
G01X28704085Y-63031361D01*
G01X28711257Y-63104496D01*
G01X28727034Y-63166371D01*
G01X28742812Y-63209202D01*
G01X28749983Y-63225209D01*
G01X28749983Y-63225209D01*
G01X28749983Y-63225209D01*
G01X28798279Y-63285840D01*
G01X28847366Y-63311588D01*
G01X28877469Y-63317402D01*
G01X28879866Y-63317494D01*
G01X28879866Y-63317494D01*
G01X28937228Y-63288926D01*
G01X28961602Y-63239309D01*
G01X28965804Y-63220814D01*
G01X28965804Y-63220814D01*
G01X28901084Y-63187213D01*
G01X28863929Y-63149193D01*
G01X28854964Y-63136341D01*
G01X28854964Y-63136341D01*
G01X28826983Y-63068874D01*
G01X28817431Y-63016497D01*
G01X28816390Y-62999134D01*
G01X28816390Y-62999134D01*
G01X28829708Y-62927800D01*
G01X28860016Y-62870773D01*
G01X28892840Y-62831049D01*
G01X28913709Y-62811620D01*
G01X28915511Y-62810170D01*
G01X28915511Y-62810170D01*
G01X28977010Y-62774250D01*
G01X29042496Y-62751780D01*
G01X29102945Y-62739604D01*
G01X29149336Y-62734569D01*
G01X29172645Y-62733519D01*
G01X29173811Y-62733509D01*
G01X29173811Y-62733509D01*
G01X29266782Y-62739740D01*
G01X29341725Y-62755248D01*
G01X29398987Y-62775252D01*
G01X29438911Y-62794976D01*
G01X29461844Y-62809640D01*
G01X29468245Y-62814564D01*
G01X29468245Y-62814564D01*
G01X29517762Y-62873005D01*
G01X29545934Y-62933891D01*
G01X29558779Y-62986053D01*
G01X29562320Y-63018324D01*
G01X29562483Y-63023549D01*
G01X29562483Y-63023549D01*
G01X29553000Y-63093609D01*
G01X29538818Y-63139479D01*
G01X29536604Y-63145131D01*
G01X29536604Y-63145131D01*
G01X29495682Y-63205090D01*
G01X29461715Y-63231446D01*
G01X29457991Y-63233509D01*
G01X29457991Y-63233509D01*
G01X29503184Y-63298371D01*
G01X29535430Y-63312443D01*
G01X29538069Y-63312611D01*
G01X29538069Y-63312611D01*
G01X29596006Y-63287022D01*
G01X29629862Y-63241408D01*
G01X29639143Y-63221791D01*
G01X29639143Y-63221791D01*
G01X29658593Y-63154254D01*
G01X29668937Y-63090037D01*
G01X29673050Y-63040563D01*
G01X29673809Y-63017252D01*
G01X29673811Y-63016713D01*
G01X29673811Y-63016713D01*
G01X29665671Y-62934356D01*
G01X29645137Y-62862686D01*
G01X29618043Y-62803237D01*
G01X29590219Y-62757547D01*
G01X29567499Y-62727150D01*
G01X29555713Y-62713584D01*
G01X29555159Y-62713002D01*
G01X29555159Y-62713002D01*
G01X29499377Y-62668575D01*
G01X29435585Y-62636494D01*
G01X29369611Y-62614749D01*
G01X29307283Y-62601330D01*
G01X29254429Y-62594227D01*
G01X29216879Y-62591431D01*
G01X29200459Y-62590932D01*
G01X29200179Y-62590931D01*
G37*
G36*
G01X29190413Y-63484486D02*
G01X29190413Y-63484486D01*
G01X29103338Y-63490890D01*
G01X29027199Y-63507464D01*
G01X28962767Y-63530254D01*
G01X28910814Y-63555303D01*
G01X28872111Y-63578658D01*
G01X28847431Y-63596362D01*
G01X28837545Y-63604461D01*
G01X28837386Y-63604603D01*
G01X28837386Y-63604603D01*
G01X28785948Y-63662759D01*
G01X28749807Y-63725497D01*
G01X28726263Y-63787377D01*
G01X28712616Y-63842963D01*
G01X28706168Y-63886814D01*
G01X28704218Y-63913495D01*
G01X28704085Y-63919056D01*
G01X28704085Y-63919056D01*
G01X28712183Y-64002067D01*
G01X28732878Y-64073858D01*
G01X28760771Y-64133560D01*
G01X28790464Y-64180302D01*
G01X28816557Y-64213215D01*
G01X28833653Y-64231428D01*
G01X28837386Y-64234974D01*
G01X28837386Y-64234974D01*
G01X28897614Y-64278513D01*
G01X28962965Y-64309952D01*
G01X29028399Y-64331262D01*
G01X29088875Y-64344413D01*
G01X29139353Y-64351373D01*
G01X29174792Y-64354113D01*
G01X29190152Y-64354602D01*
G01X29190413Y-64354603D01*
G01X29190413Y-64354603D01*
G01X29277410Y-64348226D01*
G01X29353347Y-64331719D01*
G01X29417501Y-64309022D01*
G01X29469149Y-64284074D01*
G01X29507566Y-64260814D01*
G01X29532031Y-64243182D01*
G01X29541818Y-64235116D01*
G01X29541976Y-64234974D01*
G01X29541976Y-64234974D01*
G01X29592848Y-64176888D01*
G01X29628592Y-64113980D01*
G01X29651877Y-64051777D01*
G01X29665374Y-63995806D01*
G01X29671752Y-63951596D01*
G01X29673680Y-63924672D01*
G01X29673811Y-63919056D01*
G01X29673811Y-63919056D01*
G01X29665802Y-63836770D01*
G01X29645335Y-63765432D01*
G01X29617748Y-63705973D01*
G01X29588382Y-63659322D01*
G01X29562575Y-63626408D01*
G01X29545667Y-63608161D01*
G01X29541976Y-63604603D01*
G01X29541976Y-63604603D01*
G01X29482281Y-63560887D01*
G01X29417314Y-63529319D01*
G01X29352141Y-63507922D01*
G01X29291826Y-63494718D01*
G01X29241434Y-63487729D01*
G01X29206028Y-63484978D01*
G01X29190674Y-63484487D01*
G01X29190413Y-63484486D01*
G37*
%LPC*%
G36*
G01X29162093Y-63625111D02*
G01X29162093Y-63625111D01*
G01X29244475Y-63631079D01*
G01X29315197Y-63645933D01*
G01X29372589Y-63665094D01*
G01X29414982Y-63683986D01*
G01X29440704Y-63698031D01*
G01X29448226Y-63702748D01*
G01X29448226Y-63702748D01*
G01X29503983Y-63755056D01*
G01X29537804Y-63812427D01*
G01X29555171Y-63865275D01*
G01X29561569Y-63904013D01*
G01X29562483Y-63919056D01*
G01X29562483Y-63919056D01*
G01X29562483Y-63919056D01*
G01X29551817Y-63998742D01*
G01X29526762Y-64061225D01*
G01X29497739Y-64105585D01*
G01X29475165Y-64130898D01*
G01X29468733Y-64136830D01*
G01X29468733Y-64136830D01*
G01X29410027Y-64173436D01*
G01X29346787Y-64196335D01*
G01X29288013Y-64208743D01*
G01X29242709Y-64213875D01*
G01X29219878Y-64214945D01*
G01X29218733Y-64214955D01*
G01X29218733Y-64214955D01*
G01X29136276Y-64208799D01*
G01X29065367Y-64193478D01*
G01X29007734Y-64173715D01*
G01X28965104Y-64154229D01*
G01X28939205Y-64139741D01*
G01X28931624Y-64134877D01*
G01X28931624Y-64134877D01*
G01X28875390Y-64081681D01*
G01X28841280Y-64024314D01*
G01X28823765Y-63971963D01*
G01X28817311Y-63933814D01*
G01X28816390Y-63919056D01*
G01X28816390Y-63919056D01*
G01X28816390Y-63919056D01*
G01X28827167Y-63839482D01*
G01X28852483Y-63777260D01*
G01X28881808Y-63733202D01*
G01X28904617Y-63708124D01*
G01X28911116Y-63702259D01*
G01X28911116Y-63702259D01*
G01X28970280Y-63666111D01*
G01X29033807Y-63643498D01*
G01X29092735Y-63631245D01*
G01X29138103Y-63626177D01*
G01X29160948Y-63625121D01*
G01X29162093Y-63625111D01*
G37*
%LPD*%
G36*
G01X28734358Y-64564564D02*
G01X28734358Y-64564564D01*
G01X28719245Y-64627730D01*
G01X28718733Y-64636830D01*
G01X28718733Y-64636830D01*
G01X28744116Y-64701018D01*
G01X28791628Y-64725019D01*
G01X28818313Y-64728627D01*
G01X28818343Y-64728627D01*
G01X28818343Y-64728627D01*
G01X28778660Y-64787610D01*
G01X28750843Y-64841900D01*
G01X28737264Y-64873620D01*
G01X28736311Y-64876088D01*
G01X28736311Y-64876088D01*
G01X28715139Y-64949845D01*
G01X28706147Y-65008416D01*
G01X28704117Y-65039775D01*
G01X28704085Y-65042103D01*
G01X28704085Y-65042103D01*
G01X28716369Y-65124883D01*
G01X28746096Y-65186445D01*
G01X28782575Y-65228839D01*
G01X28815115Y-65254115D01*
G01X28833026Y-65264321D01*
G01X28833968Y-65264759D01*
G01X28833968Y-65264759D01*
G01X28791729Y-65319022D01*
G01X28760662Y-65374636D01*
G01X28744052Y-65411021D01*
G01X28742171Y-65415638D01*
G01X28742171Y-65415638D01*
G01X28718901Y-65490418D01*
G01X28707792Y-65551462D01*
G01X28704346Y-65589949D01*
G01X28704085Y-65598744D01*
G01X28704085Y-65598744D01*
G01X28715300Y-65674595D01*
G01X28739538Y-65731125D01*
G01X28762691Y-65765450D01*
G01X28770979Y-65775013D01*
G01X28770979Y-65775013D01*
G01X28824521Y-65810676D01*
G01X28887050Y-65830965D01*
G01X28943872Y-65840217D01*
G01X28980296Y-65842767D01*
G01X28986311Y-65842884D01*
G01X28986311Y-65842884D01*
G01X29028628Y-65841921D01*
G01X29099979Y-65840205D01*
G01X29130354Y-65839466D01*
G01X29130354Y-65839466D01*
G01X29219464Y-65837549D01*
G01X29284753Y-65836529D01*
G01X29325856Y-65836124D01*
G01X29342410Y-65836049D01*
G01X29342757Y-65836049D01*
G01X29342757Y-65836049D01*
G01X29430458Y-65838676D01*
G01X29505259Y-65845215D01*
G01X29565605Y-65853651D01*
G01X29609943Y-65861968D01*
G01X29636716Y-65868152D01*
G01X29644515Y-65870228D01*
G01X29644515Y-65870228D01*
G01X29659348Y-65805915D01*
G01X29660140Y-65792103D01*
G01X29660140Y-65792103D01*
G01X29644291Y-65727118D01*
G01X29637190Y-65717396D01*
G01X29637190Y-65717396D01*
G01X29579640Y-65695916D01*
G01X29558577Y-65694447D01*
G01X29558577Y-65694447D01*
G01X29505504Y-65695001D01*
G01X29437832Y-65696342D01*
G01X29369306Y-65697988D01*
G01X29313669Y-65699456D01*
G01X29284668Y-65700264D01*
G01X29283186Y-65700306D01*
G01X29283186Y-65700306D01*
G01X29175654Y-65703277D01*
G01X29104438Y-65705022D01*
G01X29062699Y-65705869D01*
G01X29043601Y-65706142D01*
G01X29040022Y-65706166D01*
G01X29040022Y-65706166D01*
G01X28955529Y-65696626D01*
G01X28900379Y-65677151D01*
G01X28873860Y-65661461D01*
G01X28871077Y-65659291D01*
G01X28871077Y-65659291D01*
G01X28830064Y-65600570D01*
G01X28817351Y-65549838D01*
G01X28816390Y-65536244D01*
G01X28816390Y-65536244D01*
G01X28826365Y-65469323D01*
G01X28850504Y-65405086D01*
G01X28880126Y-65349602D01*
G01X28906549Y-65308940D01*
G01X28921094Y-65289167D01*
G01X28921858Y-65288197D01*
G01X28921858Y-65288197D01*
G01X29020827Y-65289531D01*
G01X29105359Y-65290520D01*
G01X29175673Y-65291217D01*
G01X29231988Y-65291671D01*
G01X29274523Y-65291936D01*
G01X29303497Y-65292062D01*
G01X29319128Y-65292100D01*
G01X29322249Y-65292103D01*
G01X29322249Y-65292103D01*
G01X29410714Y-65292974D01*
G01X29488283Y-65295171D01*
G01X29553061Y-65298070D01*
G01X29603150Y-65301047D01*
G01X29636655Y-65303478D01*
G01X29651680Y-65304739D01*
G01X29652327Y-65304798D01*
G01X29652327Y-65304799D01*
G01X29658071Y-65243553D01*
G01X29658186Y-65236439D01*
G01X29658186Y-65236439D01*
G01X29633548Y-65168008D01*
G01X29593071Y-65147837D01*
G01X29582015Y-65146595D01*
G01X29582015Y-65146595D01*
G01X29524354Y-65148619D01*
G01X29501448Y-65149525D01*
G01X29501448Y-65149525D01*
G01X29437056Y-65151595D01*
G01X29369975Y-65153166D01*
G01X29319101Y-65154135D01*
G01X29302718Y-65154408D01*
G01X29302718Y-65154408D01*
G01X29227022Y-65155361D01*
G01X29155827Y-65155939D01*
G01X29096210Y-65156236D01*
G01X29055249Y-65156345D01*
G01X29040022Y-65156361D01*
G01X29040022Y-65156361D01*
G01X29040022Y-65156361D01*
G01X28948938Y-65144301D01*
G01X28886707Y-65113881D01*
G01X28847834Y-65073741D01*
G01X28826823Y-65032521D01*
G01X28818179Y-64998861D01*
G01X28816404Y-64981401D01*
G01X28816390Y-64980580D01*
G01X28816390Y-64980580D01*
G01X28826827Y-64914574D01*
G01X28852083Y-64850910D01*
G01X28883077Y-64795736D01*
G01X28910723Y-64755202D01*
G01X28925941Y-64735456D01*
G01X28926741Y-64734486D01*
G01X28926741Y-64734486D01*
G01X29025484Y-64735820D01*
G01X29109423Y-64736809D01*
G01X29178907Y-64737506D01*
G01X29234283Y-64737960D01*
G01X29275899Y-64738225D01*
G01X29304102Y-64738351D01*
G01X29319240Y-64738389D01*
G01X29322249Y-64738392D01*
G01X29322249Y-64738392D01*
G01X29410714Y-64739196D01*
G01X29488283Y-64741224D01*
G01X29553061Y-64743900D01*
G01X29603150Y-64746648D01*
G01X29636655Y-64748892D01*
G01X29651680Y-64750056D01*
G01X29652327Y-64750111D01*
G01X29652327Y-64750111D01*
G01X29658083Y-64689188D01*
G01X29658186Y-64682728D01*
G01X29658186Y-64682728D01*
G01X29633548Y-64614297D01*
G01X29593071Y-64594126D01*
G01X29582015Y-64592884D01*
G01X29582015Y-64592884D01*
G01X29537139Y-64594260D01*
G01X29465311Y-64596713D01*
G01X29435042Y-64597767D01*
G01X29435042Y-64597767D01*
G01X29356814Y-64600055D01*
G01X29284509Y-64601486D01*
G01X29223735Y-64602262D01*
G01X29180097Y-64602583D01*
G01X29159202Y-64602649D01*
G01X29158186Y-64602650D01*
G01X29158186Y-64602650D01*
G01X29049866Y-64601136D01*
G01X28960209Y-64597122D01*
G01X28887798Y-64591396D01*
G01X28831216Y-64584749D01*
G01X28789046Y-64577970D01*
G01X28759869Y-64571850D01*
G01X28742268Y-64567177D01*
G01X28734826Y-64564742D01*
G01X28734358Y-64564564D01*
G37*

G04 Pad flashes *
%LPD*%
D11*

G04 end of program *
M02*
