G04                                                      *
G04 Greetings!                                           *
G04 This Gerber was generated by PCBmodE, an open source *
G04 PCB design software. Get it here:                    *
G04                                                      *
G04   http://pcbmode.com                                 *
G04                                                      *
G04 Also visit                                           *
G04                                                      *
G04   http://boldport.com                                *
G04                                                      *
G04 and follow @boldport / @pcbmode for updates!         *
G04                                                      *

G04 leading zeros omitted (L); absolute data (A); 6 integer digits and 6 fractional digits *
%FSLAX66Y66*%

G04 mode (MO): millimeters (MM) *
%MOMM*%

G04 Aperture definitions *
%ADD10C,0.001X*%
%ADD11C,0.001X*%

%LPD*%
G36*
G01X26698714Y-48024037D02*
G01X26698714Y-48024037D01*
G01X26688199Y-48100281D01*
G01X26681420Y-48171657D01*
G01X26677558Y-48233109D01*
G01X26675791Y-48279578D01*
G01X26675300Y-48306007D01*
G01X26675276Y-48310169D01*
G01X26675276Y-48321888D01*
G01X26675276Y-48321888D01*
G01X26680846Y-48426779D01*
G01X26696466Y-48517010D01*
G01X26720499Y-48593686D01*
G01X26751309Y-48657910D01*
G01X26787261Y-48710785D01*
G01X26826718Y-48753415D01*
G01X26868046Y-48786902D01*
G01X26909606Y-48812351D01*
G01X26949765Y-48830864D01*
G01X26986886Y-48843545D01*
G01X27019332Y-48851498D01*
G01X27045468Y-48855825D01*
G01X27063658Y-48857630D01*
G01X27072267Y-48858017D01*
G01X27072737Y-48858021D01*
G01X27072737Y-48858021D01*
G01X27154986Y-48850336D01*
G01X27223658Y-48831473D01*
G01X27277419Y-48807720D01*
G01X27314937Y-48785364D01*
G01X27334880Y-48770693D01*
G01X27337874Y-48768177D01*
G01X27337874Y-48768177D01*
G01X27387912Y-48712041D01*
G01X27424020Y-48651733D01*
G01X27448026Y-48595774D01*
G01X27461760Y-48552684D01*
G01X27467050Y-48530983D01*
G01X27467268Y-48529896D01*
G01X27467268Y-48529896D01*
G01X27517675Y-48553020D01*
G01X27540999Y-48564076D01*
G01X27540999Y-48564076D01*
G01X27612978Y-48599166D01*
G01X27636438Y-48611295D01*
G01X27636702Y-48611439D01*
G01X27636702Y-48611439D01*
G01X27691479Y-48640394D01*
G01X27714827Y-48652454D01*
G01X27714827Y-48652454D01*
G01X27779246Y-48687825D01*
G01X27801253Y-48701283D01*
G01X27801253Y-48701283D01*
G01X27849730Y-48738685D01*
G01X27853011Y-48741810D01*
G01X27853011Y-48741810D01*
G01X27894805Y-48800815D01*
G01X27909072Y-48851889D01*
G01X27910628Y-48869740D01*
G01X27910628Y-48869740D01*
G01X27904902Y-48923718D01*
G01X27904768Y-48924427D01*
G01X27904768Y-48924427D01*
G01X27962203Y-48941842D01*
G01X27965315Y-48942005D01*
G01X27965315Y-48942005D01*
G01X28012444Y-48914170D01*
G01X28034105Y-48856218D01*
G01X28040203Y-48806480D01*
G01X28040511Y-48796497D01*
G01X28040511Y-48792591D01*
G01X28040511Y-48792591D01*
G01X28028127Y-48729450D01*
G01X28022932Y-48716419D01*
G01X28022932Y-48716419D01*
G01X27984791Y-48663200D01*
G01X27961409Y-48640247D01*
G01X27961409Y-48640247D01*
G01X27905867Y-48593495D01*
G01X27883284Y-48575306D01*
G01X27883284Y-48575306D01*
G01X27883284Y-48575306D01*
G01X27831050Y-48540501D01*
G01X27784628Y-48513665D01*
G01X27776839Y-48509388D01*
G01X27776839Y-48509388D01*
G01X27705784Y-48471184D01*
G01X27675650Y-48455179D01*
G01X27673811Y-48454212D01*
G01X27673811Y-48454212D01*
G01X27620475Y-48428173D01*
G01X27568921Y-48404103D01*
G01X27560042Y-48400013D01*
G01X27560042Y-48400013D01*
G01X27483198Y-48364528D01*
G01X27465375Y-48356098D01*
G01X27465315Y-48356068D01*
G01X27465315Y-48356068D01*
G01X27431368Y-48302592D01*
G01X27421370Y-48300404D01*
G01X27421370Y-48300404D01*
G01X27367739Y-48309896D01*
G01X27366682Y-48310169D01*
G01X27366682Y-48310169D01*
G01X27375966Y-48380809D01*
G01X27377425Y-48403919D01*
G01X27377425Y-48403919D01*
G01X27367624Y-48483657D01*
G01X27344959Y-48545476D01*
G01X27319537Y-48588193D01*
G01X27301467Y-48610622D01*
G01X27298323Y-48613880D01*
G01X27298323Y-48613880D01*
G01X27239819Y-48653905D01*
G01X27176999Y-48676675D01*
G01X27122279Y-48687058D01*
G01X27088073Y-48689920D01*
G01X27082503Y-48690052D01*
G01X27082503Y-48690052D01*
G01X26994199Y-48680497D01*
G01X26929781Y-48658052D01*
G01X26887296Y-48632052D01*
G01X26864791Y-48611830D01*
G01X26859847Y-48606068D01*
G01X26859847Y-48606068D01*
G01X26830562Y-48550275D01*
G01X26812242Y-48485873D01*
G01X26802316Y-48423714D01*
G01X26798211Y-48374648D01*
G01X26797354Y-48349526D01*
G01X26797347Y-48348255D01*
G01X26797347Y-48348255D01*
G01X26799235Y-48281884D01*
G01X26802851Y-48222137D01*
G01X26805123Y-48192438D01*
G01X26805159Y-48192005D01*
G01X26805159Y-48192005D01*
G01X26858366Y-48194673D01*
G01X26923230Y-48196652D01*
G01X26993587Y-48198044D01*
G01X27063269Y-48198954D01*
G01X27126111Y-48199483D01*
G01X27175946Y-48199735D01*
G01X27206608Y-48199812D01*
G01X27213362Y-48199818D01*
G01X27614729Y-48199818D01*
G01X27614729Y-48199818D01*
G01X27712652Y-48201581D01*
G01X27796323Y-48206203D01*
G01X27865949Y-48212678D01*
G01X27921736Y-48220003D01*
G01X27963888Y-48227173D01*
G01X27992614Y-48233185D01*
G01X28008117Y-48237034D01*
G01X28011214Y-48237904D01*
G01X28011214Y-48237904D01*
G01X28025216Y-48174124D01*
G01X28026839Y-48144154D01*
G01X28026839Y-48144154D01*
G01X28010069Y-48077251D01*
G01X28000960Y-48066517D01*
G01X28000960Y-48066517D01*
G01X27941517Y-48048322D01*
G01X27912581Y-48046497D01*
G01X27912581Y-48046497D01*
G01X27860161Y-48046969D01*
G01X27793450Y-48047873D01*
G01X27755454Y-48048441D01*
G01X27754866Y-48048451D01*
G01X27754866Y-48048451D01*
G01X27668441Y-48049612D01*
G01X27605991Y-48050188D01*
G01X27569113Y-48050383D01*
G01X27559065Y-48050404D01*
G01X27158675Y-48050404D01*
G01X27158675Y-48050404D01*
G01X27070962Y-48049517D01*
G01X26990710Y-48047137D01*
G01X26918644Y-48043685D01*
G01X26855489Y-48039582D01*
G01X26801971Y-48035249D01*
G01X26758814Y-48031108D01*
G01X26726745Y-48027579D01*
G01X26706488Y-48025084D01*
G01X26698769Y-48024044D01*
G01X26698714Y-48024036D01*
G37*
G36*
G01X27557112Y-49041615D02*
G01X27557112Y-49041615D01*
G01X27470037Y-49048018D01*
G01X27393898Y-49064593D01*
G01X27329466Y-49087382D01*
G01X27277513Y-49112432D01*
G01X27238810Y-49135786D01*
G01X27214130Y-49153491D01*
G01X27204244Y-49161590D01*
G01X27204085Y-49161732D01*
G01X27204085Y-49161732D01*
G01X27152647Y-49219888D01*
G01X27116506Y-49282625D01*
G01X27092962Y-49344506D01*
G01X27079315Y-49400091D01*
G01X27072867Y-49443943D01*
G01X27070917Y-49470623D01*
G01X27070784Y-49476185D01*
G01X27070784Y-49476185D01*
G01X27078882Y-49559195D01*
G01X27099577Y-49630987D01*
G01X27127470Y-49690689D01*
G01X27157163Y-49737431D01*
G01X27183257Y-49770344D01*
G01X27200352Y-49788557D01*
G01X27204085Y-49792103D01*
G01X27204085Y-49792103D01*
G01X27264313Y-49835641D01*
G01X27329664Y-49867081D01*
G01X27395098Y-49888391D01*
G01X27455574Y-49901541D01*
G01X27506052Y-49908502D01*
G01X27541491Y-49911242D01*
G01X27556851Y-49911731D01*
G01X27557112Y-49911732D01*
G01X27557112Y-49911732D01*
G01X27644109Y-49905354D01*
G01X27720046Y-49888847D01*
G01X27784200Y-49866150D01*
G01X27835848Y-49841202D01*
G01X27874265Y-49817943D01*
G01X27898730Y-49800310D01*
G01X27908517Y-49792245D01*
G01X27908675Y-49792103D01*
G01X27908675Y-49792103D01*
G01X27959547Y-49734017D01*
G01X27995291Y-49671108D01*
G01X28018576Y-49608905D01*
G01X28032073Y-49552935D01*
G01X28038451Y-49508724D01*
G01X28040379Y-49481801D01*
G01X28040511Y-49476185D01*
G01X28040511Y-49476185D01*
G01X28032502Y-49393898D01*
G01X28012034Y-49322561D01*
G01X27984447Y-49263102D01*
G01X27955081Y-49216451D01*
G01X27929274Y-49183537D01*
G01X27912366Y-49165289D01*
G01X27908675Y-49161732D01*
G01X27908675Y-49161732D01*
G01X27848980Y-49118016D01*
G01X27784013Y-49086448D01*
G01X27718840Y-49065051D01*
G01X27658525Y-49051847D01*
G01X27608133Y-49044858D01*
G01X27572727Y-49042107D01*
G01X27557373Y-49041616D01*
G01X27557112Y-49041615D01*
G37*
%LPC*%
G36*
G01X27528792Y-49182240D02*
G01X27528792Y-49182240D01*
G01X27611174Y-49188208D01*
G01X27681896Y-49203061D01*
G01X27739288Y-49222222D01*
G01X27781681Y-49241114D01*
G01X27807403Y-49255160D01*
G01X27814925Y-49259876D01*
G01X27814925Y-49259876D01*
G01X27870682Y-49312185D01*
G01X27904503Y-49369556D01*
G01X27921870Y-49422404D01*
G01X27928268Y-49461142D01*
G01X27929182Y-49476185D01*
G01X27929182Y-49476185D01*
G01X27929182Y-49476185D01*
G01X27918516Y-49555870D01*
G01X27893461Y-49618354D01*
G01X27864438Y-49662713D01*
G01X27841864Y-49688026D01*
G01X27835432Y-49693958D01*
G01X27835432Y-49693958D01*
G01X27776727Y-49730565D01*
G01X27713486Y-49753464D01*
G01X27654712Y-49765872D01*
G01X27609408Y-49771003D01*
G01X27586577Y-49772074D01*
G01X27585432Y-49772083D01*
G01X27585432Y-49772083D01*
G01X27502975Y-49765927D01*
G01X27432066Y-49750607D01*
G01X27374433Y-49730843D01*
G01X27331803Y-49711357D01*
G01X27305904Y-49696870D01*
G01X27298323Y-49692005D01*
G01X27298323Y-49692005D01*
G01X27242089Y-49638810D01*
G01X27207979Y-49581443D01*
G01X27190464Y-49529091D01*
G01X27184011Y-49490943D01*
G01X27183089Y-49476185D01*
G01X27183089Y-49476185D01*
G01X27183089Y-49476185D01*
G01X27193866Y-49396611D01*
G01X27219182Y-49334388D01*
G01X27248507Y-49290331D01*
G01X27271316Y-49265253D01*
G01X27277815Y-49259388D01*
G01X27277815Y-49259388D01*
G01X27336979Y-49223239D01*
G01X27400506Y-49200626D01*
G01X27459434Y-49188373D01*
G01X27504802Y-49183306D01*
G01X27527647Y-49182249D01*
G01X27528792Y-49182240D01*
G37*
%LPD*%
G36*
G01X27566878Y-50091419D02*
G01X27566878Y-50091419D01*
G01X27488402Y-50096380D01*
G01X27422342Y-50107853D01*
G01X27373315Y-50120720D01*
G01X27345937Y-50129867D01*
G01X27341780Y-50131458D01*
G01X27341780Y-50131458D01*
G01X27271061Y-50167743D01*
G01X27220596Y-50204506D01*
G01X27192055Y-50230906D01*
G01X27186018Y-50237415D01*
G01X27186018Y-50237415D01*
G01X27141284Y-50298877D01*
G01X27112665Y-50350589D01*
G01X27100511Y-50377452D01*
G01X27100081Y-50378529D01*
G01X27100081Y-50378529D01*
G01X27079996Y-50448960D01*
G01X27072151Y-50505256D01*
G01X27070786Y-50531479D01*
G01X27070784Y-50531849D01*
G01X27070784Y-50531849D01*
G01X27077956Y-50604984D01*
G01X27093733Y-50666859D01*
G01X27109511Y-50709690D01*
G01X27116682Y-50725697D01*
G01X27116682Y-50725697D01*
G01X27116682Y-50725697D01*
G01X27164978Y-50786328D01*
G01X27214065Y-50812076D01*
G01X27244168Y-50817890D01*
G01X27246565Y-50817982D01*
G01X27246565Y-50817982D01*
G01X27303927Y-50789414D01*
G01X27328301Y-50739797D01*
G01X27332503Y-50721302D01*
G01X27332503Y-50721302D01*
G01X27267783Y-50687701D01*
G01X27230628Y-50649681D01*
G01X27221663Y-50636829D01*
G01X27221663Y-50636829D01*
G01X27193682Y-50569362D01*
G01X27184130Y-50516985D01*
G01X27183089Y-50499622D01*
G01X27183089Y-50499622D01*
G01X27196407Y-50428288D01*
G01X27226715Y-50371261D01*
G01X27259539Y-50331537D01*
G01X27280408Y-50312108D01*
G01X27282210Y-50310658D01*
G01X27282210Y-50310658D01*
G01X27343709Y-50274738D01*
G01X27409195Y-50252268D01*
G01X27469645Y-50240092D01*
G01X27516035Y-50235057D01*
G01X27539344Y-50234007D01*
G01X27540511Y-50233997D01*
G01X27540511Y-50233997D01*
G01X27633481Y-50240228D01*
G01X27708424Y-50255736D01*
G01X27765686Y-50275740D01*
G01X27805610Y-50295464D01*
G01X27828544Y-50310128D01*
G01X27834944Y-50315052D01*
G01X27834944Y-50315052D01*
G01X27884461Y-50373493D01*
G01X27912633Y-50434379D01*
G01X27925478Y-50486541D01*
G01X27929020Y-50518812D01*
G01X27929182Y-50524037D01*
G01X27929182Y-50524037D01*
G01X27919699Y-50594097D01*
G01X27905517Y-50639967D01*
G01X27903304Y-50645619D01*
G01X27903304Y-50645619D01*
G01X27862381Y-50705578D01*
G01X27828414Y-50731934D01*
G01X27824690Y-50733997D01*
G01X27824690Y-50733997D01*
G01X27869883Y-50798859D01*
G01X27902129Y-50812931D01*
G01X27904768Y-50813099D01*
G01X27904768Y-50813099D01*
G01X27962706Y-50787510D01*
G01X27996561Y-50741896D01*
G01X28005843Y-50722279D01*
G01X28005843Y-50722279D01*
G01X28025292Y-50654742D01*
G01X28035636Y-50590525D01*
G01X28039750Y-50541051D01*
G01X28040508Y-50517740D01*
G01X28040511Y-50517201D01*
G01X28040511Y-50517201D01*
G01X28032370Y-50434844D01*
G01X28011837Y-50363174D01*
G01X27984742Y-50303725D01*
G01X27956919Y-50258035D01*
G01X27934198Y-50227638D01*
G01X27922413Y-50214072D01*
G01X27921858Y-50213490D01*
G01X27921858Y-50213490D01*
G01X27866076Y-50169063D01*
G01X27802284Y-50136982D01*
G01X27736310Y-50115237D01*
G01X27673982Y-50101818D01*
G01X27621128Y-50094715D01*
G01X27583578Y-50091919D01*
G01X27567159Y-50091420D01*
G01X27566878Y-50091419D01*
G37*
G36*
G01X26540511Y-51015247D02*
G01X26540511Y-51015247D01*
G01X26534794Y-51077023D01*
G01X26534651Y-51085560D01*
G01X26534651Y-51085560D01*
G01X26559289Y-51155479D01*
G01X26599767Y-51176088D01*
G01X26610823Y-51177357D01*
G01X26610823Y-51177357D01*
G01X26666194Y-51175673D01*
G01X26702620Y-51174427D01*
G01X26702620Y-51174427D01*
G01X26766961Y-51172244D01*
G01X26834628Y-51170025D01*
G01X26891434Y-51168195D01*
G01X26923192Y-51167184D01*
G01X26925764Y-51167103D01*
G01X26925764Y-51167103D01*
G01X27000141Y-51165131D01*
G01X27069709Y-51163860D01*
G01X27129565Y-51163136D01*
G01X27174804Y-51162805D01*
G01X27200524Y-51162713D01*
G01X27204573Y-51162708D01*
G01X27204573Y-51162708D01*
G01X27152947Y-51227375D01*
G01X27116674Y-51291389D01*
G01X27093043Y-51350934D01*
G01X27079347Y-51402193D01*
G01X27072874Y-51441349D01*
G01X27070918Y-51464586D01*
G01X27070784Y-51469349D01*
G01X27070784Y-51469349D01*
G01X27081132Y-51552068D01*
G01X27104291Y-51612870D01*
G01X27128436Y-51651268D01*
G01X27141740Y-51666777D01*
G01X27142073Y-51667103D01*
G01X27142073Y-51667103D01*
G01X27204193Y-51708571D01*
G01X27264379Y-51728368D01*
G01X27306598Y-51734508D01*
G01X27316878Y-51734974D01*
G01X27316878Y-51734974D01*
G01X27392030Y-51725718D01*
G01X27453985Y-51704312D01*
G01X27499184Y-51680303D01*
G01X27524072Y-51663236D01*
G01X27527815Y-51660267D01*
G01X27527815Y-51660267D01*
G01X27574534Y-51607060D01*
G01X27604925Y-51548787D01*
G01X27622297Y-51496274D01*
G01X27629962Y-51460346D01*
G01X27631331Y-51450794D01*
G01X27631331Y-51450794D01*
G01X27718036Y-51504827D01*
G01X27780065Y-51546085D01*
G01X27820873Y-51575333D01*
G01X27843918Y-51593335D01*
G01X27852656Y-51600853D01*
G01X27853011Y-51601185D01*
G01X27853011Y-51601185D01*
G01X27899763Y-51663422D01*
G01X27915723Y-51710047D01*
G01X27917464Y-51725208D01*
G01X27917464Y-51725208D01*
G01X27908738Y-51776821D01*
G01X27908675Y-51776966D01*
G01X27908675Y-51776966D01*
G01X27964896Y-51795308D01*
G01X27967268Y-51795521D01*
G01X27967268Y-51795521D01*
G01X28016636Y-51763133D01*
G01X28021956Y-51753529D01*
G01X28021956Y-51753529D01*
G01X28039410Y-51688802D01*
G01X28040511Y-51673451D01*
G01X28040511Y-51673451D01*
G01X28024205Y-51605802D01*
G01X27992280Y-51554686D01*
G01X27970221Y-51529877D01*
G01X27969222Y-51528919D01*
G01X27969222Y-51528919D01*
G01X27919863Y-51486926D01*
G01X27909163Y-51478626D01*
G01X27909163Y-51478626D01*
G01X27854993Y-51440455D01*
G01X27837386Y-51428822D01*
G01X27837386Y-51428822D01*
G01X27780491Y-51393126D01*
G01X27770003Y-51386829D01*
G01X27770003Y-51386829D01*
G01X27715337Y-51354528D01*
G01X27692366Y-51340931D01*
G01X27692366Y-51340931D01*
G01X27632036Y-51305656D01*
G01X27624495Y-51301380D01*
G01X27624495Y-51301380D01*
G01X27590942Y-51250411D01*
G01X27582503Y-51248646D01*
G01X27582503Y-51248646D01*
G01X27534651Y-51259388D01*
G01X27534651Y-51259388D01*
G01X27546983Y-51333290D01*
G01X27549298Y-51360906D01*
G01X27549300Y-51360951D01*
G01X27549300Y-51360951D01*
G01X27537624Y-51441603D01*
G01X27513315Y-51497311D01*
G01X27492452Y-51526788D01*
G01X27488264Y-51531361D01*
G01X27488264Y-51531361D01*
G01X27427069Y-51572535D01*
G01X27373661Y-51588617D01*
G01X27347529Y-51591415D01*
G01X27347151Y-51591419D01*
G01X27347151Y-51591419D01*
G01X27276714Y-51576982D01*
G01X27236464Y-51554669D01*
G01X27230940Y-51550404D01*
G01X27230940Y-51550404D01*
G01X27193950Y-51493637D01*
G01X27183598Y-51444802D01*
G01X27183089Y-51435169D01*
G01X27183089Y-51435169D01*
G01X27194089Y-51367557D01*
G01X27214192Y-51313545D01*
G01X27224104Y-51293079D01*
G01X27224104Y-51293079D01*
G01X27265717Y-51229751D01*
G01X27304493Y-51184550D01*
G01X27325767Y-51163501D01*
G01X27326643Y-51162708D01*
G01X27616682Y-51162708D01*
G01X27616682Y-51162708D01*
G01X27713362Y-51164472D01*
G01X27796281Y-51169093D01*
G01X27865542Y-51175569D01*
G01X27921250Y-51182893D01*
G01X27963506Y-51190064D01*
G01X27992413Y-51196075D01*
G01X28008076Y-51199924D01*
G01X28011214Y-51200794D01*
G01X28011214Y-51200794D01*
G01X28026169Y-51138154D01*
G01X28026839Y-51125599D01*
G01X28026839Y-51125599D01*
G01X28010992Y-51059007D01*
G01X28002913Y-51048451D01*
G01X28002913Y-51048451D01*
G01X27944448Y-51028341D01*
G01X27923323Y-51026966D01*
G01X27923323Y-51026966D01*
G01X27880741Y-51027169D01*
G01X27815636Y-51027654D01*
G01X27746382Y-51028232D01*
G01X27691354Y-51028716D01*
G01X27668929Y-51028919D01*
G01X27668929Y-51028919D01*
G01X27668929Y-51028919D01*
G01X27575182Y-51029715D01*
G01X27497824Y-51030258D01*
G01X27436820Y-51030598D01*
G01X27392132Y-51030781D01*
G01X27363725Y-51030857D01*
G01X27351564Y-51030872D01*
G01X27351057Y-51030872D01*
G01X27118636Y-51030872D01*
G01X27118636Y-51030872D01*
G01X26999969Y-51030516D01*
G01X26897920Y-51029536D01*
G01X26811358Y-51028070D01*
G01X26739151Y-51026255D01*
G01X26680166Y-51024228D01*
G01X26633272Y-51022124D01*
G01X26597336Y-51020082D01*
G01X26571227Y-51018236D01*
G01X26553814Y-51016725D01*
G01X26543963Y-51015685D01*
G01X26540543Y-51015252D01*
G01X26540511Y-51015247D01*
G37*
G36*
G01X27561018Y-51938099D02*
G01X27561018Y-51938099D01*
G01X27474434Y-51944272D01*
G01X27399173Y-51960447D01*
G01X27335465Y-51983110D01*
G01X27283543Y-52008746D01*
G01X27243639Y-52033842D01*
G01X27215984Y-52054883D01*
G01X27200809Y-52068355D01*
G01X27197737Y-52071400D01*
G01X27197737Y-52071400D01*
G01X27148749Y-52133753D01*
G01X27114329Y-52197791D01*
G01X27091906Y-52258935D01*
G01X27078909Y-52312607D01*
G01X27072768Y-52354229D01*
G01X27070911Y-52379224D01*
G01X27070784Y-52384388D01*
G01X27070784Y-52384388D01*
G01X27079784Y-52465073D01*
G01X27100924Y-52529906D01*
G01X27125412Y-52576986D01*
G01X27144459Y-52604416D01*
G01X27149886Y-52610951D01*
G01X27149886Y-52610951D01*
G01X27209714Y-52659711D01*
G01X27267896Y-52685644D01*
G01X27313333Y-52695957D01*
G01X27334930Y-52697859D01*
G01X27335432Y-52697865D01*
G01X27335432Y-52697865D01*
G01X27411679Y-52688862D01*
G01X27456723Y-52674072D01*
G01X27465315Y-52670033D01*
G01X27465315Y-52670033D01*
G01X27522032Y-52626812D01*
G01X27546290Y-52598109D01*
G01X27546858Y-52597279D01*
G01X27546858Y-52597279D01*
G01X27574181Y-52537303D01*
G01X27589532Y-52482429D01*
G01X27592757Y-52467396D01*
G01X27592757Y-52467396D01*
G01X27604187Y-52393858D01*
G01X27610370Y-52334716D01*
G01X27612651Y-52302786D01*
G01X27612776Y-52300404D01*
G01X27612776Y-52300404D01*
G01X27614968Y-52234962D01*
G01X27616133Y-52167024D01*
G01X27616597Y-52111977D01*
G01X27616682Y-52085214D01*
G01X27616682Y-52084583D01*
G01X27616682Y-52084583D01*
G01X27699070Y-52100560D01*
G01X27764414Y-52124137D01*
G01X27811303Y-52148312D01*
G01X27838326Y-52166088D01*
G01X27844710Y-52171009D01*
G01X27844710Y-52171009D01*
G01X27890618Y-52226414D01*
G01X27915881Y-52286107D01*
G01X27926666Y-52336864D01*
G01X27929139Y-52365460D01*
G01X27929182Y-52367787D01*
G01X27929182Y-52367787D01*
G01X27917294Y-52452676D01*
G01X27889368Y-52514304D01*
G01X27857020Y-52554733D01*
G01X27831859Y-52576025D01*
G01X27824690Y-52580677D01*
G01X27824690Y-52580677D01*
G01X27870350Y-52644759D01*
G01X27904992Y-52659518D01*
G01X27908675Y-52659779D01*
G01X27908675Y-52659779D01*
G01X27963306Y-52632942D01*
G01X27996158Y-52586332D01*
G01X28004378Y-52568958D01*
G01X28004378Y-52568958D01*
G01X28025267Y-52498905D01*
G01X28035994Y-52433338D01*
G01X28039946Y-52384800D01*
G01X28040511Y-52365833D01*
G01X28040511Y-52365833D01*
G01X28040511Y-52365833D01*
G01X28033302Y-52285838D01*
G01X28014882Y-52216164D01*
G01X27990054Y-52157842D01*
G01X27963624Y-52111900D01*
G01X27940398Y-52079365D01*
G01X27925180Y-52061266D01*
G01X27921858Y-52057728D01*
G01X27921858Y-52057728D01*
G01X27870124Y-52016875D01*
G01X27810684Y-51986576D01*
G01X27748360Y-51965252D01*
G01X27687972Y-51951329D01*
G01X27634342Y-51943228D01*
G01X27592290Y-51939373D01*
G01X27566637Y-51938186D01*
G01X27561018Y-51938099D01*
G37*
%LPC*%
G36*
G01X27517073Y-52082630D02*
G01X27517073Y-52082630D01*
G01X27516523Y-52162067D01*
G01X27515542Y-52211788D01*
G01X27515120Y-52226185D01*
G01X27515120Y-52226185D01*
G01X27509979Y-52294576D01*
G01X27503995Y-52344404D01*
G01X27502913Y-52352162D01*
G01X27502913Y-52352162D01*
G01X27487045Y-52426559D01*
G01X27475328Y-52460800D01*
G01X27474593Y-52462513D01*
G01X27474593Y-52462513D01*
G01X27437011Y-52517418D01*
G01X27422835Y-52531361D01*
G01X27422835Y-52531361D01*
G01X27362650Y-52557715D01*
G01X27339339Y-52560169D01*
G01X27339339Y-52560169D01*
G01X27272307Y-52541607D01*
G01X27233401Y-52512919D01*
G01X27228011Y-52507435D01*
G01X27228011Y-52507435D01*
G01X27193424Y-52445440D01*
G01X27182165Y-52392678D01*
G01X27181136Y-52376576D01*
G01X27181136Y-52376576D01*
G01X27192158Y-52299880D01*
G01X27217240Y-52237979D01*
G01X27244405Y-52194508D01*
G01X27261676Y-52173103D01*
G01X27263167Y-52171497D01*
G01X27263167Y-52171497D01*
G01X27317860Y-52131319D01*
G01X27381242Y-52105522D01*
G01X27442542Y-52090931D01*
G01X27490991Y-52084372D01*
G01X27515817Y-52082669D01*
G01X27517073Y-52082630D01*
G37*
%LPD*%
G36*
G01X27162581Y-52787708D02*
G01X27162581Y-52787708D01*
G01X27107167Y-52812152D01*
G01X27103987Y-52817494D01*
G01X27103987Y-52817494D01*
G01X27092976Y-52878377D01*
G01X27091292Y-52919459D01*
G01X27091292Y-52919544D01*
G01X27091292Y-52976185D01*
G01X27091292Y-52976185D01*
G01X27006379Y-52972881D01*
G01X26938597Y-52969025D01*
G01X26891440Y-52965616D01*
G01X26868402Y-52963651D01*
G01X26866682Y-52963490D01*
G01X26866682Y-52963490D01*
G01X26860915Y-53023777D01*
G01X26860823Y-53029896D01*
G01X26860823Y-53029896D01*
G01X26884390Y-53101669D01*
G01X26924225Y-53123917D01*
G01X26936995Y-53125599D01*
G01X26936995Y-53125599D01*
G01X26987326Y-53123711D01*
G01X27054122Y-53120095D01*
G01X27092645Y-53117823D01*
G01X27093245Y-53117787D01*
G01X27093245Y-53117787D01*
G01X27092592Y-53220746D01*
G01X27090925Y-53302322D01*
G01X27088677Y-53364333D01*
G01X27086284Y-53408599D01*
G01X27084181Y-53436939D01*
G01X27082804Y-53451173D01*
G01X27082503Y-53453724D01*
G01X27082503Y-53453724D01*
G01X27129378Y-53461537D01*
G01X27129378Y-53461537D01*
G01X27181987Y-53441981D01*
G01X27183089Y-53440540D01*
G01X27183089Y-53440540D01*
G01X27198094Y-53382290D01*
G01X27198714Y-53373646D01*
G01X27198714Y-53373646D01*
G01X27199667Y-53320380D01*
G01X27200245Y-53252677D01*
G01X27200542Y-53185630D01*
G01X27200651Y-53134333D01*
G01X27200667Y-53113880D01*
G01X27200667Y-53113880D01*
G01X27200667Y-53113880D01*
G01X27278882Y-53112636D01*
G01X27356334Y-53111689D01*
G01X27430320Y-53110998D01*
G01X27498137Y-53110523D01*
G01X27557081Y-53110224D01*
G01X27604448Y-53110060D01*
G01X27637536Y-53109990D01*
G01X27653641Y-53109974D01*
G01X27654768Y-53109974D01*
G01X27654768Y-53109974D01*
G01X27751795Y-53114814D01*
G01X27818704Y-53126006D01*
G01X27859551Y-53138560D01*
G01X27878392Y-53147484D01*
G01X27880843Y-53149036D01*
G01X27880843Y-53149037D01*
G01X27920157Y-53202685D01*
G01X27933578Y-53257482D01*
G01X27935042Y-53277943D01*
G01X27935042Y-53277943D01*
G01X27920410Y-53349916D01*
G01X27892386Y-53399977D01*
G01X27874778Y-53421214D01*
G01X27874495Y-53421497D01*
G01X27874495Y-53421497D01*
G01X27932960Y-53455487D01*
G01X27946761Y-53457630D01*
G01X27946761Y-53457630D01*
G01X28000433Y-53427115D01*
G01X28014632Y-53405872D01*
G01X28014632Y-53405872D01*
G01X28034637Y-53340802D01*
G01X28040235Y-53289643D01*
G01X28040511Y-53279896D01*
G01X28040511Y-53279896D01*
G01X28030557Y-53191720D01*
G01X28006823Y-53125505D01*
G01X27978495Y-53079892D01*
G01X27954761Y-53053521D01*
G01X27944807Y-53045033D01*
G01X27944807Y-53045033D01*
G01X27944807Y-53045033D01*
G01X27889187Y-53015551D01*
G01X27825547Y-52995978D01*
G01X27762293Y-52984285D01*
G01X27707831Y-52978441D01*
G01X27670566Y-52976417D01*
G01X27658675Y-52976185D01*
G01X27658675Y-52976185D01*
G01X27548499Y-52977337D01*
G01X27456202Y-52978237D01*
G01X27380452Y-52978916D01*
G01X27319915Y-52979405D01*
G01X27273257Y-52979735D01*
G01X27239144Y-52979938D01*
G01X27216244Y-52980044D01*
G01X27203221Y-52980084D01*
G01X27198743Y-52980091D01*
G01X27198714Y-52980091D01*
G01X27198714Y-52980091D01*
G01X27201341Y-52944112D01*
G01X27206915Y-52873653D01*
G01X27211977Y-52810696D01*
G01X27213362Y-52793568D01*
G01X27213362Y-52793568D01*
G01X27162620Y-52787708D01*
G01X27162581Y-52787708D01*
G37*
G36*
G01X27914534Y-53622669D02*
G01X27914534Y-53622669D01*
G01X27865424Y-53629008D01*
G01X27806919Y-53634472D01*
G01X27741471Y-53639125D01*
G01X27671535Y-53643029D01*
G01X27599565Y-53646247D01*
G01X27528016Y-53648844D01*
G01X27459340Y-53650880D01*
G01X27395992Y-53652420D01*
G01X27340426Y-53653527D01*
G01X27295097Y-53654263D01*
G01X27262457Y-53654692D01*
G01X27244961Y-53654876D01*
G01X27242659Y-53654896D01*
G01X27242659Y-53654896D01*
G01X27142473Y-53654158D01*
G01X27051839Y-53652154D01*
G01X26970989Y-53649201D01*
G01X26900159Y-53645615D01*
G01X26839583Y-53641712D01*
G01X26789495Y-53637810D01*
G01X26750130Y-53634224D01*
G01X26721722Y-53631271D01*
G01X26704505Y-53629267D01*
G01X26698714Y-53628529D01*
G01X26698714Y-53628529D01*
G01X26698714Y-53628529D01*
G01X26688677Y-53691762D01*
G01X26682014Y-53759086D01*
G01X26678034Y-53823247D01*
G01X26676044Y-53876991D01*
G01X26675355Y-53913063D01*
G01X26675276Y-53924427D01*
G01X26675276Y-53939076D01*
G01X26675276Y-53939076D01*
G01X26678158Y-54019741D01*
G01X26685232Y-54090869D01*
G01X26694139Y-54149281D01*
G01X26702523Y-54191799D01*
G01X26708024Y-54215245D01*
G01X26708968Y-54218861D01*
G01X26708968Y-54218861D01*
G01X26733229Y-54289861D01*
G01X26761850Y-54351978D01*
G01X26789229Y-54401251D01*
G01X26809764Y-54433720D01*
G01X26817854Y-54445423D01*
G01X26817854Y-54445423D01*
G01X26817854Y-54445423D01*
G01X26865927Y-54499101D01*
G01X26919035Y-54542375D01*
G01X26969102Y-54574783D01*
G01X27008049Y-54595863D01*
G01X27027798Y-54605152D01*
G01X27028792Y-54605579D01*
G01X27028792Y-54605579D01*
G01X27097144Y-54628848D01*
G01X27167872Y-54644745D01*
G01X27234953Y-54654676D01*
G01X27292361Y-54660043D01*
G01X27334073Y-54662251D01*
G01X27354065Y-54662705D01*
G01X27354964Y-54662708D01*
G01X27354964Y-54662708D01*
G01X27441611Y-54658224D01*
G01X27521327Y-54646052D01*
G01X27593596Y-54628115D01*
G01X27657901Y-54606333D01*
G01X27713728Y-54582630D01*
G01X27760561Y-54558927D01*
G01X27797885Y-54537146D01*
G01X27825182Y-54519208D01*
G01X27841939Y-54507037D01*
G01X27847639Y-54502552D01*
G01X27847639Y-54502552D01*
G01X27847639Y-54502552D01*
G01X27899908Y-54450865D01*
G01X27941761Y-54393622D01*
G01X27974356Y-54333415D01*
G01X27998850Y-54272833D01*
G01X28016402Y-54214466D01*
G01X28028167Y-54160904D01*
G01X28035303Y-54114736D01*
G01X28038968Y-54078552D01*
G01X28040318Y-54054943D01*
G01X28040511Y-54046497D01*
G01X28040511Y-54046497D01*
G01X28040511Y-54046497D01*
G01X28035504Y-53953967D01*
G01X28022225Y-53872075D01*
G01X28003286Y-53801165D01*
G01X27981300Y-53741582D01*
G01X27958878Y-53693669D01*
G01X27938633Y-53657772D01*
G01X27923177Y-53634233D01*
G01X27915123Y-53623398D01*
G01X27914534Y-53622669D01*
G37*
%LPC*%
G36*
G01X27847151Y-53776966D02*
G01X27847151Y-53776966D01*
G01X27879572Y-53839046D01*
G01X27900473Y-53903407D01*
G01X27912383Y-53962840D01*
G01X27917830Y-54010135D01*
G01X27919345Y-54038080D01*
G01X27919417Y-54042591D01*
G01X27919417Y-54042591D01*
G01X27912922Y-54123455D01*
G01X27898141Y-54189348D01*
G01X27882133Y-54235993D01*
G01X27871956Y-54259111D01*
G01X27871077Y-54260853D01*
G01X27871077Y-54260853D01*
G01X27828737Y-54323928D01*
G01X27785125Y-54368810D01*
G01X27752240Y-54394934D01*
G01X27741682Y-54401966D01*
G01X27741682Y-54401966D01*
G01X27674442Y-54436773D01*
G01X27616866Y-54459589D01*
G01X27580918Y-54471059D01*
G01X27574690Y-54472767D01*
G01X27574690Y-54472767D01*
G01X27502895Y-54486538D01*
G01X27440801Y-54492868D01*
G01X27401787Y-54494650D01*
G01X27395003Y-54494740D01*
G01X27395003Y-54494740D01*
G01X27302085Y-54489763D01*
G01X27219924Y-54476408D01*
G01X27148535Y-54457038D01*
G01X27087934Y-54434017D01*
G01X27038137Y-54409706D01*
G01X26999158Y-54386469D01*
G01X26971015Y-54366670D01*
G01X26953721Y-54352671D01*
G01X26947294Y-54346834D01*
G01X26947249Y-54346790D01*
G01X26947249Y-54346790D01*
G01X26903023Y-54293910D01*
G01X26868483Y-54235050D01*
G01X26842432Y-54173411D01*
G01X26823672Y-54112195D01*
G01X26811006Y-54054604D01*
G01X26803238Y-54003838D01*
G01X26799170Y-53963099D01*
G01X26797606Y-53935589D01*
G01X26797347Y-53924509D01*
G01X26797347Y-53924427D01*
G01X26797347Y-53924427D01*
G01X26800097Y-53860411D01*
G01X26804347Y-53805583D01*
G01X26805159Y-53796497D01*
G01X26805159Y-53796497D01*
G01X26874173Y-53799746D01*
G01X26945107Y-53802089D01*
G01X27012080Y-53803670D01*
G01X27069214Y-53804633D01*
G01X27110628Y-53805122D01*
G01X27130442Y-53805281D01*
G01X27131331Y-53805287D01*
G01X27131331Y-53805287D01*
G01X27222067Y-53804890D01*
G01X27307518Y-53803777D01*
G01X27387481Y-53802064D01*
G01X27461753Y-53799869D01*
G01X27530132Y-53797307D01*
G01X27592414Y-53794496D01*
G01X27648396Y-53791551D01*
G01X27697875Y-53788590D01*
G01X27740649Y-53785728D01*
G01X27776513Y-53783083D01*
G01X27805267Y-53780771D01*
G01X27826705Y-53778909D01*
G01X27840626Y-53777613D01*
G01X27846826Y-53777000D01*
G01X27847151Y-53776966D01*
G37*
%LPD*%
G36*
G01X26702620Y-54892201D02*
G01X26702620Y-54892201D01*
G01X26689889Y-54965197D01*
G01X26687038Y-55005475D01*
G01X26686995Y-55008412D01*
G01X26686995Y-55008412D01*
G01X26706473Y-55074063D01*
G01X26746233Y-55121837D01*
G01X26778266Y-55147161D01*
G01X26782698Y-55150013D01*
G01X26782698Y-55150013D01*
G01X26842565Y-55182715D01*
G01X26905324Y-55214297D01*
G01X26966746Y-55243407D01*
G01X27022603Y-55268695D01*
G01X27068666Y-55288810D01*
G01X27100706Y-55302402D01*
G01X27114496Y-55308121D01*
G01X27114729Y-55308216D01*
G01X27114729Y-55308216D01*
G01X27198659Y-55341845D01*
G01X27272801Y-55370531D01*
G01X27335670Y-55394074D01*
G01X27385784Y-55412279D01*
G01X27421660Y-55424946D01*
G01X27441814Y-55431878D01*
G01X27445784Y-55433216D01*
G01X27445784Y-55433216D01*
G01X27503699Y-55452355D01*
G01X27568997Y-55473687D01*
G01X27636684Y-55495640D01*
G01X27701765Y-55516645D01*
G01X27759244Y-55535131D01*
G01X27804128Y-55549527D01*
G01X27831421Y-55558263D01*
G01X27837386Y-55560169D01*
G01X27837386Y-55560169D01*
G01X27769679Y-55577740D01*
G01X27701462Y-55596792D01*
G01X27634170Y-55616673D01*
G01X27569237Y-55636730D01*
G01X27508099Y-55656307D01*
G01X27452191Y-55674753D01*
G01X27402949Y-55691414D01*
G01X27361808Y-55705635D01*
G01X27330202Y-55716764D01*
G01X27309567Y-55724147D01*
G01X27301339Y-55727130D01*
G01X27301253Y-55727162D01*
G01X27301253Y-55727162D01*
G01X27224996Y-55756119D01*
G01X27152295Y-55785588D01*
G01X27083906Y-55814894D01*
G01X27020586Y-55843361D01*
G01X26963090Y-55870316D01*
G01X26912175Y-55895082D01*
G01X26868596Y-55916986D01*
G01X26833110Y-55935352D01*
G01X26806472Y-55949505D01*
G01X26789439Y-55958771D01*
G01X26782767Y-55962474D01*
G01X26782698Y-55962513D01*
G01X26782698Y-55962513D01*
G01X26722716Y-56013737D01*
G01X26695147Y-56065769D01*
G01X26687387Y-56101503D01*
G01X26686995Y-56108021D01*
G01X26686995Y-56108021D01*
G01X26693408Y-56182412D01*
G01X26701999Y-56218461D01*
G01X26702620Y-56220326D01*
G01X26702620Y-56220326D01*
G01X26753844Y-56208816D01*
G01X26817353Y-56200054D01*
G01X26887629Y-56193665D01*
G01X26959154Y-56189273D01*
G01X27026409Y-56186505D01*
G01X27083877Y-56184986D01*
G01X27126039Y-56184341D01*
G01X27147377Y-56184195D01*
G01X27148909Y-56184193D01*
G01X27614729Y-56184193D01*
G01X27614729Y-56184193D01*
G01X27712652Y-56185956D01*
G01X27796323Y-56190578D01*
G01X27865949Y-56197053D01*
G01X27921736Y-56204378D01*
G01X27963888Y-56211548D01*
G01X27992614Y-56217560D01*
G01X28008117Y-56221409D01*
G01X28011214Y-56222279D01*
G01X28011214Y-56222279D01*
G01X28025216Y-56158233D01*
G01X28026839Y-56128040D01*
G01X28026839Y-56128040D01*
G01X28010069Y-56060681D01*
G01X28000960Y-56049915D01*
G01X28000960Y-56049915D01*
G01X27941517Y-56031720D01*
G01X27912581Y-56029896D01*
G01X27912581Y-56029896D01*
G01X27865268Y-56030329D01*
G01X27797331Y-56031081D01*
G01X27772932Y-56031361D01*
G01X27772932Y-56031361D01*
G01X27714667Y-56031946D01*
G01X27649422Y-56032466D01*
G01X27582791Y-56032912D01*
G01X27520371Y-56033277D01*
G01X27467756Y-56033552D01*
G01X27430541Y-56033729D01*
G01X27414322Y-56033801D01*
G01X27414046Y-56033802D01*
G01X27414046Y-56033802D01*
G01X27343189Y-56034067D01*
G01X27271643Y-56034279D01*
G01X27201328Y-56034444D01*
G01X27134163Y-56034568D01*
G01X27072066Y-56034657D01*
G01X27016956Y-56034716D01*
G01X26970752Y-56034752D01*
G01X26935374Y-56034771D01*
G01X26912740Y-56034778D01*
G01X26904768Y-56034779D01*
G01X26904768Y-56034779D01*
G01X26904768Y-56034779D01*
G01X26962937Y-56007008D01*
G01X27025851Y-55978900D01*
G01X27092675Y-55950645D01*
G01X27162573Y-55922435D01*
G01X27234709Y-55894459D01*
G01X27308248Y-55866908D01*
G01X27382353Y-55839972D01*
G01X27456190Y-55813841D01*
G01X27528923Y-55788707D01*
G01X27599715Y-55764759D01*
G01X27667731Y-55742188D01*
G01X27732136Y-55721185D01*
G01X27792093Y-55701939D01*
G01X27846767Y-55684642D01*
G01X27895323Y-55669483D01*
G01X27936925Y-55656654D01*
G01X27970736Y-55646344D01*
G01X27995922Y-55638744D01*
G01X28011646Y-55634044D01*
G01X28017073Y-55632435D01*
G01X28017073Y-55632435D01*
G01X28017073Y-55632435D01*
G01X28024882Y-55579269D01*
G01X28024886Y-55578724D01*
G01X28024886Y-55578724D01*
G01X28004406Y-55506180D01*
G01X27975887Y-55479550D01*
G01X27973128Y-55478138D01*
G01X27973128Y-55478138D01*
G01X27933306Y-55461452D01*
G01X27881432Y-55440974D01*
G01X27821332Y-55418012D01*
G01X27756831Y-55393872D01*
G01X27691756Y-55369862D01*
G01X27629932Y-55347286D01*
G01X27575187Y-55327453D01*
G01X27531347Y-55311669D01*
G01X27502236Y-55301241D01*
G01X27491682Y-55297474D01*
G01X27491682Y-55297474D01*
G01X27491682Y-55297474D01*
G01X27405306Y-55266182D01*
G01X27325337Y-55236211D01*
G01X27251918Y-55207796D01*
G01X27185193Y-55181170D01*
G01X27125307Y-55156568D01*
G01X27072404Y-55134223D01*
G01X27026627Y-55114370D01*
G01X26988120Y-55097242D01*
G01X26957028Y-55083074D01*
G01X26933495Y-55072099D01*
G01X26917664Y-55064552D01*
G01X26909679Y-55060666D01*
G01X26908675Y-55060169D01*
G01X27614729Y-55060169D01*
G01X27614729Y-55060169D01*
G01X27712652Y-55061933D01*
G01X27796323Y-55066554D01*
G01X27865949Y-55073029D01*
G01X27921736Y-55080354D01*
G01X27963888Y-55087525D01*
G01X27992614Y-55093536D01*
G01X28008117Y-55097385D01*
G01X28011214Y-55098255D01*
G01X28011214Y-55098255D01*
G01X28026225Y-55035671D01*
G01X28026839Y-55024037D01*
G01X28026839Y-55024037D01*
G01X28010069Y-54957134D01*
G01X28000960Y-54946400D01*
G01X28000960Y-54946400D01*
G01X27941517Y-54928205D01*
G01X27912581Y-54926380D01*
G01X27912581Y-54926380D01*
G01X27860161Y-54926852D01*
G01X27793450Y-54927756D01*
G01X27755454Y-54928324D01*
G01X27754866Y-54928333D01*
G01X27754866Y-54928333D01*
G01X27668441Y-54929495D01*
G01X27605991Y-54930070D01*
G01X27569113Y-54930266D01*
G01X27559065Y-54930286D01*
G01X27055159Y-54930287D01*
G01X27055159Y-54930287D01*
G01X26961034Y-54927973D01*
G01X26880388Y-54922060D01*
G01X26813916Y-54914090D01*
G01X26762307Y-54905607D01*
G01X26726256Y-54898151D01*
G01X26706453Y-54893267D01*
G01X26702620Y-54892201D01*
G37*
G36*
G01X27935042Y-56403919D02*
G01X27935042Y-56403919D01*
G01X27905108Y-56410146D01*
G01X27866110Y-56427608D01*
G01X27819804Y-56454475D01*
G01X27767950Y-56488919D01*
G01X27712306Y-56529111D01*
G01X27654630Y-56573222D01*
G01X27596682Y-56619423D01*
G01X27540220Y-56665886D01*
G01X27487002Y-56710780D01*
G01X27438787Y-56752279D01*
G01X27397333Y-56788552D01*
G01X27364400Y-56817770D01*
G01X27341744Y-56838106D01*
G01X27331126Y-56847729D01*
G01X27330550Y-56848255D01*
G01X27330550Y-56848255D01*
G01X27224528Y-56780646D01*
G01X27132272Y-56718885D01*
G01X27052885Y-56662933D01*
G01X26985469Y-56612752D01*
G01X26929128Y-56568302D01*
G01X26882964Y-56529545D01*
G01X26846081Y-56496441D01*
G01X26817581Y-56468952D01*
G01X26796567Y-56447039D01*
G01X26782143Y-56430661D01*
G01X26773412Y-56419782D01*
G01X26769476Y-56414361D01*
G01X26769026Y-56413685D01*
G01X26769026Y-56413685D01*
G01X26710268Y-56475250D01*
G01X26683262Y-56525974D01*
G01X26675660Y-56556852D01*
G01X26675276Y-56562122D01*
G01X26675276Y-56562122D01*
G01X26701260Y-56612045D01*
G01X26745181Y-56652960D01*
G01X26759261Y-56663685D01*
G01X26759261Y-56663685D01*
G01X26816534Y-56702893D01*
G01X26876784Y-56742974D01*
G01X26937889Y-56782750D01*
G01X26997729Y-56821044D01*
G01X27054182Y-56856678D01*
G01X27105128Y-56888474D01*
G01X27148444Y-56915254D01*
G01X27182011Y-56935841D01*
G01X27203706Y-56949057D01*
G01X27211409Y-56953724D01*
G01X27211409Y-56953724D01*
G01X27211409Y-56953724D01*
G01X27149478Y-57002399D01*
G01X27088265Y-57046493D01*
G01X27031390Y-57084719D01*
G01X26982472Y-57115794D01*
G01X26945128Y-57138432D01*
G01X26922978Y-57151346D01*
G01X26918440Y-57153919D01*
G01X26918440Y-57153919D01*
G01X26832979Y-57198130D01*
G01X26765612Y-57227294D01*
G01X26716854Y-57244411D01*
G01X26687222Y-57252482D01*
G01X26677229Y-57254505D01*
G01X26677229Y-57254505D01*
G01X26677229Y-57254505D01*
G01X26707990Y-57338726D01*
G01X26746410Y-57380447D01*
G01X26777971Y-57394599D01*
G01X26788557Y-57396107D01*
G01X26788557Y-57396107D01*
G01X26834620Y-57382885D01*
G01X26894859Y-57351828D01*
G01X26953862Y-57315851D01*
G01X26996219Y-57287869D01*
G01X27007796Y-57279896D01*
G01X27007796Y-57279896D01*
G01X27071513Y-57233834D01*
G01X27132279Y-57187692D01*
G01X27188181Y-57143568D01*
G01X27237310Y-57103561D01*
G01X27277751Y-57069768D01*
G01X27307595Y-57044288D01*
G01X27324929Y-57029220D01*
G01X27328597Y-57025990D01*
G01X27328597Y-57025990D01*
G01X27434037Y-57089127D01*
G01X27527295Y-57147697D01*
G01X27609081Y-57201698D01*
G01X27680105Y-57251128D01*
G01X27741074Y-57295984D01*
G01X27792700Y-57336266D01*
G01X27835692Y-57371971D01*
G01X27870758Y-57403096D01*
G01X27898609Y-57429641D01*
G01X27919953Y-57451602D01*
G01X27935501Y-57468978D01*
G01X27945961Y-57481767D01*
G01X27952044Y-57489967D01*
G01X27954458Y-57493576D01*
G01X27954573Y-57493763D01*
G01X27954573Y-57493763D01*
G01X28012279Y-57428543D01*
G01X28035795Y-57380148D01*
G01X28040481Y-57356956D01*
G01X28040511Y-57356068D01*
G01X28040511Y-57356068D01*
G01X28015556Y-57301616D01*
G01X27974560Y-57261293D01*
G01X27963362Y-57252552D01*
G01X27963362Y-57252552D01*
G01X27916716Y-57218548D01*
G01X27862774Y-57181247D01*
G01X27803973Y-57142002D01*
G01X27742747Y-57102169D01*
G01X27681530Y-57063101D01*
G01X27622757Y-57026151D01*
G01X27568863Y-56992675D01*
G01X27522283Y-56964027D01*
G01X27485452Y-56941559D01*
G01X27460804Y-56926627D01*
G01X27450773Y-56920585D01*
G01X27450667Y-56920521D01*
G01X27450667Y-56920521D01*
G01X27500642Y-56872638D01*
G01X27555044Y-56826305D01*
G01X27609627Y-56783533D01*
G01X27660147Y-56746330D01*
G01X27702359Y-56716707D01*
G01X27732019Y-56696674D01*
G01X27744882Y-56688240D01*
G01X27745100Y-56688099D01*
G01X27745100Y-56688099D01*
G01X27827714Y-56638095D01*
G01X27898205Y-56600482D01*
G01X27955625Y-56573698D01*
G01X27999026Y-56556184D01*
G01X28027460Y-56546380D01*
G01X28039979Y-56542727D01*
G01X28040511Y-56542591D01*
G01X28040511Y-56542591D01*
G01X28010637Y-56457865D01*
G01X27972758Y-56417417D01*
G01X27942790Y-56404870D01*
G01X27935042Y-56403919D01*
G37*
G36*
G01X26793440Y-58197865D02*
G01X26793440Y-58197865D01*
G01X26729940Y-58225021D01*
G01X26708253Y-58266990D01*
G01X26706526Y-58275013D01*
G01X26706526Y-58275013D01*
G01X26690901Y-58383646D01*
G01X26681604Y-58457122D01*
G01X26676995Y-58501771D01*
G01X26675432Y-58523919D01*
G01X26675276Y-58529896D01*
G01X26675276Y-58529896D01*
G01X26675276Y-58529896D01*
G01X26691954Y-58584952D01*
G01X26693343Y-58587025D01*
G01X26693343Y-58587025D01*
G01X26745848Y-58611624D01*
G01X26751448Y-58611927D01*
G01X26751448Y-58611927D01*
G01X26805412Y-58610123D01*
G01X26863165Y-58607707D01*
G01X26867171Y-58607533D01*
G01X26867171Y-58607533D01*
G01X26934861Y-58604860D01*
G01X27004482Y-58602507D01*
G01X27065047Y-58600663D01*
G01X27105567Y-58599518D01*
G01X27116194Y-58599232D01*
G01X27116194Y-58599232D01*
G01X27194451Y-58597479D01*
G01X27265613Y-58596350D01*
G01X27325529Y-58595706D01*
G01X27370046Y-58595411D01*
G01X27395014Y-58595329D01*
G01X27398909Y-58595326D01*
G01X27522932Y-58595326D01*
G01X27522932Y-58595326D01*
G01X27618233Y-58595959D01*
G01X27700044Y-58597618D01*
G01X27768443Y-58599942D01*
G01X27823508Y-58602571D01*
G01X27865315Y-58605145D01*
G01X27893943Y-58607303D01*
G01X27909468Y-58608685D01*
G01X27912581Y-58608997D01*
G01X27912581Y-58608997D01*
G01X27911360Y-58699589D01*
G01X27908675Y-58764637D01*
G01X27905989Y-58803867D01*
G01X27904768Y-58817005D01*
G01X27904768Y-58817005D01*
G01X27904768Y-58817005D01*
G01X27948714Y-58825794D01*
G01X27948714Y-58825794D01*
G01X28009241Y-58797165D01*
G01X28024441Y-58754352D01*
G01X28024886Y-58747669D01*
G01X28024886Y-58747669D01*
G01X28024170Y-58696724D01*
G01X28023100Y-58634058D01*
G01X28022932Y-58624622D01*
G01X28022932Y-58624622D01*
G01X28021771Y-58544834D01*
G01X28021195Y-58480763D01*
G01X28021000Y-58439411D01*
G01X28020979Y-58427357D01*
G01X28020979Y-58427357D01*
G01X28021263Y-58332958D01*
G01X28021897Y-58267517D01*
G01X28022559Y-58228603D01*
G01X28022923Y-58213787D01*
G01X28022932Y-58213490D01*
G01X28022932Y-58213490D01*
G01X27975081Y-58203724D01*
G01X27975081Y-58203724D01*
G01X27926375Y-58234629D01*
G01X27908962Y-58291110D01*
G01X27906722Y-58318958D01*
G01X27906722Y-58455677D01*
G01X27906722Y-58455677D01*
G01X27864580Y-58455899D01*
G01X27799601Y-58456421D01*
G01X27731971Y-58457026D01*
G01X27681876Y-58457496D01*
G01X27667952Y-58457630D01*
G01X27667952Y-58457630D01*
G01X27581140Y-58458384D01*
G01X27502775Y-58458913D01*
G01X27435042Y-58459258D01*
G01X27380128Y-58459458D01*
G01X27340216Y-58459553D01*
G01X27317492Y-58459581D01*
G01X27312972Y-58459583D01*
G01X27312972Y-58459583D01*
G01X27230281Y-58459419D01*
G01X27152190Y-58458974D01*
G01X27079666Y-58458318D01*
G01X27013675Y-58457521D01*
G01X26955183Y-58456654D01*
G01X26905159Y-58455787D01*
G01X26864568Y-58454990D01*
G01X26834378Y-58454333D01*
G01X26815555Y-58453888D01*
G01X26809065Y-58453724D01*
G01X26809065Y-58453724D01*
G01X26809065Y-58453724D01*
G01X26820636Y-58344849D01*
G01X26828737Y-58272490D01*
G01X26833886Y-58229568D01*
G01X26836597Y-58209005D01*
G01X26837386Y-58203724D01*
G01X26837386Y-58203724D01*
G01X26837386Y-58203724D01*
G01X26793440Y-58197865D01*
G37*
G36*
G01X27915022Y-59134388D02*
G01X27915022Y-59134388D01*
G01X27849043Y-59152454D01*
G01X27823714Y-59170521D01*
G01X27823714Y-59170521D01*
G01X27823714Y-59170521D01*
G01X27790708Y-59229312D01*
G01X27786604Y-59256947D01*
G01X27786604Y-59256947D01*
G01X27806827Y-59320910D01*
G01X27823714Y-59341908D01*
G01X27823714Y-59341908D01*
G01X27884370Y-59372497D01*
G01X27915022Y-59376576D01*
G01X27915022Y-59376576D01*
G01X27981202Y-59358722D01*
G01X28004866Y-59341908D01*
G01X28004866Y-59341908D01*
G01X28037041Y-59282456D01*
G01X28040511Y-59256947D01*
G01X28040511Y-59256947D01*
G01X28021086Y-59192185D01*
G01X28004866Y-59170521D01*
G01X28004866Y-59170521D01*
G01X27945503Y-59138639D01*
G01X27915022Y-59134388D01*
G37*
G36*
G01X26793440Y-59729115D02*
G01X26793440Y-59729115D01*
G01X26729940Y-59756271D01*
G01X26708253Y-59798240D01*
G01X26706526Y-59806263D01*
G01X26706526Y-59806263D01*
G01X26690901Y-59914896D01*
G01X26681604Y-59988372D01*
G01X26676995Y-60033021D01*
G01X26675432Y-60055169D01*
G01X26675276Y-60061146D01*
G01X26675276Y-60061146D01*
G01X26675276Y-60061146D01*
G01X26691954Y-60116202D01*
G01X26693343Y-60118275D01*
G01X26693343Y-60118275D01*
G01X26745848Y-60142874D01*
G01X26751448Y-60143177D01*
G01X26751448Y-60143177D01*
G01X26805412Y-60141373D01*
G01X26863165Y-60138957D01*
G01X26867171Y-60138783D01*
G01X26867171Y-60138783D01*
G01X26934861Y-60136110D01*
G01X27004482Y-60133757D01*
G01X27065047Y-60131913D01*
G01X27105567Y-60130768D01*
G01X27116194Y-60130482D01*
G01X27116194Y-60130482D01*
G01X27194451Y-60128729D01*
G01X27265613Y-60127600D01*
G01X27325529Y-60126956D01*
G01X27370046Y-60126661D01*
G01X27395014Y-60126579D01*
G01X27398909Y-60126576D01*
G01X27522932Y-60126576D01*
G01X27522932Y-60126576D01*
G01X27618233Y-60127209D01*
G01X27700044Y-60128868D01*
G01X27768443Y-60131192D01*
G01X27823508Y-60133821D01*
G01X27865315Y-60136395D01*
G01X27893943Y-60138553D01*
G01X27909468Y-60139935D01*
G01X27912581Y-60140247D01*
G01X27912581Y-60140247D01*
G01X27911360Y-60230839D01*
G01X27908675Y-60295887D01*
G01X27905989Y-60335117D01*
G01X27904768Y-60348255D01*
G01X27904768Y-60348255D01*
G01X27904768Y-60348255D01*
G01X27948714Y-60357044D01*
G01X27948714Y-60357044D01*
G01X28009241Y-60328415D01*
G01X28024441Y-60285602D01*
G01X28024886Y-60278919D01*
G01X28024886Y-60278919D01*
G01X28024170Y-60227974D01*
G01X28023100Y-60165308D01*
G01X28022932Y-60155872D01*
G01X28022932Y-60155872D01*
G01X28021771Y-60076084D01*
G01X28021195Y-60012013D01*
G01X28021000Y-59970661D01*
G01X28020979Y-59958607D01*
G01X28020979Y-59958607D01*
G01X28021263Y-59864208D01*
G01X28021897Y-59798767D01*
G01X28022559Y-59759853D01*
G01X28022923Y-59745037D01*
G01X28022932Y-59744740D01*
G01X28022932Y-59744740D01*
G01X27975081Y-59734974D01*
G01X27975081Y-59734974D01*
G01X27926375Y-59765879D01*
G01X27908962Y-59822360D01*
G01X27906722Y-59850208D01*
G01X27906722Y-59986927D01*
G01X27906722Y-59986927D01*
G01X27864580Y-59987149D01*
G01X27799601Y-59987671D01*
G01X27731971Y-59988276D01*
G01X27681876Y-59988746D01*
G01X27667952Y-59988880D01*
G01X27667952Y-59988880D01*
G01X27581140Y-59989634D01*
G01X27502775Y-59990163D01*
G01X27435042Y-59990508D01*
G01X27380128Y-59990708D01*
G01X27340216Y-59990803D01*
G01X27317492Y-59990831D01*
G01X27312972Y-59990833D01*
G01X27312972Y-59990833D01*
G01X27230281Y-59990669D01*
G01X27152190Y-59990224D01*
G01X27079666Y-59989568D01*
G01X27013675Y-59988771D01*
G01X26955183Y-59987904D01*
G01X26905159Y-59987037D01*
G01X26864568Y-59986240D01*
G01X26834378Y-59985583D01*
G01X26815555Y-59985138D01*
G01X26809065Y-59984974D01*
G01X26809065Y-59984974D01*
G01X26809065Y-59984974D01*
G01X26820636Y-59876099D01*
G01X26828737Y-59803740D01*
G01X26833886Y-59760818D01*
G01X26836597Y-59740255D01*
G01X26837386Y-59734974D01*
G01X26837386Y-59734974D01*
G01X26837386Y-59734974D01*
G01X26793440Y-59729115D01*
G37*
G36*
G01X28246565Y-60619740D02*
G01X28246565Y-60619740D01*
G01X28223128Y-60621693D01*
G01X28223128Y-60632435D01*
G01X28223128Y-60632435D01*
G01X28204709Y-60700126D01*
G01X28178104Y-60735280D01*
G01X28174788Y-60738392D01*
G01X28174788Y-60738392D01*
G01X28112438Y-60771798D01*
G01X28069344Y-60779726D01*
G01X28064925Y-60779896D01*
G01X28064925Y-60779896D01*
G01X27994659Y-60757560D01*
G01X27958753Y-60713827D01*
G01X27947081Y-60683608D01*
G01X27946761Y-60682240D01*
G01X27946761Y-60682240D01*
G01X27887920Y-60662291D01*
G01X27881331Y-60661732D01*
G01X27881331Y-60661732D01*
G01X27821822Y-60684856D01*
G01X27810042Y-60695912D01*
G01X27810042Y-60695912D01*
G01X27783074Y-60756291D01*
G01X27780745Y-60777943D01*
G01X27780745Y-60777943D01*
G01X27803006Y-60840833D01*
G01X27826589Y-60866766D01*
G01X27826643Y-60866810D01*
G01X27826643Y-60866810D01*
G01X27885275Y-60893251D01*
G01X27944354Y-60902703D01*
G01X27969222Y-60903919D01*
G01X27969222Y-60903919D01*
G01X28045142Y-60896086D01*
G01X28110991Y-60877687D01*
G01X28161992Y-60856373D01*
G01X28193370Y-60839795D01*
G01X28201155Y-60835072D01*
G01X28201155Y-60835072D01*
G01X28262412Y-60780621D01*
G01X28293867Y-60727955D01*
G01X28305457Y-60688198D01*
G01X28307112Y-60672474D01*
G01X28307112Y-60672474D01*
G01X28307112Y-60672474D01*
G01X28271416Y-60624549D01*
G01X28246565Y-60619740D01*
G37*
G36*
G01X27927229Y-61561146D02*
G01X27927229Y-61561146D01*
G01X27900862Y-61563099D01*
G01X27900862Y-61563099D01*
G01X27824822Y-61644713D01*
G01X27755325Y-61718326D01*
G01X27692211Y-61784264D01*
G01X27635318Y-61842853D01*
G01X27584486Y-61894418D01*
G01X27539555Y-61939285D01*
G01X27500362Y-61977779D01*
G01X27466748Y-62010226D01*
G01X27438552Y-62036951D01*
G01X27415613Y-62058281D01*
G01X27397770Y-62074540D01*
G01X27384863Y-62086054D01*
G01X27376730Y-62093149D01*
G01X27373211Y-62096151D01*
G01X27373030Y-62096302D01*
G01X27373030Y-62096302D01*
G01X27302059Y-62147214D01*
G01X27235334Y-62181998D01*
G01X27176273Y-62203726D01*
G01X27128298Y-62215470D01*
G01X27094827Y-62220302D01*
G01X27079281Y-62221294D01*
G01X27078597Y-62221302D01*
G01X27078597Y-62221302D01*
G01X26997709Y-62211592D01*
G01X26935425Y-62189496D01*
G01X26893456Y-62165565D01*
G01X26873513Y-62150350D01*
G01X26872054Y-62149037D01*
G01X26872054Y-62149037D01*
G01X26826458Y-62088700D01*
G01X26803871Y-62029901D01*
G01X26796210Y-61986851D01*
G01X26795393Y-61973255D01*
G01X26795393Y-61973255D01*
G01X26804933Y-61902237D01*
G01X26824408Y-61843509D01*
G01X26840098Y-61809360D01*
G01X26842268Y-61805287D01*
G01X26842268Y-61805287D01*
G01X26886219Y-61742748D01*
G01X26930059Y-61697941D01*
G01X26959897Y-61673439D01*
G01X26965315Y-61669544D01*
G01X26965315Y-61669544D01*
G01X26932158Y-61605367D01*
G01X26899944Y-61593411D01*
G01X26898909Y-61593372D01*
G01X26898909Y-61593372D01*
G01X26842375Y-61612904D01*
G01X26794173Y-61655872D01*
G01X26760619Y-61698841D01*
G01X26748030Y-61718372D01*
G01X26748030Y-61718372D01*
G01X26748030Y-61718372D01*
G01X26715390Y-61786898D01*
G01X26694348Y-61853600D01*
G01X26682358Y-61912671D01*
G01X26676873Y-61958301D01*
G01X26675349Y-61984681D01*
G01X26675276Y-61988880D01*
G01X26675276Y-61988880D01*
G01X26683462Y-62068627D01*
G01X26703555Y-62137499D01*
G01X26728858Y-62193071D01*
G01X26752672Y-62232916D01*
G01X26768300Y-62254609D01*
G01X26770979Y-62257923D01*
G01X26770979Y-62257923D01*
G01X26825324Y-62306223D01*
G01X26885787Y-62338289D01*
G01X26944944Y-62357446D01*
G01X26995367Y-62367020D01*
G01X27029628Y-62370336D01*
G01X27040511Y-62370716D01*
G01X27040511Y-62370716D01*
G01X27116896Y-62365395D01*
G01X27179418Y-62353895D01*
G01X27220352Y-62342910D01*
G01X27232405Y-62338978D01*
G01X27232405Y-62338978D01*
G01X27294411Y-62310313D01*
G01X27352643Y-62274844D01*
G01X27398367Y-62242656D01*
G01X27422852Y-62223839D01*
G01X27424788Y-62222279D01*
G01X27424788Y-62222279D01*
G01X27480093Y-62174932D01*
G01X27531394Y-62127704D01*
G01X27575257Y-62085172D01*
G01X27608248Y-62051915D01*
G01X27626932Y-62032514D01*
G01X27629866Y-62029408D01*
G01X27629866Y-62029408D01*
G01X27671980Y-61983467D01*
G01X27717487Y-61932318D01*
G01X27763396Y-61879712D01*
G01X27806713Y-61829401D01*
G01X27844445Y-61785139D01*
G01X27873599Y-61750678D01*
G01X27891182Y-61729771D01*
G01X27895003Y-61725208D01*
G01X27895003Y-61725208D01*
G01X27897511Y-61790964D01*
G01X27898620Y-61854995D01*
G01X27898900Y-61895865D01*
G01X27898909Y-61900990D01*
G01X27898909Y-61900990D01*
G01X27898158Y-61999279D01*
G01X27896290Y-62078301D01*
G01X27893880Y-62138516D01*
G01X27891503Y-62180386D01*
G01X27889737Y-62204371D01*
G01X27889143Y-62211048D01*
G01X27889143Y-62211048D01*
G01X27877852Y-62283047D01*
G01X27862532Y-62345753D01*
G01X27849043Y-62390057D01*
G01X27843245Y-62406849D01*
G01X27843245Y-62406849D01*
G01X27843245Y-62406849D01*
G01X27909279Y-62432589D01*
G01X27929182Y-62435169D01*
G01X27929182Y-62435169D01*
G01X27985650Y-62405072D01*
G01X27996565Y-62385365D01*
G01X27996565Y-62385365D01*
G01X28008100Y-62337322D01*
G01X28015981Y-62273200D01*
G01X28020904Y-62203317D01*
G01X28023564Y-62137995D01*
G01X28024659Y-62087552D01*
G01X28024884Y-62062310D01*
G01X28024886Y-62061146D01*
G01X28024886Y-62061146D01*
G01X28024705Y-61956627D01*
G01X28024231Y-61868828D01*
G01X28023567Y-61797041D01*
G01X28022815Y-61740558D01*
G01X28022080Y-61698671D01*
G01X28021463Y-61670672D01*
G01X28021069Y-61655853D01*
G01X28020979Y-61652943D01*
G01X28020979Y-61652943D01*
G01X27995836Y-61587537D01*
G01X27949885Y-61564154D01*
G01X27927229Y-61561146D01*
G37*
G36*
G01X27358870Y-62608021D02*
G01X27358870Y-62608021D01*
G01X27268485Y-62611617D01*
G01X27186222Y-62621376D01*
G01X27112407Y-62635759D01*
G01X27047370Y-62653224D01*
G01X26991438Y-62672230D01*
G01X26944940Y-62691236D01*
G01X26908204Y-62708701D01*
G01X26881557Y-62723083D01*
G01X26865329Y-62732843D01*
G01X26859847Y-62736439D01*
G01X26859847Y-62736439D01*
G01X26859847Y-62736439D01*
G01X26796816Y-62790377D01*
G01X26750069Y-62849328D01*
G01X26717170Y-62909242D01*
G01X26695688Y-62966071D01*
G01X26683190Y-63015767D01*
G01X26677241Y-63054280D01*
G01X26675411Y-63077562D01*
G01X26675276Y-63082630D01*
G01X26675276Y-63082630D01*
G01X26683846Y-63162968D01*
G01X26706301Y-63233768D01*
G01X26737763Y-63294500D01*
G01X26773354Y-63344638D01*
G01X26808195Y-63383654D01*
G01X26837405Y-63411019D01*
G01X26856108Y-63426207D01*
G01X26860335Y-63429310D01*
G01X26860335Y-63429310D01*
G01X26919263Y-63464244D01*
G01X26983245Y-63492216D01*
G01X27049629Y-63514001D01*
G01X27115764Y-63530372D01*
G01X27178999Y-63542103D01*
G01X27236682Y-63549966D01*
G01X27286162Y-63554736D01*
G01X27324788Y-63557185D01*
G01X27349908Y-63558087D01*
G01X27358870Y-63558216D01*
G01X27358870Y-63558216D01*
G01X27358870Y-63558216D01*
G01X27447972Y-63554607D01*
G01X27529288Y-63544810D01*
G01X27602441Y-63530372D01*
G01X27667057Y-63512841D01*
G01X27722762Y-63493763D01*
G01X27769179Y-63474685D01*
G01X27805933Y-63457154D01*
G01X27832651Y-63442716D01*
G01X27848957Y-63432919D01*
G01X27854475Y-63429310D01*
G01X27854475Y-63429310D01*
G01X27854475Y-63429310D01*
G01X27918006Y-63375205D01*
G01X27965125Y-63316130D01*
G01X27998284Y-63256129D01*
G01X28019937Y-63199243D01*
G01X28032534Y-63149515D01*
G01X28038530Y-63110986D01*
G01X28040375Y-63087699D01*
G01X28040511Y-63082630D01*
G01X28040511Y-63082630D01*
G01X28031964Y-63002315D01*
G01X28009568Y-62931575D01*
G01X27978188Y-62870925D01*
G01X27942691Y-62820881D01*
G01X27907943Y-62781958D01*
G01X27878809Y-62754669D01*
G01X27860156Y-62739531D01*
G01X27855940Y-62736439D01*
G01X27855940Y-62736439D01*
G01X27797172Y-62701638D01*
G01X27733370Y-62673771D01*
G01X27667178Y-62652068D01*
G01X27601237Y-62635759D01*
G01X27538191Y-62624073D01*
G01X27480682Y-62616240D01*
G01X27431353Y-62611488D01*
G01X27392847Y-62609048D01*
G01X27367805Y-62608149D01*
G01X27358870Y-62608021D01*
G01X27358870Y-62608021D01*
G37*
%LPC*%
G36*
G01X27297347Y-62758412D02*
G01X27297347Y-62758412D01*
G01X27374840Y-62761039D01*
G01X27445604Y-62767578D01*
G01X27506127Y-62776014D01*
G01X27552896Y-62784331D01*
G01X27582399Y-62790515D01*
G01X27591292Y-62792591D01*
G01X27591292Y-62792591D01*
G01X27668593Y-62817040D01*
G01X27733448Y-62845685D01*
G01X27783139Y-62872994D01*
G01X27814948Y-62893435D01*
G01X27826155Y-62901478D01*
G01X27826155Y-62901478D01*
G01X27826155Y-62901478D01*
G01X27880669Y-62958558D01*
G01X27909660Y-63014794D01*
G01X27921190Y-63059048D01*
G01X27923317Y-63080184D01*
G01X27923323Y-63080677D01*
G01X27923323Y-63080677D01*
G01X27910292Y-63153996D01*
G01X27878307Y-63215021D01*
G01X27838030Y-63262658D01*
G01X27800122Y-63295813D01*
G01X27775245Y-63313394D01*
G01X27770979Y-63316029D01*
G01X27770979Y-63316029D01*
G01X27708508Y-63346377D01*
G01X27642550Y-63368885D01*
G01X27577043Y-63384725D01*
G01X27515927Y-63395068D01*
G01X27463140Y-63401086D01*
G01X27422623Y-63403950D01*
G01X27398314Y-63404831D01*
G01X27393050Y-63404896D01*
G01X27393050Y-63404896D01*
G01X27317244Y-63401972D01*
G01X27247738Y-63394796D01*
G01X27188837Y-63385760D01*
G01X27144845Y-63377255D01*
G01X27120070Y-63371673D01*
G01X27116194Y-63370716D01*
G01X27116194Y-63370716D01*
G01X27041292Y-63346216D01*
G01X26978343Y-63317451D01*
G01X26930042Y-63289997D01*
G01X26899085Y-63269435D01*
G01X26888167Y-63261341D01*
G01X26888167Y-63261341D01*
G01X26888167Y-63261341D01*
G01X26835023Y-63204129D01*
G01X26806760Y-63148065D01*
G01X26795520Y-63104083D01*
G01X26793446Y-63083119D01*
G01X26793440Y-63082630D01*
G01X26793440Y-63082630D01*
G01X26805928Y-63012086D01*
G01X26836580Y-62952321D01*
G01X26875179Y-62904907D01*
G01X26911508Y-62871416D01*
G01X26935348Y-62853420D01*
G01X26939436Y-62850697D01*
G01X26939436Y-62850697D01*
G01X27003868Y-62817110D01*
G01X27071478Y-62792857D01*
G01X27137691Y-62776417D01*
G01X27197934Y-62766273D01*
G01X27247631Y-62760903D01*
G01X27282210Y-62758789D01*
G01X27297094Y-62758412D01*
G01X27297347Y-62758412D01*
G37*
%LPD*%
G36*
G01X26793440Y-63850208D02*
G01X26793440Y-63850208D01*
G01X26729940Y-63877365D01*
G01X26708253Y-63919333D01*
G01X26706526Y-63927357D01*
G01X26706526Y-63927357D01*
G01X26690901Y-64035990D01*
G01X26681604Y-64109466D01*
G01X26676995Y-64154115D01*
G01X26675432Y-64176263D01*
G01X26675276Y-64182240D01*
G01X26675276Y-64182240D01*
G01X26675276Y-64182240D01*
G01X26691954Y-64237296D01*
G01X26693343Y-64239369D01*
G01X26693343Y-64239369D01*
G01X26745848Y-64263968D01*
G01X26751448Y-64264271D01*
G01X26751448Y-64264271D01*
G01X26805412Y-64262467D01*
G01X26863165Y-64260051D01*
G01X26867171Y-64259876D01*
G01X26867171Y-64259876D01*
G01X26934861Y-64257204D01*
G01X27004482Y-64254851D01*
G01X27065047Y-64253007D01*
G01X27105567Y-64251862D01*
G01X27116194Y-64251576D01*
G01X27116194Y-64251576D01*
G01X27194451Y-64249823D01*
G01X27265613Y-64248693D01*
G01X27325529Y-64248050D01*
G01X27370046Y-64247755D01*
G01X27395014Y-64247673D01*
G01X27398909Y-64247669D01*
G01X27522932Y-64247669D01*
G01X27522932Y-64247669D01*
G01X27618233Y-64248302D01*
G01X27700044Y-64249961D01*
G01X27768443Y-64252286D01*
G01X27823508Y-64254915D01*
G01X27865315Y-64257489D01*
G01X27893943Y-64259647D01*
G01X27909468Y-64261029D01*
G01X27912581Y-64261341D01*
G01X27912581Y-64261341D01*
G01X27911360Y-64351933D01*
G01X27908675Y-64416981D01*
G01X27905989Y-64456211D01*
G01X27904768Y-64469349D01*
G01X27904768Y-64469349D01*
G01X27904768Y-64469349D01*
G01X27948714Y-64478138D01*
G01X27948714Y-64478138D01*
G01X28009241Y-64449509D01*
G01X28024441Y-64406696D01*
G01X28024886Y-64400013D01*
G01X28024886Y-64400013D01*
G01X28024170Y-64349068D01*
G01X28023100Y-64286401D01*
G01X28022932Y-64276966D01*
G01X28022932Y-64276966D01*
G01X28021771Y-64197178D01*
G01X28021195Y-64133107D01*
G01X28021000Y-64091755D01*
G01X28020979Y-64079701D01*
G01X28020979Y-64079701D01*
G01X28021263Y-63985302D01*
G01X28021897Y-63919861D01*
G01X28022559Y-63880947D01*
G01X28022923Y-63866131D01*
G01X28022932Y-63865833D01*
G01X28022932Y-63865833D01*
G01X27975081Y-63856068D01*
G01X27975081Y-63856068D01*
G01X27926375Y-63886973D01*
G01X27908962Y-63943454D01*
G01X27906722Y-63971302D01*
G01X27906722Y-64108021D01*
G01X27906722Y-64108021D01*
G01X27864580Y-64108243D01*
G01X27799601Y-64108765D01*
G01X27731971Y-64109370D01*
G01X27681876Y-64109840D01*
G01X27667952Y-64109974D01*
G01X27667952Y-64109974D01*
G01X27581140Y-64110728D01*
G01X27502775Y-64111257D01*
G01X27435042Y-64111602D01*
G01X27380128Y-64111802D01*
G01X27340216Y-64111897D01*
G01X27317492Y-64111925D01*
G01X27312972Y-64111927D01*
G01X27312972Y-64111927D01*
G01X27230281Y-64111763D01*
G01X27152190Y-64111318D01*
G01X27079666Y-64110662D01*
G01X27013675Y-64109865D01*
G01X26955183Y-64108997D01*
G01X26905159Y-64108130D01*
G01X26864568Y-64107333D01*
G01X26834378Y-64106677D01*
G01X26815555Y-64106232D01*
G01X26809065Y-64106068D01*
G01X26809065Y-64106068D01*
G01X26809065Y-64106068D01*
G01X26820636Y-63997193D01*
G01X26828737Y-63924833D01*
G01X26833886Y-63881912D01*
G01X26836597Y-63861349D01*
G01X26837386Y-63856068D01*
G01X26837386Y-63856068D01*
G01X26837386Y-63856068D01*
G01X26793440Y-63850208D01*
G37*
G36*
G01X27471175Y-64805286D02*
G01X27471175Y-64805286D01*
G01X27395927Y-64808590D01*
G01X27326175Y-64816810D01*
G01X27265804Y-64827415D01*
G01X27218701Y-64837871D01*
G01X27188751Y-64845645D01*
G01X27179671Y-64848255D01*
G01X27179671Y-64848255D01*
G01X27106715Y-64874215D01*
G01X27042220Y-64903045D01*
G01X26989143Y-64930782D01*
G01X26950439Y-64953461D01*
G01X26929064Y-64967119D01*
G01X26925764Y-64969349D01*
G01X26925764Y-64969349D01*
G01X26866403Y-65017686D01*
G01X26817584Y-65068971D01*
G01X26780334Y-65116212D01*
G01X26755676Y-65152415D01*
G01X26744637Y-65170589D01*
G01X26744124Y-65171497D01*
G01X26744124Y-65171497D01*
G01X26713237Y-65239752D01*
G01X26693324Y-65306582D01*
G01X26681978Y-65366008D01*
G01X26676788Y-65412051D01*
G01X26675345Y-65438729D01*
G01X26675276Y-65442982D01*
G01X26675276Y-65442982D01*
G01X26701695Y-65509008D01*
G01X26739855Y-65524677D01*
G01X26744612Y-65525013D01*
G01X26744612Y-65525013D01*
G01X26800935Y-65517675D01*
G01X26803206Y-65517201D01*
G01X26803206Y-65517201D01*
G01X26795789Y-65447496D01*
G01X26795393Y-65437122D01*
G01X26795393Y-65437122D01*
G01X26802968Y-65358344D01*
G01X26822816Y-65289127D01*
G01X26850626Y-65229921D01*
G01X26882085Y-65181177D01*
G01X26912881Y-65143345D01*
G01X26938700Y-65116876D01*
G01X26955231Y-65102221D01*
G01X26958968Y-65099232D01*
G01X26958968Y-65099232D01*
G01X27020541Y-65058989D01*
G01X27085324Y-65026958D01*
G01X27150071Y-65002238D01*
G01X27211538Y-64983926D01*
G01X27266479Y-64971122D01*
G01X27311650Y-64962926D01*
G01X27343805Y-64958435D01*
G01X27359699Y-64956748D01*
G01X27360823Y-64956654D01*
G01X27360823Y-64956654D01*
G01X27313719Y-65021676D01*
G01X27280623Y-65086600D01*
G01X27259062Y-65147371D01*
G01X27246565Y-65199935D01*
G01X27240660Y-65240238D01*
G01X27238875Y-65264227D01*
G01X27238753Y-65269154D01*
G01X27238753Y-65269154D01*
G01X27247482Y-65347690D01*
G01X27268908Y-65415177D01*
G01X27295888Y-65469395D01*
G01X27321282Y-65508121D01*
G01X27337946Y-65529134D01*
G01X27340804Y-65532337D01*
G01X27340804Y-65532337D01*
G01X27397415Y-65578964D01*
G01X27458563Y-65609920D01*
G01X27517352Y-65628414D01*
G01X27566887Y-65637656D01*
G01X27600275Y-65640857D01*
G01X27610823Y-65641224D01*
G01X27610823Y-65641224D01*
G01X27688943Y-65633352D01*
G01X27758704Y-65613494D01*
G01X27817900Y-65587292D01*
G01X27864321Y-65560384D01*
G01X27895761Y-65538411D01*
G01X27910010Y-65527014D01*
G01X27910628Y-65526478D01*
G01X27910628Y-65526478D01*
G01X27960746Y-65470632D01*
G01X27995961Y-65409957D01*
G01X28018901Y-65349842D01*
G01X28032198Y-65295677D01*
G01X28038481Y-65252850D01*
G01X28040381Y-65226749D01*
G01X28040511Y-65221302D01*
G01X28040511Y-65221302D01*
G01X28033565Y-65142819D01*
G01X28018020Y-65080279D01*
G01X28001813Y-65037813D01*
G01X27992883Y-65019554D01*
G01X27992659Y-65019154D01*
G01X27992659Y-65019154D01*
G01X27948361Y-64959785D01*
G01X27902445Y-64918194D01*
G01X27869095Y-64895072D01*
G01X27860823Y-64890247D01*
G01X27860823Y-64890247D01*
G01X27792347Y-64859211D01*
G01X27731432Y-64838490D01*
G01X27690763Y-64827508D01*
G01X27681136Y-64825306D01*
G01X27681136Y-64825306D01*
G01X27610859Y-64814075D01*
G01X27545186Y-64808101D01*
G01X27495133Y-64805726D01*
G01X27471715Y-64805288D01*
G01X27471175Y-64805286D01*
G37*
%LPC*%
G36*
G01X27473128Y-64954701D02*
G01X27473128Y-64954701D01*
G01X27551825Y-64958620D01*
G01X27610167Y-64964439D01*
G01X27639927Y-64968517D01*
G01X27642073Y-64968861D01*
G01X27642073Y-64968861D01*
G01X27714049Y-64985832D01*
G01X27765783Y-65003324D01*
G01X27782210Y-65009876D01*
G01X27782210Y-65009876D01*
G01X27843859Y-65049157D01*
G01X27878817Y-65085730D01*
G01X27886214Y-65095814D01*
G01X27886214Y-65095814D01*
G01X27912654Y-65159042D01*
G01X27922107Y-65214759D01*
G01X27923323Y-65236927D01*
G01X27923323Y-65236927D01*
G01X27910353Y-65315540D01*
G01X27881819Y-65373280D01*
G01X27853285Y-65408863D01*
G01X27840315Y-65421009D01*
G01X27840315Y-65421009D01*
G01X27840315Y-65421009D01*
G01X27776878Y-65457991D01*
G01X27714358Y-65477659D01*
G01X27665149Y-65485480D01*
G01X27641645Y-65486923D01*
G01X27641097Y-65486927D01*
G01X27641097Y-65486927D01*
G01X27559881Y-65477151D01*
G01X27496851Y-65454906D01*
G01X27454073Y-65430813D01*
G01X27433616Y-65415496D01*
G01X27432112Y-65414173D01*
G01X27432112Y-65414173D01*
G01X27386382Y-65354565D01*
G01X27362898Y-65294361D01*
G01X27354247Y-65247799D01*
G01X27353011Y-65229115D01*
G01X27353011Y-65229115D01*
G01X27353011Y-65229115D01*
G01X27362244Y-65158269D01*
G01X27385225Y-65092604D01*
G01X27414871Y-65035774D01*
G01X27444100Y-64991437D01*
G01X27465831Y-64963247D01*
G01X27473128Y-64954701D01*
G37*
%LPD*%
G36*
G01X27511214Y-65806263D02*
G01X27511214Y-65806263D01*
G01X27457350Y-65822442D01*
G01X27456038Y-65823353D01*
G01X27456038Y-65823353D01*
G01X27433223Y-65875171D01*
G01X27433089Y-65878529D01*
G01X27433089Y-65878529D01*
G01X27436661Y-65934499D01*
G01X27436995Y-65939564D01*
G01X27436995Y-65939564D01*
G01X27440352Y-66011911D01*
G01X27440901Y-66044326D01*
G01X27440901Y-66044544D01*
G01X27440901Y-66044544D01*
G01X27437597Y-66123920D01*
G01X27431269Y-66177952D01*
G01X27427293Y-66200496D01*
G01X27427229Y-66200794D01*
G01X27427229Y-66200794D01*
G01X27483847Y-66206630D01*
G01X27486800Y-66206654D01*
G01X27486800Y-66206654D01*
G01X27541095Y-66188173D01*
G01X27542952Y-66186634D01*
G01X27542952Y-66186634D01*
G01X27564864Y-66136161D01*
G01X27564925Y-66134388D01*
G01X27564925Y-66134388D01*
G01X27560550Y-66076826D01*
G01X27560042Y-66071400D01*
G01X27560042Y-66071400D01*
G01X27555604Y-66001790D01*
G01X27555159Y-65980091D01*
G01X27555159Y-65980091D01*
G01X27558534Y-65902466D01*
G01X27565284Y-65844247D01*
G01X27570347Y-65814294D01*
G01X27570784Y-65812122D01*
G01X27570784Y-65812122D01*
G01X27513348Y-65806287D01*
G01X27511214Y-65806263D01*
G37*
G36*
G01X27358870Y-66275990D02*
G01X27358870Y-66275990D01*
G01X27268485Y-66279585D01*
G01X27186222Y-66289345D01*
G01X27112407Y-66303728D01*
G01X27047370Y-66321193D01*
G01X26991438Y-66340199D01*
G01X26944940Y-66359204D01*
G01X26908204Y-66376669D01*
G01X26881557Y-66391052D01*
G01X26865329Y-66400812D01*
G01X26859847Y-66404408D01*
G01X26859847Y-66404408D01*
G01X26859847Y-66404408D01*
G01X26796816Y-66458346D01*
G01X26750069Y-66517297D01*
G01X26717170Y-66577211D01*
G01X26695688Y-66634040D01*
G01X26683190Y-66683735D01*
G01X26677241Y-66722249D01*
G01X26675411Y-66745531D01*
G01X26675276Y-66750599D01*
G01X26675276Y-66750599D01*
G01X26683846Y-66830937D01*
G01X26706301Y-66901736D01*
G01X26737763Y-66962469D01*
G01X26773354Y-67012607D01*
G01X26808195Y-67051622D01*
G01X26837405Y-67078988D01*
G01X26856108Y-67094175D01*
G01X26860335Y-67097279D01*
G01X26860335Y-67097279D01*
G01X26919263Y-67132212D01*
G01X26983245Y-67160185D01*
G01X27049629Y-67181970D01*
G01X27115764Y-67198341D01*
G01X27178999Y-67210072D01*
G01X27236682Y-67217935D01*
G01X27286162Y-67222704D01*
G01X27324788Y-67225154D01*
G01X27349908Y-67226056D01*
G01X27358870Y-67226185D01*
G01X27358870Y-67226185D01*
G01X27358870Y-67226185D01*
G01X27447972Y-67222576D01*
G01X27529288Y-67212779D01*
G01X27602441Y-67198341D01*
G01X27667057Y-67180810D01*
G01X27722762Y-67161732D01*
G01X27769179Y-67142654D01*
G01X27805933Y-67125122D01*
G01X27832651Y-67110685D01*
G01X27848957Y-67100888D01*
G01X27854475Y-67097279D01*
G01X27854475Y-67097279D01*
G01X27854475Y-67097279D01*
G01X27918006Y-67043173D01*
G01X27965125Y-66984099D01*
G01X27998284Y-66924098D01*
G01X28019937Y-66867212D01*
G01X28032534Y-66817484D01*
G01X28038530Y-66778955D01*
G01X28040375Y-66755667D01*
G01X28040511Y-66750599D01*
G01X28040511Y-66750599D01*
G01X28031964Y-66670284D01*
G01X28009568Y-66599544D01*
G01X27978188Y-66538894D01*
G01X27942691Y-66488850D01*
G01X27907943Y-66449926D01*
G01X27878809Y-66422638D01*
G01X27860156Y-66407500D01*
G01X27855940Y-66404408D01*
G01X27855940Y-66404408D01*
G01X27797172Y-66369606D01*
G01X27733370Y-66341740D01*
G01X27667178Y-66320037D01*
G01X27601237Y-66303728D01*
G01X27538191Y-66292042D01*
G01X27480682Y-66284208D01*
G01X27431353Y-66279457D01*
G01X27392847Y-66277017D01*
G01X27367805Y-66276118D01*
G01X27358870Y-66275990D01*
G01X27358870Y-66275990D01*
G37*
%LPC*%
G36*
G01X27297347Y-66426380D02*
G01X27297347Y-66426380D01*
G01X27374840Y-66429008D01*
G01X27445604Y-66435547D01*
G01X27506127Y-66443983D01*
G01X27552896Y-66452300D01*
G01X27582399Y-66458484D01*
G01X27591292Y-66460560D01*
G01X27591292Y-66460560D01*
G01X27668593Y-66485009D01*
G01X27733448Y-66513654D01*
G01X27783139Y-66540962D01*
G01X27814948Y-66561404D01*
G01X27826155Y-66569447D01*
G01X27826155Y-66569447D01*
G01X27826155Y-66569447D01*
G01X27880669Y-66626526D01*
G01X27909660Y-66682762D01*
G01X27921190Y-66727017D01*
G01X27923317Y-66748153D01*
G01X27923323Y-66748646D01*
G01X27923323Y-66748646D01*
G01X27910292Y-66821965D01*
G01X27878307Y-66882989D01*
G01X27838030Y-66930626D01*
G01X27800122Y-66963782D01*
G01X27775245Y-66981363D01*
G01X27770979Y-66983997D01*
G01X27770979Y-66983997D01*
G01X27708508Y-67014345D01*
G01X27642550Y-67036854D01*
G01X27577043Y-67052693D01*
G01X27515927Y-67063037D01*
G01X27463140Y-67069054D01*
G01X27422623Y-67071918D01*
G01X27398314Y-67072800D01*
G01X27393050Y-67072865D01*
G01X27393050Y-67072865D01*
G01X27317244Y-67069941D01*
G01X27247738Y-67062765D01*
G01X27188837Y-67053728D01*
G01X27144845Y-67045223D01*
G01X27120070Y-67039642D01*
G01X27116194Y-67038685D01*
G01X27116194Y-67038685D01*
G01X27041292Y-67014185D01*
G01X26978343Y-66985419D01*
G01X26930042Y-66957966D01*
G01X26899085Y-66937404D01*
G01X26888167Y-66929310D01*
G01X26888167Y-66929310D01*
G01X26888167Y-66929310D01*
G01X26835023Y-66872098D01*
G01X26806760Y-66816034D01*
G01X26795520Y-66772052D01*
G01X26793446Y-66751087D01*
G01X26793440Y-66750599D01*
G01X26793440Y-66750599D01*
G01X26805928Y-66680055D01*
G01X26836580Y-66620289D01*
G01X26875179Y-66572876D01*
G01X26911508Y-66539385D01*
G01X26935348Y-66521389D01*
G01X26939436Y-66518665D01*
G01X26939436Y-66518665D01*
G01X27003868Y-66485079D01*
G01X27071478Y-66460825D01*
G01X27137691Y-66444386D01*
G01X27197934Y-66434241D01*
G01X27247631Y-66428872D01*
G01X27282210Y-66426758D01*
G01X27297094Y-66426381D01*
G01X27297347Y-66426380D01*
G37*
%LPD*%
G36*
G01X27927229Y-67367786D02*
G01X27927229Y-67367786D01*
G01X27900862Y-67369740D01*
G01X27900862Y-67369740D01*
G01X27824822Y-67451353D01*
G01X27755325Y-67524967D01*
G01X27692211Y-67590905D01*
G01X27635318Y-67649494D01*
G01X27584486Y-67701059D01*
G01X27539555Y-67745925D01*
G01X27500362Y-67784419D01*
G01X27466748Y-67816866D01*
G01X27438552Y-67843592D01*
G01X27415613Y-67864921D01*
G01X27397770Y-67881180D01*
G01X27384863Y-67892695D01*
G01X27376730Y-67899790D01*
G01X27373211Y-67902791D01*
G01X27373030Y-67902943D01*
G01X27373030Y-67902943D01*
G01X27302059Y-67953855D01*
G01X27235334Y-67988639D01*
G01X27176273Y-68010367D01*
G01X27128298Y-68022111D01*
G01X27094827Y-68026943D01*
G01X27079281Y-68027935D01*
G01X27078597Y-68027943D01*
G01X27078597Y-68027943D01*
G01X26997709Y-68018233D01*
G01X26935425Y-67996137D01*
G01X26893456Y-67972206D01*
G01X26873513Y-67956991D01*
G01X26872054Y-67955677D01*
G01X26872054Y-67955677D01*
G01X26826458Y-67895341D01*
G01X26803871Y-67836542D01*
G01X26796210Y-67793491D01*
G01X26795393Y-67779896D01*
G01X26795393Y-67779896D01*
G01X26804933Y-67708878D01*
G01X26824408Y-67650149D01*
G01X26840098Y-67616001D01*
G01X26842268Y-67611927D01*
G01X26842268Y-67611927D01*
G01X26886219Y-67549389D01*
G01X26930059Y-67504582D01*
G01X26959897Y-67480080D01*
G01X26965315Y-67476185D01*
G01X26965315Y-67476185D01*
G01X26932158Y-67412007D01*
G01X26899944Y-67400052D01*
G01X26898909Y-67400013D01*
G01X26898909Y-67400013D01*
G01X26842375Y-67419544D01*
G01X26794173Y-67462513D01*
G01X26760619Y-67505482D01*
G01X26748030Y-67525013D01*
G01X26748030Y-67525013D01*
G01X26748030Y-67525013D01*
G01X26715390Y-67593538D01*
G01X26694348Y-67660241D01*
G01X26682358Y-67719312D01*
G01X26676873Y-67764942D01*
G01X26675349Y-67791322D01*
G01X26675276Y-67795521D01*
G01X26675276Y-67795521D01*
G01X26683462Y-67875267D01*
G01X26703555Y-67944140D01*
G01X26728858Y-67999712D01*
G01X26752672Y-68039557D01*
G01X26768300Y-68061249D01*
G01X26770979Y-68064564D01*
G01X26770979Y-68064564D01*
G01X26825324Y-68112863D01*
G01X26885787Y-68144929D01*
G01X26944944Y-68164087D01*
G01X26995367Y-68173661D01*
G01X27029628Y-68176976D01*
G01X27040511Y-68177357D01*
G01X27040511Y-68177357D01*
G01X27116896Y-68172036D01*
G01X27179418Y-68160536D01*
G01X27220352Y-68149551D01*
G01X27232405Y-68145619D01*
G01X27232405Y-68145619D01*
G01X27294411Y-68116954D01*
G01X27352643Y-68081484D01*
G01X27398367Y-68049297D01*
G01X27422852Y-68030480D01*
G01X27424788Y-68028919D01*
G01X27424788Y-68028919D01*
G01X27480093Y-67981573D01*
G01X27531394Y-67934344D01*
G01X27575257Y-67891812D01*
G01X27608248Y-67858556D01*
G01X27626932Y-67839155D01*
G01X27629866Y-67836048D01*
G01X27629866Y-67836048D01*
G01X27671980Y-67790108D01*
G01X27717487Y-67738958D01*
G01X27763396Y-67686352D01*
G01X27806713Y-67636042D01*
G01X27844445Y-67591780D01*
G01X27873599Y-67557319D01*
G01X27891182Y-67536411D01*
G01X27895003Y-67531849D01*
G01X27895003Y-67531849D01*
G01X27897511Y-67597605D01*
G01X27898620Y-67661635D01*
G01X27898900Y-67702506D01*
G01X27898909Y-67707630D01*
G01X27898909Y-67707630D01*
G01X27898158Y-67805919D01*
G01X27896290Y-67884941D01*
G01X27893880Y-67945157D01*
G01X27891503Y-67987027D01*
G01X27889737Y-68011011D01*
G01X27889143Y-68017689D01*
G01X27889143Y-68017689D01*
G01X27877852Y-68089687D01*
G01X27862532Y-68152393D01*
G01X27849043Y-68196697D01*
G01X27843245Y-68213490D01*
G01X27843245Y-68213490D01*
G01X27843245Y-68213490D01*
G01X27909279Y-68239229D01*
G01X27929182Y-68241810D01*
G01X27929182Y-68241810D01*
G01X27985650Y-68211712D01*
G01X27996565Y-68192005D01*
G01X27996565Y-68192005D01*
G01X28008100Y-68143963D01*
G01X28015981Y-68079840D01*
G01X28020904Y-68009958D01*
G01X28023564Y-67944635D01*
G01X28024659Y-67894193D01*
G01X28024884Y-67868950D01*
G01X28024886Y-67867786D01*
G01X28024886Y-67867786D01*
G01X28024705Y-67763267D01*
G01X28024231Y-67675468D01*
G01X28023567Y-67603681D01*
G01X28022815Y-67547198D01*
G01X28022080Y-67505312D01*
G01X28021463Y-67477313D01*
G01X28021069Y-67462494D01*
G01X28020979Y-67459583D01*
G01X28020979Y-67459583D01*
G01X27995836Y-67394178D01*
G01X27949885Y-67370795D01*
G01X27927229Y-67367786D01*
G37*
G36*
G01X27511214Y-68404896D02*
G01X27511214Y-68404896D01*
G01X27457350Y-68421075D01*
G01X27456038Y-68421986D01*
G01X27456038Y-68421986D01*
G01X27433223Y-68473804D01*
G01X27433089Y-68477161D01*
G01X27433089Y-68477161D01*
G01X27436661Y-68533132D01*
G01X27436995Y-68538197D01*
G01X27436995Y-68538197D01*
G01X27440352Y-68610544D01*
G01X27440901Y-68642959D01*
G01X27440901Y-68643177D01*
G01X27440901Y-68643177D01*
G01X27437597Y-68722553D01*
G01X27431269Y-68776585D01*
G01X27427293Y-68799129D01*
G01X27427229Y-68799427D01*
G01X27427229Y-68799427D01*
G01X27483847Y-68805262D01*
G01X27486800Y-68805287D01*
G01X27486800Y-68805286D01*
G01X27541095Y-68786806D01*
G01X27542952Y-68785267D01*
G01X27542952Y-68785267D01*
G01X27564864Y-68734794D01*
G01X27564925Y-68733021D01*
G01X27564925Y-68733021D01*
G01X27560550Y-68675458D01*
G01X27560042Y-68670033D01*
G01X27560042Y-68670033D01*
G01X27555604Y-68600423D01*
G01X27555159Y-68578724D01*
G01X27555159Y-68578724D01*
G01X27558534Y-68501099D01*
G01X27565284Y-68442880D01*
G01X27570347Y-68412927D01*
G01X27570784Y-68410755D01*
G01X27570784Y-68410755D01*
G01X27513348Y-68404920D01*
G01X27511214Y-68404896D01*
G37*
G36*
G01X27927229Y-68897083D02*
G01X27927229Y-68897083D01*
G01X27900862Y-68899036D01*
G01X27900862Y-68899036D01*
G01X27824822Y-68980650D01*
G01X27755325Y-69054264D01*
G01X27692211Y-69120202D01*
G01X27635318Y-69178791D01*
G01X27584486Y-69230356D01*
G01X27539555Y-69275222D01*
G01X27500362Y-69313716D01*
G01X27466748Y-69346163D01*
G01X27438552Y-69372889D01*
G01X27415613Y-69394218D01*
G01X27397770Y-69410477D01*
G01X27384863Y-69421992D01*
G01X27376730Y-69429087D01*
G01X27373211Y-69432088D01*
G01X27373030Y-69432240D01*
G01X27373030Y-69432240D01*
G01X27302059Y-69483152D01*
G01X27235334Y-69517936D01*
G01X27176273Y-69539664D01*
G01X27128298Y-69551408D01*
G01X27094827Y-69556240D01*
G01X27079281Y-69557232D01*
G01X27078597Y-69557240D01*
G01X27078597Y-69557240D01*
G01X26997709Y-69547530D01*
G01X26935425Y-69525434D01*
G01X26893456Y-69501502D01*
G01X26873513Y-69486288D01*
G01X26872054Y-69484974D01*
G01X26872054Y-69484974D01*
G01X26826458Y-69424638D01*
G01X26803871Y-69365839D01*
G01X26796210Y-69322788D01*
G01X26795393Y-69309193D01*
G01X26795393Y-69309193D01*
G01X26804933Y-69238175D01*
G01X26824408Y-69179446D01*
G01X26840098Y-69145297D01*
G01X26842268Y-69141224D01*
G01X26842268Y-69141224D01*
G01X26886219Y-69078686D01*
G01X26930059Y-69033879D01*
G01X26959897Y-69009377D01*
G01X26965315Y-69005482D01*
G01X26965315Y-69005482D01*
G01X26932158Y-68941304D01*
G01X26899944Y-68929349D01*
G01X26898909Y-68929310D01*
G01X26898909Y-68929310D01*
G01X26842375Y-68948841D01*
G01X26794173Y-68991810D01*
G01X26760619Y-69034779D01*
G01X26748030Y-69054310D01*
G01X26748030Y-69054310D01*
G01X26748030Y-69054310D01*
G01X26715390Y-69122835D01*
G01X26694348Y-69189538D01*
G01X26682358Y-69248609D01*
G01X26676873Y-69294239D01*
G01X26675349Y-69320619D01*
G01X26675276Y-69324818D01*
G01X26675276Y-69324818D01*
G01X26683462Y-69404564D01*
G01X26703555Y-69473437D01*
G01X26728858Y-69529009D01*
G01X26752672Y-69568854D01*
G01X26768300Y-69590546D01*
G01X26770979Y-69593861D01*
G01X26770979Y-69593861D01*
G01X26825324Y-69642160D01*
G01X26885787Y-69674226D01*
G01X26944944Y-69693384D01*
G01X26995367Y-69702958D01*
G01X27029628Y-69706273D01*
G01X27040511Y-69706654D01*
G01X27040511Y-69706654D01*
G01X27116896Y-69701333D01*
G01X27179418Y-69689833D01*
G01X27220352Y-69678848D01*
G01X27232405Y-69674915D01*
G01X27232405Y-69674915D01*
G01X27294411Y-69646251D01*
G01X27352643Y-69610781D01*
G01X27398367Y-69578594D01*
G01X27422852Y-69559777D01*
G01X27424788Y-69558216D01*
G01X27424788Y-69558216D01*
G01X27480093Y-69510870D01*
G01X27531394Y-69463641D01*
G01X27575257Y-69421109D01*
G01X27608248Y-69387853D01*
G01X27626932Y-69368452D01*
G01X27629866Y-69365345D01*
G01X27629866Y-69365345D01*
G01X27671980Y-69319405D01*
G01X27717487Y-69268255D01*
G01X27763396Y-69215649D01*
G01X27806713Y-69165339D01*
G01X27844445Y-69121077D01*
G01X27873599Y-69086616D01*
G01X27891182Y-69065708D01*
G01X27895003Y-69061146D01*
G01X27895003Y-69061146D01*
G01X27897511Y-69126901D01*
G01X27898620Y-69190932D01*
G01X27898900Y-69231803D01*
G01X27898909Y-69236927D01*
G01X27898909Y-69236927D01*
G01X27898158Y-69335216D01*
G01X27896290Y-69414238D01*
G01X27893880Y-69474454D01*
G01X27891503Y-69516324D01*
G01X27889737Y-69540308D01*
G01X27889143Y-69546986D01*
G01X27889143Y-69546986D01*
G01X27877852Y-69618984D01*
G01X27862532Y-69681690D01*
G01X27849043Y-69725994D01*
G01X27843245Y-69742786D01*
G01X27843245Y-69742786D01*
G01X27843245Y-69742786D01*
G01X27909279Y-69768526D01*
G01X27929182Y-69771107D01*
G01X27929182Y-69771107D01*
G01X27985650Y-69741009D01*
G01X27996565Y-69721302D01*
G01X27996565Y-69721302D01*
G01X28008100Y-69673260D01*
G01X28015981Y-69609137D01*
G01X28020904Y-69539255D01*
G01X28023564Y-69473932D01*
G01X28024659Y-69423490D01*
G01X28024884Y-69398247D01*
G01X28024886Y-69397083D01*
G01X28024886Y-69397083D01*
G01X28024705Y-69292564D01*
G01X28024231Y-69204765D01*
G01X28023567Y-69132978D01*
G01X28022815Y-69076495D01*
G01X28022080Y-69034608D01*
G01X28021463Y-69006610D01*
G01X28021069Y-68991791D01*
G01X28020979Y-68988880D01*
G01X28020979Y-68988880D01*
G01X27995836Y-68923475D01*
G01X27949885Y-68900091D01*
G01X27927229Y-68897083D01*
G37*
G36*
G01X27471175Y-70002552D02*
G01X27471175Y-70002552D01*
G01X27395927Y-70005855D01*
G01X27326175Y-70014076D01*
G01X27265804Y-70024681D01*
G01X27218701Y-70035137D01*
G01X27188751Y-70042911D01*
G01X27179671Y-70045521D01*
G01X27179671Y-70045521D01*
G01X27106715Y-70071481D01*
G01X27042220Y-70100311D01*
G01X26989143Y-70128047D01*
G01X26950439Y-70150726D01*
G01X26929064Y-70164384D01*
G01X26925764Y-70166615D01*
G01X26925764Y-70166615D01*
G01X26866403Y-70214951D01*
G01X26817584Y-70266236D01*
G01X26780334Y-70313477D01*
G01X26755676Y-70349681D01*
G01X26744637Y-70367854D01*
G01X26744124Y-70368763D01*
G01X26744124Y-70368763D01*
G01X26713237Y-70437017D01*
G01X26693324Y-70503847D01*
G01X26681978Y-70563274D01*
G01X26676788Y-70609316D01*
G01X26675345Y-70635995D01*
G01X26675276Y-70640247D01*
G01X26675276Y-70640247D01*
G01X26701695Y-70706273D01*
G01X26739855Y-70721943D01*
G01X26744612Y-70722279D01*
G01X26744612Y-70722279D01*
G01X26800935Y-70714941D01*
G01X26803206Y-70714466D01*
G01X26803206Y-70714466D01*
G01X26795789Y-70644761D01*
G01X26795393Y-70634388D01*
G01X26795393Y-70634388D01*
G01X26802968Y-70555610D01*
G01X26822816Y-70486393D01*
G01X26850626Y-70427187D01*
G01X26882085Y-70378442D01*
G01X26912881Y-70340611D01*
G01X26938700Y-70314142D01*
G01X26955231Y-70299486D01*
G01X26958968Y-70296497D01*
G01X26958968Y-70296497D01*
G01X27020541Y-70256255D01*
G01X27085324Y-70224224D01*
G01X27150071Y-70199503D01*
G01X27211538Y-70181192D01*
G01X27266479Y-70168388D01*
G01X27311650Y-70160191D01*
G01X27343805Y-70155700D01*
G01X27359699Y-70154014D01*
G01X27360823Y-70153919D01*
G01X27360823Y-70153919D01*
G01X27313719Y-70218942D01*
G01X27280623Y-70283866D01*
G01X27259062Y-70344636D01*
G01X27246565Y-70397201D01*
G01X27240660Y-70437504D01*
G01X27238875Y-70461493D01*
G01X27238753Y-70466419D01*
G01X27238753Y-70466419D01*
G01X27247482Y-70544956D01*
G01X27268908Y-70612443D01*
G01X27295888Y-70666660D01*
G01X27321282Y-70705386D01*
G01X27337946Y-70726400D01*
G01X27340804Y-70729603D01*
G01X27340804Y-70729603D01*
G01X27397415Y-70776230D01*
G01X27458563Y-70807185D01*
G01X27517352Y-70825679D01*
G01X27566887Y-70834922D01*
G01X27600275Y-70838122D01*
G01X27610823Y-70838490D01*
G01X27610823Y-70838490D01*
G01X27688943Y-70830617D01*
G01X27758704Y-70810760D01*
G01X27817900Y-70784557D01*
G01X27864321Y-70757650D01*
G01X27895761Y-70735677D01*
G01X27910010Y-70724280D01*
G01X27910628Y-70723744D01*
G01X27910628Y-70723744D01*
G01X27960746Y-70667897D01*
G01X27995961Y-70607223D01*
G01X28018901Y-70547108D01*
G01X28032198Y-70492943D01*
G01X28038481Y-70450115D01*
G01X28040381Y-70424015D01*
G01X28040511Y-70418568D01*
G01X28040511Y-70418568D01*
G01X28033565Y-70340084D01*
G01X28018020Y-70277545D01*
G01X28001813Y-70235079D01*
G01X27992883Y-70216819D01*
G01X27992659Y-70216419D01*
G01X27992659Y-70216419D01*
G01X27948361Y-70157050D01*
G01X27902445Y-70115459D01*
G01X27869095Y-70092338D01*
G01X27860823Y-70087513D01*
G01X27860823Y-70087513D01*
G01X27792347Y-70056476D01*
G01X27731432Y-70035755D01*
G01X27690763Y-70024773D01*
G01X27681136Y-70022572D01*
G01X27681136Y-70022572D01*
G01X27610859Y-70011340D01*
G01X27545186Y-70005367D01*
G01X27495133Y-70002992D01*
G01X27471715Y-70002553D01*
G01X27471175Y-70002552D01*
G37*
%LPC*%
G36*
G01X27473128Y-70151966D02*
G01X27473128Y-70151966D01*
G01X27551825Y-70155886D01*
G01X27610167Y-70161704D01*
G01X27639927Y-70165783D01*
G01X27642073Y-70166126D01*
G01X27642073Y-70166126D01*
G01X27714049Y-70183098D01*
G01X27765783Y-70200590D01*
G01X27782210Y-70207142D01*
G01X27782210Y-70207142D01*
G01X27843859Y-70246422D01*
G01X27878817Y-70282996D01*
G01X27886214Y-70293079D01*
G01X27886214Y-70293079D01*
G01X27912654Y-70356308D01*
G01X27922107Y-70412025D01*
G01X27923323Y-70434193D01*
G01X27923323Y-70434193D01*
G01X27910353Y-70512806D01*
G01X27881819Y-70570545D01*
G01X27853285Y-70606129D01*
G01X27840315Y-70618275D01*
G01X27840315Y-70618275D01*
G01X27840315Y-70618275D01*
G01X27776878Y-70655256D01*
G01X27714358Y-70674924D01*
G01X27665149Y-70682746D01*
G01X27641645Y-70684189D01*
G01X27641097Y-70684193D01*
G01X27641097Y-70684193D01*
G01X27559881Y-70674417D01*
G01X27496851Y-70652172D01*
G01X27454073Y-70628079D01*
G01X27433616Y-70612761D01*
G01X27432112Y-70611439D01*
G01X27432112Y-70611439D01*
G01X27386382Y-70551830D01*
G01X27362898Y-70491627D01*
G01X27354247Y-70445065D01*
G01X27353011Y-70426380D01*
G01X27353011Y-70426380D01*
G01X27353011Y-70426380D01*
G01X27362244Y-70355535D01*
G01X27385225Y-70289869D01*
G01X27414871Y-70233040D01*
G01X27444100Y-70188702D01*
G01X27465831Y-70160512D01*
G01X27473128Y-70151966D01*
G37*
%LPD*%
G36*
G01X28724593Y-52992299D02*
G01X28724593Y-52992299D01*
G01X28718849Y-53053544D01*
G01X28718733Y-53060658D01*
G01X28718733Y-53060658D01*
G01X28745202Y-53128033D01*
G01X28786108Y-53145908D01*
G01X28793929Y-53146595D01*
G01X28793929Y-53146595D01*
G01X28821272Y-53145619D01*
G01X28821272Y-53145619D01*
G01X28864241Y-53144642D01*
G01X28864241Y-53144642D01*
G01X28808655Y-53189686D01*
G01X28769046Y-53232062D01*
G01X28753416Y-53251556D01*
G01X28753401Y-53251576D01*
G01X28753401Y-53251576D01*
G01X28717628Y-53318534D01*
G01X28705416Y-53367961D01*
G01X28704085Y-53383900D01*
G01X28704085Y-53383900D01*
G01X28719450Y-53447290D01*
G01X28725081Y-53456166D01*
G01X28725081Y-53456166D01*
G01X28777509Y-53482252D01*
G01X28782210Y-53482533D01*
G01X28782210Y-53482533D01*
G01X28842470Y-53461913D01*
G01X28872054Y-53442494D01*
G01X28872054Y-53442494D01*
G01X28839323Y-53379942D01*
G01X28833970Y-53346063D01*
G01X28833968Y-53345814D01*
G01X28833968Y-53345814D01*
G01X28850072Y-53281005D01*
G01X28874154Y-53239125D01*
G01X28877913Y-53233998D01*
G01X28877913Y-53233998D01*
G01X28928605Y-53183775D01*
G01X28975220Y-53150803D01*
G01X28994124Y-53139759D01*
G01X28994124Y-53139759D01*
G01X29046780Y-53138806D01*
G01X29113030Y-53138228D01*
G01X29178343Y-53137931D01*
G01X29228186Y-53137822D01*
G01X29248030Y-53137806D01*
G01X29248030Y-53137806D01*
G01X29248030Y-53137806D01*
G01X29345953Y-53139570D01*
G01X29429624Y-53144191D01*
G01X29499250Y-53150666D01*
G01X29555037Y-53157991D01*
G01X29597189Y-53165162D01*
G01X29625915Y-53171173D01*
G01X29641418Y-53175022D01*
G01X29644515Y-53175892D01*
G01X29644515Y-53175892D01*
G01X29659411Y-53113237D01*
G01X29660140Y-53099720D01*
G01X29660140Y-53099720D01*
G01X29643370Y-53032818D01*
G01X29634261Y-53022084D01*
G01X29634261Y-53022084D01*
G01X29574818Y-53003888D01*
G01X29545882Y-53002064D01*
G01X29545882Y-53002064D01*
G01X29493462Y-53002536D01*
G01X29426751Y-53003440D01*
G01X29388755Y-53004008D01*
G01X29388167Y-53004017D01*
G01X29388167Y-53004017D01*
G01X29301742Y-53005179D01*
G01X29239292Y-53005754D01*
G01X29202414Y-53005950D01*
G01X29192366Y-53005970D01*
G01X29192366Y-53005970D01*
G01X29101838Y-53005510D01*
G01X29019512Y-53004276D01*
G01X28946005Y-53002486D01*
G01X28881932Y-53000359D01*
G01X28827909Y-52998112D01*
G01X28784553Y-52995965D01*
G01X28752480Y-52994136D01*
G01X28732306Y-52992842D01*
G01X28724647Y-52992303D01*
G01X28724593Y-52992298D01*
G37*
G36*
G01X29392561Y-53591908D02*
G01X29392561Y-53591908D01*
G01X29311251Y-53603472D01*
G01X29261681Y-53625620D01*
G01X29242891Y-53639536D01*
G01X29242659Y-53639759D01*
G01X29242659Y-53639759D01*
G01X29202637Y-53694620D01*
G01X29178353Y-53747191D01*
G01X29169913Y-53771570D01*
G01X29169905Y-53771595D01*
G01X29169905Y-53771595D01*
G01X29155599Y-53833625D01*
G01X29143799Y-53899682D01*
G01X29134338Y-53965671D01*
G01X29127048Y-54027499D01*
G01X29121763Y-54081072D01*
G01X29118315Y-54122297D01*
G01X29116536Y-54147081D01*
G01X29116194Y-54152455D01*
G01X29116194Y-54152455D01*
G01X29022662Y-54147677D01*
G01X28954682Y-54136455D01*
G01X28910031Y-54123455D01*
G01X28886482Y-54113344D01*
G01X28881331Y-54110463D01*
G01X28881331Y-54110463D01*
G01X28842705Y-54062566D01*
G01X28823572Y-54000656D01*
G01X28817081Y-53949139D01*
G01X28816390Y-53931752D01*
G01X28816390Y-53931752D01*
G01X28829452Y-53865511D01*
G01X28848985Y-53821491D01*
G01X28852034Y-53816029D01*
G01X28852034Y-53816029D01*
G01X28898534Y-53762769D01*
G01X28942179Y-53732807D01*
G01X28956038Y-53725697D01*
G01X28956038Y-53725697D01*
G01X28921346Y-53654736D01*
G01X28883891Y-53634878D01*
G01X28875960Y-53633900D01*
G01X28875960Y-53633900D01*
G01X28812778Y-53655901D01*
G01X28770409Y-53698978D01*
G01X28751644Y-53728743D01*
G01X28750960Y-53730091D01*
G01X28750960Y-53730091D01*
G01X28726330Y-53796486D01*
G01X28712317Y-53861897D01*
G01X28705927Y-53916122D01*
G01X28704166Y-53948962D01*
G01X28704085Y-53954213D01*
G01X28704085Y-53954213D01*
G01X28710828Y-54042320D01*
G01X28727144Y-54111027D01*
G01X28747166Y-54160815D01*
G01X28765026Y-54192166D01*
G01X28774857Y-54205564D01*
G01X28775374Y-54206166D01*
G01X28775374Y-54206166D01*
G01X28826142Y-54243687D01*
G01X28889057Y-54267159D01*
G01X28951943Y-54279877D01*
G01X29002622Y-54285137D01*
G01X29028917Y-54286234D01*
G01X29030257Y-54286244D01*
G01X29030257Y-54286244D01*
G01X29083368Y-54285471D01*
G01X29142449Y-54284395D01*
G01X29147933Y-54284291D01*
G01X29147933Y-54284291D01*
G01X29232231Y-54282925D01*
G01X29283134Y-54282414D01*
G01X29300749Y-54282338D01*
G01X29300765Y-54282338D01*
G01X29300765Y-54282338D01*
G01X29396579Y-54284651D01*
G01X29476651Y-54290564D01*
G01X29541062Y-54298534D01*
G01X29589890Y-54307017D01*
G01X29623213Y-54314473D01*
G01X29641112Y-54319357D01*
G01X29644515Y-54320423D01*
G01X29644515Y-54320424D01*
G01X29659348Y-54258132D01*
G01X29660140Y-54242299D01*
G01X29660140Y-54242299D01*
G01X29642424Y-54183796D01*
G01X29639143Y-54180287D01*
G01X29639143Y-54180287D01*
G01X29582730Y-54158114D01*
G01X29572249Y-54156361D01*
G01X29572249Y-54156361D01*
G01X29617813Y-54089443D01*
G01X29647187Y-54025894D01*
G01X29663926Y-53970598D01*
G01X29671582Y-53928444D01*
G01X29673710Y-53904317D01*
G01X29673811Y-53900502D01*
G01X29673811Y-53900502D01*
G01X29664351Y-53809712D01*
G01X29638963Y-53738744D01*
G01X29602142Y-53685155D01*
G01X29558377Y-53646506D01*
G01X29512163Y-53620355D01*
G01X29467990Y-53604260D01*
G01X29430352Y-53595782D01*
G01X29403739Y-53592478D01*
G01X29392645Y-53591908D01*
G01X29392561Y-53591908D01*
G37*
%LPC*%
G36*
G01X29392561Y-53732533D02*
G01X29392561Y-53732533D01*
G01X29469838Y-53747116D01*
G01X29513667Y-53773111D01*
G01X29525374Y-53784291D01*
G01X29525374Y-53784291D01*
G01X29557079Y-53846143D01*
G01X29567399Y-53899672D01*
G01X29568343Y-53916127D01*
G01X29568343Y-53916127D01*
G01X29558999Y-53992119D01*
G01X29536718Y-54055549D01*
G01X29510124Y-54103931D01*
G01X29487843Y-54134783D01*
G01X29478499Y-54145619D01*
G01X29478499Y-54145619D01*
G01X29478499Y-54145619D01*
G01X29416303Y-54143856D01*
G01X29384749Y-54143666D01*
G01X29384749Y-54143666D01*
G01X29310457Y-54145662D01*
G01X29250400Y-54148553D01*
G01X29219938Y-54150419D01*
G01X29218733Y-54150502D01*
G01X29218733Y-54150502D01*
G01X29226576Y-54079019D01*
G01X29228499Y-54063588D01*
G01X29228499Y-54063588D01*
G01X29236351Y-54000914D01*
G01X29238265Y-53984974D01*
G01X29238265Y-53984974D01*
G01X29248375Y-53919130D01*
G01X29249983Y-53911732D01*
G01X29249983Y-53911732D01*
G01X29265280Y-53855921D01*
G01X29266097Y-53853138D01*
G01X29266097Y-53853138D01*
G01X29288133Y-53802002D01*
G01X29288558Y-53801381D01*
G01X29288558Y-53801381D01*
G01X29315413Y-53765248D01*
G01X29315413Y-53765248D01*
G01X29349104Y-53739369D01*
G01X29349104Y-53739369D01*
G01X29392561Y-53732533D01*
G37*
%LPD*%
G36*
G01X29514632Y-54509877D02*
G01X29514632Y-54509877D01*
G01X29461189Y-54540213D01*
G01X29434528Y-54588588D01*
G01X29430647Y-54599720D01*
G01X29430647Y-54599720D01*
G01X29488160Y-54637791D01*
G01X29520932Y-54680525D01*
G01X29528792Y-54694935D01*
G01X29528792Y-54694935D01*
G01X29551415Y-54763444D01*
G01X29560635Y-54821837D01*
G01X29562472Y-54852397D01*
G01X29562483Y-54853627D01*
G01X29562483Y-54853627D01*
G01X29551753Y-54930959D01*
G01X29532624Y-54978970D01*
G01X29524397Y-54992787D01*
G01X29524397Y-54992787D01*
G01X29469487Y-55033325D01*
G01X29418383Y-55045274D01*
G01X29406233Y-55046009D01*
G01X29406233Y-55046009D01*
G01X29341859Y-55022585D01*
G01X29315053Y-54993754D01*
G01X29314436Y-54992787D01*
G01X29314436Y-54992787D01*
G01X29284981Y-54929456D01*
G01X29268552Y-54877504D01*
G01X29265120Y-54863881D01*
G01X29265120Y-54863881D01*
G01X29247858Y-54793586D01*
G01X29232660Y-54738064D01*
G01X29225189Y-54712386D01*
G01X29225081Y-54712025D01*
G01X29225081Y-54712025D01*
G01X29193890Y-54646942D01*
G01X29158138Y-54601911D01*
G01X29138467Y-54582884D01*
G01X29138167Y-54582631D01*
G01X29138167Y-54582631D01*
G01X29077901Y-54549273D01*
G01X29017470Y-54533942D01*
G01X28976231Y-54529626D01*
G01X28968733Y-54529408D01*
G01X28968733Y-54529408D01*
G01X28895604Y-54543251D01*
G01X28838156Y-54574753D01*
G01X28798741Y-54608871D01*
G01X28779712Y-54630563D01*
G01X28778304Y-54632435D01*
G01X28778304Y-54632435D01*
G01X28740678Y-54699444D01*
G01X28718566Y-54764849D01*
G01X28707844Y-54819942D01*
G01X28704389Y-54856012D01*
G01X28704085Y-54865345D01*
G01X28704085Y-54865345D01*
G01X28711616Y-54938825D01*
G01X28727595Y-55000544D01*
G01X28742105Y-55040241D01*
G01X28746077Y-55049427D01*
G01X28746077Y-55049427D01*
G01X28794352Y-55112591D01*
G01X28840733Y-55136209D01*
G01X28862266Y-55139759D01*
G01X28862288Y-55139759D01*
G01X28862288Y-55139759D01*
G01X28916414Y-55110699D01*
G01X28942162Y-55062957D01*
G01X28946272Y-55049916D01*
G01X28946272Y-55049916D01*
G01X28890700Y-55010855D01*
G01X28858564Y-54969746D01*
G01X28852522Y-54959584D01*
G01X28852522Y-54959584D01*
G01X28826778Y-54891320D01*
G01X28817574Y-54837654D01*
G01X28816390Y-54817494D01*
G01X28816390Y-54817494D01*
G01X28829452Y-54746369D01*
G01X28849640Y-54705056D01*
G01X28853499Y-54699330D01*
G01X28853499Y-54699330D01*
G01X28909042Y-54659243D01*
G01X28953216Y-54649729D01*
G01X28957991Y-54649525D01*
G01X28957991Y-54649525D01*
G01X29022185Y-54672158D01*
G01X29050725Y-54701257D01*
G01X29051741Y-54702748D01*
G01X29051741Y-54702748D01*
G01X29082299Y-54764382D01*
G01X29099781Y-54816008D01*
G01X29103987Y-54831654D01*
G01X29103987Y-54831654D01*
G01X29121919Y-54901948D01*
G01X29137379Y-54957470D01*
G01X29144894Y-54983149D01*
G01X29145003Y-54983509D01*
G01X29145003Y-54983509D01*
G01X29176354Y-55050334D01*
G01X29211001Y-55095636D01*
G01X29227993Y-55112888D01*
G01X29228011Y-55112904D01*
G01X29228011Y-55112904D01*
G01X29288352Y-55147871D01*
G01X29346874Y-55162720D01*
G01X29381982Y-55166073D01*
G01X29384749Y-55166127D01*
G01X29384749Y-55166127D01*
G01X29464924Y-55154515D01*
G01X29526815Y-55127243D01*
G01X29570097Y-55095650D01*
G01X29594442Y-55071077D01*
G01X29600081Y-55064076D01*
G01X29600081Y-55064076D01*
G01X29636061Y-54999650D01*
G01X29657886Y-54934568D01*
G01X29669093Y-54877431D01*
G01X29673222Y-54836841D01*
G01X29673811Y-54821400D01*
G01X29673811Y-54821400D01*
G01X29673811Y-54821400D01*
G01X29667644Y-54742331D01*
G01X29653610Y-54676860D01*
G01X29638411Y-54629905D01*
G01X29628747Y-54606387D01*
G01X29627913Y-54604603D01*
G01X29627913Y-54604603D01*
G01X29578648Y-54538367D01*
G01X29534507Y-54513600D01*
G01X29514652Y-54509877D01*
G01X29514632Y-54509877D01*
G37*
G36*
G01X29200179Y-55337025D02*
G01X29200179Y-55337025D01*
G01X29121703Y-55341986D01*
G01X29055643Y-55353458D01*
G01X29006616Y-55366326D01*
G01X28979238Y-55375473D01*
G01X28975081Y-55377064D01*
G01X28975081Y-55377064D01*
G01X28904362Y-55413349D01*
G01X28853896Y-55450112D01*
G01X28825356Y-55476512D01*
G01X28819319Y-55483021D01*
G01X28819319Y-55483021D01*
G01X28774585Y-55544483D01*
G01X28745966Y-55596195D01*
G01X28733812Y-55623058D01*
G01X28733382Y-55624134D01*
G01X28733382Y-55624134D01*
G01X28713297Y-55694566D01*
G01X28705452Y-55750861D01*
G01X28704087Y-55777085D01*
G01X28704085Y-55777455D01*
G01X28704085Y-55777455D01*
G01X28711257Y-55850590D01*
G01X28727034Y-55912465D01*
G01X28742812Y-55955296D01*
G01X28749983Y-55971302D01*
G01X28749983Y-55971302D01*
G01X28749983Y-55971302D01*
G01X28798279Y-56031934D01*
G01X28847366Y-56057681D01*
G01X28877469Y-56063495D01*
G01X28879866Y-56063588D01*
G01X28879866Y-56063588D01*
G01X28937228Y-56035020D01*
G01X28961602Y-55985402D01*
G01X28965804Y-55966908D01*
G01X28965804Y-55966908D01*
G01X28901084Y-55933307D01*
G01X28863929Y-55895287D01*
G01X28854964Y-55882435D01*
G01X28854964Y-55882435D01*
G01X28826983Y-55814968D01*
G01X28817431Y-55762591D01*
G01X28816390Y-55745228D01*
G01X28816390Y-55745228D01*
G01X28829708Y-55673894D01*
G01X28860016Y-55616867D01*
G01X28892840Y-55577143D01*
G01X28913709Y-55557714D01*
G01X28915511Y-55556263D01*
G01X28915511Y-55556263D01*
G01X28977010Y-55520344D01*
G01X29042496Y-55497873D01*
G01X29102945Y-55485698D01*
G01X29149336Y-55480663D01*
G01X29172645Y-55479613D01*
G01X29173811Y-55479603D01*
G01X29173811Y-55479603D01*
G01X29266782Y-55485834D01*
G01X29341725Y-55501341D01*
G01X29398987Y-55521346D01*
G01X29438911Y-55541070D01*
G01X29461844Y-55555734D01*
G01X29468245Y-55560658D01*
G01X29468245Y-55560658D01*
G01X29517762Y-55619099D01*
G01X29545934Y-55679985D01*
G01X29558779Y-55732147D01*
G01X29562320Y-55764418D01*
G01X29562483Y-55769642D01*
G01X29562483Y-55769642D01*
G01X29553000Y-55839703D01*
G01X29538818Y-55885573D01*
G01X29536604Y-55891224D01*
G01X29536604Y-55891224D01*
G01X29495682Y-55951183D01*
G01X29461715Y-55977540D01*
G01X29457991Y-55979603D01*
G01X29457991Y-55979603D01*
G01X29503184Y-56044465D01*
G01X29535430Y-56058537D01*
G01X29538069Y-56058705D01*
G01X29538069Y-56058705D01*
G01X29596006Y-56033116D01*
G01X29629862Y-55987502D01*
G01X29639143Y-55967884D01*
G01X29639143Y-55967884D01*
G01X29658593Y-55900347D01*
G01X29668937Y-55836131D01*
G01X29673050Y-55786657D01*
G01X29673809Y-55763346D01*
G01X29673811Y-55762806D01*
G01X29673811Y-55762806D01*
G01X29665671Y-55680450D01*
G01X29645137Y-55608779D01*
G01X29618043Y-55549331D01*
G01X29590219Y-55503640D01*
G01X29567499Y-55473244D01*
G01X29555713Y-55459677D01*
G01X29555159Y-55459095D01*
G01X29555159Y-55459095D01*
G01X29499377Y-55414669D01*
G01X29435585Y-55382588D01*
G01X29369611Y-55360842D01*
G01X29307283Y-55347423D01*
G01X29254429Y-55340321D01*
G01X29216879Y-55337525D01*
G01X29200459Y-55337026D01*
G01X29200179Y-55337025D01*
G37*
G36*
G01X29392561Y-56230580D02*
G01X29392561Y-56230580D01*
G01X29311251Y-56242144D01*
G01X29261681Y-56264292D01*
G01X29242891Y-56278208D01*
G01X29242659Y-56278431D01*
G01X29242659Y-56278431D01*
G01X29202637Y-56333292D01*
G01X29178353Y-56385863D01*
G01X29169913Y-56410242D01*
G01X29169905Y-56410267D01*
G01X29169905Y-56410267D01*
G01X29155599Y-56472297D01*
G01X29143799Y-56538354D01*
G01X29134338Y-56604343D01*
G01X29127048Y-56666171D01*
G01X29121763Y-56719744D01*
G01X29118315Y-56760969D01*
G01X29116536Y-56785753D01*
G01X29116194Y-56791127D01*
G01X29116194Y-56791127D01*
G01X29022662Y-56786349D01*
G01X28954682Y-56775127D01*
G01X28910031Y-56762127D01*
G01X28886482Y-56752015D01*
G01X28881331Y-56749134D01*
G01X28881331Y-56749134D01*
G01X28842705Y-56701238D01*
G01X28823572Y-56639328D01*
G01X28817081Y-56587811D01*
G01X28816390Y-56570423D01*
G01X28816390Y-56570424D01*
G01X28829452Y-56504183D01*
G01X28848985Y-56460163D01*
G01X28852034Y-56454701D01*
G01X28852034Y-56454701D01*
G01X28898534Y-56401441D01*
G01X28942179Y-56371478D01*
G01X28956038Y-56364369D01*
G01X28956038Y-56364369D01*
G01X28921346Y-56293408D01*
G01X28883891Y-56273549D01*
G01X28875960Y-56272572D01*
G01X28875960Y-56272572D01*
G01X28812778Y-56294573D01*
G01X28770409Y-56337650D01*
G01X28751644Y-56367415D01*
G01X28750960Y-56368763D01*
G01X28750960Y-56368763D01*
G01X28726330Y-56435158D01*
G01X28712317Y-56500568D01*
G01X28705927Y-56554794D01*
G01X28704166Y-56587634D01*
G01X28704085Y-56592884D01*
G01X28704085Y-56592884D01*
G01X28710828Y-56680992D01*
G01X28727144Y-56749699D01*
G01X28747166Y-56799487D01*
G01X28765026Y-56830838D01*
G01X28774857Y-56844236D01*
G01X28775374Y-56844838D01*
G01X28775374Y-56844838D01*
G01X28826142Y-56882359D01*
G01X28889057Y-56905831D01*
G01X28951943Y-56918549D01*
G01X29002622Y-56923809D01*
G01X29028917Y-56924906D01*
G01X29030257Y-56924916D01*
G01X29030257Y-56924916D01*
G01X29083368Y-56924143D01*
G01X29142449Y-56923067D01*
G01X29147933Y-56922963D01*
G01X29147933Y-56922963D01*
G01X29232231Y-56921597D01*
G01X29283134Y-56921086D01*
G01X29300749Y-56921009D01*
G01X29300765Y-56921009D01*
G01X29300765Y-56921009D01*
G01X29396579Y-56923323D01*
G01X29476651Y-56929236D01*
G01X29541062Y-56937205D01*
G01X29589890Y-56945689D01*
G01X29623213Y-56953144D01*
G01X29641112Y-56958029D01*
G01X29644515Y-56959095D01*
G01X29644515Y-56959095D01*
G01X29659348Y-56896803D01*
G01X29660140Y-56880970D01*
G01X29660140Y-56880970D01*
G01X29642424Y-56822468D01*
G01X29639143Y-56818959D01*
G01X29639143Y-56818959D01*
G01X29582730Y-56796786D01*
G01X29572249Y-56795033D01*
G01X29572249Y-56795033D01*
G01X29617813Y-56728115D01*
G01X29647187Y-56664566D01*
G01X29663926Y-56609270D01*
G01X29671582Y-56567116D01*
G01X29673710Y-56542989D01*
G01X29673811Y-56539174D01*
G01X29673811Y-56539174D01*
G01X29664351Y-56448384D01*
G01X29638963Y-56377416D01*
G01X29602142Y-56323827D01*
G01X29558377Y-56285178D01*
G01X29512163Y-56259027D01*
G01X29467990Y-56242932D01*
G01X29430352Y-56234454D01*
G01X29403739Y-56231150D01*
G01X29392645Y-56230580D01*
G01X29392561Y-56230580D01*
G37*
%LPC*%
G36*
G01X29392561Y-56371205D02*
G01X29392561Y-56371205D01*
G01X29469838Y-56385788D01*
G01X29513667Y-56411783D01*
G01X29525374Y-56422963D01*
G01X29525374Y-56422963D01*
G01X29557079Y-56484814D01*
G01X29567399Y-56538344D01*
G01X29568343Y-56554799D01*
G01X29568343Y-56554799D01*
G01X29558999Y-56630791D01*
G01X29536718Y-56694220D01*
G01X29510124Y-56742603D01*
G01X29487843Y-56773455D01*
G01X29478499Y-56784291D01*
G01X29478499Y-56784291D01*
G01X29478499Y-56784291D01*
G01X29416303Y-56782528D01*
G01X29384749Y-56782338D01*
G01X29384749Y-56782338D01*
G01X29310457Y-56784333D01*
G01X29250400Y-56787225D01*
G01X29219938Y-56789091D01*
G01X29218733Y-56789174D01*
G01X29218733Y-56789174D01*
G01X29226576Y-56717691D01*
G01X29228499Y-56702259D01*
G01X29228499Y-56702259D01*
G01X29236351Y-56639585D01*
G01X29238265Y-56623646D01*
G01X29238265Y-56623646D01*
G01X29248375Y-56557802D01*
G01X29249983Y-56550404D01*
G01X29249983Y-56550404D01*
G01X29265280Y-56494593D01*
G01X29266097Y-56491810D01*
G01X29266097Y-56491810D01*
G01X29288133Y-56440673D01*
G01X29288558Y-56440052D01*
G01X29288558Y-56440052D01*
G01X29315413Y-56403920D01*
G01X29315413Y-56403920D01*
G01X29349104Y-56378041D01*
G01X29349104Y-56378041D01*
G01X29392561Y-56371205D01*
G37*
%LPD*%
G36*
G01X28173811Y-57188588D02*
G01X28173811Y-57188588D01*
G01X28168095Y-57250363D01*
G01X28167952Y-57258900D01*
G01X28167952Y-57258900D01*
G01X28192590Y-57328819D01*
G01X28233067Y-57349428D01*
G01X28244124Y-57350697D01*
G01X28244124Y-57350697D01*
G01X28295879Y-57349364D01*
G01X28350028Y-57347798D01*
G01X28351058Y-57347767D01*
G01X28351058Y-57347767D01*
G01X28416390Y-57345881D01*
G01X28486175Y-57343924D01*
G01X28549515Y-57342177D01*
G01X28595511Y-57340924D01*
G01X28613265Y-57340443D01*
G01X28613265Y-57340443D01*
G01X28613265Y-57340443D01*
G01X28690811Y-57338653D01*
G01X28764247Y-57337430D01*
G01X28829613Y-57336666D01*
G01X28882950Y-57336254D01*
G01X28920296Y-57336084D01*
G01X28937692Y-57336049D01*
G01X28938460Y-57336048D01*
G01X29249983Y-57336049D01*
G01X29249983Y-57336049D01*
G01X29346663Y-57337812D01*
G01X29429582Y-57342434D01*
G01X29498843Y-57348909D01*
G01X29554551Y-57356233D01*
G01X29596807Y-57363404D01*
G01X29625714Y-57369415D01*
G01X29641376Y-57373264D01*
G01X29644515Y-57374134D01*
G01X29644515Y-57374134D01*
G01X29659470Y-57311494D01*
G01X29660140Y-57298939D01*
G01X29660140Y-57298939D01*
G01X29644293Y-57232347D01*
G01X29636214Y-57221791D01*
G01X29636214Y-57221791D01*
G01X29577749Y-57201681D01*
G01X29556624Y-57200306D01*
G01X29556624Y-57200306D01*
G01X29514042Y-57200509D01*
G01X29448936Y-57200994D01*
G01X29379683Y-57201572D01*
G01X29324655Y-57202056D01*
G01X29302229Y-57202259D01*
G01X29302229Y-57202259D01*
G01X29302229Y-57202259D01*
G01X29208483Y-57203055D01*
G01X29131125Y-57203598D01*
G01X29070121Y-57203938D01*
G01X29025433Y-57204121D01*
G01X28997026Y-57204197D01*
G01X28984865Y-57204212D01*
G01X28984358Y-57204213D01*
G01X28751936Y-57204213D01*
G01X28751936Y-57204213D01*
G01X28633269Y-57203856D01*
G01X28531221Y-57202876D01*
G01X28444659Y-57201410D01*
G01X28372451Y-57199596D01*
G01X28313467Y-57197568D01*
G01X28266572Y-57195465D01*
G01X28230637Y-57193422D01*
G01X28204528Y-57191577D01*
G01X28187115Y-57190065D01*
G01X28177264Y-57189025D01*
G01X28173844Y-57188592D01*
G01X28173811Y-57188588D01*
G37*
G36*
G01X28734358Y-57614369D02*
G01X28734358Y-57614369D01*
G01X28719245Y-57677534D01*
G01X28718733Y-57686634D01*
G01X28718733Y-57686634D01*
G01X28744116Y-57750822D01*
G01X28791628Y-57774823D01*
G01X28818313Y-57778431D01*
G01X28818343Y-57778431D01*
G01X28818343Y-57778431D01*
G01X28778660Y-57837415D01*
G01X28750843Y-57891705D01*
G01X28737264Y-57923424D01*
G01X28736311Y-57925892D01*
G01X28736311Y-57925892D01*
G01X28715139Y-57999650D01*
G01X28706147Y-58058220D01*
G01X28704117Y-58089580D01*
G01X28704085Y-58091908D01*
G01X28704085Y-58091908D01*
G01X28716369Y-58174688D01*
G01X28746096Y-58236250D01*
G01X28782575Y-58278644D01*
G01X28815115Y-58303919D01*
G01X28833026Y-58314126D01*
G01X28833968Y-58314564D01*
G01X28833968Y-58314564D01*
G01X28791729Y-58368827D01*
G01X28760662Y-58424440D01*
G01X28744052Y-58460826D01*
G01X28742171Y-58465443D01*
G01X28742171Y-58465443D01*
G01X28718901Y-58540223D01*
G01X28707792Y-58601267D01*
G01X28704346Y-58639754D01*
G01X28704085Y-58648549D01*
G01X28704085Y-58648549D01*
G01X28715300Y-58724400D01*
G01X28739538Y-58780930D01*
G01X28762691Y-58815254D01*
G01X28770979Y-58824818D01*
G01X28770979Y-58824818D01*
G01X28824521Y-58860481D01*
G01X28887050Y-58880770D01*
G01X28943872Y-58890022D01*
G01X28980296Y-58892572D01*
G01X28986311Y-58892689D01*
G01X28986311Y-58892689D01*
G01X29028628Y-58891726D01*
G01X29099979Y-58890009D01*
G01X29130354Y-58889271D01*
G01X29130354Y-58889271D01*
G01X29219464Y-58887354D01*
G01X29284753Y-58886334D01*
G01X29325856Y-58885928D01*
G01X29342410Y-58885853D01*
G01X29342757Y-58885853D01*
G01X29342757Y-58885853D01*
G01X29430458Y-58888481D01*
G01X29505259Y-58895020D01*
G01X29565605Y-58903456D01*
G01X29609943Y-58911773D01*
G01X29636716Y-58917956D01*
G01X29644515Y-58920033D01*
G01X29644515Y-58920033D01*
G01X29659348Y-58855720D01*
G01X29660140Y-58841908D01*
G01X29660140Y-58841908D01*
G01X29644291Y-58776923D01*
G01X29637190Y-58767201D01*
G01X29637190Y-58767201D01*
G01X29579640Y-58745720D01*
G01X29558577Y-58744252D01*
G01X29558577Y-58744252D01*
G01X29505504Y-58744806D01*
G01X29437832Y-58746147D01*
G01X29369306Y-58747793D01*
G01X29313669Y-58749260D01*
G01X29284668Y-58750069D01*
G01X29283186Y-58750111D01*
G01X29283186Y-58750111D01*
G01X29175654Y-58753081D01*
G01X29104438Y-58754827D01*
G01X29062699Y-58755674D01*
G01X29043601Y-58755946D01*
G01X29040022Y-58755970D01*
G01X29040022Y-58755970D01*
G01X28955529Y-58746430D01*
G01X28900379Y-58726956D01*
G01X28873860Y-58711266D01*
G01X28871077Y-58709095D01*
G01X28871077Y-58709095D01*
G01X28830064Y-58650374D01*
G01X28817351Y-58599642D01*
G01X28816390Y-58586049D01*
G01X28816390Y-58586049D01*
G01X28826365Y-58519128D01*
G01X28850504Y-58454891D01*
G01X28880126Y-58399407D01*
G01X28906549Y-58358744D01*
G01X28921094Y-58338972D01*
G01X28921858Y-58338002D01*
G01X28921858Y-58338002D01*
G01X29020827Y-58339336D01*
G01X29105359Y-58340325D01*
G01X29175673Y-58341021D01*
G01X29231988Y-58341476D01*
G01X29274523Y-58341740D01*
G01X29303497Y-58341866D01*
G01X29319128Y-58341905D01*
G01X29322249Y-58341908D01*
G01X29322249Y-58341908D01*
G01X29410714Y-58342779D01*
G01X29488283Y-58344976D01*
G01X29553061Y-58347875D01*
G01X29603150Y-58350852D01*
G01X29636655Y-58353283D01*
G01X29651680Y-58354544D01*
G01X29652327Y-58354603D01*
G01X29652327Y-58354603D01*
G01X29658071Y-58293358D01*
G01X29658186Y-58286244D01*
G01X29658186Y-58286244D01*
G01X29633548Y-58217812D01*
G01X29593071Y-58197642D01*
G01X29582015Y-58196400D01*
G01X29582015Y-58196400D01*
G01X29524354Y-58198423D01*
G01X29501448Y-58199330D01*
G01X29501448Y-58199330D01*
G01X29437056Y-58201400D01*
G01X29369975Y-58202971D01*
G01X29319101Y-58203939D01*
G01X29302718Y-58204213D01*
G01X29302718Y-58204213D01*
G01X29227022Y-58205166D01*
G01X29155827Y-58205744D01*
G01X29096210Y-58206041D01*
G01X29055249Y-58206150D01*
G01X29040022Y-58206166D01*
G01X29040022Y-58206166D01*
G01X29040022Y-58206166D01*
G01X28948938Y-58194106D01*
G01X28886707Y-58163686D01*
G01X28847834Y-58123546D01*
G01X28826823Y-58082326D01*
G01X28818179Y-58048666D01*
G01X28816404Y-58031206D01*
G01X28816390Y-58030384D01*
G01X28816390Y-58030384D01*
G01X28826827Y-57964379D01*
G01X28852083Y-57900714D01*
G01X28883077Y-57845541D01*
G01X28910723Y-57805006D01*
G01X28925941Y-57785261D01*
G01X28926741Y-57784291D01*
G01X28926741Y-57784291D01*
G01X29025484Y-57785625D01*
G01X29109423Y-57786614D01*
G01X29178907Y-57787310D01*
G01X29234283Y-57787765D01*
G01X29275899Y-57788029D01*
G01X29304102Y-57788155D01*
G01X29319240Y-57788194D01*
G01X29322249Y-57788197D01*
G01X29322249Y-57788197D01*
G01X29410714Y-57789001D01*
G01X29488283Y-57791029D01*
G01X29553061Y-57793705D01*
G01X29603150Y-57796453D01*
G01X29636655Y-57798697D01*
G01X29651680Y-57799861D01*
G01X29652327Y-57799916D01*
G01X29652327Y-57799916D01*
G01X29658083Y-57738993D01*
G01X29658186Y-57732533D01*
G01X29658186Y-57732533D01*
G01X29633548Y-57664101D01*
G01X29593071Y-57643931D01*
G01X29582015Y-57642689D01*
G01X29582015Y-57642689D01*
G01X29537139Y-57644065D01*
G01X29465311Y-57646517D01*
G01X29435042Y-57647572D01*
G01X29435042Y-57647572D01*
G01X29356814Y-57649860D01*
G01X29284509Y-57651291D01*
G01X29223735Y-57652067D01*
G01X29180097Y-57652387D01*
G01X29159202Y-57652454D01*
G01X29158186Y-57652455D01*
G01X29158186Y-57652455D01*
G01X29049866Y-57650941D01*
G01X28960209Y-57646926D01*
G01X28887798Y-57641201D01*
G01X28831216Y-57634554D01*
G01X28789046Y-57627775D01*
G01X28759869Y-57621654D01*
G01X28742268Y-57616982D01*
G01X28734826Y-57614547D01*
G01X28734358Y-57614369D01*
G37*
G36*
G01X28503890Y-59146595D02*
G01X28503890Y-59146595D01*
G01X28442176Y-59167617D01*
G01X28429183Y-59178334D01*
G01X28429183Y-59178334D01*
G01X28400109Y-59236740D01*
G01X28398421Y-59252064D01*
G01X28398421Y-59252064D01*
G01X28420515Y-59311780D01*
G01X28429183Y-59321888D01*
G01X28429183Y-59321888D01*
G01X28487226Y-59349907D01*
G01X28503890Y-59351673D01*
G01X28503890Y-59351674D01*
G01X28566423Y-59331566D01*
G01X28581038Y-59319935D01*
G01X28581038Y-59319935D01*
G01X28610705Y-59262153D01*
G01X28612288Y-59248158D01*
G01X28612288Y-59248158D01*
G01X28591718Y-59187723D01*
G01X28582503Y-59176381D01*
G01X28582503Y-59176381D01*
G01X28523836Y-59148648D01*
G01X28503890Y-59146595D01*
G37*
G36*
G01X28724593Y-59171986D02*
G01X28724593Y-59171986D01*
G01X28718849Y-59233231D01*
G01X28718733Y-59240345D01*
G01X28718733Y-59240345D01*
G01X28743056Y-59311752D01*
G01X28783014Y-59332799D01*
G01X28793929Y-59334095D01*
G01X28793929Y-59334095D01*
G01X28851523Y-59331508D01*
G01X28875960Y-59330189D01*
G01X28875960Y-59330189D01*
G01X28942274Y-59326886D01*
G01X29005439Y-59324154D01*
G01X29045306Y-59322566D01*
G01X29050276Y-59322377D01*
G01X29050276Y-59322377D01*
G01X29127852Y-59320053D01*
G01X29192464Y-59318902D01*
G01X29235307Y-59318512D01*
G01X29248030Y-59318470D01*
G01X29248030Y-59318470D01*
G01X29345953Y-59320234D01*
G01X29429624Y-59324855D01*
G01X29499250Y-59331331D01*
G01X29555037Y-59338655D01*
G01X29597189Y-59345826D01*
G01X29625915Y-59351837D01*
G01X29641418Y-59355686D01*
G01X29644515Y-59356556D01*
G01X29644515Y-59356556D01*
G01X29659411Y-59293901D01*
G01X29660140Y-59280384D01*
G01X29660140Y-59280384D01*
G01X29643370Y-59213166D01*
G01X29634261Y-59202259D01*
G01X29634261Y-59202259D01*
G01X29574818Y-59183620D01*
G01X29545882Y-59181752D01*
G01X29545882Y-59181752D01*
G01X29493462Y-59182342D01*
G01X29426751Y-59183472D01*
G01X29388755Y-59184182D01*
G01X29388167Y-59184193D01*
G01X29388167Y-59184193D01*
G01X29301742Y-59185645D01*
G01X29239292Y-59186364D01*
G01X29202414Y-59186608D01*
G01X29192366Y-59186634D01*
G01X29192366Y-59186634D01*
G01X29101838Y-59186142D01*
G01X29019512Y-59184819D01*
G01X28946005Y-59182902D01*
G01X28881932Y-59180622D01*
G01X28827909Y-59178215D01*
G01X28784553Y-59175915D01*
G01X28752480Y-59173954D01*
G01X28732306Y-59172568D01*
G01X28724647Y-59171990D01*
G01X28724593Y-59171986D01*
G37*
G36*
G01X29200179Y-59555775D02*
G01X29200179Y-59555775D01*
G01X29121703Y-59560736D01*
G01X29055643Y-59572208D01*
G01X29006616Y-59585076D01*
G01X28979238Y-59594223D01*
G01X28975081Y-59595814D01*
G01X28975081Y-59595814D01*
G01X28904362Y-59632099D01*
G01X28853896Y-59668862D01*
G01X28825356Y-59695262D01*
G01X28819319Y-59701771D01*
G01X28819319Y-59701771D01*
G01X28774585Y-59763233D01*
G01X28745966Y-59814945D01*
G01X28733812Y-59841808D01*
G01X28733382Y-59842884D01*
G01X28733382Y-59842884D01*
G01X28713297Y-59913316D01*
G01X28705452Y-59969611D01*
G01X28704087Y-59995835D01*
G01X28704085Y-59996205D01*
G01X28704085Y-59996205D01*
G01X28711257Y-60069340D01*
G01X28727034Y-60131215D01*
G01X28742812Y-60174046D01*
G01X28749983Y-60190052D01*
G01X28749983Y-60190052D01*
G01X28749983Y-60190052D01*
G01X28798279Y-60250684D01*
G01X28847366Y-60276431D01*
G01X28877469Y-60282245D01*
G01X28879866Y-60282338D01*
G01X28879866Y-60282338D01*
G01X28937228Y-60253770D01*
G01X28961602Y-60204152D01*
G01X28965804Y-60185658D01*
G01X28965804Y-60185658D01*
G01X28901084Y-60152057D01*
G01X28863929Y-60114037D01*
G01X28854964Y-60101185D01*
G01X28854964Y-60101185D01*
G01X28826983Y-60033718D01*
G01X28817431Y-59981341D01*
G01X28816390Y-59963978D01*
G01X28816390Y-59963978D01*
G01X28829708Y-59892644D01*
G01X28860016Y-59835617D01*
G01X28892840Y-59795893D01*
G01X28913709Y-59776464D01*
G01X28915511Y-59775013D01*
G01X28915511Y-59775013D01*
G01X28977010Y-59739094D01*
G01X29042496Y-59716623D01*
G01X29102945Y-59704448D01*
G01X29149336Y-59699413D01*
G01X29172645Y-59698363D01*
G01X29173811Y-59698353D01*
G01X29173811Y-59698353D01*
G01X29266782Y-59704584D01*
G01X29341725Y-59720091D01*
G01X29398987Y-59740096D01*
G01X29438911Y-59759820D01*
G01X29461844Y-59774484D01*
G01X29468245Y-59779408D01*
G01X29468245Y-59779408D01*
G01X29517762Y-59837849D01*
G01X29545934Y-59898735D01*
G01X29558779Y-59950897D01*
G01X29562320Y-59983168D01*
G01X29562483Y-59988392D01*
G01X29562483Y-59988392D01*
G01X29553000Y-60058453D01*
G01X29538818Y-60104323D01*
G01X29536604Y-60109974D01*
G01X29536604Y-60109974D01*
G01X29495682Y-60169933D01*
G01X29461715Y-60196290D01*
G01X29457991Y-60198353D01*
G01X29457991Y-60198353D01*
G01X29503184Y-60263215D01*
G01X29535430Y-60277287D01*
G01X29538069Y-60277455D01*
G01X29538069Y-60277455D01*
G01X29596006Y-60251866D01*
G01X29629862Y-60206252D01*
G01X29639143Y-60186634D01*
G01X29639143Y-60186634D01*
G01X29658593Y-60119097D01*
G01X29668937Y-60054881D01*
G01X29673050Y-60005407D01*
G01X29673809Y-59982096D01*
G01X29673811Y-59981556D01*
G01X29673811Y-59981556D01*
G01X29665671Y-59899200D01*
G01X29645137Y-59827529D01*
G01X29618043Y-59768081D01*
G01X29590219Y-59722390D01*
G01X29567499Y-59691994D01*
G01X29555713Y-59678427D01*
G01X29555159Y-59677845D01*
G01X29555159Y-59677845D01*
G01X29499377Y-59633419D01*
G01X29435585Y-59601338D01*
G01X29369611Y-59579592D01*
G01X29307283Y-59566173D01*
G01X29254429Y-59559071D01*
G01X29216879Y-59556275D01*
G01X29200459Y-59555776D01*
G01X29200179Y-59555775D01*
G37*
G36*
G01X28724593Y-60479603D02*
G01X28724593Y-60479603D01*
G01X28718849Y-60540848D01*
G01X28718733Y-60547963D01*
G01X28718733Y-60547963D01*
G01X28745202Y-60615338D01*
G01X28786108Y-60633213D01*
G01X28793929Y-60633900D01*
G01X28793929Y-60633900D01*
G01X28821272Y-60632923D01*
G01X28821272Y-60632924D01*
G01X28864241Y-60631947D01*
G01X28864241Y-60631947D01*
G01X28808655Y-60676990D01*
G01X28769046Y-60719366D01*
G01X28753416Y-60738861D01*
G01X28753401Y-60738881D01*
G01X28753401Y-60738881D01*
G01X28717628Y-60805839D01*
G01X28705416Y-60855266D01*
G01X28704085Y-60871205D01*
G01X28704085Y-60871205D01*
G01X28719450Y-60934595D01*
G01X28725081Y-60943470D01*
G01X28725081Y-60943470D01*
G01X28777509Y-60969557D01*
G01X28782210Y-60969838D01*
G01X28782210Y-60969838D01*
G01X28842470Y-60949218D01*
G01X28872054Y-60929799D01*
G01X28872054Y-60929799D01*
G01X28839323Y-60867246D01*
G01X28833970Y-60833368D01*
G01X28833968Y-60833119D01*
G01X28833968Y-60833119D01*
G01X28850072Y-60768310D01*
G01X28874154Y-60726430D01*
G01X28877913Y-60721302D01*
G01X28877913Y-60721302D01*
G01X28928605Y-60671079D01*
G01X28975220Y-60638108D01*
G01X28994124Y-60627064D01*
G01X28994124Y-60627064D01*
G01X29046780Y-60626111D01*
G01X29113030Y-60625533D01*
G01X29178343Y-60625236D01*
G01X29228186Y-60625127D01*
G01X29248030Y-60625111D01*
G01X29248030Y-60625111D01*
G01X29248030Y-60625111D01*
G01X29345953Y-60626875D01*
G01X29429624Y-60631496D01*
G01X29499250Y-60637971D01*
G01X29555037Y-60645296D01*
G01X29597189Y-60652466D01*
G01X29625915Y-60658478D01*
G01X29641418Y-60662327D01*
G01X29644515Y-60663197D01*
G01X29644515Y-60663197D01*
G01X29659411Y-60600542D01*
G01X29660140Y-60587025D01*
G01X29660140Y-60587025D01*
G01X29643370Y-60520123D01*
G01X29634261Y-60509388D01*
G01X29634261Y-60509388D01*
G01X29574818Y-60491193D01*
G01X29545882Y-60489369D01*
G01X29545882Y-60489369D01*
G01X29493462Y-60489841D01*
G01X29426751Y-60490745D01*
G01X29388755Y-60491313D01*
G01X29388167Y-60491322D01*
G01X29388167Y-60491322D01*
G01X29301742Y-60492484D01*
G01X29239292Y-60493059D01*
G01X29202414Y-60493254D01*
G01X29192366Y-60493275D01*
G01X29192366Y-60493275D01*
G01X29101838Y-60492815D01*
G01X29019512Y-60491581D01*
G01X28946005Y-60489791D01*
G01X28881932Y-60487664D01*
G01X28827909Y-60485417D01*
G01X28784553Y-60483270D01*
G01X28752480Y-60481440D01*
G01X28732306Y-60480147D01*
G01X28724647Y-60479607D01*
G01X28724593Y-60479603D01*
G37*
G36*
G01X29190413Y-61079213D02*
G01X29190413Y-61079213D01*
G01X29103338Y-61085616D01*
G01X29027199Y-61102190D01*
G01X28962767Y-61124980D01*
G01X28910814Y-61150030D01*
G01X28872111Y-61173384D01*
G01X28847431Y-61191089D01*
G01X28837545Y-61199188D01*
G01X28837386Y-61199330D01*
G01X28837386Y-61199330D01*
G01X28785948Y-61257486D01*
G01X28749807Y-61320223D01*
G01X28726263Y-61382104D01*
G01X28712616Y-61437689D01*
G01X28706168Y-61481541D01*
G01X28704218Y-61508221D01*
G01X28704085Y-61513783D01*
G01X28704085Y-61513783D01*
G01X28712183Y-61596793D01*
G01X28732878Y-61668585D01*
G01X28760771Y-61728287D01*
G01X28790464Y-61775029D01*
G01X28816557Y-61807942D01*
G01X28833653Y-61826155D01*
G01X28837386Y-61829701D01*
G01X28837386Y-61829701D01*
G01X28897614Y-61873239D01*
G01X28962965Y-61904679D01*
G01X29028399Y-61925989D01*
G01X29088875Y-61939139D01*
G01X29139353Y-61946100D01*
G01X29174792Y-61948840D01*
G01X29190152Y-61949329D01*
G01X29190413Y-61949330D01*
G01X29190413Y-61949330D01*
G01X29277410Y-61942952D01*
G01X29353347Y-61926445D01*
G01X29417501Y-61903748D01*
G01X29469149Y-61878800D01*
G01X29507566Y-61855541D01*
G01X29532031Y-61837908D01*
G01X29541818Y-61829842D01*
G01X29541976Y-61829701D01*
G01X29541976Y-61829701D01*
G01X29592848Y-61771614D01*
G01X29628592Y-61708706D01*
G01X29651877Y-61646503D01*
G01X29665374Y-61590533D01*
G01X29671752Y-61546322D01*
G01X29673680Y-61519399D01*
G01X29673811Y-61513783D01*
G01X29673811Y-61513783D01*
G01X29665802Y-61431496D01*
G01X29645335Y-61360159D01*
G01X29617748Y-61300700D01*
G01X29588382Y-61254048D01*
G01X29562575Y-61221135D01*
G01X29545667Y-61202887D01*
G01X29541976Y-61199330D01*
G01X29541976Y-61199330D01*
G01X29482281Y-61155614D01*
G01X29417314Y-61124046D01*
G01X29352141Y-61102649D01*
G01X29291826Y-61089445D01*
G01X29241434Y-61082456D01*
G01X29206028Y-61079705D01*
G01X29190674Y-61079214D01*
G01X29190413Y-61079213D01*
G37*
%LPC*%
G36*
G01X29162093Y-61219838D02*
G01X29162093Y-61219838D01*
G01X29244475Y-61225806D01*
G01X29315197Y-61240659D01*
G01X29372589Y-61259820D01*
G01X29414982Y-61278712D01*
G01X29440704Y-61292758D01*
G01X29448226Y-61297474D01*
G01X29448226Y-61297474D01*
G01X29503983Y-61349783D01*
G01X29537804Y-61407154D01*
G01X29555171Y-61460002D01*
G01X29561569Y-61498740D01*
G01X29562483Y-61513783D01*
G01X29562483Y-61513783D01*
G01X29562483Y-61513783D01*
G01X29551817Y-61593468D01*
G01X29526762Y-61655952D01*
G01X29497739Y-61700311D01*
G01X29475165Y-61725624D01*
G01X29468733Y-61731556D01*
G01X29468733Y-61731556D01*
G01X29410027Y-61768162D01*
G01X29346787Y-61791062D01*
G01X29288013Y-61803470D01*
G01X29242709Y-61808601D01*
G01X29219878Y-61809672D01*
G01X29218733Y-61809681D01*
G01X29218733Y-61809681D01*
G01X29136276Y-61803525D01*
G01X29065367Y-61788205D01*
G01X29007734Y-61768441D01*
G01X28965104Y-61748955D01*
G01X28939205Y-61734468D01*
G01X28931624Y-61729603D01*
G01X28931624Y-61729603D01*
G01X28875390Y-61676408D01*
G01X28841280Y-61619041D01*
G01X28823765Y-61566689D01*
G01X28817311Y-61528541D01*
G01X28816390Y-61513783D01*
G01X28816390Y-61513783D01*
G01X28816390Y-61513783D01*
G01X28827167Y-61434209D01*
G01X28852483Y-61371986D01*
G01X28881808Y-61327929D01*
G01X28904617Y-61302851D01*
G01X28911116Y-61296986D01*
G01X28911116Y-61296986D01*
G01X28970280Y-61260837D01*
G01X29033807Y-61238224D01*
G01X29092735Y-61225971D01*
G01X29138103Y-61220904D01*
G01X29160948Y-61219847D01*
G01X29162093Y-61219838D01*
G37*
%LPD*%
G36*
G01X29548323Y-62138783D02*
G01X29548323Y-62138783D01*
G01X29482344Y-62156849D01*
G01X29457015Y-62174916D01*
G01X29457015Y-62174916D01*
G01X29457015Y-62174916D01*
G01X29424009Y-62233707D01*
G01X29419905Y-62261341D01*
G01X29419905Y-62261341D01*
G01X29440128Y-62325305D01*
G01X29457015Y-62346302D01*
G01X29457015Y-62346302D01*
G01X29517671Y-62376892D01*
G01X29548323Y-62380970D01*
G01X29548323Y-62380970D01*
G01X29614503Y-62363116D01*
G01X29638167Y-62346302D01*
G01X29638167Y-62346302D01*
G01X29670342Y-62286851D01*
G01X29673811Y-62261341D01*
G01X29673811Y-62261341D01*
G01X29654387Y-62196580D01*
G01X29638167Y-62174916D01*
G01X29638167Y-62174916D01*
G01X29578803Y-62143034D01*
G01X29548323Y-62138783D01*
G37*
G36*
G01X29200179Y-62590931D02*
G01X29200179Y-62590931D01*
G01X29121703Y-62595892D01*
G01X29055643Y-62607365D01*
G01X29006616Y-62620232D01*
G01X28979238Y-62629379D01*
G01X28975081Y-62630970D01*
G01X28975081Y-62630970D01*
G01X28904362Y-62667255D01*
G01X28853896Y-62704018D01*
G01X28825356Y-62730418D01*
G01X28819319Y-62736927D01*
G01X28819319Y-62736927D01*
G01X28774585Y-62798389D01*
G01X28745966Y-62850101D01*
G01X28733812Y-62876964D01*
G01X28733382Y-62878041D01*
G01X28733382Y-62878041D01*
G01X28713297Y-62948472D01*
G01X28705452Y-63004768D01*
G01X28704087Y-63030991D01*
G01X28704085Y-63031361D01*
G01X28704085Y-63031361D01*
G01X28711257Y-63104496D01*
G01X28727034Y-63166371D01*
G01X28742812Y-63209202D01*
G01X28749983Y-63225209D01*
G01X28749983Y-63225209D01*
G01X28749983Y-63225209D01*
G01X28798279Y-63285840D01*
G01X28847366Y-63311588D01*
G01X28877469Y-63317402D01*
G01X28879866Y-63317494D01*
G01X28879866Y-63317494D01*
G01X28937228Y-63288926D01*
G01X28961602Y-63239309D01*
G01X28965804Y-63220814D01*
G01X28965804Y-63220814D01*
G01X28901084Y-63187213D01*
G01X28863929Y-63149193D01*
G01X28854964Y-63136341D01*
G01X28854964Y-63136341D01*
G01X28826983Y-63068874D01*
G01X28817431Y-63016497D01*
G01X28816390Y-62999134D01*
G01X28816390Y-62999134D01*
G01X28829708Y-62927800D01*
G01X28860016Y-62870773D01*
G01X28892840Y-62831049D01*
G01X28913709Y-62811620D01*
G01X28915511Y-62810170D01*
G01X28915511Y-62810170D01*
G01X28977010Y-62774250D01*
G01X29042496Y-62751780D01*
G01X29102945Y-62739604D01*
G01X29149336Y-62734569D01*
G01X29172645Y-62733519D01*
G01X29173811Y-62733509D01*
G01X29173811Y-62733509D01*
G01X29266782Y-62739740D01*
G01X29341725Y-62755248D01*
G01X29398987Y-62775252D01*
G01X29438911Y-62794976D01*
G01X29461844Y-62809640D01*
G01X29468245Y-62814564D01*
G01X29468245Y-62814564D01*
G01X29517762Y-62873005D01*
G01X29545934Y-62933891D01*
G01X29558779Y-62986053D01*
G01X29562320Y-63018324D01*
G01X29562483Y-63023549D01*
G01X29562483Y-63023549D01*
G01X29553000Y-63093609D01*
G01X29538818Y-63139479D01*
G01X29536604Y-63145131D01*
G01X29536604Y-63145131D01*
G01X29495682Y-63205090D01*
G01X29461715Y-63231446D01*
G01X29457991Y-63233509D01*
G01X29457991Y-63233509D01*
G01X29503184Y-63298371D01*
G01X29535430Y-63312443D01*
G01X29538069Y-63312611D01*
G01X29538069Y-63312611D01*
G01X29596006Y-63287022D01*
G01X29629862Y-63241408D01*
G01X29639143Y-63221791D01*
G01X29639143Y-63221791D01*
G01X29658593Y-63154254D01*
G01X29668937Y-63090037D01*
G01X29673050Y-63040563D01*
G01X29673809Y-63017252D01*
G01X29673811Y-63016713D01*
G01X29673811Y-63016713D01*
G01X29665671Y-62934356D01*
G01X29645137Y-62862686D01*
G01X29618043Y-62803237D01*
G01X29590219Y-62757547D01*
G01X29567499Y-62727150D01*
G01X29555713Y-62713584D01*
G01X29555159Y-62713002D01*
G01X29555159Y-62713002D01*
G01X29499377Y-62668575D01*
G01X29435585Y-62636494D01*
G01X29369611Y-62614749D01*
G01X29307283Y-62601330D01*
G01X29254429Y-62594227D01*
G01X29216879Y-62591431D01*
G01X29200459Y-62590932D01*
G01X29200179Y-62590931D01*
G37*
G36*
G01X29190413Y-63484486D02*
G01X29190413Y-63484486D01*
G01X29103338Y-63490890D01*
G01X29027199Y-63507464D01*
G01X28962767Y-63530254D01*
G01X28910814Y-63555303D01*
G01X28872111Y-63578658D01*
G01X28847431Y-63596362D01*
G01X28837545Y-63604461D01*
G01X28837386Y-63604603D01*
G01X28837386Y-63604603D01*
G01X28785948Y-63662759D01*
G01X28749807Y-63725497D01*
G01X28726263Y-63787377D01*
G01X28712616Y-63842963D01*
G01X28706168Y-63886814D01*
G01X28704218Y-63913495D01*
G01X28704085Y-63919056D01*
G01X28704085Y-63919056D01*
G01X28712183Y-64002067D01*
G01X28732878Y-64073858D01*
G01X28760771Y-64133560D01*
G01X28790464Y-64180302D01*
G01X28816557Y-64213215D01*
G01X28833653Y-64231428D01*
G01X28837386Y-64234974D01*
G01X28837386Y-64234974D01*
G01X28897614Y-64278513D01*
G01X28962965Y-64309952D01*
G01X29028399Y-64331262D01*
G01X29088875Y-64344413D01*
G01X29139353Y-64351373D01*
G01X29174792Y-64354113D01*
G01X29190152Y-64354602D01*
G01X29190413Y-64354603D01*
G01X29190413Y-64354603D01*
G01X29277410Y-64348226D01*
G01X29353347Y-64331719D01*
G01X29417501Y-64309022D01*
G01X29469149Y-64284074D01*
G01X29507566Y-64260814D01*
G01X29532031Y-64243182D01*
G01X29541818Y-64235116D01*
G01X29541976Y-64234974D01*
G01X29541976Y-64234974D01*
G01X29592848Y-64176888D01*
G01X29628592Y-64113980D01*
G01X29651877Y-64051777D01*
G01X29665374Y-63995806D01*
G01X29671752Y-63951596D01*
G01X29673680Y-63924672D01*
G01X29673811Y-63919056D01*
G01X29673811Y-63919056D01*
G01X29665802Y-63836770D01*
G01X29645335Y-63765432D01*
G01X29617748Y-63705973D01*
G01X29588382Y-63659322D01*
G01X29562575Y-63626408D01*
G01X29545667Y-63608161D01*
G01X29541976Y-63604603D01*
G01X29541976Y-63604603D01*
G01X29482281Y-63560887D01*
G01X29417314Y-63529319D01*
G01X29352141Y-63507922D01*
G01X29291826Y-63494718D01*
G01X29241434Y-63487729D01*
G01X29206028Y-63484978D01*
G01X29190674Y-63484487D01*
G01X29190413Y-63484486D01*
G37*
%LPC*%
G36*
G01X29162093Y-63625111D02*
G01X29162093Y-63625111D01*
G01X29244475Y-63631079D01*
G01X29315197Y-63645933D01*
G01X29372589Y-63665094D01*
G01X29414982Y-63683986D01*
G01X29440704Y-63698031D01*
G01X29448226Y-63702748D01*
G01X29448226Y-63702748D01*
G01X29503983Y-63755056D01*
G01X29537804Y-63812427D01*
G01X29555171Y-63865275D01*
G01X29561569Y-63904013D01*
G01X29562483Y-63919056D01*
G01X29562483Y-63919056D01*
G01X29562483Y-63919056D01*
G01X29551817Y-63998742D01*
G01X29526762Y-64061225D01*
G01X29497739Y-64105585D01*
G01X29475165Y-64130898D01*
G01X29468733Y-64136830D01*
G01X29468733Y-64136830D01*
G01X29410027Y-64173436D01*
G01X29346787Y-64196335D01*
G01X29288013Y-64208743D01*
G01X29242709Y-64213875D01*
G01X29219878Y-64214945D01*
G01X29218733Y-64214955D01*
G01X29218733Y-64214955D01*
G01X29136276Y-64208799D01*
G01X29065367Y-64193478D01*
G01X29007734Y-64173715D01*
G01X28965104Y-64154229D01*
G01X28939205Y-64139741D01*
G01X28931624Y-64134877D01*
G01X28931624Y-64134877D01*
G01X28875390Y-64081681D01*
G01X28841280Y-64024314D01*
G01X28823765Y-63971963D01*
G01X28817311Y-63933814D01*
G01X28816390Y-63919056D01*
G01X28816390Y-63919056D01*
G01X28816390Y-63919056D01*
G01X28827167Y-63839482D01*
G01X28852483Y-63777260D01*
G01X28881808Y-63733202D01*
G01X28904617Y-63708124D01*
G01X28911116Y-63702259D01*
G01X28911116Y-63702259D01*
G01X28970280Y-63666111D01*
G01X29033807Y-63643498D01*
G01X29092735Y-63631245D01*
G01X29138103Y-63626177D01*
G01X29160948Y-63625121D01*
G01X29162093Y-63625111D01*
G37*
%LPD*%
G36*
G01X28734358Y-64564564D02*
G01X28734358Y-64564564D01*
G01X28719245Y-64627730D01*
G01X28718733Y-64636830D01*
G01X28718733Y-64636830D01*
G01X28744116Y-64701018D01*
G01X28791628Y-64725019D01*
G01X28818313Y-64728627D01*
G01X28818343Y-64728627D01*
G01X28818343Y-64728627D01*
G01X28778660Y-64787610D01*
G01X28750843Y-64841900D01*
G01X28737264Y-64873620D01*
G01X28736311Y-64876088D01*
G01X28736311Y-64876088D01*
G01X28715139Y-64949845D01*
G01X28706147Y-65008416D01*
G01X28704117Y-65039775D01*
G01X28704085Y-65042103D01*
G01X28704085Y-65042103D01*
G01X28716369Y-65124883D01*
G01X28746096Y-65186445D01*
G01X28782575Y-65228839D01*
G01X28815115Y-65254115D01*
G01X28833026Y-65264321D01*
G01X28833968Y-65264759D01*
G01X28833968Y-65264759D01*
G01X28791729Y-65319022D01*
G01X28760662Y-65374636D01*
G01X28744052Y-65411021D01*
G01X28742171Y-65415638D01*
G01X28742171Y-65415638D01*
G01X28718901Y-65490418D01*
G01X28707792Y-65551462D01*
G01X28704346Y-65589949D01*
G01X28704085Y-65598744D01*
G01X28704085Y-65598744D01*
G01X28715300Y-65674595D01*
G01X28739538Y-65731125D01*
G01X28762691Y-65765450D01*
G01X28770979Y-65775013D01*
G01X28770979Y-65775013D01*
G01X28824521Y-65810676D01*
G01X28887050Y-65830965D01*
G01X28943872Y-65840217D01*
G01X28980296Y-65842767D01*
G01X28986311Y-65842884D01*
G01X28986311Y-65842884D01*
G01X29028628Y-65841921D01*
G01X29099979Y-65840205D01*
G01X29130354Y-65839466D01*
G01X29130354Y-65839466D01*
G01X29219464Y-65837549D01*
G01X29284753Y-65836529D01*
G01X29325856Y-65836124D01*
G01X29342410Y-65836049D01*
G01X29342757Y-65836049D01*
G01X29342757Y-65836049D01*
G01X29430458Y-65838676D01*
G01X29505259Y-65845215D01*
G01X29565605Y-65853651D01*
G01X29609943Y-65861968D01*
G01X29636716Y-65868152D01*
G01X29644515Y-65870228D01*
G01X29644515Y-65870228D01*
G01X29659348Y-65805915D01*
G01X29660140Y-65792103D01*
G01X29660140Y-65792103D01*
G01X29644291Y-65727118D01*
G01X29637190Y-65717396D01*
G01X29637190Y-65717396D01*
G01X29579640Y-65695916D01*
G01X29558577Y-65694447D01*
G01X29558577Y-65694447D01*
G01X29505504Y-65695001D01*
G01X29437832Y-65696342D01*
G01X29369306Y-65697988D01*
G01X29313669Y-65699456D01*
G01X29284668Y-65700264D01*
G01X29283186Y-65700306D01*
G01X29283186Y-65700306D01*
G01X29175654Y-65703277D01*
G01X29104438Y-65705022D01*
G01X29062699Y-65705869D01*
G01X29043601Y-65706142D01*
G01X29040022Y-65706166D01*
G01X29040022Y-65706166D01*
G01X28955529Y-65696626D01*
G01X28900379Y-65677151D01*
G01X28873860Y-65661461D01*
G01X28871077Y-65659291D01*
G01X28871077Y-65659291D01*
G01X28830064Y-65600570D01*
G01X28817351Y-65549838D01*
G01X28816390Y-65536244D01*
G01X28816390Y-65536244D01*
G01X28826365Y-65469323D01*
G01X28850504Y-65405086D01*
G01X28880126Y-65349602D01*
G01X28906549Y-65308940D01*
G01X28921094Y-65289167D01*
G01X28921858Y-65288197D01*
G01X28921858Y-65288197D01*
G01X29020827Y-65289531D01*
G01X29105359Y-65290520D01*
G01X29175673Y-65291217D01*
G01X29231988Y-65291671D01*
G01X29274523Y-65291936D01*
G01X29303497Y-65292062D01*
G01X29319128Y-65292100D01*
G01X29322249Y-65292103D01*
G01X29322249Y-65292103D01*
G01X29410714Y-65292974D01*
G01X29488283Y-65295171D01*
G01X29553061Y-65298070D01*
G01X29603150Y-65301047D01*
G01X29636655Y-65303478D01*
G01X29651680Y-65304739D01*
G01X29652327Y-65304798D01*
G01X29652327Y-65304799D01*
G01X29658071Y-65243553D01*
G01X29658186Y-65236439D01*
G01X29658186Y-65236439D01*
G01X29633548Y-65168008D01*
G01X29593071Y-65147837D01*
G01X29582015Y-65146595D01*
G01X29582015Y-65146595D01*
G01X29524354Y-65148619D01*
G01X29501448Y-65149525D01*
G01X29501448Y-65149525D01*
G01X29437056Y-65151595D01*
G01X29369975Y-65153166D01*
G01X29319101Y-65154135D01*
G01X29302718Y-65154408D01*
G01X29302718Y-65154408D01*
G01X29227022Y-65155361D01*
G01X29155827Y-65155939D01*
G01X29096210Y-65156236D01*
G01X29055249Y-65156345D01*
G01X29040022Y-65156361D01*
G01X29040022Y-65156361D01*
G01X29040022Y-65156361D01*
G01X28948938Y-65144301D01*
G01X28886707Y-65113881D01*
G01X28847834Y-65073741D01*
G01X28826823Y-65032521D01*
G01X28818179Y-64998861D01*
G01X28816404Y-64981401D01*
G01X28816390Y-64980580D01*
G01X28816390Y-64980580D01*
G01X28826827Y-64914574D01*
G01X28852083Y-64850910D01*
G01X28883077Y-64795736D01*
G01X28910723Y-64755202D01*
G01X28925941Y-64735456D01*
G01X28926741Y-64734486D01*
G01X28926741Y-64734486D01*
G01X29025484Y-64735820D01*
G01X29109423Y-64736809D01*
G01X29178907Y-64737506D01*
G01X29234283Y-64737960D01*
G01X29275899Y-64738225D01*
G01X29304102Y-64738351D01*
G01X29319240Y-64738389D01*
G01X29322249Y-64738392D01*
G01X29322249Y-64738392D01*
G01X29410714Y-64739196D01*
G01X29488283Y-64741224D01*
G01X29553061Y-64743900D01*
G01X29603150Y-64746648D01*
G01X29636655Y-64748892D01*
G01X29651680Y-64750056D01*
G01X29652327Y-64750111D01*
G01X29652327Y-64750111D01*
G01X29658083Y-64689188D01*
G01X29658186Y-64682728D01*
G01X29658186Y-64682728D01*
G01X29633548Y-64614297D01*
G01X29593071Y-64594126D01*
G01X29582015Y-64592884D01*
G01X29582015Y-64592884D01*
G01X29537139Y-64594260D01*
G01X29465311Y-64596713D01*
G01X29435042Y-64597767D01*
G01X29435042Y-64597767D01*
G01X29356814Y-64600055D01*
G01X29284509Y-64601486D01*
G01X29223735Y-64602262D01*
G01X29180097Y-64602583D01*
G01X29159202Y-64602649D01*
G01X29158186Y-64602650D01*
G01X29158186Y-64602650D01*
G01X29049866Y-64601136D01*
G01X28960209Y-64597122D01*
G01X28887798Y-64591396D01*
G01X28831216Y-64584749D01*
G01X28789046Y-64577970D01*
G01X28759869Y-64571850D01*
G01X28742268Y-64567177D01*
G01X28734826Y-64564742D01*
G01X28734358Y-64564564D01*
G37*
G36*
G01X48241763Y-11725000D02*
G01X49441763Y-11725000D01*
G01X49441763Y-12925000D01*
G01X48241763Y-12925000D01*
G01X48241763Y-11725000D01*
G37*
G36*
G01X49691763Y-11876758D02*
G01X49691763Y-11876758D01*
G01X49735122Y-11873242D01*
G01X49735122Y-11873242D01*
G01X49786514Y-11905441D01*
G01X49789029Y-11918945D01*
G01X49789029Y-11918945D01*
G01X49788745Y-11964271D01*
G01X49788203Y-12034544D01*
G01X49787862Y-12076774D01*
G01X49787857Y-12077442D01*
G01X49787857Y-12077442D01*
G01X49787122Y-12174262D01*
G01X49786785Y-12230763D01*
G01X49786690Y-12255552D01*
G01X49786685Y-12258789D01*
G01X49786685Y-12258789D01*
G01X49855365Y-12220803D01*
G01X49916715Y-12201985D01*
G01X49959367Y-12195602D01*
G01X49972427Y-12194922D01*
G01X49972427Y-12194922D01*
G01X50046614Y-12209603D01*
G01X50097956Y-12238966D01*
G01X50122752Y-12260988D01*
G01X50124478Y-12262891D01*
G01X50124478Y-12262891D01*
G01X50157186Y-12320499D01*
G01X50174581Y-12384369D01*
G01X50181499Y-12437879D01*
G01X50182775Y-12464408D01*
G01X50182779Y-12465039D01*
G01X50182779Y-12465039D01*
G01X50174720Y-12545456D01*
G01X50156085Y-12610638D01*
G01X50135183Y-12657513D01*
G01X50120325Y-12683014D01*
G01X50117740Y-12686817D01*
G01X50117740Y-12686817D01*
G01X50063476Y-12737276D01*
G01X50004287Y-12764112D01*
G01X49955094Y-12774784D01*
G01X49930816Y-12776752D01*
G01X49930240Y-12776758D01*
G01X49930240Y-12776758D01*
G01X49852471Y-12767491D01*
G01X49787512Y-12745725D01*
G01X49738719Y-12720511D01*
G01X49709443Y-12700900D01*
G01X49702310Y-12695313D01*
G01X49702310Y-12695313D01*
G01X49706374Y-12640825D01*
G01X49708947Y-12573428D01*
G01X49710368Y-12507494D01*
G01X49710972Y-12457394D01*
G01X49711099Y-12437500D01*
G01X49711099Y-12437500D01*
G01X49711099Y-12437500D01*
G01X49710626Y-12376138D01*
G01X49709449Y-12306754D01*
G01X49707931Y-12238244D01*
G01X49706433Y-12179502D01*
G01X49705320Y-12139425D01*
G01X49704947Y-12126660D01*
G01X49704947Y-12126660D01*
G01X49701213Y-12022258D01*
G01X49697648Y-11950481D01*
G01X49694632Y-11905914D01*
G01X49692544Y-11883145D01*
G01X49691763Y-11876758D01*
G01X49691763Y-11876758D01*
G37*
%LPC*%
G36*
G01X49785513Y-12647266D02*
G01X49785513Y-12647266D01*
G01X49850445Y-12688198D01*
G01X49906929Y-12705780D01*
G01X49938923Y-12709883D01*
G01X49941372Y-12709961D01*
G01X49941372Y-12709961D01*
G01X50009729Y-12690481D01*
G01X50048887Y-12655755D01*
G01X50059439Y-12640820D01*
G01X50059439Y-12640820D01*
G01X50085039Y-12574892D01*
G01X50095910Y-12514595D01*
G01X50098365Y-12479485D01*
G01X50098404Y-12476758D01*
G01X50098404Y-12476758D01*
G01X50089101Y-12394408D01*
G01X50070497Y-12341294D01*
G01X50056543Y-12317226D01*
G01X50055337Y-12315625D01*
G01X50055337Y-12315625D01*
G01X49997282Y-12273256D01*
G01X49953046Y-12262616D01*
G01X49947232Y-12262305D01*
G01X49945474Y-12262305D01*
G01X49945474Y-12262305D01*
G01X49876134Y-12275184D01*
G01X49821835Y-12301474D01*
G01X49791408Y-12322656D01*
G01X49787857Y-12325586D01*
G01X49787857Y-12325586D01*
G01X49788278Y-12384427D01*
G01X49788443Y-12402637D01*
G01X49788443Y-12402637D01*
G01X49788955Y-12476575D01*
G01X49789029Y-12503711D01*
G01X49789029Y-12503711D01*
G01X49789029Y-12503711D01*
G01X49788038Y-12586787D01*
G01X49786272Y-12634420D01*
G01X49785513Y-12647266D01*
G37*
%LPD*%
G36*
G01X50282974Y-12486719D02*
G01X50282974Y-12486719D01*
G01X50291904Y-12407536D01*
G01X50312554Y-12345209D01*
G01X50335716Y-12301534D01*
G01X50352180Y-12278309D01*
G01X50355044Y-12274903D01*
G01X50355044Y-12274903D01*
G01X50412402Y-12230032D01*
G01X50471786Y-12206168D01*
G01X50519829Y-12196678D01*
G01X50543167Y-12194927D01*
G01X50543716Y-12194922D01*
G01X50543716Y-12194922D01*
G01X50620209Y-12206531D01*
G01X50678666Y-12232514D01*
G01X50716951Y-12259603D01*
G01X50732924Y-12274529D01*
G01X50733267Y-12274903D01*
G01X50733267Y-12274903D01*
G01X50770982Y-12333263D01*
G01X50792439Y-12394947D01*
G01X50802223Y-12448218D01*
G01X50804920Y-12481341D01*
G01X50805044Y-12486719D01*
G01X50805044Y-12486719D01*
G01X50795400Y-12568996D01*
G01X50773453Y-12632610D01*
G01X50749684Y-12675637D01*
G01X50734572Y-12696151D01*
G01X50733267Y-12697656D01*
G01X50733267Y-12697656D01*
G01X50675903Y-12742034D01*
G01X50616227Y-12765636D01*
G01X50567821Y-12775022D01*
G01X50544271Y-12776753D01*
G01X50543716Y-12776758D01*
G01X50543716Y-12776758D01*
G01X50467839Y-12765276D01*
G01X50409636Y-12739579D01*
G01X50371391Y-12712788D01*
G01X50355388Y-12698026D01*
G01X50355044Y-12697656D01*
G01X50355044Y-12697656D01*
G01X50317175Y-12639758D01*
G01X50295631Y-12578337D01*
G01X50285807Y-12525185D01*
G01X50283099Y-12492095D01*
G01X50282974Y-12486719D01*
G37*
%LPC*%
G36*
G01X50367349Y-12469727D02*
G01X50367349Y-12469727D01*
G01X50376260Y-12547475D01*
G01X50394812Y-12604485D01*
G01X50410735Y-12636281D01*
G01X50413931Y-12641406D01*
G01X50413931Y-12641406D01*
G01X50467705Y-12689342D01*
G01X50519571Y-12707267D01*
G01X50543691Y-12709961D01*
G01X50543716Y-12709961D01*
G01X50543716Y-12709961D01*
G01X50617702Y-12694113D01*
G01X50661993Y-12665861D01*
G01X50674380Y-12653711D01*
G01X50674380Y-12653711D01*
G01X50706516Y-12592492D01*
G01X50719068Y-12534038D01*
G01X50721252Y-12504153D01*
G01X50721255Y-12503711D01*
G01X50721255Y-12503711D01*
G01X50712064Y-12425851D01*
G01X50692928Y-12368608D01*
G01X50676505Y-12336611D01*
G01X50673208Y-12331445D01*
G01X50673208Y-12331445D01*
G01X50618858Y-12283100D01*
G01X50567448Y-12265022D01*
G01X50543740Y-12262305D01*
G01X50543716Y-12262305D01*
G01X50543716Y-12262305D01*
G01X50469896Y-12278318D01*
G01X50425899Y-12306864D01*
G01X50413638Y-12319141D01*
G01X50413638Y-12319141D01*
G01X50381904Y-12380762D01*
G01X50369509Y-12439373D01*
G01X50367352Y-12469285D01*
G01X50367349Y-12469727D01*
G37*
%LPD*%
G36*
G01X50858951Y-12250000D02*
G01X50858951Y-12250000D01*
G01X50876822Y-12214844D01*
G01X50876822Y-12214844D01*
G01X50933829Y-12207279D01*
G01X50938052Y-12207227D01*
G01X50972036Y-12207227D01*
G01X50972036Y-12207227D01*
G01X50968546Y-12128459D01*
G01X50965217Y-12081480D01*
G01X50964419Y-12072461D01*
G01X50964419Y-12072461D01*
G01X51004263Y-12068945D01*
G01X51004263Y-12068945D01*
G01X51058534Y-12099866D01*
G01X51061685Y-12114649D01*
G01X51061685Y-12114649D01*
G01X51059061Y-12172961D01*
G01X51056997Y-12208399D01*
G01X51056997Y-12208399D01*
G01X51152762Y-12207392D01*
G01X51214908Y-12205176D01*
G01X51248489Y-12202960D01*
G01X51258560Y-12201953D01*
G01X51258560Y-12201953D01*
G01X51258560Y-12201953D01*
G01X51263247Y-12230078D01*
G01X51263247Y-12230078D01*
G01X51250650Y-12262305D01*
G01X51250650Y-12262305D01*
G01X51210513Y-12271680D01*
G01X51210513Y-12271680D01*
G01X51152568Y-12272499D01*
G01X51087066Y-12272806D01*
G01X51054688Y-12272852D01*
G01X51054654Y-12272852D01*
G01X51054654Y-12272852D01*
G01X51053555Y-12347049D01*
G01X51052868Y-12417726D01*
G01X51052496Y-12478446D01*
G01X51052342Y-12522770D01*
G01X51052310Y-12544260D01*
G01X51052310Y-12545313D01*
G01X51052310Y-12545313D01*
G01X51059235Y-12631013D01*
G01X51071264Y-12672473D01*
G01X51075747Y-12680957D01*
G01X51075747Y-12680957D01*
G01X51130815Y-12711067D01*
G01X51153091Y-12713477D01*
G01X51153091Y-12713477D01*
G01X51217728Y-12693680D01*
G01X51239224Y-12677149D01*
G01X51239224Y-12677149D01*
G01X51260904Y-12720508D01*
G01X51260904Y-12720508D01*
G01X51230171Y-12761064D01*
G01X51229849Y-12761231D01*
G01X51229849Y-12761231D01*
G01X51168141Y-12776092D01*
G01X51154263Y-12776758D01*
G01X51154263Y-12776758D01*
G01X51075991Y-12762881D01*
G01X51030199Y-12736304D01*
G01X51013544Y-12719604D01*
G01X51013345Y-12719336D01*
G01X51013345Y-12719336D01*
G01X50987455Y-12661490D01*
G01X50975555Y-12599443D01*
G01X50972206Y-12555731D01*
G01X50972036Y-12547656D01*
G01X50972036Y-12547656D01*
G01X50973135Y-12440258D01*
G01X50973822Y-12363130D01*
G01X50974194Y-12312148D01*
G01X50974348Y-12283190D01*
G01X50974380Y-12272132D01*
G01X50974380Y-12271680D01*
G01X50974380Y-12271680D01*
G01X50925353Y-12275417D01*
G01X50865505Y-12280223D01*
G01X50862466Y-12280469D01*
G01X50862466Y-12280469D01*
G01X50858951Y-12250000D01*
G37*
G36*
G01X51280826Y-12250000D02*
G01X51280826Y-12250000D01*
G01X51298697Y-12214844D01*
G01X51298697Y-12214844D01*
G01X51355704Y-12207279D01*
G01X51359927Y-12207227D01*
G01X51393911Y-12207227D01*
G01X51393911Y-12207227D01*
G01X51390421Y-12128459D01*
G01X51387092Y-12081480D01*
G01X51386294Y-12072461D01*
G01X51386294Y-12072461D01*
G01X51426138Y-12068945D01*
G01X51426138Y-12068945D01*
G01X51480409Y-12099866D01*
G01X51483560Y-12114649D01*
G01X51483560Y-12114649D01*
G01X51480936Y-12172961D01*
G01X51478872Y-12208399D01*
G01X51478872Y-12208399D01*
G01X51574637Y-12207392D01*
G01X51636783Y-12205176D01*
G01X51670364Y-12202960D01*
G01X51680435Y-12201953D01*
G01X51680435Y-12201953D01*
G01X51680435Y-12201953D01*
G01X51685122Y-12230078D01*
G01X51685122Y-12230078D01*
G01X51672525Y-12262305D01*
G01X51672525Y-12262305D01*
G01X51632388Y-12271680D01*
G01X51632388Y-12271680D01*
G01X51574443Y-12272499D01*
G01X51508941Y-12272806D01*
G01X51476563Y-12272852D01*
G01X51476529Y-12272852D01*
G01X51476529Y-12272852D01*
G01X51475430Y-12347049D01*
G01X51474743Y-12417726D01*
G01X51474371Y-12478446D01*
G01X51474217Y-12522770D01*
G01X51474185Y-12544260D01*
G01X51474185Y-12545313D01*
G01X51474185Y-12545313D01*
G01X51481110Y-12631013D01*
G01X51493139Y-12672473D01*
G01X51497622Y-12680957D01*
G01X51497622Y-12680957D01*
G01X51552690Y-12711067D01*
G01X51574966Y-12713477D01*
G01X51574966Y-12713477D01*
G01X51639603Y-12693680D01*
G01X51661099Y-12677149D01*
G01X51661099Y-12677149D01*
G01X51682779Y-12720508D01*
G01X51682779Y-12720508D01*
G01X51652046Y-12761064D01*
G01X51651724Y-12761231D01*
G01X51651724Y-12761231D01*
G01X51590016Y-12776092D01*
G01X51576138Y-12776758D01*
G01X51576138Y-12776758D01*
G01X51497866Y-12762881D01*
G01X51452074Y-12736304D01*
G01X51435419Y-12719604D01*
G01X51435220Y-12719336D01*
G01X51435220Y-12719336D01*
G01X51409330Y-12661490D01*
G01X51397430Y-12599443D01*
G01X51394081Y-12555731D01*
G01X51393911Y-12547656D01*
G01X51393911Y-12547656D01*
G01X51395010Y-12440258D01*
G01X51395697Y-12363130D01*
G01X51396069Y-12312148D01*
G01X51396223Y-12283190D01*
G01X51396255Y-12272132D01*
G01X51396255Y-12271680D01*
G01X51396255Y-12271680D01*
G01X51347228Y-12275417D01*
G01X51287380Y-12280223D01*
G01X51284341Y-12280469D01*
G01X51284341Y-12280469D01*
G01X51280826Y-12250000D01*
G37*
G36*
G01X51756607Y-12486719D02*
G01X51756607Y-12486719D01*
G01X51765537Y-12407536D01*
G01X51786187Y-12345209D01*
G01X51809348Y-12301534D01*
G01X51825813Y-12278309D01*
G01X51828677Y-12274903D01*
G01X51828677Y-12274903D01*
G01X51886035Y-12230032D01*
G01X51945418Y-12206168D01*
G01X51993461Y-12196678D01*
G01X52016800Y-12194927D01*
G01X52017349Y-12194922D01*
G01X52017349Y-12194922D01*
G01X52093841Y-12206531D01*
G01X52152299Y-12232514D01*
G01X52190584Y-12259603D01*
G01X52206557Y-12274529D01*
G01X52206900Y-12274903D01*
G01X52206900Y-12274903D01*
G01X52244615Y-12333263D01*
G01X52266072Y-12394947D01*
G01X52275856Y-12448218D01*
G01X52278553Y-12481341D01*
G01X52278677Y-12486719D01*
G01X52278677Y-12486719D01*
G01X52269033Y-12568996D01*
G01X52247086Y-12632610D01*
G01X52223317Y-12675637D01*
G01X52208204Y-12696151D01*
G01X52206900Y-12697656D01*
G01X52206900Y-12697656D01*
G01X52149536Y-12742034D01*
G01X52089859Y-12765636D01*
G01X52041454Y-12775022D01*
G01X52017904Y-12776753D01*
G01X52017349Y-12776758D01*
G01X52017349Y-12776758D01*
G01X51941472Y-12765276D01*
G01X51883268Y-12739579D01*
G01X51845023Y-12712788D01*
G01X51829021Y-12698026D01*
G01X51828677Y-12697656D01*
G01X51828677Y-12697656D01*
G01X51790808Y-12639758D01*
G01X51769263Y-12578337D01*
G01X51759439Y-12525185D01*
G01X51756731Y-12492095D01*
G01X51756607Y-12486719D01*
G37*
%LPC*%
G36*
G01X51840982Y-12469727D02*
G01X51840982Y-12469727D01*
G01X51849893Y-12547475D01*
G01X51868445Y-12604485D01*
G01X51884368Y-12636281D01*
G01X51887564Y-12641406D01*
G01X51887564Y-12641406D01*
G01X51941338Y-12689342D01*
G01X51993204Y-12707267D01*
G01X52017324Y-12709961D01*
G01X52017349Y-12709961D01*
G01X52017349Y-12709961D01*
G01X52091334Y-12694113D01*
G01X52135626Y-12665861D01*
G01X52148013Y-12653711D01*
G01X52148013Y-12653711D01*
G01X52180149Y-12592492D01*
G01X52192701Y-12534038D01*
G01X52194885Y-12504153D01*
G01X52194888Y-12503711D01*
G01X52194888Y-12503711D01*
G01X52185697Y-12425851D01*
G01X52166561Y-12368608D01*
G01X52150138Y-12336611D01*
G01X52146841Y-12331445D01*
G01X52146841Y-12331445D01*
G01X52092491Y-12283100D01*
G01X52041080Y-12265022D01*
G01X52017373Y-12262305D01*
G01X52017349Y-12262305D01*
G01X52017349Y-12262305D01*
G01X51943529Y-12278318D01*
G01X51899532Y-12306864D01*
G01X51887271Y-12319141D01*
G01X51887271Y-12319141D01*
G01X51855537Y-12380762D01*
G01X51843141Y-12439373D01*
G01X51840985Y-12469285D01*
G01X51840982Y-12469727D01*
G37*
%LPD*%
G36*
G01X52404654Y-12213086D02*
G01X52404654Y-12213086D01*
G01X52448013Y-12203711D01*
G01X52448013Y-12203711D01*
G01X52498072Y-12238061D01*
G01X52503091Y-12263477D01*
G01X52503091Y-12263477D01*
G01X52561172Y-12227661D01*
G01X52591568Y-12214258D01*
G01X52591568Y-12214258D01*
G01X52591568Y-12214258D01*
G01X52660708Y-12197339D01*
G01X52691177Y-12194922D01*
G01X52691177Y-12194922D01*
G01X52691177Y-12194922D01*
G01X52765577Y-12212746D01*
G01X52808155Y-12247645D01*
G01X52824252Y-12271760D01*
G01X52824771Y-12272852D01*
G01X52824771Y-12272852D01*
G01X52878730Y-12235024D01*
G01X52914687Y-12218018D01*
G01X52915298Y-12217774D01*
G01X52915298Y-12217774D01*
G01X52985826Y-12198724D01*
G01X53023659Y-12194945D01*
G01X53025161Y-12194922D01*
G01X53025161Y-12194922D01*
G01X53095493Y-12211395D01*
G01X53129192Y-12233464D01*
G01X53130923Y-12235059D01*
G01X53130923Y-12235059D01*
G01X53161463Y-12292715D01*
G01X53170930Y-12348621D01*
G01X53171646Y-12364258D01*
G01X53171646Y-12364258D01*
G01X53170376Y-12418473D01*
G01X53169595Y-12450684D01*
G01X53169595Y-12450684D01*
G01X53167987Y-12531867D01*
G01X53167561Y-12572943D01*
G01X53167544Y-12578125D01*
G01X53167544Y-12578125D01*
G01X53171467Y-12660728D01*
G01X53179635Y-12720697D01*
G01X53186645Y-12753864D01*
G01X53188052Y-12759180D01*
G01X53188052Y-12759180D01*
G01X53141177Y-12768555D01*
G01X53141177Y-12768555D01*
G01X53096353Y-12754785D01*
G01X53096353Y-12754785D01*
G01X53082583Y-12707617D01*
G01X53082583Y-12707617D01*
G01X53082583Y-12707617D01*
G01X53083387Y-12650627D01*
G01X53084962Y-12584183D01*
G01X53086050Y-12544106D01*
G01X53086099Y-12542383D01*
G01X53086099Y-12542383D01*
G01X53088649Y-12447209D01*
G01X53089520Y-12404964D01*
G01X53089615Y-12396485D01*
G01X53089615Y-12396485D01*
G01X53076816Y-12323205D01*
G01X53061781Y-12295472D01*
G01X53061490Y-12295117D01*
G01X53061490Y-12295117D01*
G01X53004762Y-12264251D01*
G01X52987661Y-12262305D01*
G01X52987661Y-12262305D01*
G01X52922749Y-12276778D01*
G01X52868245Y-12305117D01*
G01X52839966Y-12324699D01*
G01X52838833Y-12325586D01*
G01X52838833Y-12325586D01*
G01X52840022Y-12417196D01*
G01X52840720Y-12486413D01*
G01X52841058Y-12533792D01*
G01X52841167Y-12559885D01*
G01X52841177Y-12565820D01*
G01X52841177Y-12565820D01*
G01X52842454Y-12648826D01*
G01X52845214Y-12712692D01*
G01X52847850Y-12752534D01*
G01X52848794Y-12763867D01*
G01X52848794Y-12763867D01*
G01X52807779Y-12767383D01*
G01X52807779Y-12767383D01*
G01X52756387Y-12735185D01*
G01X52753872Y-12721680D01*
G01X52753872Y-12721680D01*
G01X52755630Y-12673340D01*
G01X52755630Y-12673340D01*
G01X52757492Y-12609405D01*
G01X52758472Y-12559466D01*
G01X52758560Y-12554102D01*
G01X52758560Y-12554102D01*
G01X52759363Y-12482458D01*
G01X52759677Y-12424250D01*
G01X52759732Y-12396873D01*
G01X52759732Y-12396485D01*
G01X52759732Y-12396485D01*
G01X52740818Y-12314503D01*
G01X52700683Y-12275365D01*
G01X52664238Y-12263225D01*
G01X52654263Y-12262305D01*
G01X52654263Y-12262305D01*
G01X52590137Y-12277449D01*
G01X52535954Y-12307099D01*
G01X52507739Y-12327588D01*
G01X52506607Y-12328516D01*
G01X52506607Y-12328516D01*
G01X52507838Y-12423562D01*
G01X52508539Y-12493585D01*
G01X52508858Y-12539595D01*
G01X52508946Y-12562604D01*
G01X52508951Y-12565820D01*
G01X52508951Y-12565820D01*
G01X52510129Y-12648826D01*
G01X52512677Y-12712692D01*
G01X52515111Y-12752534D01*
G01X52515982Y-12763867D01*
G01X52515982Y-12763867D01*
G01X52475552Y-12767383D01*
G01X52475552Y-12767383D01*
G01X52424161Y-12735185D01*
G01X52421646Y-12721680D01*
G01X52421646Y-12721680D01*
G01X52423416Y-12666907D01*
G01X52424576Y-12633496D01*
G01X52424576Y-12633496D01*
G01X52426543Y-12558533D01*
G01X52427344Y-12498688D01*
G01X52427504Y-12468569D01*
G01X52427505Y-12467383D01*
G01X52427505Y-12467383D01*
G01X52425129Y-12365336D01*
G01X52419461Y-12292820D01*
G01X52412697Y-12245899D01*
G01X52407030Y-12220633D01*
G01X52404654Y-12213086D01*
G01X52404654Y-12213086D01*
G37*
G36*
G01X53584146Y-12681250D02*
G01X53584146Y-12681250D01*
G01X53622123Y-12637147D01*
G01X53638052Y-12630860D01*
G01X53638052Y-12630860D01*
G01X53678953Y-12680156D01*
G01X53695181Y-12689746D01*
G01X53695181Y-12689746D01*
G01X53761333Y-12707726D01*
G01X53790396Y-12709961D01*
G01X53790396Y-12709961D01*
G01X53857904Y-12695817D01*
G01X53873892Y-12687110D01*
G01X53873892Y-12687110D01*
G01X53904208Y-12632234D01*
G01X53905826Y-12616211D01*
G01X53905826Y-12616211D01*
G01X53878527Y-12564434D01*
G01X53873892Y-12561133D01*
G01X53873892Y-12561133D01*
G01X53813776Y-12536152D01*
G01X53796548Y-12531543D01*
G01X53796548Y-12531543D01*
G01X53729970Y-12514578D01*
G01X53705435Y-12507520D01*
G01X53705435Y-12507520D01*
G01X53647075Y-12474265D01*
G01X53627798Y-12455371D01*
G01X53627798Y-12455371D01*
G01X53600619Y-12393910D01*
G01X53595871Y-12354376D01*
G01X53595865Y-12353711D01*
G01X53595865Y-12353711D01*
G01X53615859Y-12286198D01*
G01X53648708Y-12246881D01*
G01X53657681Y-12239453D01*
G01X53657681Y-12239453D01*
G01X53722626Y-12207725D01*
G01X53776569Y-12196381D01*
G01X53797427Y-12194922D01*
G01X53797427Y-12194922D01*
G01X53866044Y-12205263D01*
G01X53905625Y-12219116D01*
G01X53907876Y-12220117D01*
G01X53907876Y-12220117D01*
G01X53956800Y-12267792D01*
G01X53962076Y-12289844D01*
G01X53962076Y-12289844D01*
G01X53924098Y-12334530D01*
G01X53908169Y-12340235D01*
G01X53908169Y-12340235D01*
G01X53867252Y-12292443D01*
G01X53853970Y-12283985D01*
G01X53853970Y-12283985D01*
G01X53789574Y-12264029D01*
G01X53768716Y-12262305D01*
G01X53768716Y-12262305D01*
G01X53706907Y-12278897D01*
G01X53697818Y-12284570D01*
G01X53697818Y-12284570D01*
G01X53668742Y-12337932D01*
G01X53667935Y-12347266D01*
G01X53667935Y-12347266D01*
G01X53694879Y-12399753D01*
G01X53699869Y-12403516D01*
G01X53699869Y-12403516D01*
G01X53759184Y-12429735D01*
G01X53777212Y-12434863D01*
G01X53777212Y-12434863D01*
G01X53842814Y-12452082D01*
G01X53868326Y-12459473D01*
G01X53868326Y-12459473D01*
G01X53927459Y-12492077D01*
G01X53945962Y-12509278D01*
G01X53945962Y-12509278D01*
G01X53973904Y-12569812D01*
G01X53977896Y-12603320D01*
G01X53977896Y-12603320D01*
G01X53977896Y-12603320D01*
G01X53961474Y-12675720D01*
G01X53931463Y-12719045D01*
G01X53916665Y-12732520D01*
G01X53916665Y-12732520D01*
G01X53852350Y-12763453D01*
G01X53796095Y-12775019D01*
G01X53771085Y-12776758D01*
G01X53771060Y-12776758D01*
G01X53771060Y-12776758D01*
G01X53696889Y-12767850D01*
G01X53650244Y-12753216D01*
G01X53640982Y-12749219D01*
G01X53640982Y-12749219D01*
G01X53589678Y-12701725D01*
G01X53584146Y-12681250D01*
G37*
G36*
G01X54090396Y-12074805D02*
G01X54090396Y-12074805D01*
G01X54109439Y-12029981D01*
G01X54109439Y-12029981D01*
G01X54153677Y-12011524D01*
G01X54153677Y-12011524D01*
G01X54195572Y-12029981D01*
G01X54195572Y-12029981D01*
G01X54213443Y-12074805D01*
G01X54213443Y-12074805D01*
G01X54194422Y-12121072D01*
G01X54194400Y-12121094D01*
G01X54194400Y-12121094D01*
G01X54151333Y-12139844D01*
G01X54151333Y-12139844D01*
G01X54108267Y-12121973D01*
G01X54108267Y-12121973D01*
G01X54090396Y-12074883D01*
G01X54090396Y-12074805D01*
G37*
G36*
G01X54105630Y-12207227D02*
G01X54105630Y-12207227D01*
G01X54146646Y-12203711D01*
G01X54146646Y-12203711D01*
G01X54200047Y-12234869D01*
G01X54202896Y-12248828D01*
G01X54202896Y-12248828D01*
G01X54200552Y-12298047D01*
G01X54200552Y-12298047D01*
G01X54197436Y-12363633D01*
G01X54195876Y-12402343D01*
G01X54195865Y-12402637D01*
G01X54195865Y-12402637D01*
G01X54193955Y-12475740D01*
G01X54193527Y-12518119D01*
G01X54193521Y-12521289D01*
G01X54193521Y-12521289D01*
G01X54196121Y-12611941D01*
G01X54202228Y-12680478D01*
G01X54209302Y-12727421D01*
G01X54214805Y-12753291D01*
G01X54216372Y-12759180D01*
G01X54216372Y-12759180D01*
G01X54170669Y-12768555D01*
G01X54170669Y-12768555D01*
G01X54123798Y-12753032D01*
G01X54123794Y-12753028D01*
G01X54123794Y-12753028D01*
G01X54111499Y-12700868D01*
G01X54111490Y-12700000D01*
G01X54111490Y-12700000D01*
G01X54112288Y-12641641D01*
G01X54112954Y-12605371D01*
G01X54112954Y-12605371D01*
G01X54114148Y-12527329D01*
G01X54114415Y-12490347D01*
G01X54114419Y-12487891D01*
G01X54114419Y-12487891D01*
G01X54113668Y-12401548D01*
G01X54111822Y-12329012D01*
G01X54109499Y-12271904D01*
G01X54107312Y-12231844D01*
G01X54105876Y-12210450D01*
G01X54105630Y-12207227D01*
G37*
G36*
G01X54354068Y-11876758D02*
G01X54354068Y-11876758D01*
G01X54396255Y-11873242D01*
G01X54396255Y-11873242D01*
G01X54448543Y-11904805D01*
G01X54451333Y-11918945D01*
G01X54451333Y-11918945D01*
G01X54449793Y-11975687D01*
G01X54449576Y-11983106D01*
G01X54449576Y-11983106D01*
G01X54447733Y-12047525D01*
G01X54446042Y-12108741D01*
G01X54445193Y-12139969D01*
G01X54445181Y-12140430D01*
G01X54445181Y-12140430D01*
G01X54443613Y-12214936D01*
G01X54442836Y-12279009D01*
G01X54442572Y-12322454D01*
G01X54442544Y-12335547D01*
G01X54442544Y-12522461D01*
G01X54442544Y-12522461D01*
G01X54445144Y-12612058D01*
G01X54451251Y-12680210D01*
G01X54458326Y-12727177D01*
G01X54463828Y-12753221D01*
G01X54465396Y-12759180D01*
G01X54465396Y-12759180D01*
G01X54420279Y-12768555D01*
G01X54420279Y-12768555D01*
G01X54373990Y-12754199D01*
G01X54373990Y-12754199D01*
G01X54361099Y-12706445D01*
G01X54361099Y-12706445D01*
G01X54361099Y-12706445D01*
G01X54361398Y-12656353D01*
G01X54361957Y-12588978D01*
G01X54362270Y-12553847D01*
G01X54362271Y-12553809D01*
G01X54362271Y-12553809D01*
G01X54362987Y-12464596D01*
G01X54363329Y-12403343D01*
G01X54363435Y-12369946D01*
G01X54363443Y-12363086D01*
G01X54363443Y-12223633D01*
G01X54363443Y-12223633D01*
G01X54362873Y-12110547D01*
G01X54361418Y-12023902D01*
G01X54359456Y-11960551D01*
G01X54357368Y-11917352D01*
G01X54355533Y-11891159D01*
G01X54354330Y-11878829D01*
G01X54354068Y-11876758D01*
G37*
G36*
G01X54609536Y-11876758D02*
G01X54609536Y-11876758D01*
G01X54651724Y-11873242D01*
G01X54651724Y-11873242D01*
G01X54704012Y-11904805D01*
G01X54706802Y-11918945D01*
G01X54706802Y-11918945D01*
G01X54705084Y-11972869D01*
G01X54705044Y-11974024D01*
G01X54705044Y-11974024D01*
G01X54702853Y-12039412D01*
G01X54701057Y-12095094D01*
G01X54700650Y-12107910D01*
G01X54700650Y-12107910D01*
G01X54698917Y-12180866D01*
G01X54698182Y-12240358D01*
G01X54698016Y-12272766D01*
G01X54698013Y-12275195D01*
G01X54698013Y-12275195D01*
G01X54762603Y-12228787D01*
G01X54821866Y-12204956D01*
G01X54865197Y-12196176D01*
G01X54881997Y-12194922D01*
G01X54881997Y-12194922D01*
G01X54881997Y-12194922D01*
G01X54955989Y-12209365D01*
G01X54994774Y-12232396D01*
G01X55000650Y-12237695D01*
G01X55000650Y-12237695D01*
G01X55034221Y-12298449D01*
G01X55041302Y-12340036D01*
G01X55041372Y-12342578D01*
G01X55041372Y-12342578D01*
G01X55027504Y-12414003D01*
G01X55004063Y-12458914D01*
G01X54996548Y-12469141D01*
G01X54996548Y-12469141D01*
G01X54941252Y-12510294D01*
G01X54889540Y-12527912D01*
G01X54870865Y-12531250D01*
G01X54870865Y-12531250D01*
G01X54921022Y-12610211D01*
G01X54950328Y-12651200D01*
G01X54960972Y-12664123D01*
G01X54961099Y-12664258D01*
G01X54961099Y-12664258D01*
G01X55019227Y-12700265D01*
G01X55035513Y-12702930D01*
G01X55035513Y-12702930D01*
G01X55066568Y-12697656D01*
G01X55066568Y-12697656D01*
G01X55077701Y-12732813D01*
G01X55077701Y-12732813D01*
G01X55052505Y-12765625D01*
G01X55052505Y-12765625D01*
G01X55004458Y-12776758D01*
G01X55004458Y-12776758D01*
G01X54942579Y-12754730D01*
G01X54917740Y-12733985D01*
G01X54917740Y-12733985D01*
G01X54887564Y-12697949D01*
G01X54887564Y-12697949D01*
G01X54857754Y-12654996D01*
G01X54857681Y-12654883D01*
G01X54857681Y-12654883D01*
G01X54832486Y-12614453D01*
G01X54832486Y-12614453D01*
G01X54805200Y-12568300D01*
G01X54804947Y-12567871D01*
G01X54804947Y-12567871D01*
G01X54781216Y-12527149D01*
G01X54781216Y-12527149D01*
G01X54749576Y-12501953D01*
G01X54749576Y-12501953D01*
G01X54756021Y-12473242D01*
G01X54756021Y-12473242D01*
G01X54814828Y-12481933D01*
G01X54816958Y-12482031D01*
G01X54816958Y-12482031D01*
G01X54888604Y-12465913D01*
G01X54918516Y-12446076D01*
G01X54919204Y-12445410D01*
G01X54919204Y-12445410D01*
G01X54951732Y-12385454D01*
G01X54955240Y-12360742D01*
G01X54955240Y-12360742D01*
G01X54936901Y-12299806D01*
G01X54930630Y-12291016D01*
G01X54930630Y-12291016D01*
G01X54875091Y-12263536D01*
G01X54861490Y-12262305D01*
G01X54861490Y-12262305D01*
G01X54798268Y-12276814D01*
G01X54776236Y-12286914D01*
G01X54776236Y-12286914D01*
G01X54719270Y-12327639D01*
G01X54698013Y-12348438D01*
G01X54698013Y-12522461D01*
G01X54698013Y-12522461D01*
G01X54700613Y-12612058D01*
G01X54706720Y-12680210D01*
G01X54713794Y-12727177D01*
G01X54719297Y-12753221D01*
G01X54720865Y-12759180D01*
G01X54720865Y-12759180D01*
G01X54675747Y-12768555D01*
G01X54675747Y-12768555D01*
G01X54629458Y-12754199D01*
G01X54629458Y-12754199D01*
G01X54616568Y-12706445D01*
G01X54616568Y-12706445D01*
G01X54616568Y-12706445D01*
G01X54616866Y-12656353D01*
G01X54617425Y-12588978D01*
G01X54617739Y-12553847D01*
G01X54617740Y-12553809D01*
G01X54617740Y-12553809D01*
G01X54618456Y-12464596D01*
G01X54618797Y-12403343D01*
G01X54618903Y-12369946D01*
G01X54618911Y-12363086D01*
G01X54618911Y-12223633D01*
G01X54618911Y-12223633D01*
G01X54618342Y-12110547D01*
G01X54616886Y-12023902D01*
G01X54614925Y-11960551D01*
G01X54612836Y-11917352D01*
G01X54611001Y-11891159D01*
G01X54609799Y-11878829D01*
G01X54609536Y-11876758D01*
G37*
G36*
G01X55157388Y-12681250D02*
G01X55157388Y-12681250D01*
G01X55195366Y-12637147D01*
G01X55211294Y-12630860D01*
G01X55211294Y-12630860D01*
G01X55252195Y-12680156D01*
G01X55268423Y-12689746D01*
G01X55268423Y-12689746D01*
G01X55334575Y-12707726D01*
G01X55363638Y-12709961D01*
G01X55363638Y-12709961D01*
G01X55431146Y-12695817D01*
G01X55447134Y-12687110D01*
G01X55447134Y-12687110D01*
G01X55477450Y-12632234D01*
G01X55479068Y-12616211D01*
G01X55479068Y-12616211D01*
G01X55451769Y-12564434D01*
G01X55447134Y-12561133D01*
G01X55447134Y-12561133D01*
G01X55387018Y-12536152D01*
G01X55369790Y-12531543D01*
G01X55369790Y-12531543D01*
G01X55303212Y-12514578D01*
G01X55278677Y-12507520D01*
G01X55278677Y-12507520D01*
G01X55220317Y-12474265D01*
G01X55201040Y-12455371D01*
G01X55201040Y-12455371D01*
G01X55173861Y-12393910D01*
G01X55169114Y-12354376D01*
G01X55169107Y-12353711D01*
G01X55169107Y-12353711D01*
G01X55189102Y-12286198D01*
G01X55221950Y-12246881D01*
G01X55230923Y-12239453D01*
G01X55230923Y-12239453D01*
G01X55295868Y-12207725D01*
G01X55349811Y-12196381D01*
G01X55370669Y-12194922D01*
G01X55370669Y-12194922D01*
G01X55439286Y-12205263D01*
G01X55478867Y-12219116D01*
G01X55481119Y-12220117D01*
G01X55481119Y-12220117D01*
G01X55530042Y-12267792D01*
G01X55535318Y-12289844D01*
G01X55535318Y-12289844D01*
G01X55497340Y-12334530D01*
G01X55481411Y-12340235D01*
G01X55481411Y-12340235D01*
G01X55440494Y-12292443D01*
G01X55427212Y-12283985D01*
G01X55427212Y-12283985D01*
G01X55362816Y-12264029D01*
G01X55341958Y-12262305D01*
G01X55341958Y-12262305D01*
G01X55280149Y-12278897D01*
G01X55271060Y-12284570D01*
G01X55271060Y-12284570D01*
G01X55241984Y-12337932D01*
G01X55241177Y-12347266D01*
G01X55241177Y-12347266D01*
G01X55268121Y-12399753D01*
G01X55273111Y-12403516D01*
G01X55273111Y-12403516D01*
G01X55332426Y-12429735D01*
G01X55350454Y-12434863D01*
G01X55350454Y-12434863D01*
G01X55416056Y-12452082D01*
G01X55441568Y-12459473D01*
G01X55441568Y-12459473D01*
G01X55500701Y-12492077D01*
G01X55519204Y-12509278D01*
G01X55519204Y-12509278D01*
G01X55547146Y-12569812D01*
G01X55551138Y-12603320D01*
G01X55551138Y-12603320D01*
G01X55551138Y-12603320D01*
G01X55534717Y-12675720D01*
G01X55504705Y-12719045D01*
G01X55489908Y-12732520D01*
G01X55489908Y-12732520D01*
G01X55425592Y-12763453D01*
G01X55369337Y-12775019D01*
G01X55344327Y-12776758D01*
G01X55344302Y-12776758D01*
G01X55344302Y-12776758D01*
G01X55270132Y-12767850D01*
G01X55223486Y-12753216D01*
G01X55214224Y-12749219D01*
G01X55214224Y-12749219D01*
G01X55162920Y-12701725D01*
G01X55157388Y-12681250D01*
G37*
G36*
G01X55653677Y-12492578D02*
G01X55653677Y-12492578D01*
G01X55661110Y-12417492D01*
G01X55673673Y-12368819D01*
G01X55677701Y-12357520D01*
G01X55677701Y-12357520D01*
G01X55713738Y-12294543D01*
G01X55739661Y-12265516D01*
G01X55741275Y-12264063D01*
G01X55741275Y-12264063D01*
G01X55799408Y-12225024D01*
G01X55825943Y-12212500D01*
G01X55825943Y-12212500D01*
G01X55892912Y-12196633D01*
G01X55917935Y-12194922D01*
G01X55917935Y-12194922D01*
G01X55988080Y-12205415D01*
G01X56030195Y-12220572D01*
G01X56034244Y-12222461D01*
G01X56034244Y-12222461D01*
G01X56082693Y-12271753D01*
G01X56089615Y-12300391D01*
G01X56089615Y-12300391D01*
G01X56089615Y-12300391D01*
G01X56052026Y-12346291D01*
G01X56031607Y-12351953D01*
G01X56031607Y-12351953D01*
G01X55996010Y-12296919D01*
G01X55980923Y-12285449D01*
G01X55980923Y-12285449D01*
G01X55918007Y-12264020D01*
G01X55898599Y-12262305D01*
G01X55898599Y-12262305D01*
G01X55832398Y-12281542D01*
G01X55792828Y-12313145D01*
G01X55785220Y-12321778D01*
G01X55785220Y-12321778D01*
G01X55754334Y-12383557D01*
G01X55741748Y-12442602D01*
G01X55739240Y-12475399D01*
G01X55739224Y-12476758D01*
G01X55739224Y-12476758D01*
G01X55747945Y-12560288D01*
G01X55766452Y-12616840D01*
G01X55783257Y-12647246D01*
G01X55787857Y-12653418D01*
G01X55787857Y-12653418D01*
G01X55846422Y-12695139D01*
G01X55897496Y-12708720D01*
G01X55913247Y-12709961D01*
G01X55913247Y-12709961D01*
G01X55975431Y-12698391D01*
G01X55986197Y-12694434D01*
G01X55986197Y-12694434D01*
G01X56034802Y-12654519D01*
G01X56039224Y-12647266D01*
G01X56039224Y-12647266D01*
G01X56085632Y-12688998D01*
G01X56086685Y-12695313D01*
G01X56086685Y-12695313D01*
G01X56052956Y-12745080D01*
G01X56032193Y-12755957D01*
G01X56032193Y-12755957D01*
G01X55965340Y-12772265D01*
G01X55916711Y-12776592D01*
G01X55909146Y-12776758D01*
G01X55909146Y-12776758D01*
G01X55832046Y-12764823D01*
G01X55773397Y-12739028D01*
G01X55737155Y-12714387D01*
G01X55726919Y-12705567D01*
G01X55726919Y-12705567D01*
G01X55688434Y-12650590D01*
G01X55666540Y-12588680D01*
G01X55656556Y-12533405D01*
G01X55653804Y-12498337D01*
G01X55653677Y-12492578D01*
G37*
G36*
G01X56207974Y-12207227D02*
G01X56207974Y-12207227D01*
G01X56248990Y-12203711D01*
G01X56248990Y-12203711D01*
G01X56298525Y-12236728D01*
G01X56300552Y-12248828D01*
G01X56300552Y-12248828D01*
G01X56299966Y-12265235D01*
G01X56299966Y-12265235D01*
G01X56299380Y-12291016D01*
G01X56299380Y-12291016D01*
G01X56343537Y-12241128D01*
G01X56363540Y-12224512D01*
G01X56363540Y-12224512D01*
G01X56425782Y-12196961D01*
G01X56442935Y-12194922D01*
G01X56442935Y-12194922D01*
G01X56486294Y-12207520D01*
G01X56486294Y-12207520D01*
G01X56502115Y-12241797D01*
G01X56502115Y-12241797D01*
G01X56479739Y-12293479D01*
G01X56478091Y-12295703D01*
G01X56478091Y-12295703D01*
G01X56423928Y-12273063D01*
G01X56420083Y-12272852D01*
G01X56420083Y-12272852D01*
G01X56361694Y-12293188D01*
G01X56352994Y-12299219D01*
G01X56352994Y-12299219D01*
G01X56308700Y-12348903D01*
G01X56296451Y-12368945D01*
G01X56296451Y-12368945D01*
G01X56295631Y-12425994D01*
G01X56295325Y-12489820D01*
G01X56295279Y-12521256D01*
G01X56295279Y-12521289D01*
G01X56295279Y-12521289D01*
G01X56297879Y-12611941D01*
G01X56303986Y-12680478D01*
G01X56311060Y-12727421D01*
G01X56316562Y-12753291D01*
G01X56318130Y-12759180D01*
G01X56318130Y-12759180D01*
G01X56272427Y-12768555D01*
G01X56272427Y-12768555D01*
G01X56225845Y-12753028D01*
G01X56225845Y-12753028D01*
G01X56225845Y-12753028D01*
G01X56213842Y-12700868D01*
G01X56213833Y-12700000D01*
G01X56213833Y-12700000D01*
G01X56214472Y-12641641D01*
G01X56215005Y-12605371D01*
G01X56215005Y-12605371D01*
G01X56215960Y-12527329D01*
G01X56216174Y-12490347D01*
G01X56216177Y-12487891D01*
G01X56216177Y-12487891D01*
G01X56215475Y-12401548D01*
G01X56213753Y-12329012D01*
G01X56211584Y-12271904D01*
G01X56209543Y-12231844D01*
G01X56208204Y-12210450D01*
G01X56207974Y-12207227D01*
G37*
G36*
G01X56567740Y-12489063D02*
G01X56567740Y-12489063D01*
G01X56577649Y-12405118D01*
G01X56600566Y-12340904D01*
G01X56626270Y-12297096D01*
G01X56644541Y-12274366D01*
G01X56647720Y-12271094D01*
G01X56647720Y-12271094D01*
G01X56710804Y-12227057D01*
G01X56771609Y-12204444D01*
G01X56817418Y-12196112D01*
G01X56835513Y-12194922D01*
G01X56835513Y-12194922D01*
G01X56835513Y-12194922D01*
G01X56910984Y-12208294D01*
G01X56957924Y-12232131D01*
G01X56971451Y-12242383D01*
G01X56971451Y-12242383D01*
G01X57012335Y-12302074D01*
G01X57023182Y-12346689D01*
G01X57023599Y-12353711D01*
G01X57023599Y-12353711D01*
G01X57012066Y-12419658D01*
G01X57006900Y-12431641D01*
G01X57006900Y-12431641D01*
G01X56967391Y-12477543D01*
G01X56963247Y-12480567D01*
G01X56963247Y-12480567D01*
G01X56904129Y-12503781D01*
G01X56885318Y-12508106D01*
G01X56885318Y-12508106D01*
G01X56816104Y-12517737D01*
G01X56785122Y-12520117D01*
G01X56785122Y-12520117D01*
G01X56785122Y-12520117D01*
G01X56719970Y-12521929D01*
G01X56666101Y-12522436D01*
G01X56655630Y-12522461D01*
G01X56655630Y-12522461D01*
G01X56673703Y-12597424D01*
G01X56696912Y-12644207D01*
G01X56707486Y-12659278D01*
G01X56707486Y-12659278D01*
G01X56764291Y-12697882D01*
G01X56813993Y-12709260D01*
G01X56825552Y-12709961D01*
G01X56825552Y-12709961D01*
G01X56900943Y-12693147D01*
G01X56941757Y-12662417D01*
G01X56953286Y-12647266D01*
G01X56953286Y-12647266D01*
G01X56999450Y-12689978D01*
G01X57000747Y-12697656D01*
G01X57000747Y-12697656D01*
G01X56965436Y-12745160D01*
G01X56946255Y-12755078D01*
G01X56946255Y-12755078D01*
G01X56878262Y-12772305D01*
G01X56830462Y-12776632D01*
G01X56824380Y-12776758D01*
G01X56824380Y-12776758D01*
G01X56747787Y-12765634D01*
G01X56689541Y-12741162D01*
G01X56652499Y-12716690D01*
G01X56639517Y-12705567D01*
G01X56639517Y-12705567D01*
G01X56639517Y-12705567D01*
G01X56601802Y-12650154D01*
G01X56580345Y-12587237D01*
G01X56570561Y-12530832D01*
G01X56567864Y-12494961D01*
G01X56567740Y-12489063D01*
G37*
%LPC*%
G36*
G01X56654458Y-12462695D02*
G01X56654458Y-12462695D01*
G01X56724718Y-12461953D01*
G01X56740591Y-12461524D01*
G01X56740591Y-12461524D01*
G01X56803550Y-12455895D01*
G01X56816177Y-12454199D01*
G01X56816177Y-12454199D01*
G01X56877249Y-12439272D01*
G01X56882388Y-12437207D01*
G01X56882388Y-12437207D01*
G01X56923650Y-12406206D01*
G01X56923697Y-12406153D01*
G01X56923697Y-12406153D01*
G01X56940976Y-12356481D01*
G01X56940982Y-12356055D01*
G01X56940982Y-12356055D01*
G01X56917827Y-12298321D01*
G01X56909341Y-12289258D01*
G01X56909341Y-12289258D01*
G01X56850184Y-12263071D01*
G01X56830826Y-12261133D01*
G01X56830826Y-12261133D01*
G01X56761004Y-12276361D01*
G01X56717591Y-12302100D01*
G01X56707779Y-12310352D01*
G01X56707779Y-12310352D01*
G01X56673012Y-12366988D01*
G01X56658014Y-12426638D01*
G01X56654509Y-12461233D01*
G01X56654458Y-12462695D01*
G37*
%LPD*%
G36*
G01X57131411Y-12489063D02*
G01X57131411Y-12489063D01*
G01X57141321Y-12405118D01*
G01X57164238Y-12340904D01*
G01X57189942Y-12297096D01*
G01X57208213Y-12274366D01*
G01X57211392Y-12271094D01*
G01X57211392Y-12271094D01*
G01X57274476Y-12227057D01*
G01X57335281Y-12204444D01*
G01X57381090Y-12196112D01*
G01X57399185Y-12194922D01*
G01X57399185Y-12194922D01*
G01X57399185Y-12194922D01*
G01X57474656Y-12208294D01*
G01X57521596Y-12232131D01*
G01X57535122Y-12242383D01*
G01X57535122Y-12242383D01*
G01X57576007Y-12302074D01*
G01X57586854Y-12346689D01*
G01X57587271Y-12353711D01*
G01X57587271Y-12353711D01*
G01X57575738Y-12419658D01*
G01X57570572Y-12431641D01*
G01X57570572Y-12431641D01*
G01X57531062Y-12477543D01*
G01X57526919Y-12480567D01*
G01X57526919Y-12480567D01*
G01X57467801Y-12503781D01*
G01X57448990Y-12508106D01*
G01X57448990Y-12508106D01*
G01X57379776Y-12517737D01*
G01X57348794Y-12520117D01*
G01X57348794Y-12520117D01*
G01X57348794Y-12520117D01*
G01X57283642Y-12521929D01*
G01X57229772Y-12522436D01*
G01X57219302Y-12522461D01*
G01X57219302Y-12522461D01*
G01X57237375Y-12597424D01*
G01X57260584Y-12644207D01*
G01X57271158Y-12659278D01*
G01X57271158Y-12659278D01*
G01X57327962Y-12697882D01*
G01X57377665Y-12709260D01*
G01X57389224Y-12709961D01*
G01X57389224Y-12709961D01*
G01X57464615Y-12693147D01*
G01X57505429Y-12662417D01*
G01X57516958Y-12647266D01*
G01X57516958Y-12647266D01*
G01X57563122Y-12689978D01*
G01X57564419Y-12697656D01*
G01X57564419Y-12697656D01*
G01X57529108Y-12745160D01*
G01X57509927Y-12755078D01*
G01X57509927Y-12755078D01*
G01X57441933Y-12772305D01*
G01X57394134Y-12776632D01*
G01X57388052Y-12776758D01*
G01X57388052Y-12776758D01*
G01X57311459Y-12765634D01*
G01X57253213Y-12741162D01*
G01X57216171Y-12716690D01*
G01X57203189Y-12705567D01*
G01X57203189Y-12705567D01*
G01X57203189Y-12705567D01*
G01X57165474Y-12650154D01*
G01X57144017Y-12587237D01*
G01X57134233Y-12530832D01*
G01X57131536Y-12494961D01*
G01X57131411Y-12489063D01*
G37*
%LPC*%
G36*
G01X57218130Y-12462695D02*
G01X57218130Y-12462695D01*
G01X57288389Y-12461953D01*
G01X57304263Y-12461524D01*
G01X57304263Y-12461524D01*
G01X57367222Y-12455895D01*
G01X57379849Y-12454199D01*
G01X57379849Y-12454199D01*
G01X57440921Y-12439272D01*
G01X57446060Y-12437207D01*
G01X57446060Y-12437207D01*
G01X57487322Y-12406206D01*
G01X57487369Y-12406153D01*
G01X57487369Y-12406153D01*
G01X57504648Y-12356481D01*
G01X57504654Y-12356055D01*
G01X57504654Y-12356055D01*
G01X57481499Y-12298321D01*
G01X57473013Y-12289258D01*
G01X57473013Y-12289258D01*
G01X57413856Y-12263071D01*
G01X57394497Y-12261133D01*
G01X57394497Y-12261133D01*
G01X57324676Y-12276361D01*
G01X57281263Y-12302100D01*
G01X57271451Y-12310352D01*
G01X57271451Y-12310352D01*
G01X57236684Y-12366988D01*
G01X57221686Y-12426638D01*
G01X57218181Y-12461233D01*
G01X57218130Y-12462695D01*
G37*
%LPD*%
G36*
G01X57713247Y-12213086D02*
G01X57713247Y-12213086D01*
G01X57756607Y-12203711D01*
G01X57756607Y-12203711D01*
G01X57806666Y-12238061D01*
G01X57811685Y-12263477D01*
G01X57811685Y-12263477D01*
G01X57868978Y-12230171D01*
G01X57903704Y-12215527D01*
G01X57903970Y-12215430D01*
G01X57903970Y-12215430D01*
G01X57974029Y-12198334D01*
G01X58012853Y-12194943D01*
G01X58014419Y-12194922D01*
G01X58014419Y-12194922D01*
G01X58087183Y-12209630D01*
G01X58125894Y-12231626D01*
G01X58130142Y-12235059D01*
G01X58130142Y-12235059D01*
G01X58163216Y-12290991D01*
G01X58173982Y-12346340D01*
G01X58174966Y-12364258D01*
G01X58174966Y-12364258D01*
G01X58173878Y-12418473D01*
G01X58173208Y-12450684D01*
G01X58173208Y-12450684D01*
G01X58171830Y-12531867D01*
G01X58171465Y-12572943D01*
G01X58171451Y-12578125D01*
G01X58171451Y-12578125D01*
G01X58175374Y-12660728D01*
G01X58183541Y-12720697D01*
G01X58190551Y-12753864D01*
G01X58191958Y-12759180D01*
G01X58191958Y-12759180D01*
G01X58145083Y-12768555D01*
G01X58145083Y-12768555D01*
G01X58100259Y-12754785D01*
G01X58100259Y-12754785D01*
G01X58086490Y-12707617D01*
G01X58086490Y-12707617D01*
G01X58086490Y-12707617D01*
G01X58087294Y-12650627D01*
G01X58088868Y-12584183D01*
G01X58089956Y-12544106D01*
G01X58090005Y-12542383D01*
G01X58090005Y-12542383D01*
G01X58092555Y-12447209D01*
G01X58093426Y-12404964D01*
G01X58093521Y-12396485D01*
G01X58093521Y-12396485D01*
G01X58078456Y-12323935D01*
G01X58060759Y-12296064D01*
G01X58060415Y-12295703D01*
G01X58060415Y-12295703D01*
G01X58001664Y-12265556D01*
G01X57975747Y-12262305D01*
G01X57975747Y-12262305D01*
G01X57907353Y-12275780D01*
G01X57851374Y-12303288D01*
G01X57819042Y-12325450D01*
G01X57815201Y-12328516D01*
G01X57815201Y-12328516D01*
G01X57816432Y-12423562D01*
G01X57817133Y-12493585D01*
G01X57817452Y-12539595D01*
G01X57817540Y-12562604D01*
G01X57817544Y-12565820D01*
G01X57817544Y-12565820D01*
G01X57818723Y-12648826D01*
G01X57821271Y-12712692D01*
G01X57823704Y-12752534D01*
G01X57824576Y-12763867D01*
G01X57824576Y-12763867D01*
G01X57784146Y-12767383D01*
G01X57784146Y-12767383D01*
G01X57732755Y-12735185D01*
G01X57730240Y-12721680D01*
G01X57730240Y-12721680D01*
G01X57732010Y-12666907D01*
G01X57733169Y-12633496D01*
G01X57733169Y-12633496D01*
G01X57735137Y-12558533D01*
G01X57735938Y-12498688D01*
G01X57736098Y-12468569D01*
G01X57736099Y-12467383D01*
G01X57736099Y-12467383D01*
G01X57733722Y-12365336D01*
G01X57728055Y-12292820D01*
G01X57721291Y-12245899D01*
G01X57715624Y-12220633D01*
G01X57713247Y-12213086D01*
G01X57713247Y-12213086D01*
G37*

G04 Pad flashes *
%LPD*%
D11*

G04 end of program *
M02*
